<svg width="80" height="54" viewBox="0 0 80 54" fill="none" xmlns="http://www.w3.org/2000/svg">
<path d="M54.5768 53.4395H51.2605V41.5957H53.1555C61.1146 41.5957 65.5363 37.2371 66.4206 28.52C65.2836 29.0885 64.0518 29.3728 62.7253 29.3728C58.7458 29.3728 55.3663 27.9831 52.587 25.2037C49.8708 22.4244 48.5127 18.9502 48.5127 14.7811C48.5127 10.6753 49.934 7.20107 52.7765 4.35854C55.619 1.45285 59.0616 0 63.1043 0C68.1577 0 72.1373 2.08452 75.043 6.25356C77.9487 10.4226 79.4015 15.9182 79.4015 22.7402C79.4015 32.847 77.1906 40.4902 72.7689 45.6699C68.3472 50.8497 62.2832 53.4395 54.5768 53.4395Z" fill="#EEEEEE"/>
<path d="M6.06406 53.4395H2.74778V41.5957H4.6428C12.6019 41.5957 17.0236 37.2371 17.9079 28.52C16.7709 29.0885 15.5392 29.3728 14.2126 29.3728C10.2331 29.3728 6.85365 27.9831 4.07429 25.2037C1.3581 22.4244 0 18.9502 0 14.7811C0 10.6753 1.42126 7.20107 4.26379 4.35854C7.10632 1.45285 10.5489 0 14.5916 0C19.645 0 23.6246 2.08452 26.5303 6.25356C29.436 10.4226 30.8888 15.9182 30.8888 22.7402C30.8888 32.847 28.6779 40.4902 24.2562 45.6699C19.8345 50.8497 13.7705 53.4395 6.06406 53.4395Z" fill="#EEEEEE"/>
</svg>
