<svg width="88" height="88" viewBox="0 0 88 88" fill="none" xmlns="http://www.w3.org/2000/svg">
<rect width="88" height="88" rx="32" fill="#FEF3E6"/>
<path d="M43.2578 39.1631C45.4477 38.6424 47.342 40.5367 46.8213 42.7266L46.8203 42.7295C46.5861 43.7307 45.7561 44.5681 44.7275 44.8203C42.5377 45.3411 40.6423 43.4457 41.1631 41.2559C41.4145 40.2484 42.2493 39.4135 43.2568 39.1621L43.2578 39.1631Z" fill="#F7951D" stroke="#F7951D" stroke-width="1.5"/>
<path d="M44 26.8333C52.3523 26.8335 59.1494 33.6313 59.1494 41.9836C59.1493 46.2069 57.4536 50.1085 54.3711 53.0178C54.1652 53.21 53.841 53.1932 53.665 53.0051C53.4728 52.7991 53.4894 52.474 53.6777 52.2981L53.6797 52.2971C56.5628 49.5898 58.1493 45.942 58.1494 42.0002C58.1494 34.2028 51.7974 27.8501 44 27.8499C36.2025 27.8499 29.8496 34.2027 29.8496 42.0002C29.8497 45.8521 31.3555 49.4123 34.1035 52.093L34.373 52.3499C34.5696 52.5351 34.5787 52.8501 34.4092 53.0432C34.3016 53.1463 34.1648 53.1994 34.0332 53.1995C33.916 53.1995 33.7832 53.1501 33.6934 53.0667C30.6126 50.2082 28.8497 46.1742 28.8496 41.9836C28.8496 33.6312 35.6475 26.8333 44 26.8333Z" fill="#F7951D" stroke="#F7951D" stroke-width="1.5"/>
<path d="M50.6672 49.5001C50.3672 49.5001 50.0505 49.3834 49.8172 49.1668C49.3172 48.7001 49.2839 47.9001 49.7672 47.4001C51.1505 45.9334 51.9172 44.0001 51.9172 42.0001C51.9172 37.6334 48.3672 34.1001 44.0172 34.1001C39.6672 34.1001 36.1172 37.6501 36.1172 42.0001C36.1172 44.0168 36.8839 45.9334 38.2672 47.4001C38.7339 47.9001 38.7172 48.7001 38.2172 49.1668C37.7172 49.6501 36.9172 49.6168 36.4505 49.1168C34.6339 47.1834 33.6172 44.6501 33.6172 42.0001C33.6172 36.2668 38.2839 31.6001 44.0172 31.6001C49.7505 31.6001 54.4172 36.2668 54.4172 42.0001C54.4172 44.6501 53.4172 47.1834 51.5839 49.1168C51.3339 49.3668 51.0005 49.5001 50.6672 49.5001Z" fill="#F7951D"/>
<path d="M41.1668 51.7667L38.7668 54.75C36.8668 57.1333 38.5668 60.6667 41.6001 60.6667H46.3835C49.4335 60.6667 51.1335 57.1333 49.2168 54.7667L46.8168 51.7833C45.3835 49.95 42.6168 49.95 41.1668 51.7667Z" fill="#F7951D"/>
</svg>
