<svg width="88" height="88" viewBox="0 0 88 88" fill="none" xmlns="http://www.w3.org/2000/svg">
<rect width="88" height="88" rx="32" fill="#FEF3E6"/>
<path d="M44.001 30.4666C49.6214 30.4667 55.0387 33.7667 58.7842 39.6521L58.7852 39.6531C59.525 40.8149 59.917 42.3875 59.917 43.9978C59.917 45.6085 59.5249 47.1764 58.7861 48.3289L58.7852 48.3298C56.9055 51.2789 54.6171 53.5773 52.0918 55.1443C49.5664 56.6947 46.8175 57.5163 44.001 57.5164C38.3795 57.5164 32.9616 54.2326 29.2168 48.3318V48.3298L29.082 48.1082C28.4289 46.9724 28.084 45.4994 28.084 43.9919C28.084 42.384 28.4766 40.8152 29.2168 39.6531C31.0971 36.7029 33.3857 34.4037 35.9121 32.8367C38.4368 31.2873 41.1854 30.4666 44.001 30.4666ZM44.001 36.5164C39.8523 36.5164 36.5176 39.8701 36.5176 43.9998C36.5176 48.1294 39.8522 51.4832 44.001 51.4832C48.1496 51.483 51.4844 48.1293 51.4844 43.9998C51.4843 39.8703 48.1495 36.5165 44.001 36.5164Z" fill="#F7951D" stroke="#F7951D" stroke-width="1.5"/>
<path d="M44 39.9834C46.2024 39.9834 48.0166 41.7976 48.0166 44C48.0166 46.199 46.2059 48 44 48C41.7975 48 40 46.2025 40 44C40 41.7792 41.7993 39.9834 44 39.9834Z" fill="#F7951D" stroke="#F7951D" stroke-width="1.5"/>
</svg>
