<svg width="20" height="20" viewBox="0 0 20 20" fill="none" xmlns="http://www.w3.org/2000/svg">
<path d="M7.97559 4.81885C8.01127 4.81894 8.04203 4.83256 8.06348 4.854C8.08485 4.87552 8.09766 4.90619 8.09766 4.94189C8.09762 4.97762 8.0849 5.00829 8.06348 5.02979L3.09277 10.0005L3.44629 10.354L8.06348 14.9702C8.08492 14.9917 8.09758 15.0224 8.09766 15.0581C8.09766 15.094 8.085 15.1254 8.06348 15.147L8.05176 15.1587C8.04849 15.1622 8.04118 15.1688 8.02734 15.1743C8.01284 15.1801 7.99437 15.1831 7.97559 15.1831C7.95799 15.1831 7.94199 15.1806 7.92871 15.1753C7.91586 15.1701 7.90139 15.1616 7.88672 15.147L2.8291 10.0884C2.80765 10.0669 2.79404 10.0362 2.79395 10.0005C2.79395 9.96464 2.80757 9.93315 2.8291 9.91162L7.88672 4.854C7.90825 4.83248 7.93973 4.81885 7.97559 4.81885Z" fill="#1D1F1F" stroke="#1D1F1F"/>
<path d="M3.05811 9.875H17.0835C17.1135 9.87511 17.1449 9.88755 17.1704 9.91309C17.1959 9.93869 17.2085 9.96993 17.2085 10C17.2085 10.0301 17.1959 10.0613 17.1704 10.0869C17.1449 10.1124 17.1135 10.1249 17.0835 10.125H3.05811C3.02796 10.125 2.99684 10.1126 2.97119 10.0869C2.94555 10.0613 2.93311 10.0301 2.93311 10C2.93311 9.96985 2.94555 9.93873 2.97119 9.91309C2.99684 9.88744 3.02796 9.875 3.05811 9.875Z" fill="#1D1F1F" stroke="#1D1F1F"/>
</svg>
