<svg width="16" height="16" viewBox="0 0 16 16" fill="none" xmlns="http://www.w3.org/2000/svg">
<mask id="path-1-inside-1_10768_26888" fill="white">
<path d="M8.00001 11.2C7.53335 11.2 7.06668 11.02 6.71335 10.6667L2.36668 6.32C2.17335 6.12666 2.17335 5.80666 2.36668 5.61333C2.56001 5.42 2.88001 5.42 3.07335 5.61333L7.42001 9.96C7.74001 10.28 8.26001 10.28 8.58001 9.96L12.9267 5.61333C13.12 5.42 13.44 5.42 13.6333 5.61333C13.8267 5.80666 13.8267 6.12666 13.6333 6.32L9.28668 10.6667C8.93335 11.02 8.46668 11.2 8.00001 11.2Z"/>
</mask>
<path d="M8.00001 11.2C7.53335 11.2 7.06668 11.02 6.71335 10.6667L2.36668 6.32C2.17335 6.12666 2.17335 5.80666 2.36668 5.61333C2.56001 5.42 2.88001 5.42 3.07335 5.61333L7.42001 9.96C7.74001 10.28 8.26001 10.28 8.58001 9.96L12.9267 5.61333C13.12 5.42 13.44 5.42 13.6333 5.61333C13.8267 5.80666 13.8267 6.12666 13.6333 6.32L9.28668 10.6667C8.93335 11.02 8.46668 11.2 8.00001 11.2Z" fill="#163A96"/>
<path d="M6.71335 10.6667L5.65269 11.7273V11.7273L6.71335 10.6667ZM2.36668 6.32L3.42734 5.25934V5.25934L2.36668 6.32ZM3.07335 5.61333L2.01269 6.67399L3.07335 5.61333ZM7.42001 9.96L8.48067 8.89934L7.42001 9.96ZM8.58001 9.96L9.64067 11.0207V11.0207L8.58001 9.96ZM12.9267 5.61333L11.866 4.55267V4.55267L12.9267 5.61333ZM13.6333 6.32L12.5727 5.25934L12.5727 5.25934L13.6333 6.32ZM9.28668 10.6667L10.3473 11.7273V11.7273L9.28668 10.6667ZM8.00001 9.7C7.91741 9.7 7.83645 9.66845 7.77401 9.606L5.65269 11.7273C6.29691 12.3715 7.14928 12.7 8.00001 12.7V9.7ZM7.77401 9.606L3.42734 5.25934L1.30602 7.38066L5.65269 11.7273L7.77401 9.606ZM3.42734 5.25934C3.81979 5.65179 3.81979 6.28154 3.42734 6.67399L1.30602 4.55267C0.5269 5.33179 0.5269 6.60154 1.30602 7.38066L3.42734 5.25934ZM3.42734 6.67399C3.03489 7.06644 2.40514 7.06644 2.01269 6.67399L4.13401 4.55267C3.35489 3.77355 2.08514 3.77355 1.30602 4.55267L3.42734 6.67399ZM2.01269 6.67399L6.35935 11.0207L8.48067 8.89934L4.13401 4.55267L2.01269 6.67399ZM6.35935 11.0207C7.26514 11.9264 8.73489 11.9264 9.64067 11.0207L7.51935 8.89934C7.78514 8.63355 8.21489 8.63355 8.48067 8.89934L6.35935 11.0207ZM9.64067 11.0207L13.9873 6.67399L11.866 4.55267L7.51935 8.89934L9.64067 11.0207ZM13.9873 6.67399C13.5949 7.06644 12.9651 7.06644 12.5727 6.67399L14.694 4.55267C13.9149 3.77355 12.6451 3.77355 11.866 4.55267L13.9873 6.67399ZM12.5727 6.67399C12.1802 6.28154 12.1802 5.65179 12.5727 5.25934L14.694 7.38066C15.4731 6.60154 15.4731 5.33179 14.694 4.55267L12.5727 6.67399ZM12.5727 5.25934L8.22602 9.606L10.3473 11.7273L14.694 7.38066L12.5727 5.25934ZM8.22602 9.606C8.16357 9.66845 8.08261 9.7 8.00001 9.7V12.7C8.85075 12.7 9.70312 12.3715 10.3473 11.7273L8.22602 9.606Z" fill="#163A96" mask="url(#path-1-inside-1_10768_26888)"/>
</svg>
