<svg width="20" height="20" viewBox="0 0 20 20" fill="none" xmlns="http://www.w3.org/2000/svg">
<mask id="path-1-inside-1_10215_5857" fill="white">
<path d="M9.99977 14C9.41644 14 8.83311 13.775 8.39144 13.3333L2.95811 7.89997C2.71644 7.6583 2.71644 7.2583 2.95811 7.01664C3.19977 6.77497 3.59977 6.77497 3.84144 7.01664L9.27477 12.45C9.67477 12.85 10.3248 12.85 10.7248 12.45L16.1581 7.01664C16.3998 6.77497 16.7998 6.77497 17.0414 7.01664C17.2831 7.2583 17.2831 7.6583 17.0414 7.89997L11.6081 13.3333C11.1664 13.775 10.5831 14 9.99977 14Z"/>
</mask>
<path d="M9.99977 14C9.41644 14 8.83311 13.775 8.39144 13.3333L2.95811 7.89997C2.71644 7.6583 2.71644 7.2583 2.95811 7.01664C3.19977 6.77497 3.59977 6.77497 3.84144 7.01664L9.27477 12.45C9.67477 12.85 10.3248 12.85 10.7248 12.45L16.1581 7.01664C16.3998 6.77497 16.7998 6.77497 17.0414 7.01664C17.2831 7.2583 17.2831 7.6583 17.0414 7.89997L11.6081 13.3333C11.1664 13.775 10.5831 14 9.99977 14Z" fill="#1D1F1F"/>
<path d="M8.39144 13.3333L7.33078 14.394V14.394L8.39144 13.3333ZM2.95811 7.89997L4.01877 6.83931V6.83931L2.95811 7.89997ZM3.84144 7.01664L2.78078 8.0773L3.84144 7.01664ZM9.27477 12.45L10.3354 11.3893L9.27477 12.45ZM10.7248 12.45L11.7854 13.5106V13.5106L10.7248 12.45ZM16.1581 7.01664L15.0974 5.95598L15.0974 5.95598L16.1581 7.01664ZM17.0414 7.89997L15.9808 6.83931V6.83931L17.0414 7.89997ZM11.6081 13.3333L12.6688 14.394V14.394L11.6081 13.3333ZM9.99977 14V12.5C9.80051 12.5 9.60288 12.4234 9.4521 12.2726L8.39144 13.3333L7.33078 14.394C8.06333 15.1265 9.03237 15.5 9.99977 15.5V14ZM8.39144 13.3333L9.4521 12.2726L4.01877 6.83931L2.95811 7.89997L1.89745 8.96063L7.33078 14.394L8.39144 13.3333ZM2.95811 7.89997L4.01877 6.83931C4.36289 7.18343 4.36289 7.73318 4.01877 8.0773L2.95811 7.01664L1.89745 5.95598C1.06999 6.78343 1.06999 8.13318 1.89745 8.96063L2.95811 7.89997ZM2.95811 7.01664L4.01877 8.0773C3.67465 8.42142 3.1249 8.42142 2.78078 8.0773L3.84144 7.01664L4.9021 5.95598C4.07465 5.12852 2.7249 5.12852 1.89745 5.95598L2.95811 7.01664ZM3.84144 7.01664L2.78078 8.0773L8.21411 13.5106L9.27477 12.45L10.3354 11.3893L4.9021 5.95598L3.84144 7.01664ZM9.27477 12.45L8.21411 13.5106C9.1999 14.4964 10.7996 14.4964 11.7854 13.5106L10.7248 12.45L9.66411 11.3893C9.8499 11.2035 10.1496 11.2035 10.3354 11.3893L9.27477 12.45ZM10.7248 12.45L11.7854 13.5106L17.2188 8.0773L16.1581 7.01664L15.0974 5.95598L9.66411 11.3893L10.7248 12.45ZM16.1581 7.01664L17.2188 8.0773C16.8746 8.42142 16.3249 8.42142 15.9808 8.0773L17.0414 7.01664L18.1021 5.95598C17.2746 5.12852 15.9249 5.12852 15.0974 5.95598L16.1581 7.01664ZM17.0414 7.01664L15.9808 8.0773C15.6367 7.73318 15.6367 7.18343 15.9808 6.83931L17.0414 7.89997L18.1021 8.96063C18.9296 8.13318 18.9296 6.78343 18.1021 5.95598L17.0414 7.01664ZM17.0414 7.89997L15.9808 6.83931L10.5474 12.2726L11.6081 13.3333L12.6688 14.394L18.1021 8.96063L17.0414 7.89997ZM11.6081 13.3333L10.5474 12.2726C10.3967 12.4234 10.199 12.5 9.99977 12.5V14V15.5C10.9672 15.5 11.9362 15.1265 12.6688 14.394L11.6081 13.3333Z" fill="white" mask="url(#path-1-inside-1_10215_5857)"/>
</svg>
