<svg width="20" height="20" viewBox="0 0 20 20" fill="none" xmlns="http://www.w3.org/2000/svg">
<mask id="path-1-inside-1_10170_7057" fill="white">
<path d="M10.0003 14C9.41693 14 8.83359 13.775 8.39193 13.3333L2.95859 7.89997C2.71693 7.6583 2.71693 7.2583 2.95859 7.01664C3.20026 6.77497 3.60026 6.77497 3.84193 7.01664L9.27526 12.45C9.67526 12.85 10.3253 12.85 10.7253 12.45L16.1586 7.01664C16.4003 6.77497 16.8003 6.77497 17.0419 7.01664C17.2836 7.2583 17.2836 7.6583 17.0419 7.89997L11.6086 13.3333C11.1669 13.775 10.5836 14 10.0003 14Z"/>
</mask>
<path d="M10.0003 14C9.41693 14 8.83359 13.775 8.39193 13.3333L2.95859 7.89997C2.71693 7.6583 2.71693 7.2583 2.95859 7.01664C3.20026 6.77497 3.60026 6.77497 3.84193 7.01664L9.27526 12.45C9.67526 12.85 10.3253 12.85 10.7253 12.45L16.1586 7.01664C16.4003 6.77497 16.8003 6.77497 17.0419 7.01664C17.2836 7.2583 17.2836 7.6583 17.0419 7.89997L11.6086 13.3333C11.1669 13.775 10.5836 14 10.0003 14Z" fill="#1D1F1F"/>
<path d="M8.39193 13.3333L7.33127 14.394V14.394L8.39193 13.3333ZM2.95859 7.89997L4.01925 6.83931V6.83931L2.95859 7.89997ZM3.84193 7.01664L2.78127 8.0773L3.84193 7.01664ZM9.27526 12.45L10.3359 11.3893L9.27526 12.45ZM10.7253 12.45L11.7859 13.5106V13.5106L10.7253 12.45ZM16.1586 7.01664L15.0979 5.95598L15.0979 5.95598L16.1586 7.01664ZM17.0419 7.89997L15.9813 6.83931V6.83931L17.0419 7.89997ZM11.6086 13.3333L12.6693 14.394V14.394L11.6086 13.3333ZM10.0003 12.5C9.80099 12.5 9.60337 12.4234 9.45259 12.2726L7.33127 14.394C8.06382 15.1265 9.03286 15.5 10.0003 15.5V12.5ZM9.45259 12.2726L4.01925 6.83931L1.89793 8.96063L7.33127 14.394L9.45259 12.2726ZM4.01925 6.83931C4.36337 7.18343 4.36337 7.73318 4.01925 8.0773L1.89793 5.95598C1.07048 6.78343 1.07048 8.13318 1.89793 8.96063L4.01925 6.83931ZM4.01925 8.0773C3.67513 8.42142 3.12539 8.42142 2.78127 8.0773L4.90259 5.95598C4.07513 5.12852 2.72539 5.12852 1.89793 5.95598L4.01925 8.0773ZM2.78127 8.0773L8.2146 13.5106L10.3359 11.3893L4.90259 5.95598L2.78127 8.0773ZM8.2146 13.5106C9.20039 14.4964 10.8001 14.4964 11.7859 13.5106L9.6646 11.3893C9.85039 11.2035 10.1501 11.2035 10.3359 11.3893L8.2146 13.5106ZM11.7859 13.5106L17.2193 8.0773L15.0979 5.95598L9.6646 11.3893L11.7859 13.5106ZM17.2193 8.0773C16.8751 8.42142 16.3254 8.42142 15.9813 8.0773L18.1026 5.95598C17.2751 5.12852 15.9254 5.12852 15.0979 5.95598L17.2193 8.0773ZM15.9813 8.0773C15.6371 7.73318 15.6371 7.18343 15.9813 6.83931L18.1026 8.96063C18.93 8.13318 18.93 6.78343 18.1026 5.95598L15.9813 8.0773ZM15.9813 6.83931L10.5479 12.2726L12.6693 14.394L18.1026 8.96063L15.9813 6.83931ZM10.5479 12.2726C10.3972 12.4234 10.1995 12.5 10.0003 12.5V15.5C10.9677 15.5 11.9367 15.1265 12.6693 14.394L10.5479 12.2726Z" fill="#1D1F1F" mask="url(#path-1-inside-1_10170_7057)"/>
</svg>
