<svg width="24" height="24" viewBox="0 0 24 24" fill="none" xmlns="http://www.w3.org/2000/svg">
<path d="M14.2539 5.75378C14.3486 5.65905 14.5117 5.65905 14.6064 5.75378L20.6768 11.8231C20.7715 11.9179 20.7715 12.0819 20.6768 12.1766L14.6064 18.246C14.5552 18.2973 14.4942 18.3202 14.4297 18.3202C14.3653 18.3201 14.3051 18.2971 14.2539 18.246C14.1593 18.1512 14.1592 17.9881 14.2539 17.8934L20.1475 11.9999L14.2539 6.10632C14.1592 6.01159 14.1592 5.84852 14.2539 5.75378Z" fill="white" stroke="white"/>
<path d="M3.5 11.75H20.3301C20.4639 11.75 20.5801 11.8662 20.5801 12C20.5801 12.1338 20.4639 12.25 20.3301 12.25H3.5C3.36614 12.25 3.25 12.1339 3.25 12C3.25 11.8661 3.36614 11.75 3.5 11.75Z" fill="white" stroke="white"/>
</svg>
