<svg width="16" height="16" viewBox="0 0 16 16" fill="none" xmlns="http://www.w3.org/2000/svg">
<mask id="path-1-inside-1_10768_22884" fill="white">
<path d="M5.33333 3.83333C5.05999 3.83333 4.83333 3.60667 4.83333 3.33333V1.33333C4.83333 1.06 5.05999 0.833333 5.33333 0.833333C5.60666 0.833333 5.83333 1.06 5.83333 1.33333V3.33333C5.83333 3.60667 5.60666 3.83333 5.33333 3.83333Z"/>
</mask>
<path d="M5.33333 3.83333C5.05999 3.83333 4.83333 3.60667 4.83333 3.33333V1.33333C4.83333 1.06 5.05999 0.833333 5.33333 0.833333C5.60666 0.833333 5.83333 1.06 5.83333 1.33333V3.33333C5.83333 3.60667 5.60666 3.83333 5.33333 3.83333Z" fill="#1D1F1F"/>
<path d="M5.33333 3.83333V2.33333C5.88842 2.33333 6.33333 2.77824 6.33333 3.33333H4.83333H3.33333C3.33333 4.43509 4.23157 5.33333 5.33333 5.33333V3.83333ZM4.83333 3.33333H6.33333V1.33333H4.83333H3.33333V3.33333H4.83333ZM4.83333 1.33333H6.33333C6.33333 1.88843 5.88842 2.33333 5.33333 2.33333V0.833333V-0.666667C4.23157 -0.666667 3.33333 0.231573 3.33333 1.33333H4.83333ZM5.33333 0.833333V2.33333C4.77823 2.33333 4.33333 1.88843 4.33333 1.33333H5.83333H7.33333C7.33333 0.231573 6.43509 -0.666667 5.33333 -0.666667V0.833333ZM5.83333 1.33333H4.33333V3.33333H5.83333H7.33333V1.33333H5.83333ZM5.83333 3.33333H4.33333C4.33333 2.77824 4.77823 2.33333 5.33333 2.33333V3.83333V5.33333C6.43509 5.33333 7.33333 4.43509 7.33333 3.33333H5.83333Z" fill="#1D1F1F" mask="url(#path-1-inside-1_10768_22884)"/>
<path d="M10.6667 3.83333C10.3933 3.83333 10.1667 3.60667 10.1667 3.33333V1.33333C10.1667 1.06 10.3933 0.833333 10.6667 0.833333C10.94 0.833333 11.1667 1.06 11.1667 1.33333V3.33333C11.1667 3.60667 10.94 3.83333 10.6667 3.83333Z" fill="#1D1F1F"/>
<path d="M5.66667 9.66667C5.49333 9.66667 5.32 9.59333 5.19333 9.47333C5.07333 9.34666 5 9.18 5 9C5 8.91334 5.02 8.82667 5.05333 8.74667C5.08667 8.66667 5.13333 8.59334 5.19333 8.52667C5.44 8.28001 5.88667 8.28001 6.14 8.52667C6.26 8.65334 6.33333 8.82667 6.33333 9C6.33333 9.04 6.32667 9.08668 6.32 9.13334C6.31334 9.17334 6.3 9.21334 6.28 9.25334C6.26667 9.29334 6.24667 9.33333 6.22 9.37333C6.19333 9.40667 6.16667 9.44 6.14 9.47333C6.01333 9.59333 5.84 9.66667 5.66667 9.66667Z" fill="#292D32"/>
<path d="M7.99999 9.66667C7.91333 9.66667 7.82666 9.64668 7.74666 9.61335C7.66 9.58001 7.59333 9.53333 7.52666 9.47333C7.40666 9.34667 7.33333 9.18 7.33333 9C7.33333 8.91334 7.35333 8.82667 7.38666 8.74667C7.42 8.66667 7.46666 8.59334 7.52666 8.52668C7.59333 8.46668 7.66 8.42 7.74666 8.38666C7.99333 8.28666 8.28666 8.34001 8.47333 8.52668C8.59333 8.65334 8.66666 8.82667 8.66666 9C8.66666 9.04 8.66 9.08668 8.65333 9.13335C8.64666 9.17335 8.63333 9.21334 8.61333 9.25334C8.59999 9.29334 8.58 9.33334 8.55333 9.37334C8.53333 9.40667 8.49999 9.44 8.47333 9.47333C8.34666 9.59333 8.17333 9.66667 7.99999 9.66667Z" fill="#292D32"/>
<path d="M5.66667 12C5.58 12 5.49334 11.98 5.41334 11.9467C5.32667 11.9134 5.25333 11.8667 5.19333 11.8067C5.13333 11.7467 5.08667 11.6734 5.05333 11.5867C5.02 11.5067 5 11.42 5 11.3334C5 11.2467 5.02 11.16 5.05333 11.08C5.08667 10.9933 5.13333 10.92 5.19333 10.86C5.25333 10.8 5.32667 10.7533 5.41334 10.72C5.57334 10.6533 5.76 10.6467 5.92 10.72C6.00666 10.7533 6.08 10.8 6.14 10.86C6.2 10.92 6.24667 10.9933 6.28 11.08C6.31333 11.16 6.33333 11.2467 6.33333 11.3334C6.33333 11.42 6.31333 11.5067 6.28 11.5867C6.24667 11.6734 6.2 11.7467 6.14 11.8067C6.08 11.8667 6.00666 11.9134 5.92 11.9467C5.84 11.98 5.75333 12 5.66667 12Z" fill="#292D32"/>
<path d="M13.6667 6.55998H2.33333C2.05999 6.55998 1.83333 6.33331 1.83333 6.05998C1.83333 5.78664 2.05999 5.55998 2.33333 5.55998H13.6667C13.94 5.55998 14.1667 5.78664 14.1667 6.05998C14.1667 6.33331 13.94 6.55998 13.6667 6.55998Z" fill="#292D32"/>
<path d="M12 15.8333C11.22 15.8333 10.48 15.5533 9.91333 15.04C9.67333 14.84 9.46 14.5867 9.28666 14.2933C8.99333 13.8133 8.83333 13.2467 8.83333 12.6667C8.83333 10.92 10.2533 9.5 12 9.5C12.9067 9.5 13.7733 9.89332 14.3733 10.5733C14.8867 11.16 15.1667 11.9 15.1667 12.6667C15.1667 13.2467 15.0067 13.8133 14.7067 14.3C14.1467 15.2467 13.1067 15.8333 12 15.8333ZM12 10.5C10.8067 10.5 9.83333 11.4733 9.83333 12.6667C9.83333 13.06 9.94 13.4467 10.1467 13.78C10.26 13.98 10.4067 14.1467 10.5667 14.2867C10.9667 14.6467 11.4667 14.8333 12 14.8333C12.7667 14.8333 13.46 14.44 13.8533 13.7867C14.06 13.4467 14.1667 13.0667 14.1667 12.6667C14.1667 12.1467 13.9733 11.64 13.6267 11.2333C13.2133 10.7667 12.62 10.5 12 10.5Z" fill="#292D32"/>
<path d="M11.6199 13.8267C11.4933 13.8267 11.3666 13.78 11.2666 13.68L10.6066 13.02C10.4133 12.8267 10.4133 12.5067 10.6066 12.3133C10.7999 12.12 11.1199 12.12 11.3133 12.3133L11.6333 12.6333L12.6999 11.6467C12.8999 11.46 13.2199 11.4733 13.4066 11.6733C13.5933 11.8733 13.5799 12.1933 13.3799 12.38L11.9599 13.6933C11.8599 13.78 11.7399 13.8267 11.6199 13.8267Z" fill="#292D32"/>
<path d="M10.2467 15.1667H5.33333C2.9 15.1667 1.5 13.7667 1.5 11.3333V5.66667C1.5 3.23333 2.9 1.83333 5.33333 1.83333H10.6667C13.1 1.83333 14.5 3.23333 14.5 5.66667V10.9067C14.5 11.1133 14.3733 11.3 14.1733 11.3733C13.98 11.4467 13.76 11.3933 13.62 11.2333C13.2067 10.7667 12.6133 10.5 11.9933 10.5C10.8 10.5 9.82667 11.4733 9.82667 12.6667C9.82667 13.06 9.93333 13.4467 10.14 13.78C10.2533 13.98 10.4 14.1467 10.56 14.2867C10.72 14.42 10.78 14.64 10.7067 14.84C10.6467 15.0333 10.46 15.1667 10.2467 15.1667ZM5.33333 2.83333C3.42667 2.83333 2.5 3.76 2.5 5.66667V11.3333C2.5 13.24 3.42667 14.1667 5.33333 14.1667H9.21333C8.96667 13.7133 8.83333 13.2 8.83333 12.6667C8.83333 10.92 10.2533 9.5 12 9.5C12.5267 9.5 13.0467 9.63334 13.5 9.88V5.66667C13.5 3.76 12.5733 2.83333 10.6667 2.83333H5.33333Z" fill="#292D32"/>
</svg>
