<svg width="24" height="24" viewBox="0 0 24 24" fill="none" xmlns="http://www.w3.org/2000/svg">
<mask id="path-1-inside-1_10724_42681" fill="white">
<path d="M22 18.25H15C14.59 18.25 14.25 17.91 14.25 17.5C14.25 17.09 14.59 16.75 15 16.75H22C22.41 16.75 22.75 17.09 22.75 17.5C22.75 17.91 22.41 18.25 22 18.25Z"/>
</mask>
<path d="M22 18.25H15C14.59 18.25 14.25 17.91 14.25 17.5C14.25 17.09 14.59 16.75 15 16.75H22C22.41 16.75 22.75 17.09 22.75 17.5C22.75 17.91 22.41 18.25 22 18.25Z" fill="white"/>
<path d="M22 16.75H15V19.75H22V16.75ZM15 16.75C15.4184 16.75 15.75 17.0816 15.75 17.5H12.75C12.75 18.7384 13.7616 19.75 15 19.75V16.75ZM15.75 17.5C15.75 17.9184 15.4184 18.25 15 18.25V15.25C13.7616 15.25 12.75 16.2616 12.75 17.5H15.75ZM15 18.25H22V15.25H15V18.25ZM22 18.25C21.5816 18.25 21.25 17.9184 21.25 17.5H24.25C24.25 16.2616 23.2384 15.25 22 15.25V18.25ZM21.25 17.5C21.25 17.0816 21.5816 16.75 22 16.75V19.75C23.2384 19.75 24.25 18.7384 24.25 17.5H21.25Z" fill="white" mask="url(#path-1-inside-1_10724_42681)"/>
<mask id="path-3-inside-2_10724_42681" fill="white">
<path d="M5 18.25H2C1.59 18.25 1.25 17.91 1.25 17.5C1.25 17.09 1.59 16.75 2 16.75H5C5.41 16.75 5.75 17.09 5.75 17.5C5.75 17.91 5.41 18.25 5 18.25Z"/>
</mask>
<path d="M5 18.25H2C1.59 18.25 1.25 17.91 1.25 17.5C1.25 17.09 1.59 16.75 2 16.75H5C5.41 16.75 5.75 17.09 5.75 17.5C5.75 17.91 5.41 18.25 5 18.25Z" fill="white"/>
<path d="M5 16.75H2V19.75H5V16.75ZM2 16.75C2.41843 16.75 2.75 17.0816 2.75 17.5H-0.25C-0.25 18.7384 0.761573 19.75 2 19.75V16.75ZM2.75 17.5C2.75 17.9184 2.41843 18.25 2 18.25V15.25C0.761573 15.25 -0.25 16.2616 -0.25 17.5H2.75ZM2 18.25H5V15.25H2V18.25ZM5 18.25C4.58157 18.25 4.25 17.9184 4.25 17.5H7.25C7.25 16.2616 6.23843 15.25 5 15.25V18.25ZM4.25 17.5C4.25 17.0816 4.58157 16.75 5 16.75V19.75C6.23843 19.75 7.25 18.7384 7.25 17.5H4.25Z" fill="white" mask="url(#path-3-inside-2_10724_42681)"/>
<mask id="path-5-inside-3_10724_42681" fill="white">
<path d="M22 7.25H19C18.59 7.25 18.25 6.91 18.25 6.5C18.25 6.09 18.59 5.75 19 5.75H22C22.41 5.75 22.75 6.09 22.75 6.5C22.75 6.91 22.41 7.25 22 7.25Z"/>
</mask>
<path d="M22 7.25H19C18.59 7.25 18.25 6.91 18.25 6.5C18.25 6.09 18.59 5.75 19 5.75H22C22.41 5.75 22.75 6.09 22.75 6.5C22.75 6.91 22.41 7.25 22 7.25Z" fill="white"/>
<path d="M22 5.75H19V8.75H22V5.75ZM19 5.75C19.4184 5.75 19.75 6.08157 19.75 6.5H16.75C16.75 7.73843 17.7616 8.75 19 8.75V5.75ZM19.75 6.5C19.75 6.91843 19.4184 7.25 19 7.25V4.25C17.7616 4.25 16.75 5.26157 16.75 6.5H19.75ZM19 7.25H22V4.25H19V7.25ZM22 7.25C21.5816 7.25 21.25 6.91843 21.25 6.5H24.25C24.25 5.26157 23.2384 4.25 22 4.25V7.25ZM21.25 6.5C21.25 6.08157 21.5816 5.75 22 5.75V8.75C23.2384 8.75 24.25 7.73843 24.25 6.5H21.25Z" fill="white" mask="url(#path-5-inside-3_10724_42681)"/>
<path d="M9 7.25H2C1.59 7.25 1.25 6.91 1.25 6.5C1.25 6.09 1.59 5.75 2 5.75H9C9.41 5.75 9.75 6.09 9.75 6.5C9.75 6.91 9.41 7.25 9 7.25Z" fill="white"/>
<path d="M13 21.25H7C5.28 21.25 4.25 20.22 4.25 18.5V16.5C4.25 14.78 5.28 13.75 7 13.75H13C14.72 13.75 15.75 14.78 15.75 16.5V18.5C15.75 20.22 14.72 21.25 13 21.25ZM7 15.25C6.11 15.25 5.75 15.61 5.75 16.5V18.5C5.75 19.39 6.11 19.75 7 19.75H13C13.89 19.75 14.25 19.39 14.25 18.5V16.5C14.25 15.61 13.89 15.25 13 15.25H7Z" fill="white"/>
<path d="M17 10.25H11C9.28 10.25 8.25 9.22 8.25 7.5V5.5C8.25 3.78 9.28 2.75 11 2.75H17C18.72 2.75 19.75 3.78 19.75 5.5V7.5C19.75 9.22 18.72 10.25 17 10.25ZM11 4.25C10.11 4.25 9.75 4.61 9.75 5.5V7.5C9.75 8.39 10.11 8.75 11 8.75H17C17.89 8.75 18.25 8.39 18.25 7.5V5.5C18.25 4.61 17.89 4.25 17 4.25H11Z" fill="white"/>
</svg>
