<svg width="16" height="16" viewBox="0 0 16 16" fill="none" xmlns="http://www.w3.org/2000/svg">
<mask id="path-1-inside-1_10170_10387" fill="white">
<path d="M8.00016 15.1667C4.04683 15.1667 0.833496 11.9533 0.833496 8.00001C0.833496 4.04668 4.04683 0.833344 8.00016 0.833344C11.9535 0.833344 15.1668 4.04668 15.1668 8.00001C15.1668 11.9533 11.9535 15.1667 8.00016 15.1667ZM8.00016 1.83334C4.60016 1.83334 1.8335 4.60001 1.8335 8.00001C1.8335 11.4 4.60016 14.1667 8.00016 14.1667C11.4002 14.1667 14.1668 11.4 14.1668 8.00001C14.1668 4.60001 11.4002 1.83334 8.00016 1.83334Z"/>
</mask>
<path d="M8.00016 15.1667C4.04683 15.1667 0.833496 11.9533 0.833496 8.00001C0.833496 4.04668 4.04683 0.833344 8.00016 0.833344C11.9535 0.833344 15.1668 4.04668 15.1668 8.00001C15.1668 11.9533 11.9535 15.1667 8.00016 15.1667ZM8.00016 1.83334C4.60016 1.83334 1.8335 4.60001 1.8335 8.00001C1.8335 11.4 4.60016 14.1667 8.00016 14.1667C11.4002 14.1667 14.1668 11.4 14.1668 8.00001C14.1668 4.60001 11.4002 1.83334 8.00016 1.83334Z" fill="#A5A5A5"/>
<path d="M8.00016 13.6667C4.87526 13.6667 2.3335 11.1249 2.3335 8.00001H-0.666504C-0.666504 12.7818 3.2184 16.6667 8.00016 16.6667V13.6667ZM2.3335 8.00001C2.3335 4.8751 4.87526 2.33334 8.00016 2.33334V-0.666656C3.2184 -0.666656 -0.666504 3.21825 -0.666504 8.00001H2.3335ZM8.00016 2.33334C11.1251 2.33334 13.6668 4.8751 13.6668 8.00001H16.6668C16.6668 3.21825 12.7819 -0.666656 8.00016 -0.666656V2.33334ZM13.6668 8.00001C13.6668 11.1249 11.1251 13.6667 8.00016 13.6667V16.6667C12.7819 16.6667 16.6668 12.7818 16.6668 8.00001H13.6668ZM8.00016 0.333344C3.77174 0.333344 0.333496 3.77158 0.333496 8.00001H3.3335C3.3335 5.42844 5.42859 3.33334 8.00016 3.33334V0.333344ZM0.333496 8.00001C0.333496 12.2284 3.77174 15.6667 8.00016 15.6667V12.6667C5.42859 12.6667 3.3335 10.5716 3.3335 8.00001H0.333496ZM8.00016 15.6667C12.2286 15.6667 15.6668 12.2284 15.6668 8.00001H12.6668C12.6668 10.5716 10.5717 12.6667 8.00016 12.6667V15.6667ZM15.6668 8.00001C15.6668 3.77158 12.2286 0.333344 8.00016 0.333344V3.33334C10.5717 3.33334 12.6668 5.42844 12.6668 8.00001H15.6668Z" fill="#A5A5A5" mask="url(#path-1-inside-1_10170_10387)"/>
<path d="M10.4731 10.62C10.3864 10.62 10.2998 10.6 10.2198 10.5467L8.1531 9.31332C7.63977 9.00665 7.25977 8.33332 7.25977 7.73999V5.00665C7.25977 4.73332 7.48643 4.50665 7.75977 4.50665C8.0331 4.50665 8.25977 4.73332 8.25977 5.00665V7.73999C8.25977 7.97999 8.45977 8.33332 8.66643 8.45332L10.7331 9.68665C10.9731 9.82665 11.0464 10.1333 10.9064 10.3733C10.8064 10.5333 10.6398 10.62 10.4731 10.62Z" fill="#A5A5A5"/>
</svg>
