<svg width="16" height="16" viewBox="0 0 16 16" fill="none" xmlns="http://www.w3.org/2000/svg">
<mask id="path-1-inside-1_10738_1615" fill="white">
<path d="M8.00001 15.1667C4.04668 15.1667 0.833344 11.9533 0.833344 8C0.833344 4.04666 4.04668 0.833328 8.00001 0.833328C11.9533 0.833328 15.1667 4.04666 15.1667 8C15.1667 11.9533 11.9533 15.1667 8.00001 15.1667ZM8.00001 1.83333C4.60001 1.83333 1.83334 4.6 1.83334 8C1.83334 11.4 4.60001 14.1667 8.00001 14.1667C11.4 14.1667 14.1667 11.4 14.1667 8C14.1667 4.6 11.4 1.83333 8.00001 1.83333Z"/>
</mask>
<path d="M8.00001 15.1667C4.04668 15.1667 0.833344 11.9533 0.833344 8C0.833344 4.04666 4.04668 0.833328 8.00001 0.833328C11.9533 0.833328 15.1667 4.04666 15.1667 8C15.1667 11.9533 11.9533 15.1667 8.00001 15.1667ZM8.00001 1.83333C4.60001 1.83333 1.83334 4.6 1.83334 8C1.83334 11.4 4.60001 14.1667 8.00001 14.1667C11.4 14.1667 14.1667 11.4 14.1667 8C14.1667 4.6 11.4 1.83333 8.00001 1.83333Z" fill="#1D1F1F"/>
<path d="M8.00001 13.6667C4.8751 13.6667 2.33334 11.1249 2.33334 8H-0.666656C-0.666656 12.7818 3.21825 16.6667 8.00001 16.6667V13.6667ZM2.33334 8C2.33334 4.87509 4.8751 2.33333 8.00001 2.33333V-0.666672C3.21825 -0.666672 -0.666656 3.21823 -0.666656 8H2.33334ZM8.00001 2.33333C11.1249 2.33333 13.6667 4.87509 13.6667 8H16.6667C16.6667 3.21823 12.7818 -0.666672 8.00001 -0.666672V2.33333ZM13.6667 8C13.6667 11.1249 11.1249 13.6667 8.00001 13.6667V16.6667C12.7818 16.6667 16.6667 12.7818 16.6667 8H13.6667ZM8.00001 0.333328C3.77158 0.333328 0.333344 3.77157 0.333344 8H3.33334C3.33334 5.42842 5.42844 3.33333 8.00001 3.33333V0.333328ZM0.333344 8C0.333344 12.2284 3.77158 15.6667 8.00001 15.6667V12.6667C5.42844 12.6667 3.33334 10.5716 3.33334 8H0.333344ZM8.00001 15.6667C12.2284 15.6667 15.6667 12.2284 15.6667 8H12.6667C12.6667 10.5716 10.5716 12.6667 8.00001 12.6667V15.6667ZM15.6667 8C15.6667 3.77157 12.2284 0.333328 8.00001 0.333328V3.33333C10.5716 3.33333 12.6667 5.42842 12.6667 8H15.6667Z" fill="#1D1F1F" mask="url(#path-1-inside-1_10738_1615)"/>
<path d="M10.4733 10.62C10.3867 10.62 10.3 10.6 10.22 10.5467L8.15334 9.31333C7.64001 9.00667 7.26001 8.33333 7.26001 7.74V5.00667C7.26001 4.73333 7.48668 4.50667 7.76001 4.50667C8.03334 4.50667 8.26001 4.73333 8.26001 5.00667V7.74C8.26001 7.98 8.46001 8.33333 8.66668 8.45333L10.7333 9.68667C10.9733 9.82667 11.0467 10.1333 10.9067 10.3733C10.8067 10.5333 10.64 10.62 10.4733 10.62Z" fill="#1D1F1F"/>
</svg>
