<svg width="20" height="20" viewBox="0 0 20 20" fill="none" xmlns="http://www.w3.org/2000/svg">
<mask id="path-1-inside-1_10707_25135" fill="white">
<path d="M10.0001 18.9584C5.05841 18.9584 1.04175 14.9417 1.04175 10C1.04175 5.05835 5.05841 1.04169 10.0001 1.04169C14.9417 1.04169 18.9584 5.05835 18.9584 10C18.9584 14.9417 14.9417 18.9584 10.0001 18.9584ZM10.0001 2.29169C5.75008 2.29169 2.29175 5.75002 2.29175 10C2.29175 14.25 5.75008 17.7084 10.0001 17.7084C14.2501 17.7084 17.7084 14.25 17.7084 10C17.7084 5.75002 14.2501 2.29169 10.0001 2.29169Z"/>
</mask>
<path d="M10.0001 18.9584C5.05841 18.9584 1.04175 14.9417 1.04175 10C1.04175 5.05835 5.05841 1.04169 10.0001 1.04169C14.9417 1.04169 18.9584 5.05835 18.9584 10C18.9584 14.9417 14.9417 18.9584 10.0001 18.9584ZM10.0001 2.29169C5.75008 2.29169 2.29175 5.75002 2.29175 10C2.29175 14.25 5.75008 17.7084 10.0001 17.7084C14.2501 17.7084 17.7084 14.25 17.7084 10C17.7084 5.75002 14.2501 2.29169 10.0001 2.29169Z" fill="#163A96"/>
<path d="M10.0001 18.9584V17.4584C5.88684 17.4584 2.54175 14.1133 2.54175 10H1.04175H-0.458252C-0.458252 15.7701 4.22999 20.4584 10.0001 20.4584V18.9584ZM1.04175 10H2.54175C2.54175 5.88678 5.88684 2.54169 10.0001 2.54169V1.04169V-0.458313C4.22999 -0.458313 -0.458252 4.22993 -0.458252 10H1.04175ZM10.0001 1.04169V2.54169C14.1133 2.54169 17.4584 5.88678 17.4584 10H18.9584H20.4584C20.4584 4.22993 15.7702 -0.458313 10.0001 -0.458313V1.04169ZM18.9584 10H17.4584C17.4584 14.1133 14.1133 17.4584 10.0001 17.4584V18.9584V20.4584C15.7702 20.4584 20.4584 15.7701 20.4584 10H18.9584ZM10.0001 2.29169V0.791687C4.92165 0.791687 0.791748 4.92159 0.791748 10H2.29175H3.79175C3.79175 6.57845 6.57851 3.79169 10.0001 3.79169V2.29169ZM2.29175 10H0.791748C0.791748 15.0784 4.92165 19.2084 10.0001 19.2084V17.7084V16.2084C6.57851 16.2084 3.79175 13.4216 3.79175 10H2.29175ZM10.0001 17.7084V19.2084C15.0785 19.2084 19.2084 15.0784 19.2084 10H17.7084H16.2084C16.2084 13.4216 13.4217 16.2084 10.0001 16.2084V17.7084ZM17.7084 10H19.2084C19.2084 4.92159 15.0785 0.791687 10.0001 0.791687V2.29169V3.79169C13.4217 3.79169 16.2084 6.57845 16.2084 10H17.7084Z" fill="#163A96" mask="url(#path-1-inside-1_10707_25135)"/>
<mask id="path-3-inside-2_10707_25135" fill="white">
<path d="M7.64172 12.9833C7.48338 12.9833 7.32505 12.925 7.20005 12.8C6.95838 12.5583 6.95838 12.1583 7.20005 11.9167L11.9167 7.19999C12.1584 6.95832 12.5584 6.95832 12.8 7.19999C13.0417 7.44165 13.0417 7.84165 12.8 8.08332L8.08338 12.8C7.96672 12.925 7.80005 12.9833 7.64172 12.9833Z"/>
</mask>
<path d="M7.64172 12.9833C7.48338 12.9833 7.32505 12.925 7.20005 12.8C6.95838 12.5583 6.95838 12.1583 7.20005 11.9167L11.9167 7.19999C12.1584 6.95832 12.5584 6.95832 12.8 7.19999C13.0417 7.44165 13.0417 7.84165 12.8 8.08332L8.08338 12.8C7.96672 12.925 7.80005 12.9833 7.64172 12.9833Z" fill="#163A96"/>
<path d="M8.08338 12.8L7.02272 11.7393L7.00444 11.7576L6.9868 11.7765L8.08338 12.8ZM7.64172 12.9833V11.4833C7.85974 11.4833 8.08958 11.5682 8.26071 11.7393L7.20005 12.8L6.13939 13.8606C6.56052 14.2818 7.10702 14.4833 7.64172 14.4833V12.9833ZM7.20005 12.8L8.26071 11.7393C8.60483 12.0834 8.60483 12.6332 8.26071 12.9773L7.20005 11.9167L6.13939 10.856C5.31194 11.6834 5.31194 13.0332 6.13939 13.8606L7.20005 12.8ZM7.20005 11.9167L8.26071 12.9773L12.9774 8.26065L11.9167 7.19999L10.8561 6.13933L6.13939 10.856L7.20005 11.9167ZM11.9167 7.19999L12.9774 8.26065C12.6333 8.60477 12.0835 8.60477 11.7394 8.26065L12.8 7.19999L13.8607 6.13933C13.0333 5.31187 11.6835 5.31187 10.8561 6.13933L11.9167 7.19999ZM12.8 7.19999L11.7394 8.26065C11.3953 7.91653 11.3953 7.36678 11.7394 7.02266L12.8 8.08332L13.8607 9.14398C14.6882 8.31653 14.6882 6.96678 13.8607 6.13933L12.8 7.19999ZM12.8 8.08332L11.7394 7.02266L7.02272 11.7393L8.08338 12.8L9.14404 13.8606L13.8607 9.14398L12.8 8.08332ZM8.08338 12.8L6.9868 11.7765C7.19938 11.5487 7.45612 11.4833 7.64172 11.4833V12.9833V14.4833C8.14397 14.4833 8.73405 14.3012 9.17996 13.8235L8.08338 12.8Z" fill="#163A96" mask="url(#path-3-inside-2_10707_25135)"/>
<mask id="path-5-inside-3_10707_25135" fill="white">
<path d="M12.3584 12.9833C12.2 12.9833 12.0417 12.925 11.9167 12.8L7.20005 8.08332C6.95838 7.84165 6.95838 7.44165 7.20005 7.19999C7.44172 6.95832 7.84172 6.95832 8.08338 7.19999L12.8 11.9167C13.0417 12.1583 13.0417 12.5583 12.8 12.8C12.675 12.925 12.5167 12.9833 12.3584 12.9833Z"/>
</mask>
<path d="M12.3584 12.9833C12.2 12.9833 12.0417 12.925 11.9167 12.8L7.20005 8.08332C6.95838 7.84165 6.95838 7.44165 7.20005 7.19999C7.44172 6.95832 7.84172 6.95832 8.08338 7.19999L12.8 11.9167C13.0417 12.1583 13.0417 12.5583 12.8 12.8C12.675 12.925 12.5167 12.9833 12.3584 12.9833Z" fill="#163A96"/>
<path d="M11.9167 12.8L10.8561 13.8606L11.9167 12.8ZM7.20005 8.08332L8.26071 7.02266L7.20005 8.08332ZM8.08338 7.19999L7.02272 8.26065L8.08338 7.19999ZM12.8 11.9167L13.8607 10.856L12.8 11.9167ZM12.3584 12.9833V11.4833C12.5764 11.4833 12.8062 11.5682 12.9774 11.7393L11.9167 12.8L10.8561 13.8606C11.2772 14.2818 11.8237 14.4833 12.3584 14.4833V12.9833ZM11.9167 12.8L12.9774 11.7393L8.26071 7.02266L7.20005 8.08332L6.13939 9.14398L10.8561 13.8606L11.9167 12.8ZM7.20005 8.08332L8.26071 7.02266C8.60483 7.36678 8.60483 7.91653 8.26071 8.26065L7.20005 7.19999L6.13939 6.13933C5.31194 6.96678 5.31194 8.31653 6.13939 9.14398L7.20005 8.08332ZM7.20005 7.19999L8.26071 8.26065C7.91659 8.60477 7.36684 8.60477 7.02272 8.26065L8.08338 7.19999L9.14404 6.13933C8.31659 5.31187 6.96684 5.31187 6.13939 6.13933L7.20005 7.19999ZM8.08338 7.19999L7.02272 8.26065L11.7394 12.9773L12.8 11.9167L13.8607 10.856L9.14404 6.13933L8.08338 7.19999ZM12.8 11.9167L11.7394 12.9773C11.3953 12.6332 11.3953 12.0834 11.7394 11.7393L12.8 12.8L13.8607 13.8606C14.6882 13.0332 14.6882 11.6834 13.8607 10.856L12.8 11.9167ZM12.8 12.8L11.7394 11.7393C11.9105 11.5682 12.1404 11.4833 12.3584 11.4833V12.9833V14.4833C12.8931 14.4833 13.4396 14.2818 13.8607 13.8606L12.8 12.8Z" fill="#163A96" mask="url(#path-5-inside-3_10707_25135)"/>
</svg>
