<svg width="20" height="20" viewBox="0 0 20 20" fill="none" xmlns="http://www.w3.org/2000/svg">
<mask id="path-1-inside-1_11001_31926" fill="white">
<path d="M9.99935 18.9584C5.05768 18.9584 1.04102 14.9417 1.04102 10C1.04102 5.05835 5.05768 1.04169 9.99935 1.04169C14.941 1.04169 18.9577 5.05835 18.9577 10C18.9577 14.9417 14.941 18.9584 9.99935 18.9584ZM9.99935 2.29169C5.74935 2.29169 2.29102 5.75002 2.29102 10C2.29102 14.25 5.74935 17.7084 9.99935 17.7084C14.2493 17.7084 17.7077 14.25 17.7077 10C17.7077 5.75002 14.2493 2.29169 9.99935 2.29169Z"/>
</mask>
<path d="M9.99935 18.9584C5.05768 18.9584 1.04102 14.9417 1.04102 10C1.04102 5.05835 5.05768 1.04169 9.99935 1.04169C14.941 1.04169 18.9577 5.05835 18.9577 10C18.9577 14.9417 14.941 18.9584 9.99935 18.9584ZM9.99935 2.29169C5.74935 2.29169 2.29102 5.75002 2.29102 10C2.29102 14.25 5.74935 17.7084 9.99935 17.7084C14.2493 17.7084 17.7077 14.25 17.7077 10C17.7077 5.75002 14.2493 2.29169 9.99935 2.29169Z" fill="#163A96"/>
<path d="M9.99935 18.9584V17.4584C5.88611 17.4584 2.54102 14.1133 2.54102 10H1.04102H-0.458984C-0.458984 15.7701 4.22926 20.4584 9.99935 20.4584V18.9584ZM1.04102 10H2.54102C2.54102 5.88678 5.88611 2.54169 9.99935 2.54169V1.04169V-0.458313C4.22926 -0.458313 -0.458984 4.22993 -0.458984 10H1.04102ZM9.99935 1.04169V2.54169C14.1126 2.54169 17.4577 5.88678 17.4577 10H18.9577H20.4577C20.4577 4.22993 15.7694 -0.458313 9.99935 -0.458313V1.04169ZM18.9577 10H17.4577C17.4577 14.1133 14.1126 17.4584 9.99935 17.4584V18.9584V20.4584C15.7694 20.4584 20.4577 15.7701 20.4577 10H18.9577ZM9.99935 2.29169V0.791687C4.92092 0.791687 0.791016 4.92159 0.791016 10H2.29102H3.79102C3.79102 6.57845 6.57778 3.79169 9.99935 3.79169V2.29169ZM2.29102 10H0.791016C0.791016 15.0784 4.92092 19.2084 9.99935 19.2084V17.7084V16.2084C6.57778 16.2084 3.79102 13.4216 3.79102 10H2.29102ZM9.99935 17.7084V19.2084C15.0778 19.2084 19.2077 15.0784 19.2077 10H17.7077H16.2077C16.2077 13.4216 13.4209 16.2084 9.99935 16.2084V17.7084ZM17.7077 10H19.2077C19.2077 4.92159 15.0778 0.791687 9.99935 0.791687V2.29169V3.79169C13.4209 3.79169 16.2077 6.57845 16.2077 10H17.7077Z" fill="#163A96" mask="url(#path-1-inside-1_11001_31926)"/>
<mask id="path-3-inside-2_11001_31926" fill="white">
<path d="M7.64245 12.9833C7.48411 12.9833 7.32578 12.925 7.20078 12.8C6.95911 12.5583 6.95911 12.1583 7.20078 11.9167L11.9174 7.19999C12.1591 6.95832 12.5591 6.95832 12.8008 7.19999C13.0424 7.44165 13.0424 7.84165 12.8008 8.08332L8.08411 12.8C7.96745 12.925 7.80078 12.9833 7.64245 12.9833Z"/>
</mask>
<path d="M7.64245 12.9833C7.48411 12.9833 7.32578 12.925 7.20078 12.8C6.95911 12.5583 6.95911 12.1583 7.20078 11.9167L11.9174 7.19999C12.1591 6.95832 12.5591 6.95832 12.8008 7.19999C13.0424 7.44165 13.0424 7.84165 12.8008 8.08332L8.08411 12.8C7.96745 12.925 7.80078 12.9833 7.64245 12.9833Z" fill="#163A96"/>
<path d="M8.08411 12.8L7.02345 11.7393L7.00517 11.7576L6.98753 11.7765L8.08411 12.8ZM7.64245 12.9833V11.4833C7.86047 11.4833 8.09031 11.5682 8.26144 11.7393L7.20078 12.8L6.14012 13.8606C6.56125 14.2818 7.10775 14.4833 7.64245 14.4833V12.9833ZM7.20078 12.8L8.26144 11.7393C8.60556 12.0834 8.60556 12.6332 8.26144 12.9773L7.20078 11.9167L6.14012 10.856C5.31267 11.6834 5.31267 13.0332 6.14012 13.8606L7.20078 12.8ZM7.20078 11.9167L8.26144 12.9773L12.9781 8.26065L11.9174 7.19999L10.8568 6.13933L6.14012 10.856L7.20078 11.9167ZM11.9174 7.19999L12.9781 8.26065C12.634 8.60477 12.0842 8.60477 11.7401 8.26065L12.8008 7.19999L13.8614 6.13933C13.034 5.31187 11.6842 5.31187 10.8568 6.13933L11.9174 7.19999ZM12.8008 7.19999L11.7401 8.26065C11.396 7.91653 11.396 7.36678 11.7401 7.02266L12.8008 8.08332L13.8614 9.14398C14.6889 8.31653 14.6889 6.96678 13.8614 6.13933L12.8008 7.19999ZM12.8008 8.08332L11.7401 7.02266L7.02345 11.7393L8.08411 12.8L9.14477 13.8606L13.8614 9.14398L12.8008 8.08332ZM8.08411 12.8L6.98753 11.7765C7.20012 11.5487 7.45686 11.4833 7.64245 11.4833V12.9833V14.4833C8.1447 14.4833 8.73478 14.3012 9.1807 13.8235L8.08411 12.8Z" fill="#163A96" mask="url(#path-3-inside-2_11001_31926)"/>
<mask id="path-5-inside-3_11001_31926" fill="white">
<path d="M12.3591 12.9833C12.2008 12.9833 12.0424 12.925 11.9174 12.8L7.20078 8.08332C6.95911 7.84165 6.95911 7.44165 7.20078 7.19999C7.44245 6.95832 7.84245 6.95832 8.08411 7.19999L12.8008 11.9167C13.0424 12.1583 13.0424 12.5583 12.8008 12.8C12.6758 12.925 12.5174 12.9833 12.3591 12.9833Z"/>
</mask>
<path d="M12.3591 12.9833C12.2008 12.9833 12.0424 12.925 11.9174 12.8L7.20078 8.08332C6.95911 7.84165 6.95911 7.44165 7.20078 7.19999C7.44245 6.95832 7.84245 6.95832 8.08411 7.19999L12.8008 11.9167C13.0424 12.1583 13.0424 12.5583 12.8008 12.8C12.6758 12.925 12.5174 12.9833 12.3591 12.9833Z" fill="#163A96"/>
<path d="M11.9174 12.8L10.8568 13.8606L11.9174 12.8ZM7.20078 8.08332L8.26144 7.02266L7.20078 8.08332ZM8.08411 7.19999L7.02345 8.26065L8.08411 7.19999ZM12.8008 11.9167L13.8614 10.856L12.8008 11.9167ZM12.3591 12.9833V11.4833C12.5771 11.4833 12.807 11.5682 12.9781 11.7393L11.9174 12.8L10.8568 13.8606C11.2779 14.2818 11.8244 14.4833 12.3591 14.4833V12.9833ZM11.9174 12.8L12.9781 11.7393L8.26144 7.02266L7.20078 8.08332L6.14012 9.14398L10.8568 13.8606L11.9174 12.8ZM7.20078 8.08332L8.26144 7.02266C8.60556 7.36678 8.60556 7.91653 8.26144 8.26065L7.20078 7.19999L6.14012 6.13933C5.31267 6.96678 5.31267 8.31653 6.14012 9.14398L7.20078 8.08332ZM7.20078 7.19999L8.26144 8.26065C7.91732 8.60477 7.36757 8.60477 7.02345 8.26065L8.08411 7.19999L9.14477 6.13933C8.31732 5.31187 6.96757 5.31187 6.14012 6.13933L7.20078 7.19999ZM8.08411 7.19999L7.02345 8.26065L11.7401 12.9773L12.8008 11.9167L13.8614 10.856L9.14477 6.13933L8.08411 7.19999ZM12.8008 11.9167L11.7401 12.9773C11.396 12.6332 11.396 12.0834 11.7401 11.7393L12.8008 12.8L13.8614 13.8606C14.6889 13.0332 14.6889 11.6834 13.8614 10.856L12.8008 11.9167ZM12.8008 12.8L11.7401 11.7393C11.9112 11.5682 12.1411 11.4833 12.3591 11.4833V12.9833V14.4833C12.8938 14.4833 13.4403 14.2818 13.8614 13.8606L12.8008 12.8Z" fill="#163A96" mask="url(#path-5-inside-3_11001_31926)"/>
</svg>
