<svg width="24" height="24" viewBox="0 0 24 24" fill="none" xmlns="http://www.w3.org/2000/svg">
<mask id="path-1-inside-1_10738_25103" fill="white">
<path d="M9.16999 15.5799C8.97999 15.5799 8.78999 15.5099 8.63999 15.3599C8.34999 15.0699 8.34999 14.5899 8.63999 14.2999L14.3 8.63986C14.59 8.34986 15.07 8.34986 15.36 8.63986C15.65 8.92986 15.65 9.40986 15.36 9.69986L9.69998 15.3599C9.55998 15.5099 9.35999 15.5799 9.16999 15.5799Z"/>
</mask>
<path d="M9.16999 15.5799C8.97999 15.5799 8.78999 15.5099 8.63999 15.3599C8.34999 15.0699 8.34999 14.5899 8.63999 14.2999L14.3 8.63986C14.59 8.34986 15.07 8.34986 15.36 8.63986C15.65 8.92986 15.65 9.40986 15.36 9.69986L9.69998 15.3599C9.55998 15.5099 9.35999 15.5799 9.16999 15.5799Z" fill="#F7951D"/>
<path d="M9.69998 15.3599L8.63932 14.2992L8.62104 14.3175L8.6034 14.3364L9.69998 15.3599ZM9.16999 14.0799C9.35635 14.0799 9.55452 14.1531 9.70065 14.2992L7.57933 16.4205C8.02545 16.8667 8.60362 17.0799 9.16999 17.0799V14.0799ZM9.70065 14.2992C9.99643 14.595 9.99643 15.0647 9.70065 15.3605L7.57933 13.2392C6.70354 14.115 6.70354 15.5447 7.57933 16.4205L9.70065 14.2992ZM9.70065 15.3605L15.3606 9.70052L13.2393 7.5792L7.57933 13.2392L9.70065 15.3605ZM15.3606 9.70052C15.0649 9.99631 14.5951 9.99631 14.2993 9.70052L16.4206 7.5792C15.5449 6.70342 14.1151 6.70342 13.2393 7.5792L15.3606 9.70052ZM14.2993 9.70052C14.0035 9.40474 14.0035 8.93499 14.2993 8.6392L16.4206 10.7605C17.2964 9.88474 17.2964 8.45499 16.4206 7.5792L14.2993 9.70052ZM14.2993 8.6392L8.63932 14.2992L10.7606 16.4205L16.4206 10.7605L14.2993 8.6392ZM8.6034 14.3364C8.79265 14.1336 9.01606 14.0799 9.16999 14.0799V17.0799C9.70391 17.0799 10.3273 16.8861 10.7966 16.3833L8.6034 14.3364Z" fill="#F7951D" mask="url(#path-1-inside-1_10738_25103)"/>
<path d="M14.83 15.5799C14.64 15.5799 14.45 15.5099 14.3 15.3599L8.63999 9.69986C8.34999 9.40986 8.34999 8.92986 8.63999 8.63986C8.92999 8.34986 9.40998 8.34986 9.69998 8.63986L15.36 14.2999C15.65 14.5899 15.65 15.0699 15.36 15.3599C15.21 15.5099 15.02 15.5799 14.83 15.5799Z" fill="#F7951D"/>
<path d="M15 22.75H9C3.57 22.75 1.25 20.43 1.25 15V9C1.25 3.57 3.57 1.25 9 1.25H15C20.43 1.25 22.75 3.57 22.75 9V15C22.75 20.43 20.43 22.75 15 22.75ZM9 2.75C4.39 2.75 2.75 4.39 2.75 9V15C2.75 19.61 4.39 21.25 9 21.25H15C19.61 21.25 21.25 19.61 21.25 15V9C21.25 4.39 19.61 2.75 15 2.75H9Z" fill="#F7951D"/>
</svg>
