<svg width="20" height="20" viewBox="0 0 20 20" fill="none" xmlns="http://www.w3.org/2000/svg">
<path fill-rule="evenodd" clip-rule="evenodd" d="M6.22505 6.22481C6.46913 5.98073 6.86486 5.98073 7.10893 6.22481L10.0003 9.1162L12.8917 6.22481C13.1358 5.98073 13.5315 5.98073 13.7756 6.22481C14.0197 6.46888 14.0197 6.86461 13.7756 7.10869L10.8842 10.0001L13.7756 12.8915C14.0197 13.1356 14.0197 13.5313 13.7756 13.7754C13.5315 14.0194 13.1358 14.0194 12.8917 13.7754L10.0003 10.884L7.10893 13.7754C6.86486 14.0194 6.46913 14.0194 6.22505 13.7754C5.98097 13.5313 5.98097 13.1356 6.22505 12.8915L9.11644 10.0001L6.22505 7.10869C5.98097 6.86461 5.98097 6.46888 6.22505 6.22481Z" fill="#292D32"/>
</svg>
