<svg width="16" height="16" viewBox="0 0 16 16" fill="none" xmlns="http://www.w3.org/2000/svg">
<path d="M14.3531 7.24667L13.3398 6.23334C13.1664 6.06 13.0264 5.72 13.0264 5.48V4.04C13.0264 3.45334 12.5464 2.97334 11.9598 2.97334H10.5264C10.2864 2.97334 9.94643 2.83334 9.77309 2.66L8.75976 1.64667C8.34643 1.23334 7.66643 1.23334 7.25309 1.64667L6.22643 2.66C6.05976 2.83334 5.71976 2.97334 5.47309 2.97334H4.03976C3.45309 2.97334 2.97309 3.45334 2.97309 4.04V5.47334C2.97309 5.71334 2.83309 6.05334 2.65976 6.22667L1.64643 7.24C1.23309 7.65334 1.23309 8.33334 1.64643 8.74667L2.65976 9.76C2.83309 9.93334 2.97309 10.2733 2.97309 10.5133V11.9467C2.97309 12.5333 3.45309 13.0133 4.03976 13.0133H5.47309C5.71309 13.0133 6.05309 13.1533 6.22643 13.3267L7.23976 14.34C7.65309 14.7533 8.33309 14.7533 8.74643 14.34L9.75976 13.3267C9.93309 13.1533 10.2731 13.0133 10.5131 13.0133H11.9464C12.5331 13.0133 13.0131 12.5333 13.0131 11.9467V10.5133C13.0131 10.2733 13.1531 9.93334 13.3264 9.76L14.3398 8.74667C14.7731 8.34 14.7731 7.66 14.3531 7.24667ZM5.33309 6C5.33309 5.63334 5.63309 5.33334 5.99976 5.33334C6.36643 5.33334 6.66643 5.63334 6.66643 6C6.66643 6.36667 6.37309 6.66667 5.99976 6.66667C5.63309 6.66667 5.33309 6.36667 5.33309 6ZM6.35309 10.3533C6.25309 10.4533 6.12643 10.5 5.99976 10.5C5.87309 10.5 5.74643 10.4533 5.64643 10.3533C5.45309 10.16 5.45309 9.84 5.64643 9.64667L9.64643 5.64667C9.83976 5.45334 10.1598 5.45334 10.3531 5.64667C10.5464 5.84 10.5464 6.16 10.3531 6.35334L6.35309 10.3533ZM9.99976 10.6667C9.62642 10.6667 9.32643 10.3667 9.32643 10C9.32643 9.63334 9.62642 9.33334 9.99309 9.33334C10.3598 9.33334 10.6598 9.63334 10.6598 10C10.6598 10.3667 10.3664 10.6667 9.99976 10.6667Z" fill="white"/>
</svg>
