<svg width="16" height="16" viewBox="0 0 16 16" fill="none" xmlns="http://www.w3.org/2000/svg">
<mask id="path-1-inside-1_10121_579" fill="white">
<path d="M8.00016 15.1669C7.58016 15.1669 7.18683 15.0069 6.89349 14.7069L5.88017 13.6936C5.80017 13.6136 5.58683 13.5269 5.48016 13.5269H4.04016C3.17349 13.5269 2.47349 12.8268 2.47349 11.9602V10.5202C2.47349 10.4136 2.38682 10.2003 2.30682 10.1203L1.2935 9.10691C1.00016 8.81358 0.833496 8.42022 0.833496 8.00022C0.833496 7.58022 0.993498 7.18687 1.2935 6.89353L2.30682 5.88019C2.38682 5.80019 2.47349 5.58687 2.47349 5.4802V4.04026C2.47349 3.17359 3.17349 2.47353 4.04016 2.47353H5.48016C5.58683 2.47353 5.80017 2.38686 5.88017 2.30686L6.89349 1.29352C7.48016 0.706849 8.52017 0.706849 9.10683 1.29352L10.1202 2.30686C10.2002 2.38686 10.4135 2.47353 10.5202 2.47353H11.9602C12.8268 2.47353 13.5268 3.17359 13.5268 4.04026V5.4802C13.5268 5.58687 13.6135 5.80019 13.6935 5.88019L14.7068 6.89353C15.0002 7.18687 15.1668 7.58022 15.1668 8.00022C15.1668 8.42022 15.0068 8.81358 14.7068 9.10691L13.6935 10.1203C13.6135 10.2003 13.5268 10.4136 13.5268 10.5202V11.9602C13.5268 12.8268 12.8268 13.5269 11.9602 13.5269H10.5202C10.4135 13.5269 10.2002 13.6136 10.1202 13.6936L9.10683 14.7069C8.8135 15.0069 8.42016 15.1669 8.00016 15.1669ZM3.01349 9.41355C3.28016 9.68022 3.47349 10.1469 3.47349 10.5202V11.9602C3.47349 12.2735 3.72683 12.5269 4.04016 12.5269H5.48016C5.8535 12.5269 6.32017 12.7202 6.58683 12.9869L7.60016 14.0002C7.81349 14.2136 8.18683 14.2136 8.40017 14.0002L9.41349 12.9869C9.68016 12.7202 10.1468 12.5269 10.5202 12.5269H11.9602C12.2735 12.5269 12.5268 12.2735 12.5268 11.9602V10.5202C12.5268 10.1469 12.7202 9.68022 12.9868 9.41355L14.0002 8.40021C14.1068 8.29354 14.1668 8.15355 14.1668 8.00022C14.1668 7.84689 14.1068 7.7069 14.0002 7.60024L12.9868 6.58689C12.7202 6.32022 12.5268 5.85354 12.5268 5.4802V4.04026C12.5268 3.72693 12.2735 3.47353 11.9602 3.47353H10.5202C10.1468 3.47353 9.68016 3.28023 9.41349 3.01357L8.40017 2.00022C8.18683 1.78689 7.81349 1.78689 7.60016 2.00022L6.58683 3.01357C6.32017 3.28023 5.8535 3.47353 5.48016 3.47353H4.04016C3.72683 3.47353 3.47349 3.72693 3.47349 4.04026V5.4802C3.47349 5.85354 3.28016 6.32022 3.01349 6.58689L2.00016 7.60024C1.8935 7.7069 1.8335 7.84689 1.8335 8.00022C1.8335 8.15355 1.8935 8.29354 2.00016 8.40021L3.01349 9.41355Z"/>
</mask>
<path d="M8.00016 15.1669C7.58016 15.1669 7.18683 15.0069 6.89349 14.7069L5.88017 13.6936C5.80017 13.6136 5.58683 13.5269 5.48016 13.5269H4.04016C3.17349 13.5269 2.47349 12.8268 2.47349 11.9602V10.5202C2.47349 10.4136 2.38682 10.2003 2.30682 10.1203L1.2935 9.10691C1.00016 8.81358 0.833496 8.42022 0.833496 8.00022C0.833496 7.58022 0.993498 7.18687 1.2935 6.89353L2.30682 5.88019C2.38682 5.80019 2.47349 5.58687 2.47349 5.4802V4.04026C2.47349 3.17359 3.17349 2.47353 4.04016 2.47353H5.48016C5.58683 2.47353 5.80017 2.38686 5.88017 2.30686L6.89349 1.29352C7.48016 0.706849 8.52017 0.706849 9.10683 1.29352L10.1202 2.30686C10.2002 2.38686 10.4135 2.47353 10.5202 2.47353H11.9602C12.8268 2.47353 13.5268 3.17359 13.5268 4.04026V5.4802C13.5268 5.58687 13.6135 5.80019 13.6935 5.88019L14.7068 6.89353C15.0002 7.18687 15.1668 7.58022 15.1668 8.00022C15.1668 8.42022 15.0068 8.81358 14.7068 9.10691L13.6935 10.1203C13.6135 10.2003 13.5268 10.4136 13.5268 10.5202V11.9602C13.5268 12.8268 12.8268 13.5269 11.9602 13.5269H10.5202C10.4135 13.5269 10.2002 13.6136 10.1202 13.6936L9.10683 14.7069C8.8135 15.0069 8.42016 15.1669 8.00016 15.1669ZM3.01349 9.41355C3.28016 9.68022 3.47349 10.1469 3.47349 10.5202V11.9602C3.47349 12.2735 3.72683 12.5269 4.04016 12.5269H5.48016C5.8535 12.5269 6.32017 12.7202 6.58683 12.9869L7.60016 14.0002C7.81349 14.2136 8.18683 14.2136 8.40017 14.0002L9.41349 12.9869C9.68016 12.7202 10.1468 12.5269 10.5202 12.5269H11.9602C12.2735 12.5269 12.5268 12.2735 12.5268 11.9602V10.5202C12.5268 10.1469 12.7202 9.68022 12.9868 9.41355L14.0002 8.40021C14.1068 8.29354 14.1668 8.15355 14.1668 8.00022C14.1668 7.84689 14.1068 7.7069 14.0002 7.60024L12.9868 6.58689C12.7202 6.32022 12.5268 5.85354 12.5268 5.4802V4.04026C12.5268 3.72693 12.2735 3.47353 11.9602 3.47353H10.5202C10.1468 3.47353 9.68016 3.28023 9.41349 3.01357L8.40017 2.00022C8.18683 1.78689 7.81349 1.78689 7.60016 2.00022L6.58683 3.01357C6.32017 3.28023 5.8535 3.47353 5.48016 3.47353H4.04016C3.72683 3.47353 3.47349 3.72693 3.47349 4.04026V5.4802C3.47349 5.85354 3.28016 6.32022 3.01349 6.58689L2.00016 7.60024C1.8935 7.7069 1.8335 7.84689 1.8335 8.00022C1.8335 8.15355 1.8935 8.29354 2.00016 8.40021L3.01349 9.41355Z" fill="white"/>
<path d="M6.89349 14.7069L7.966 13.6583L7.96012 13.6522L7.95416 13.6463L6.89349 14.7069ZM5.88017 13.6936L6.94084 12.6329L6.94083 12.6329L5.88017 13.6936ZM2.30682 10.1203L1.24615 11.1809L1.24616 11.1809L2.30682 10.1203ZM1.2935 9.10691L2.35417 8.04626L2.35416 8.04625L1.2935 9.10691ZM1.2935 6.89353L2.34217 7.96604L2.3482 7.96015L2.35417 7.95418L1.2935 6.89353ZM2.30682 5.88019L1.24616 4.81953L1.24615 4.81954L2.30682 5.88019ZM5.88017 2.30686L6.94083 3.36752L6.94084 3.36751L5.88017 2.30686ZM6.89349 1.29352L5.83283 0.232855L5.83282 0.232866L6.89349 1.29352ZM9.10683 1.29352L10.1675 0.232866L10.1675 0.232855L9.10683 1.29352ZM10.1202 2.30686L9.05949 3.36751L9.0595 3.36752L10.1202 2.30686ZM13.6935 5.88019L14.7542 4.81954L14.7542 4.81953L13.6935 5.88019ZM14.7068 6.89353L13.6462 7.95418L13.6462 7.95419L14.7068 6.89353ZM14.7068 9.10691L13.6582 8.0344L13.6521 8.0403L13.6462 8.04626L14.7068 9.10691ZM13.6935 10.1203L14.7542 11.1809L14.7542 11.1809L13.6935 10.1203ZM10.1202 13.6936L9.0595 12.6329L9.05949 12.6329L10.1202 13.6936ZM9.10683 14.7069L8.04616 13.6463L8.04021 13.6522L8.03432 13.6583L9.10683 14.7069ZM3.01349 9.41355L1.95282 10.4742L1.95283 10.4742L3.01349 9.41355ZM6.58683 12.9869L7.6475 11.9262L7.64749 11.9262L6.58683 12.9869ZM7.60016 14.0002L6.53949 15.0609L6.5395 15.0609L7.60016 14.0002ZM8.40017 14.0002L9.46083 15.0609L9.46084 15.0609L8.40017 14.0002ZM9.41349 12.9869L8.35283 11.9262L8.35282 11.9262L9.41349 12.9869ZM12.9868 9.41355L14.0475 10.4742L14.0475 10.4742L12.9868 9.41355ZM14.0002 8.40021L12.9395 7.33955L12.9395 7.33956L14.0002 8.40021ZM14.0002 7.60024L12.9395 8.66089L12.9395 8.6609L14.0002 7.60024ZM12.9868 6.58689L14.0475 5.52624L14.0475 5.52623L12.9868 6.58689ZM9.41349 3.01357L8.35282 4.07422L8.35283 4.07423L9.41349 3.01357ZM8.40017 2.00022L9.46084 0.939572L9.46083 0.939561L8.40017 2.00022ZM7.60016 2.00022L6.5395 0.939561L6.53949 0.939572L7.60016 2.00022ZM6.58683 3.01357L7.64749 4.07423L7.6475 4.07422L6.58683 3.01357ZM3.01349 6.58689L1.95283 5.52623L1.95282 5.52624L3.01349 6.58689ZM2.00016 7.60024L3.06082 8.6609L3.06083 8.66089L2.00016 7.60024ZM2.00016 8.40021L3.06083 7.33956L3.06082 7.33955L2.00016 8.40021ZM8.00016 13.6669C7.98145 13.6669 7.97324 13.6635 7.97225 13.6631C7.97138 13.6628 7.97093 13.6625 7.97051 13.6622C7.97011 13.662 7.96859 13.6609 7.966 13.6583L5.82098 15.7556C6.40619 16.3541 7.19052 16.6669 8.00016 16.6669V13.6669ZM7.95416 13.6463L6.94084 12.6329L4.8195 14.7542L5.83282 15.7676L7.95416 13.6463ZM6.94083 12.6329C6.69123 12.3833 6.40035 12.2507 6.2628 12.1939C6.12787 12.1381 5.82977 12.0269 5.48016 12.0269V15.0269C5.32963 15.0269 5.22621 15.0005 5.20084 14.9939C5.16121 14.9837 5.13435 14.9736 5.11753 14.9666C5.10072 14.9597 5.07403 14.9477 5.03804 14.9265C5.0132 14.9119 4.92347 14.8582 4.81951 14.7542L6.94083 12.6329ZM5.48016 12.0269H4.04016V15.0269H5.48016V12.0269ZM4.04016 12.0269C4.002 12.0269 3.97349 11.9985 3.97349 11.9602H0.97349C0.97349 13.6552 2.34499 15.0269 4.04016 15.0269V12.0269ZM3.97349 11.9602V10.5202H0.97349V11.9602H3.97349ZM3.97349 10.5202C3.97349 10.1706 3.86227 9.87251 3.80654 9.73758C3.74971 9.60001 3.61705 9.30917 3.36748 9.0596L1.24616 11.1809C1.14222 11.077 1.08856 10.9873 1.07394 10.9624C1.05275 10.9264 1.04072 10.8997 1.03378 10.8829C1.02683 10.8661 1.01673 10.8392 1.00648 10.7996C0.999919 10.7742 0.97349 10.6708 0.97349 10.5202H3.97349ZM3.36749 9.05961L2.35417 8.04626L0.232827 10.1676L1.24615 11.1809L3.36749 9.05961ZM2.35416 8.04625C2.3445 8.0366 2.33991 8.02845 2.33757 8.02285C2.33535 8.01752 2.3335 8.01064 2.3335 8.00022H-0.666504C-0.666504 8.82458 -0.337146 9.59759 0.232838 10.1676L2.35416 8.04625ZM2.3335 8.00022C2.3335 7.98156 2.33683 7.97336 2.33725 7.97235C2.33761 7.97148 2.33789 7.97101 2.33818 7.97057C2.33846 7.97016 2.33952 7.96864 2.34217 7.96604L0.244821 5.82102C-0.353624 6.40617 -0.666504 7.1905 -0.666504 8.00022H2.3335ZM2.35417 7.95418L3.36749 6.94083L1.24615 4.81954L0.232827 5.83288L2.35417 7.95418ZM3.36748 6.94085C3.61705 6.69128 3.74971 6.40043 3.80654 6.26286C3.86227 6.12793 3.97349 5.82982 3.97349 5.4802H0.97349C0.97349 5.32967 0.999919 5.22624 1.00648 5.20086C1.01673 5.16122 1.02683 5.13435 1.03378 5.11753C1.04072 5.10071 1.05275 5.07402 1.07394 5.03802C1.08856 5.01318 1.14222 4.92347 1.24616 4.81953L3.36748 6.94085ZM3.97349 5.4802V4.04026H0.97349V5.4802H3.97349ZM3.97349 4.04026C3.97349 4.00195 4.002 3.97353 4.04016 3.97353V0.973529C2.34499 0.973529 0.97349 2.34524 0.97349 4.04026H3.97349ZM4.04016 3.97353H5.48016V0.973529H4.04016V3.97353ZM5.48016 3.97353C5.82977 3.97353 6.12787 3.86232 6.2628 3.80659C6.40035 3.74978 6.69123 3.61712 6.94083 3.36752L4.81951 1.2462C4.92347 1.14224 5.0132 1.08858 5.03804 1.07396C5.07403 1.05277 5.10072 1.04074 5.11753 1.0338C5.13435 1.02685 5.16121 1.01677 5.20084 1.00652C5.22621 0.999956 5.32963 0.973529 5.48016 0.973529V3.97353ZM6.94084 3.36751L7.95416 2.35417L5.83282 0.232866L4.8195 1.24621L6.94084 3.36751ZM7.95415 2.35418C7.94314 2.36519 7.93783 2.36547 7.94651 2.3621C7.95636 2.35828 7.97527 2.35352 8.00016 2.35352C8.02505 2.35352 8.04396 2.35828 8.05382 2.3621C8.0625 2.36547 8.05719 2.36519 8.04617 2.35418L10.1675 0.232855C8.99504 -0.939598 7.00529 -0.939598 5.83283 0.232855L7.95415 2.35418ZM8.04616 2.35417L9.05949 3.36751L11.1808 1.24621L10.1675 0.232866L8.04616 2.35417ZM9.0595 3.36752C9.30909 3.61712 9.59997 3.74978 9.73753 3.80659C9.87245 3.86232 10.1706 3.97353 10.5202 3.97353V0.973529C10.6707 0.973529 10.7741 0.999956 10.7995 1.00652C10.8391 1.01677 10.866 1.02685 10.8828 1.0338C10.8996 1.04074 10.9263 1.05277 10.9623 1.07396C10.9871 1.08858 11.0769 1.14224 11.1808 1.2462L9.0595 3.36752ZM10.5202 3.97353H11.9602V0.973529H10.5202V3.97353ZM11.9602 3.97353C11.9983 3.97353 12.0268 4.00195 12.0268 4.04026H15.0268C15.0268 2.34524 13.6553 0.973529 11.9602 0.973529V3.97353ZM12.0268 4.04026V5.4802H15.0268V4.04026H12.0268ZM12.0268 5.4802C12.0268 5.82982 12.1381 6.12793 12.1938 6.26286C12.2506 6.40043 12.3833 6.69128 12.6328 6.94085L14.7542 4.81953C14.8581 4.92347 14.9118 5.01318 14.9264 5.03802C14.9476 5.07402 14.9596 5.10071 14.9665 5.11753C14.9735 5.13435 14.9836 5.16122 14.9938 5.20086C15.0004 5.22624 15.0268 5.32967 15.0268 5.4802H12.0268ZM12.6328 6.94083L13.6462 7.95418L15.7675 5.83288L14.7542 4.81954L12.6328 6.94083ZM13.6462 7.95419C13.6558 7.96385 13.6604 7.97199 13.6628 7.9776C13.665 7.98292 13.6668 7.9898 13.6668 8.00022H16.6668C16.6668 7.17586 16.3375 6.40286 15.7675 5.83287L13.6462 7.95419ZM13.6668 8.00022C13.6668 8.01889 13.6635 8.02708 13.6631 8.0281C13.6627 8.02897 13.6624 8.02943 13.6621 8.02987C13.6619 8.03028 13.6608 8.03181 13.6582 8.0344L15.7555 10.1794C16.354 9.59427 16.6668 8.80995 16.6668 8.00022H13.6668ZM13.6462 8.04626L12.6328 9.05961L14.7542 11.1809L15.7675 10.1676L13.6462 8.04626ZM12.6328 9.0596C12.3833 9.30917 12.2506 9.60001 12.1938 9.73758C12.1381 9.87251 12.0268 10.1706 12.0268 10.5202H15.0268C15.0268 10.6708 15.0004 10.7742 14.9938 10.7996C14.9836 10.8392 14.9735 10.8661 14.9665 10.8829C14.9596 10.8997 14.9476 10.9264 14.9264 10.9624C14.9118 10.9873 14.8581 11.077 14.7542 11.1809L12.6328 9.0596ZM12.0268 10.5202V11.9602H15.0268V10.5202H12.0268ZM12.0268 11.9602C12.0268 11.9985 11.9983 12.0269 11.9602 12.0269V15.0269C13.6553 15.0269 15.0268 13.6552 15.0268 11.9602H12.0268ZM11.9602 12.0269H10.5202V15.0269H11.9602V12.0269ZM10.5202 12.0269C10.1706 12.0269 9.87245 12.1381 9.73753 12.1939C9.59997 12.2507 9.30909 12.3833 9.0595 12.6329L11.1808 14.7542C11.0769 14.8582 10.9871 14.9119 10.9623 14.9265C10.9263 14.9477 10.8996 14.9597 10.8828 14.9666C10.866 14.9736 10.8391 14.9837 10.7995 14.9939C10.7741 15.0005 10.6707 15.0269 10.5202 15.0269V12.0269ZM9.05949 12.6329L8.04616 13.6463L10.1675 15.7676L11.1808 14.7542L9.05949 12.6329ZM8.03432 13.6583C8.03173 13.6609 8.03022 13.662 8.02982 13.6622C8.02939 13.6625 8.02894 13.6628 8.02808 13.6631C8.02708 13.6635 8.01888 13.6669 8.00016 13.6669V16.6669C8.80981 16.6669 9.59414 16.3541 10.1793 15.7556L8.03432 13.6583ZM1.95283 10.4742C1.94118 10.4626 1.93476 10.4547 1.93263 10.452C1.93041 10.4492 1.93103 10.4497 1.93374 10.4539C1.93973 10.4633 1.94903 10.4801 1.95818 10.5021C1.96733 10.5242 1.97252 10.5423 1.97476 10.5524C1.97577 10.5569 1.97558 10.5572 1.97508 10.5529C1.9746 10.5488 1.97349 10.5378 1.97349 10.5202H4.97349C4.97349 9.74718 4.62077 8.89952 4.07415 8.35289L1.95283 10.4742ZM1.97349 10.5202V11.9602H4.97349V10.5202H1.97349ZM1.97349 11.9602C1.97349 13.1017 2.89819 14.0269 4.04016 14.0269V11.0269C4.55547 11.0269 4.97349 11.4453 4.97349 11.9602H1.97349ZM4.04016 14.0269H5.48016V11.0269H4.04016V14.0269ZM5.48016 14.0269C5.46259 14.0269 5.45159 14.0258 5.4475 14.0253C5.44327 14.0248 5.44353 14.0246 5.44806 14.0256C5.45818 14.0279 5.47627 14.0331 5.4983 14.0422C5.52032 14.0514 5.53711 14.0607 5.54649 14.0667C5.55072 14.0694 5.55122 14.07 5.54841 14.0677C5.5457 14.0656 5.53782 14.0592 5.52617 14.0475L7.64749 11.9262C7.10082 11.3795 6.25315 11.0269 5.48016 11.0269V14.0269ZM5.52616 14.0475L6.53949 15.0609L8.66083 12.9396L7.6475 11.9262L5.52616 14.0475ZM6.5395 15.0609C7.33862 15.86 8.66171 15.86 9.46083 15.0609L7.33951 12.9396C7.54494 12.7341 7.79479 12.6602 8.00016 12.6602C8.20554 12.6602 8.45538 12.7341 8.66082 12.9396L6.5395 15.0609ZM9.46084 15.0609L10.4742 14.0475L8.35282 11.9262L7.3395 12.9396L9.46084 15.0609ZM10.4742 14.0475C10.4625 14.0592 10.4546 14.0656 10.4519 14.0677C10.4491 14.07 10.4496 14.0694 10.4538 14.0667C10.4632 14.0607 10.48 14.0514 10.502 14.0422C10.5241 14.0331 10.5421 14.0279 10.5523 14.0256C10.5568 14.0246 10.5571 14.0248 10.5528 14.0253C10.5487 14.0258 10.5377 14.0269 10.5202 14.0269V11.0269C9.74718 11.0269 8.89951 11.3795 8.35283 11.9262L10.4742 14.0475ZM10.5202 14.0269H11.9602V11.0269H10.5202V14.0269ZM11.9602 14.0269C13.1021 14.0269 14.0268 13.1017 14.0268 11.9602H11.0268C11.0268 11.4453 11.4449 11.0269 11.9602 11.0269V14.0269ZM14.0268 11.9602V10.5202H11.0268V11.9602H14.0268ZM14.0268 10.5202C14.0268 10.5378 14.0257 10.5488 14.0252 10.5529C14.0247 10.5572 14.0246 10.5569 14.0256 10.5524C14.0278 10.5423 14.033 10.5242 14.0422 10.5021C14.0513 10.4801 14.0606 10.4633 14.0666 10.4539C14.0693 10.4497 14.0699 10.4492 14.0677 10.452C14.0656 10.4547 14.0591 10.4626 14.0475 10.4742L11.9262 8.35289C11.3796 8.89952 11.0268 9.74718 11.0268 10.5202H14.0268ZM14.0475 10.4742L15.0608 9.46085L12.9395 7.33956L11.9262 8.3529L14.0475 10.4742ZM15.0608 9.46087C15.4415 9.08019 15.6668 8.56158 15.6668 8.00022H12.6668C12.6668 7.74553 12.7722 7.50689 12.9395 7.33955L15.0608 9.46087ZM15.6668 8.00022C15.6668 7.43886 15.4415 6.92025 15.0608 6.53958L12.9395 8.6609C12.7722 8.49356 12.6668 8.25492 12.6668 8.00022H15.6668ZM15.0608 6.53959L14.0475 5.52624L11.9262 7.64754L12.9395 8.66089L15.0608 6.53959ZM14.0475 5.52623C14.0591 5.53788 14.0656 5.54575 14.0677 5.54845C14.0699 5.55126 14.0693 5.55076 14.0666 5.54652C14.0606 5.53713 14.0513 5.52033 14.0422 5.4983C14.033 5.47626 14.0278 5.45817 14.0256 5.44805C14.0246 5.44353 14.0247 5.44327 14.0252 5.4475C14.0257 5.4516 14.0268 5.46262 14.0268 5.4802H11.0268C11.0268 6.25326 11.3796 7.10093 11.9262 7.64755L14.0475 5.52623ZM14.0268 5.4802V4.04026H11.0268V5.4802H14.0268ZM14.0268 4.04026C14.0268 2.89871 13.1021 1.97353 11.9602 1.97353V4.97353C11.4449 4.97353 11.0268 4.55514 11.0268 4.04026H14.0268ZM11.9602 1.97353H10.5202V4.97353H11.9602V1.97353ZM10.5202 1.97353C10.5377 1.97353 10.5487 1.97463 10.5528 1.97512C10.5571 1.97562 10.5568 1.9758 10.5523 1.9748C10.5421 1.97255 10.5241 1.96736 10.502 1.95821C10.48 1.94907 10.4632 1.93978 10.4538 1.93379C10.4496 1.93109 10.4491 1.93047 10.4519 1.93269C10.4546 1.93484 10.4625 1.94126 10.4742 1.95291L8.35283 4.07423C8.89951 4.62091 9.74718 4.97353 10.5202 4.97353V1.97353ZM10.4742 1.95292L9.46084 0.939572L7.3395 3.06087L8.35282 4.07422L10.4742 1.95292ZM9.46083 0.939561C8.66171 0.140441 7.33862 0.140441 6.5395 0.939561L8.66082 3.06088C8.45538 3.26632 8.20554 3.34022 8.00016 3.34022C7.79479 3.34022 7.54494 3.26632 7.33951 3.06088L9.46083 0.939561ZM6.53949 0.939572L5.52616 1.95292L7.6475 4.07422L8.66083 3.06087L6.53949 0.939572ZM5.52617 1.95291C5.53782 1.94126 5.5457 1.93484 5.54841 1.93269C5.55122 1.93047 5.55072 1.93109 5.54649 1.93379C5.53711 1.93978 5.52032 1.94907 5.4983 1.95821C5.47627 1.96736 5.45818 1.97255 5.44806 1.9748C5.44353 1.9758 5.44327 1.97562 5.4475 1.97512C5.45159 1.97463 5.46259 1.97353 5.48016 1.97353V4.97353C6.25315 4.97353 7.10082 4.62091 7.64749 4.07423L5.52617 1.95291ZM5.48016 1.97353H4.04016V4.97353H5.48016V1.97353ZM4.04016 1.97353C2.89819 1.97353 1.97349 2.89871 1.97349 4.04026H4.97349C4.97349 4.55514 4.55546 4.97353 4.04016 4.97353V1.97353ZM1.97349 4.04026V5.4802H4.97349V4.04026H1.97349ZM1.97349 5.4802C1.97349 5.46262 1.9746 5.4516 1.97508 5.4475C1.97558 5.44327 1.97577 5.44353 1.97476 5.44805C1.97252 5.45817 1.96733 5.47626 1.95818 5.4983C1.94903 5.52033 1.93973 5.53713 1.93374 5.54652C1.93103 5.55076 1.93041 5.55126 1.93263 5.54845C1.93476 5.54575 1.94118 5.53788 1.95283 5.52623L4.07415 7.64755C4.62077 7.10093 4.97349 6.25326 4.97349 5.4802H1.97349ZM1.95282 5.52624L0.939492 6.53959L3.06083 8.66089L4.07416 7.64754L1.95282 5.52624ZM0.939503 6.53958C0.558829 6.92025 0.333496 7.43886 0.333496 8.00022H3.3335C3.3335 8.25492 3.22816 8.49356 3.06082 8.6609L0.939503 6.53958ZM0.333496 8.00022C0.333496 8.56158 0.558829 9.08019 0.939503 9.46087L3.06082 7.33955C3.22816 7.50689 3.3335 7.74553 3.3335 8.00022H0.333496ZM0.939492 9.46085L1.95282 10.4742L4.07416 8.3529L3.06083 7.33956L0.939492 9.46085Z" fill="white" mask="url(#path-1-inside-1_10121_579)"/>
<path d="M10.0767 10.0005C10.0766 10.0256 10.066 10.0473 10.0532 10.0601C10.0404 10.0728 10.0188 10.0834 9.99365 10.0835C9.96862 10.0835 9.94695 10.0727 9.93408 10.0601C9.92771 10.0537 9.92183 10.0447 9.91748 10.0347L9.90967 10.0005C9.90967 9.96291 9.94247 9.91676 9.99951 9.9165C10.0355 9.9165 10.0767 9.94808 10.0767 10.0005Z" fill="white" stroke="white" stroke-width="1.5"/>
<path d="M6.00684 6.66683C5.6335 6.66683 5.3335 6.36683 5.3335 6.00016C5.3335 5.6335 5.6335 5.3335 6.00016 5.3335C6.36683 5.3335 6.66683 5.6335 6.66683 6.00016C6.66683 6.36683 6.3735 6.66683 6.00684 6.66683Z" fill="white"/>
<path d="M5.9998 10.4998C5.87313 10.4998 5.74646 10.4532 5.64646 10.3532C5.45313 10.1598 5.45313 9.8398 5.64646 9.64647L9.64647 5.64646C9.8398 5.45313 10.1598 5.45313 10.3531 5.64646C10.5465 5.8398 10.5465 6.15984 10.3531 6.35317L6.35313 10.3532C6.25313 10.4532 6.12646 10.4998 5.9998 10.4998Z" fill="white"/>
</svg>
