<svg width="32" height="32" viewBox="0 0 32 32" fill="none" xmlns="http://www.w3.org/2000/svg">
<path d="M15.0366 3.82373C15.5704 3.28996 16.456 3.28996 16.9897 3.82373L19.0161 5.8501C19.2794 6.11335 19.6293 6.3184 19.9624 6.45654C20.2951 6.5945 20.6854 6.69676 21.0532 6.69678H23.9204C24.6792 6.697 25.303 7.32079 25.3032 8.07959V10.9604C25.3033 11.328 25.4056 11.7178 25.5434 12.0503C25.6816 12.3834 25.8867 12.7333 26.1499 12.9966L28.1763 15.0239L28.1802 15.0278C28.7225 15.5616 28.7166 16.4306 28.1665 16.9468L28.1577 16.9546L28.1499 16.9634L26.1226 18.9897C25.8594 19.253 25.6552 19.603 25.5171 19.936C25.3791 20.2688 25.2768 20.659 25.2768 21.0269V23.8931C25.2768 24.6522 24.6522 25.2769 23.8931 25.2769H21.0268C20.659 25.2769 20.2688 25.3791 19.936 25.5171C19.603 25.6552 19.253 25.8594 18.9897 26.1226L16.9634 28.1499C16.4296 28.6837 15.544 28.6836 15.0102 28.1499L12.9839 26.1226C12.7207 25.8594 12.3706 25.6552 12.0376 25.5171C11.7049 25.3791 11.3146 25.2769 10.9468 25.2769H8.07958C7.32065 25.2766 6.69677 24.652 6.69677 23.8931V21.0269C6.69677 20.659 6.59449 20.2688 6.45654 19.936C6.31839 19.6029 6.11338 19.253 5.85009 18.9897L3.82372 16.9634C3.28995 16.4296 3.28995 15.544 3.82372 15.0103L5.85009 12.9839C6.11334 12.7206 6.31839 12.3707 6.45654 12.0376C6.59449 11.7049 6.69675 11.3146 6.69677 10.9468V8.07959C6.697 7.3208 7.32079 6.69701 8.07958 6.69678H10.9468C11.3189 6.69676 11.7118 6.59568 12.0474 6.45654C12.3754 6.32051 12.72 6.11694 12.979 5.85303L12.98 5.854L15.0337 3.82666L15.0366 3.82373ZM19.9868 17.9165C18.8393 17.9165 17.9038 18.8529 17.9038 20.0005C17.9041 21.1527 18.8446 22.0835 20.0005 22.0835C21.1574 22.0832 22.0696 21.1378 22.0698 20.0005C22.0698 18.853 21.1343 17.9166 19.9868 17.9165ZM21.2368 10.7632C20.5572 10.0836 19.4427 10.0836 18.7632 10.7632L10.7632 18.7632C10.0836 19.4427 10.0836 20.5573 10.7632 21.2368C11.1112 21.5849 11.559 21.7505 12.0005 21.7505C12.4418 21.7504 12.8889 21.5848 13.2368 21.2368L21.2368 13.2368C21.9164 12.5573 21.9164 11.4427 21.2368 10.7632ZM12.0005 9.9165C10.8529 9.9165 9.9165 10.8529 9.9165 12.0005C9.91676 13.1478 10.8531 14.0835 12.0005 14.0835C13.1659 14.0832 14.0832 13.1428 14.0835 12.0005C14.0835 10.8531 13.1478 9.91677 12.0005 9.9165Z" fill="#F7951D" stroke="#F7951D" stroke-width="1.5"/>
</svg>
