<svg width="16" height="16" viewBox="0 0 16 16" fill="none" xmlns="http://www.w3.org/2000/svg">
<mask id="path-1-inside-1_10738_11713" fill="white">
<path d="M5.51334 15.1667H2.82001C1.48001 15.1667 0.833344 14.5467 0.833344 13.2667V2.73333C0.833344 1.45333 1.48668 0.833328 2.82001 0.833328H5.51334C6.85334 0.833328 7.50001 1.45333 7.50001 2.73333V13.2667C7.50001 14.5467 6.84668 15.1667 5.51334 15.1667ZM2.82001 1.83333C1.97334 1.83333 1.83334 2.05999 1.83334 2.73333V13.2667C1.83334 13.94 1.97334 14.1667 2.82001 14.1667H5.51334C6.36001 14.1667 6.50001 13.94 6.50001 13.2667V2.73333C6.50001 2.05999 6.36001 1.83333 5.51334 1.83333H2.82001V1.83333Z"/>
</mask>
<path d="M5.51334 15.1667H2.82001C1.48001 15.1667 0.833344 14.5467 0.833344 13.2667V2.73333C0.833344 1.45333 1.48668 0.833328 2.82001 0.833328H5.51334C6.85334 0.833328 7.50001 1.45333 7.50001 2.73333V13.2667C7.50001 14.5467 6.84668 15.1667 5.51334 15.1667ZM2.82001 1.83333C1.97334 1.83333 1.83334 2.05999 1.83334 2.73333V13.2667C1.83334 13.94 1.97334 14.1667 2.82001 14.1667H5.51334C6.36001 14.1667 6.50001 13.94 6.50001 13.2667V2.73333C6.50001 2.05999 6.36001 1.83333 5.51334 1.83333H2.82001V1.83333Z" fill="#1D1F1F"/>
<path d="M5.51334 15.1667V13.6667H2.82001V15.1667V16.6667H5.51334V15.1667ZM2.82001 15.1667V13.6667C2.35281 13.6667 2.30204 13.5563 2.36126 13.6129C2.43349 13.6821 2.33334 13.6713 2.33334 13.2667H0.833344H-0.666656C-0.666656 14.142 -0.443471 15.0813 0.287094 15.7804C1.00465 16.4671 1.94721 16.6667 2.82001 16.6667V15.1667ZM0.833344 13.2667H2.33334V2.73333H0.833344H-0.666656V13.2667H0.833344ZM0.833344 2.73333H2.33334C2.33334 2.33264 2.43307 2.32089 2.36239 2.38836C2.3053 2.44286 2.35804 2.33333 2.82001 2.33333V0.833328V-0.666672C1.94864 -0.666672 1.00806 -0.466204 0.290963 0.218295C-0.439718 0.915763 -0.666656 1.85402 -0.666656 2.73333H0.833344ZM2.82001 0.833328V2.33333H5.51334V0.833328V-0.666672H2.82001V0.833328ZM5.51334 0.833328V2.33333C5.98054 2.33333 6.03132 2.44373 5.97209 2.38705C5.89986 2.31793 6.00001 2.32864 6.00001 2.73333H7.50001H9.00001C9.00001 1.85802 8.77682 0.918726 8.04626 0.219604C7.3287 -0.46707 6.38614 -0.666672 5.51334 -0.666672V0.833328ZM7.50001 2.73333H6.00001V13.2667H7.50001H9.00001V2.73333H7.50001ZM7.50001 13.2667H6.00001C6.00001 13.6673 5.90028 13.6791 5.97096 13.6116C6.02806 13.5571 5.97531 13.6667 5.51334 13.6667V15.1667V16.6667C6.38471 16.6667 7.3253 16.4662 8.04239 15.7817C8.77307 15.0842 9.00001 14.146 9.00001 13.2667H7.50001ZM2.82001 1.83333V0.333328C2.40109 0.333328 1.56438 0.354305 0.948517 0.970168C0.3214 1.59728 0.333343 2.43796 0.333343 2.73333H1.83334H3.33334C3.33334 2.59728 3.34254 2.59095 3.33113 2.64113C3.3149 2.71255 3.25505 2.90627 3.06984 3.09149C2.88835 3.27298 2.70602 3.32648 2.65919 3.33773C2.62582 3.34575 2.65929 3.33333 2.82001 3.33333V1.83333ZM1.83334 2.73333H0.333343V13.2667H1.83334H3.33334V2.73333H1.83334ZM1.83334 13.2667H0.333343C0.333343 13.562 0.3214 14.4027 0.948516 15.0298C1.56438 15.6457 2.40109 15.6667 2.82001 15.6667V14.1667V12.6667C2.65929 12.6667 2.62582 12.6542 2.65919 12.6623C2.70602 12.6735 2.88835 12.727 3.06984 12.9085C3.25505 13.0937 3.3149 13.2874 3.33113 13.3589C3.34254 13.409 3.33334 13.4027 3.33334 13.2667H1.83334ZM2.82001 14.1667V15.6667H5.51334V14.1667V12.6667H2.82001V14.1667ZM5.51334 14.1667V15.6667C5.93226 15.6667 6.76897 15.6457 7.38484 15.0298C8.01195 14.4027 8.00001 13.562 8.00001 13.2667H6.50001H5.00001C5.00001 13.4027 4.99081 13.409 5.00222 13.3589C5.01845 13.2874 5.0783 13.0937 5.26352 12.9085C5.445 12.727 5.62733 12.6735 5.67416 12.6623C5.70753 12.6542 5.67406 12.6667 5.51334 12.6667V14.1667ZM6.50001 13.2667H8.00001V2.73333H6.50001H5.00001V13.2667H6.50001ZM6.50001 2.73333H8.00001C8.00001 2.43796 8.01195 1.59729 7.38484 0.970168C6.76897 0.354305 5.93226 0.333328 5.51334 0.333328V1.83333V3.33333C5.67406 3.33333 5.70753 3.34575 5.67416 3.33773C5.62734 3.32648 5.445 3.27298 5.26352 3.09149C5.0783 2.90627 5.01845 2.71255 5.00222 2.64113C4.99081 2.59095 5.00001 2.59728 5.00001 2.73333H6.50001ZM5.51334 1.83333V0.333328H2.82001V1.83333V3.33333H5.51334V1.83333ZM2.82001 1.83333" fill="#1D1F1F" mask="url(#path-1-inside-1_10738_11713)"/>
<path d="M13.18 9.16666H10.4867C9.14667 9.16666 8.5 8.54666 8.5 7.26666V2.73333C8.5 1.45333 9.15333 0.833328 10.4867 0.833328H13.18C14.52 0.833328 15.1667 1.45333 15.1667 2.73333V7.26666C15.1667 8.54666 14.5133 9.16666 13.18 9.16666ZM10.4867 1.83333C9.64 1.83333 9.5 2.05999 9.5 2.73333V7.26666C9.5 7.93999 9.64 8.16666 10.4867 8.16666H13.18C14.0267 8.16666 14.1667 7.93999 14.1667 7.26666V2.73333C14.1667 2.05999 14.0267 1.83333 13.18 1.83333H10.4867V1.83333Z" fill="#1D1F1F"/>
<path d="M13.18 15.1667H10.4867C9.14667 15.1667 8.5 14.5467 8.5 13.2667V12.0667C8.5 10.7867 9.15333 10.1667 10.4867 10.1667H13.18C14.52 10.1667 15.1667 10.7867 15.1667 12.0667V13.2667C15.1667 14.5467 14.5133 15.1667 13.18 15.1667ZM10.4867 11.1667C9.64 11.1667 9.5 11.3933 9.5 12.0667V13.2667C9.5 13.94 9.64 14.1667 10.4867 14.1667H13.18C14.0267 14.1667 14.1667 13.94 14.1667 13.2667V12.0667C14.1667 11.3933 14.0267 11.1667 13.18 11.1667H10.4867Z" fill="#292D32"/>
</svg>
