<svg width="20" height="20" viewBox="0 0 20 20" fill="none" xmlns="http://www.w3.org/2000/svg">
<path d="M15.7899 1.96558C15.7129 2.04764 15.6029 2.16504 15.4726 2.30737C15.2118 2.59199 14.8673 2.97684 14.5331 3.37476C14.1999 3.77147 13.8724 4.18693 13.6493 4.53198C13.5386 4.70318 13.4479 4.86603 13.3964 5.00562C13.3708 5.07518 13.3514 5.14891 13.3485 5.22046C13.3457 5.29233 13.359 5.38016 13.4208 5.45386V5.45483C13.4906 5.53743 13.5872 5.55933 13.6679 5.55542C13.7427 5.5517 13.817 5.52598 13.8827 5.49585C14.0162 5.43466 14.1733 5.32726 14.3388 5.19995C14.6724 4.94319 15.0859 4.56833 15.4901 4.20386C15.8988 3.8354 16.2987 3.47712 16.6181 3.23999C16.7793 3.1203 16.9076 3.0406 16.9989 3.00366C17.0015 3.00262 17.0043 3.00167 17.0067 3.00073C17.0024 3.01505 16.998 3.03341 16.9892 3.05444C16.9461 3.15653 16.8614 3.29086 16.7401 3.45288C16.4989 3.77509 16.1423 4.16577 15.7782 4.5603C15.4187 4.94999 15.0509 5.34446 14.7997 5.66284C14.6752 5.82071 14.5696 5.97191 14.5097 6.10132C14.4801 6.16527 14.454 6.23851 14.4511 6.31323C14.4479 6.39441 14.4724 6.48745 14.5526 6.55542C14.6262 6.61767 14.715 6.6314 14.787 6.62866C14.8584 6.62587 14.9316 6.60635 15.0009 6.58081C15.1404 6.52936 15.3035 6.43875 15.4745 6.32788C15.819 6.10455 16.2337 5.77684 16.6298 5.44312C17.0271 5.10837 17.411 4.76293 17.6952 4.50171C17.8374 4.371 17.955 4.2606 18.037 4.18335C18.0613 4.16047 18.0817 4.13966 18.0995 4.1228C16.9228 6.31109 15.7936 7.53878 14.9648 8.21655C14.5483 8.55708 14.207 8.75909 13.9735 8.87573C13.8568 8.93407 13.7662 8.97101 13.7069 8.99292C13.6778 9.00369 13.6562 9.0111 13.6425 9.01538C13.6357 9.01749 13.6306 9.01948 13.6278 9.02026H13.6259L13.6171 9.02222L13.6015 9.02808C13.5932 9.03042 13.5798 9.03339 13.5624 9.03687C13.527 9.04396 13.4763 9.0509 13.4179 9.04956C13.3024 9.04689 13.161 9.01321 13.036 8.88843H13.0351C12.9979 8.86035 12.9288 8.83546 12.8983 8.83374C12.8796 8.83521 12.8498 8.84083 12.8388 8.84448C12.8196 8.85147 12.8056 8.86057 12.8017 8.86304C12.7912 8.86962 12.7827 8.87685 12.7792 8.87964C12.7707 8.88648 12.7613 8.89447 12.7528 8.9021C12.7346 8.91857 12.7094 8.94298 12.6786 8.97241C12.6165 9.03174 12.5261 9.11894 12.413 9.23022C12.1866 9.45299 11.8639 9.77414 11.4745 10.1628C10.6954 10.9406 9.64846 11.9919 8.56827 13.0779C6.4072 15.2505 4.11446 17.5625 3.56924 18.1091C3.54823 18.1303 3.51461 18.1469 3.4501 18.1453C3.38183 18.1435 3.29002 18.1199 3.17862 18.0691C2.95662 17.9678 2.69792 17.7771 2.46475 17.5476C2.23148 17.3179 2.03716 17.0629 1.9335 16.8435C1.88158 16.7336 1.85767 16.643 1.85538 16.5759C1.8533 16.5131 1.8703 16.4799 1.89151 16.4587C2.43675 15.912 4.74441 13.6151 6.91299 11.45C7.99714 10.3675 9.04691 9.31848 9.82315 8.53784C10.2112 8.14758 10.5306 7.82332 10.7528 7.59644C10.8637 7.4832 10.9515 7.39403 11.0107 7.33179C11.04 7.30089 11.0635 7.27501 11.08 7.25659C11.0878 7.24787 11.0964 7.2382 11.1034 7.22925C11.1063 7.22563 11.1133 7.21684 11.12 7.20581C11.1226 7.20159 11.1317 7.18697 11.1386 7.16675C11.1421 7.15495 11.1475 7.12378 11.1483 7.10425C11.1455 7.07466 11.1182 7.01288 11.0907 6.97632L11.0937 6.97437C10.97 6.8495 10.9361 6.70771 10.9335 6.59155C10.9322 6.53293 10.9391 6.48169 10.9462 6.44604C10.9497 6.42837 10.9536 6.41433 10.956 6.40601C10.9571 6.40208 10.9585 6.39952 10.9589 6.39819H10.9579L10.9608 6.39038L10.9628 6.38257L10.9638 6.38062C10.9645 6.37788 10.9656 6.37284 10.9677 6.36597C10.9719 6.35218 10.9792 6.33018 10.9901 6.30054C11.012 6.24119 11.0491 6.15091 11.1073 6.03394C11.2237 5.80007 11.4257 5.45804 11.7655 5.04077C12.4423 4.20991 13.6678 3.07617 15.8544 1.89624C15.8365 1.91514 15.8152 1.93867 15.7899 1.96558Z" fill="#F7951D" stroke="#F7951D" stroke-width="0.375"/>
<path fill-rule="evenodd" clip-rule="evenodd" d="M10.008 12.363C12.1754 14.5351 15.8294 18.1957 15.8294 18.1957C15.8294 18.1957 17.4243 17.6738 17.649 16.3266L11.8507 10.5169C11.2359 11.1317 10.6217 11.7471 10.008 12.363ZM7.15595 10.4803C7.9334 9.70345 8.70993 8.92571 9.48555 8.14706L3.18366 1.83322C3.18366 1.83322 3.06977 1.71379 2.81895 1.96572C2.32092 2.46208 1.35736 5.62469 5.44243 9.71587C6.08989 10.3647 6.6532 10.4547 7.15595 10.4803Z" fill="#F7951D"/>
</svg>
