<svg width="20" height="20" viewBox="0 0 20 20" fill="none" xmlns="http://www.w3.org/2000/svg">
<mask id="path-1-inside-1_10768_25825" fill="white">
<path d="M10 13.6083C8.00833 13.6083 6.39166 11.9917 6.39166 10C6.39166 8.00833 8.00833 6.39166 10 6.39166C11.9917 6.39166 13.6083 8.00833 13.6083 10C13.6083 11.9917 11.9917 13.6083 10 13.6083ZM10 7.64166C8.7 7.64166 7.64166 8.7 7.64166 10C7.64166 11.3 8.7 12.3583 10 12.3583C11.3 12.3583 12.3583 11.3 12.3583 10C12.3583 8.7 11.3 7.64166 10 7.64166Z"/>
</mask>
<path d="M10 13.6083C8.00833 13.6083 6.39166 11.9917 6.39166 10C6.39166 8.00833 8.00833 6.39166 10 6.39166C11.9917 6.39166 13.6083 8.00833 13.6083 10C13.6083 11.9917 11.9917 13.6083 10 13.6083ZM10 7.64166C8.7 7.64166 7.64166 8.7 7.64166 10C7.64166 11.3 8.7 12.3583 10 12.3583C11.3 12.3583 12.3583 11.3 12.3583 10C12.3583 8.7 11.3 7.64166 10 7.64166Z" fill="#1D1F1F"/>
<path d="M10 12.1083C8.83676 12.1083 7.89166 11.1632 7.89166 10H4.89166C4.89166 12.8201 7.1799 15.1083 10 15.1083V12.1083ZM7.89166 10C7.89166 8.83676 8.83676 7.89166 10 7.89166V4.89166C7.1799 4.89166 4.89166 7.1799 4.89166 10H7.89166ZM10 7.89166C11.1632 7.89166 12.1083 8.83676 12.1083 10H15.1083C15.1083 7.1799 12.8201 4.89166 10 4.89166V7.89166ZM12.1083 10C12.1083 11.1632 11.1632 12.1083 10 12.1083V15.1083C12.8201 15.1083 15.1083 12.8201 15.1083 10H12.1083ZM10 6.14166C7.87157 6.14166 6.14166 7.87157 6.14166 10H9.14166C9.14166 9.52842 9.52842 9.14166 10 9.14166V6.14166ZM6.14166 10C6.14166 12.1284 7.87157 13.8583 10 13.8583V10.8583C9.52842 10.8583 9.14166 10.4716 9.14166 10H6.14166ZM10 13.8583C12.1284 13.8583 13.8583 12.1284 13.8583 10H10.8583C10.8583 10.4716 10.4716 10.8583 10 10.8583V13.8583ZM13.8583 10C13.8583 7.87157 12.1284 6.14166 10 6.14166V9.14166C10.4716 9.14166 10.8583 9.52842 10.8583 10H13.8583Z" fill="white" mask="url(#path-1-inside-1_10768_25825)"/>
<mask id="path-3-inside-2_10768_25825" fill="white">
<path d="M9.99999 17.5167C6.86666 17.5167 3.90833 15.6833 1.87499 12.5C0.991661 11.125 0.991661 8.88334 1.87499 7.5C3.91666 4.31667 6.87499 2.48334 9.99999 2.48334C13.125 2.48334 16.0833 4.31667 18.1167 7.5C19 8.875 19 11.1167 18.1167 12.5C16.0833 15.6833 13.125 17.5167 9.99999 17.5167ZM9.99999 3.73334C7.30833 3.73334 4.73333 5.35 2.93333 8.175C2.30833 9.15 2.30833 10.85 2.93333 11.825C4.73333 14.65 7.30833 16.2667 9.99999 16.2667C12.6917 16.2667 15.2667 14.65 17.0667 11.825C17.6917 10.85 17.6917 9.15 17.0667 8.175C15.2667 5.35 12.6917 3.73334 9.99999 3.73334Z"/>
</mask>
<path d="M9.99999 17.5167C6.86666 17.5167 3.90833 15.6833 1.87499 12.5C0.991661 11.125 0.991661 8.88334 1.87499 7.5C3.91666 4.31667 6.87499 2.48334 9.99999 2.48334C13.125 2.48334 16.0833 4.31667 18.1167 7.5C19 8.875 19 11.1167 18.1167 12.5C16.0833 15.6833 13.125 17.5167 9.99999 17.5167ZM9.99999 3.73334C7.30833 3.73334 4.73333 5.35 2.93333 8.175C2.30833 9.15 2.30833 10.85 2.93333 11.825C4.73333 14.65 7.30833 16.2667 9.99999 16.2667C12.6917 16.2667 15.2667 14.65 17.0667 11.825C17.6917 10.85 17.6917 9.15 17.0667 8.175C15.2667 5.35 12.6917 3.73334 9.99999 3.73334Z" fill="#1D1F1F"/>
<path d="M1.87499 12.5L3.13913 11.6925L3.13701 11.6893L1.87499 12.5ZM1.87499 7.5L0.612365 6.6902L0.610758 6.69272L1.87499 7.5ZM18.1167 7.5L16.8525 8.30746L16.8546 8.31075L18.1167 7.5ZM18.1167 12.5L19.3808 13.3075L19.3809 13.3073L18.1167 12.5ZM2.93333 8.175L4.19615 8.98451L4.19836 8.98104L2.93333 8.175ZM2.93333 11.825L4.19836 11.019L4.19615 11.0155L2.93333 11.825ZM17.0667 11.825L15.8038 11.0155L15.8016 11.019L17.0667 11.825ZM17.0667 8.175L15.8016 8.98105L15.8038 8.9845L17.0667 8.175ZM9.99999 16.0167C7.49233 16.0167 4.96424 14.5499 3.13912 11.6926L0.610866 13.3075C2.85242 16.8168 6.24099 19.0167 9.99999 19.0167V16.0167ZM3.13701 11.6893C2.8842 11.2957 2.71249 10.6898 2.71249 10.0031C2.71249 9.31684 2.88406 8.70689 3.13923 8.30729L0.610758 6.69272C-0.0174079 7.67645 -0.287506 8.879 -0.287506 10.0031C-0.287506 11.1269 -0.0175506 12.3293 0.612978 13.3108L3.13701 11.6893ZM3.13762 8.3098C4.97222 5.44932 7.50151 3.98334 9.99999 3.98334V0.983337C6.24848 0.983337 2.8611 3.18402 0.612368 6.6902L3.13762 8.3098ZM9.99999 3.98334C12.4986 3.98334 15.027 5.4494 16.8525 8.30746L19.3808 6.69255C17.1397 3.18394 13.7514 0.983337 9.99999 0.983337V3.98334ZM16.8546 8.31075C17.1075 8.70427 17.2792 9.31019 17.2792 9.99688C17.2792 10.6832 17.1076 11.2931 16.8524 11.6927L19.3809 13.3073C20.0091 12.3236 20.2792 11.121 20.2792 9.99688C20.2792 8.87315 20.0092 7.67074 19.3787 6.68925L16.8546 8.31075ZM16.8525 11.6926C15.027 14.5506 12.4986 16.0167 9.99999 16.0167V19.0167C13.7514 19.0167 17.1397 16.8161 19.3808 13.3075L16.8525 11.6926ZM9.99999 2.23334C6.66798 2.23334 3.6672 4.2318 1.6683 7.36897L4.19836 8.98104C5.79945 6.46821 7.94867 5.23334 9.99999 5.23334V2.23334ZM1.67051 7.36551C1.16177 8.15914 0.964577 9.13202 0.964577 10C0.964577 10.868 1.16177 11.8409 1.67051 12.6345L4.19615 11.0155C4.07989 10.8341 3.96458 10.4695 3.96458 10C3.96458 9.53049 4.07989 9.16587 4.19615 8.9845L1.67051 7.36551ZM1.6683 12.631C3.6672 15.7682 6.66798 17.7667 9.99999 17.7667V14.7667C7.94867 14.7667 5.79946 13.5318 4.19836 11.019L1.6683 12.631ZM9.99999 17.7667C13.332 17.7667 16.3328 15.7682 18.3317 12.631L15.8016 11.019C14.2005 13.5318 12.0513 14.7667 9.99999 14.7667V17.7667ZM18.3295 12.6345C18.8382 11.8409 19.0354 10.868 19.0354 10C19.0354 9.13202 18.8382 8.15914 18.3295 7.36551L15.8038 8.9845C15.9201 9.16587 16.0354 9.53049 16.0354 10C16.0354 10.4695 15.9201 10.8341 15.8038 11.0155L18.3295 12.6345ZM18.3317 7.36897C16.3328 4.2318 13.332 2.23334 9.99999 2.23334V5.23334C12.0513 5.23334 14.2005 6.46821 15.8016 8.98104L18.3317 7.36897Z" fill="white" mask="url(#path-3-inside-2_10768_25825)"/>
</svg>
