<svg width="20" height="20" viewBox="0 0 20 20" fill="none" xmlns="http://www.w3.org/2000/svg">
<mask id="path-1-inside-1_11001_22790" fill="white">
<path d="M10.0009 13.6083C8.00924 13.6083 6.39258 11.9917 6.39258 10C6.39258 8.00833 8.00924 6.39166 10.0009 6.39166C11.9926 6.39166 13.6092 8.00833 13.6092 10C13.6092 11.9917 11.9926 13.6083 10.0009 13.6083ZM10.0009 7.64166C8.70091 7.64166 7.64258 8.7 7.64258 10C7.64258 11.3 8.70091 12.3583 10.0009 12.3583C11.3009 12.3583 12.3592 11.3 12.3592 10C12.3592 8.7 11.3009 7.64166 10.0009 7.64166Z"/>
</mask>
<path d="M10.0009 13.6083C8.00924 13.6083 6.39258 11.9917 6.39258 10C6.39258 8.00833 8.00924 6.39166 10.0009 6.39166C11.9926 6.39166 13.6092 8.00833 13.6092 10C13.6092 11.9917 11.9926 13.6083 10.0009 13.6083ZM10.0009 7.64166C8.70091 7.64166 7.64258 8.7 7.64258 10C7.64258 11.3 8.70091 12.3583 10.0009 12.3583C11.3009 12.3583 12.3592 11.3 12.3592 10C12.3592 8.7 11.3009 7.64166 10.0009 7.64166Z" fill="#163A96"/>
<path d="M10.0009 12.1083C8.83767 12.1083 7.89258 11.1632 7.89258 10H4.89258C4.89258 12.8201 7.18082 15.1083 10.0009 15.1083V12.1083ZM7.89258 10C7.89258 8.83676 8.83767 7.89166 10.0009 7.89166V4.89166C7.18082 4.89166 4.89258 7.1799 4.89258 10H7.89258ZM10.0009 7.89166C11.1642 7.89166 12.1092 8.83676 12.1092 10H15.1092C15.1092 7.1799 12.821 4.89166 10.0009 4.89166V7.89166ZM12.1092 10C12.1092 11.1632 11.1642 12.1083 10.0009 12.1083V15.1083C12.821 15.1083 15.1092 12.8201 15.1092 10H12.1092ZM10.0009 6.14166C7.87248 6.14166 6.14258 7.87157 6.14258 10H9.14258C9.14258 9.52842 9.52934 9.14166 10.0009 9.14166V6.14166ZM6.14258 10C6.14258 12.1284 7.87248 13.8583 10.0009 13.8583V10.8583C9.52934 10.8583 9.14258 10.4716 9.14258 10H6.14258ZM10.0009 13.8583C12.1293 13.8583 13.8592 12.1284 13.8592 10H10.8592C10.8592 10.4716 10.4725 10.8583 10.0009 10.8583V13.8583ZM13.8592 10C13.8592 7.87157 12.1293 6.14166 10.0009 6.14166V9.14166C10.4725 9.14166 10.8592 9.52842 10.8592 10H13.8592Z" fill="#1D1F1F" mask="url(#path-1-inside-1_11001_22790)"/>
<mask id="path-3-inside-2_11001_22790" fill="white">
<path d="M10.0004 17.5167C6.86706 17.5167 3.90872 15.6833 1.87539 12.5C0.992057 11.125 0.992057 8.88334 1.87539 7.5C3.91706 4.31667 6.87539 2.48334 10.0004 2.48334C13.1254 2.48334 16.0837 4.31667 18.1171 7.5C19.0004 8.875 19.0004 11.1167 18.1171 12.5C16.0837 15.6833 13.1254 17.5167 10.0004 17.5167ZM10.0004 3.73334C7.30872 3.73334 4.73372 5.35 2.93372 8.175C2.30872 9.15 2.30872 10.85 2.93372 11.825C4.73372 14.65 7.30872 16.2667 10.0004 16.2667C12.6921 16.2667 15.2671 14.65 17.0671 11.825C17.6921 10.85 17.6921 9.15 17.0671 8.175C15.2671 5.35 12.6921 3.73334 10.0004 3.73334Z"/>
</mask>
<path d="M10.0004 17.5167C6.86706 17.5167 3.90872 15.6833 1.87539 12.5C0.992057 11.125 0.992057 8.88334 1.87539 7.5C3.91706 4.31667 6.87539 2.48334 10.0004 2.48334C13.1254 2.48334 16.0837 4.31667 18.1171 7.5C19.0004 8.875 19.0004 11.1167 18.1171 12.5C16.0837 15.6833 13.1254 17.5167 10.0004 17.5167ZM10.0004 3.73334C7.30872 3.73334 4.73372 5.35 2.93372 8.175C2.30872 9.15 2.30872 10.85 2.93372 11.825C4.73372 14.65 7.30872 16.2667 10.0004 16.2667C12.6921 16.2667 15.2671 14.65 17.0671 11.825C17.6921 10.85 17.6921 9.15 17.0671 8.175C15.2671 5.35 12.6921 3.73334 10.0004 3.73334Z" fill="#163A96"/>
<path d="M1.87539 12.5L3.13952 11.6925L3.13741 11.6893L1.87539 12.5ZM1.87539 7.5L0.612762 6.6902L0.611154 6.69272L1.87539 7.5ZM18.1171 7.5L16.8529 8.30746L16.855 8.31075L18.1171 7.5ZM18.1171 12.5L19.3812 13.3075L19.3813 13.3073L18.1171 12.5ZM2.93372 8.175L4.19655 8.98451L4.19876 8.98104L2.93372 8.175ZM2.93372 11.825L4.19876 11.019L4.19654 11.0155L2.93372 11.825ZM17.0671 11.825L15.8042 11.0155L15.802 11.019L17.0671 11.825ZM17.0671 8.175L15.802 8.98105L15.8042 8.9845L17.0671 8.175ZM10.0004 16.0167C7.49272 16.0167 4.96463 14.5499 3.13952 11.6926L0.611263 13.3075C2.85282 16.8168 6.24139 19.0167 10.0004 19.0167V16.0167ZM3.13741 11.6893C2.8846 11.2957 2.71289 10.6898 2.71289 10.0031C2.71289 9.31684 2.88446 8.70689 3.13963 8.30729L0.611154 6.69272C-0.0170112 7.67645 -0.287109 8.879 -0.287109 10.0031C-0.287109 11.1269 -0.0171539 12.3293 0.613374 13.3108L3.13741 11.6893ZM3.13802 8.3098C4.97262 5.44932 7.50191 3.98334 10.0004 3.98334V0.983337C6.24887 0.983337 2.8615 3.18402 0.612764 6.6902L3.13802 8.3098ZM10.0004 3.98334C12.499 3.98334 15.0274 5.4494 16.8529 8.30746L19.3812 6.69255C17.1401 3.18394 13.7518 0.983337 10.0004 0.983337V3.98334ZM16.855 8.31075C17.1078 8.70427 17.2796 9.31019 17.2796 9.99688C17.2796 10.6832 17.108 11.2931 16.8528 11.6927L19.3813 13.3073C20.0095 12.3236 20.2796 11.121 20.2796 9.99688C20.2796 8.87315 20.0096 7.67074 19.3791 6.68925L16.855 8.31075ZM16.8529 11.6926C15.0274 14.5506 12.499 16.0167 10.0004 16.0167V19.0167C13.7518 19.0167 17.1401 16.8161 19.3812 13.3075L16.8529 11.6926ZM10.0004 2.23334C6.66838 2.23334 3.6676 4.2318 1.66869 7.36897L4.19876 8.98104C5.79985 6.46821 7.94907 5.23334 10.0004 5.23334V2.23334ZM1.67091 7.36551C1.16217 8.15914 0.964974 9.13202 0.964974 10C0.964974 10.868 1.16217 11.8409 1.67091 12.6345L4.19654 11.0155C4.08028 10.8341 3.96497 10.4695 3.96497 10C3.96497 9.53049 4.08028 9.16587 4.19654 8.9845L1.67091 7.36551ZM1.66869 12.631C3.6676 15.7682 6.66838 17.7667 10.0004 17.7667V14.7667C7.94907 14.7667 5.79985 13.5318 4.19876 11.019L1.66869 12.631ZM10.0004 17.7667C13.3324 17.7667 16.3332 15.7682 18.3321 12.631L15.802 11.019C14.2009 13.5318 12.0517 14.7667 10.0004 14.7667V17.7667ZM18.3299 12.6345C18.8386 11.8409 19.0358 10.868 19.0358 10C19.0358 9.13202 18.8386 8.15914 18.3299 7.36551L15.8042 8.9845C15.9205 9.16587 16.0358 9.53049 16.0358 10C16.0358 10.4695 15.9205 10.8341 15.8042 11.0155L18.3299 12.6345ZM18.3321 7.36897C16.3332 4.2318 13.3324 2.23334 10.0004 2.23334V5.23334C12.0517 5.23334 14.2009 6.46821 15.802 8.98104L18.3321 7.36897Z" fill="#1D1F1F" mask="url(#path-3-inside-2_11001_22790)"/>
</svg>
