<svg width="24" height="24" viewBox="0 0 24 24" fill="none" xmlns="http://www.w3.org/2000/svg">
<path d="M20.3992 1.20001H3.59922C2.27922 1.20001 1.19922 2.28001 1.19922 3.60001V20.4C1.19922 21.7212 2.27922 22.8 3.59922 22.8H11.9992V14.4H9.59922V11.43H11.9992V8.97001C11.9992 6.37321 13.4536 4.54921 16.5184 4.54921L18.682 4.55161V7.67761H17.2456C16.0528 7.67761 15.5992 8.57281 15.5992 9.40321V11.4312H18.6808L17.9992 14.4H15.5992V22.8H20.3992C21.7192 22.8 22.7992 21.7212 22.7992 20.4V3.60001C22.7992 2.28001 21.7192 1.20001 20.3992 1.20001Z" fill="#1D1F1F"/>
</svg>
