<svg width="20" height="20" viewBox="0 0 20 20" fill="none" xmlns="http://www.w3.org/2000/svg">
<mask id="path-1-inside-1_10908_24914" fill="white">
<path d="M18.334 6.04169H13.334C12.9923 6.04169 12.709 5.75835 12.709 5.41669C12.709 5.07502 12.9923 4.79169 13.334 4.79169H18.334C18.6757 4.79169 18.959 5.07502 18.959 5.41669C18.959 5.75835 18.6757 6.04169 18.334 6.04169Z"/>
</mask>
<path d="M18.334 6.04169H13.334C12.9923 6.04169 12.709 5.75835 12.709 5.41669C12.709 5.07502 12.9923 4.79169 13.334 4.79169H18.334C18.6757 4.79169 18.959 5.07502 18.959 5.41669C18.959 5.75835 18.6757 6.04169 18.334 6.04169Z" fill="#163A96"/>
<path d="M18.334 6.04169V4.54169H13.334V6.04169V7.54169H18.334V6.04169ZM13.334 6.04169V4.54169C13.8207 4.54169 14.209 4.92993 14.209 5.41669H12.709H11.209C11.209 6.58678 12.1639 7.54169 13.334 7.54169V6.04169ZM12.709 5.41669H14.209C14.209 5.90345 13.8207 6.29169 13.334 6.29169V4.79169V3.29169C12.1639 3.29169 11.209 4.24659 11.209 5.41669H12.709ZM13.334 4.79169V6.29169H18.334V4.79169V3.29169H13.334V4.79169ZM18.334 4.79169V6.29169C17.8472 6.29169 17.459 5.90345 17.459 5.41669H18.959H20.459C20.459 4.24659 19.5041 3.29169 18.334 3.29169V4.79169ZM18.959 5.41669H17.459C17.459 4.92993 17.8472 4.54169 18.334 4.54169V6.04169V7.54169C19.5041 7.54169 20.459 6.58678 20.459 5.41669H18.959Z" fill="#163A96" mask="url(#path-1-inside-1_10908_24914)"/>
<mask id="path-3-inside-2_10908_24914" fill="white">
<path d="M4.99935 6.04169H1.66602C1.32435 6.04169 1.04102 5.75835 1.04102 5.41669C1.04102 5.07502 1.32435 4.79169 1.66602 4.79169H4.99935C5.34102 4.79169 5.62435 5.07502 5.62435 5.41669C5.62435 5.75835 5.34102 6.04169 4.99935 6.04169Z"/>
</mask>
<path d="M4.99935 6.04169H1.66602C1.32435 6.04169 1.04102 5.75835 1.04102 5.41669C1.04102 5.07502 1.32435 4.79169 1.66602 4.79169H4.99935C5.34102 4.79169 5.62435 5.07502 5.62435 5.41669C5.62435 5.75835 5.34102 6.04169 4.99935 6.04169Z" fill="#163A96"/>
<path d="M4.99935 6.04169V4.54169H1.66602V6.04169V7.54169H4.99935V6.04169ZM1.66602 6.04169V4.54169C2.15278 4.54169 2.54102 4.92993 2.54102 5.41669H1.04102H-0.458984C-0.458984 6.58678 0.495922 7.54169 1.66602 7.54169V6.04169ZM1.04102 5.41669H2.54102C2.54102 5.90345 2.15278 6.29169 1.66602 6.29169V4.79169V3.29169C0.495922 3.29169 -0.458984 4.24659 -0.458984 5.41669H1.04102ZM1.66602 4.79169V6.29169H4.99935V4.79169V3.29169H1.66602V4.79169ZM4.99935 4.79169V6.29169C4.51259 6.29169 4.12435 5.90345 4.12435 5.41669H5.62435H7.12435C7.12435 4.24659 6.16944 3.29169 4.99935 3.29169V4.79169ZM5.62435 5.41669H4.12435C4.12435 4.92993 4.51259 4.54169 4.99935 4.54169V6.04169V7.54169C6.16944 7.54169 7.12435 6.58678 7.12435 5.41669H5.62435Z" fill="#163A96" mask="url(#path-3-inside-2_10908_24914)"/>
<mask id="path-5-inside-3_10908_24914" fill="white">
<path d="M8.33268 8.95833C6.38268 8.95833 4.79102 7.36667 4.79102 5.41667C4.79102 3.46667 6.38268 1.875 8.33268 1.875C10.2827 1.875 11.8743 3.46667 11.8743 5.41667C11.8743 7.36667 10.2827 8.95833 8.33268 8.95833ZM8.33268 3.125C7.06602 3.125 6.04102 4.15 6.04102 5.41667C6.04102 6.68333 7.06602 7.70833 8.33268 7.70833C9.59935 7.70833 10.6243 6.68333 10.6243 5.41667C10.6243 4.15 9.59935 3.125 8.33268 3.125Z"/>
</mask>
<path d="M8.33268 8.95833C6.38268 8.95833 4.79102 7.36667 4.79102 5.41667C4.79102 3.46667 6.38268 1.875 8.33268 1.875C10.2827 1.875 11.8743 3.46667 11.8743 5.41667C11.8743 7.36667 10.2827 8.95833 8.33268 8.95833ZM8.33268 3.125C7.06602 3.125 6.04102 4.15 6.04102 5.41667C6.04102 6.68333 7.06602 7.70833 8.33268 7.70833C9.59935 7.70833 10.6243 6.68333 10.6243 5.41667C10.6243 4.15 9.59935 3.125 8.33268 3.125Z" fill="#163A96"/>
<path d="M8.33268 8.95833V7.45833C7.21111 7.45833 6.29102 6.53824 6.29102 5.41667H4.79102H3.29102C3.29102 8.19509 5.55426 10.4583 8.33268 10.4583V8.95833ZM4.79102 5.41667H6.29102C6.29102 4.29509 7.21111 3.375 8.33268 3.375V1.875V0.375C5.55426 0.375 3.29102 2.63824 3.29102 5.41667H4.79102ZM8.33268 1.875V3.375C9.45426 3.375 10.3743 4.29509 10.3743 5.41667H11.8743H13.3743C13.3743 2.63824 11.1111 0.375 8.33268 0.375V1.875ZM11.8743 5.41667H10.3743C10.3743 6.53824 9.45426 7.45833 8.33268 7.45833V8.95833V10.4583C11.1111 10.4583 13.3743 8.19509 13.3743 5.41667H11.8743ZM8.33268 3.125V1.625C6.23759 1.625 4.54102 3.32157 4.54102 5.41667H6.04102H7.54102C7.54102 4.97843 7.89444 4.625 8.33268 4.625V3.125ZM6.04102 5.41667H4.54102C4.54102 7.51176 6.23759 9.20833 8.33268 9.20833V7.70833V6.20833C7.89444 6.20833 7.54102 5.85491 7.54102 5.41667H6.04102ZM8.33268 7.70833V9.20833C10.4278 9.20833 12.1243 7.51176 12.1243 5.41667H10.6243H9.12435C9.12435 5.85491 8.77092 6.20833 8.33268 6.20833V7.70833ZM10.6243 5.41667H12.1243C12.1243 3.32157 10.4278 1.625 8.33268 1.625V3.125V4.625C8.77092 4.625 9.12435 4.97843 9.12435 5.41667H10.6243Z" fill="#163A96" mask="url(#path-5-inside-3_10908_24914)"/>
<path d="M18.3333 15.2083H15C14.6583 15.2083 14.375 14.925 14.375 14.5833C14.375 14.2416 14.6583 13.9583 15 13.9583H18.3333C18.675 13.9583 18.9583 14.2416 18.9583 14.5833C18.9583 14.925 18.675 15.2083 18.3333 15.2083Z" fill="#163A96"/>
<path d="M6.66602 15.2083H1.66602C1.32435 15.2083 1.04102 14.925 1.04102 14.5833C1.04102 14.2416 1.32435 13.9583 1.66602 13.9583H6.66602C7.00768 13.9583 7.29102 14.2416 7.29102 14.5833C7.29102 14.925 7.00768 15.2083 6.66602 15.2083Z" fill="#163A96"/>
<path d="M11.6667 18.125C9.71667 18.125 8.125 16.5334 8.125 14.5834C8.125 12.6334 9.71667 11.0417 11.6667 11.0417C13.6167 11.0417 15.2083 12.6334 15.2083 14.5834C15.2083 16.5334 13.6167 18.125 11.6667 18.125ZM11.6667 12.2917C10.4 12.2917 9.375 13.3167 9.375 14.5834C9.375 15.85 10.4 16.875 11.6667 16.875C12.9333 16.875 13.9583 15.85 13.9583 14.5834C13.9583 13.3167 12.9333 12.2917 11.6667 12.2917Z" fill="#163A96"/>
</svg>
