<svg width="50" height="49" viewBox="0 0 50 49" fill="none" xmlns="http://www.w3.org/2000/svg">
<path d="M24.6758 49C38.3039 49 49.3517 38.031 49.3517 24.5C49.3517 10.969 38.3039 0 24.6758 0C11.0478 0 0 10.969 0 24.5C0 38.031 11.0478 49 24.6758 49Z" fill="#34E0A1"/>
<path d="M39.9168 19.7203L42.8945 16.5038H36.2913C32.9855 14.2618 28.9933 12.9561 24.6757 12.9561C20.3635 12.9561 16.3824 14.2646 13.0821 16.5038H6.4624L9.44005 19.7203C7.61489 21.3737 6.4707 23.7553 6.4707 26.3996C6.4707 31.39 10.5457 35.4359 15.5719 35.4359C17.9595 35.4359 20.1348 34.5216 21.7587 33.0269L24.6757 36.1805L27.5927 33.0297C29.2167 34.5243 31.3892 35.4359 33.7768 35.4359C38.803 35.4359 42.8835 31.39 42.8835 26.3996C42.8862 23.7525 41.742 21.371 39.9168 19.7203ZM15.5746 32.515C12.1723 32.515 9.41529 29.7777 9.41529 26.3996C9.41529 23.0216 12.1724 20.2842 15.5746 20.2842C18.9768 20.2842 21.7338 23.0216 21.7338 26.3996C21.7338 29.7777 18.9768 32.515 15.5746 32.515ZM24.6784 26.2217C24.6784 22.1976 21.7311 18.743 17.8409 17.2675C19.9445 16.3942 22.2522 15.9097 24.6757 15.9097C27.0991 15.9097 29.4095 16.3942 31.5132 17.2675C27.6258 18.7458 24.6784 22.1977 24.6784 26.2217ZM33.7796 32.515C30.3773 32.515 27.6203 29.7777 27.6203 26.3996C27.6203 23.0216 30.3773 20.2842 33.7796 20.2842C37.1819 20.2842 39.9389 23.0216 39.9389 26.3996C39.9389 29.7777 37.1818 32.515 33.7796 32.515ZM33.7796 23.1913C31.9957 23.1913 30.551 24.6257 30.551 26.3969C30.551 28.168 31.9957 29.6024 33.7796 29.6024C35.5634 29.6024 37.0081 28.168 37.0081 26.3969C37.0081 24.6285 35.5634 23.1913 33.7796 23.1913ZM18.8031 26.3996C18.8031 28.1707 17.3584 29.6052 15.5746 29.6052C13.7908 29.6052 12.346 28.1707 12.346 26.3996C12.346 24.6285 13.7908 23.1941 15.5746 23.1941C17.3584 23.1913 18.8031 24.6285 18.8031 26.3996Z" fill="black"/>
</svg>
