<svg width="40" height="40" viewBox="0 0 40 40" fill="none" xmlns="http://www.w3.org/2000/svg">
<rect width="40" height="40" rx="16" fill="#FEF3E6"/>
<path d="M24.376 11.6719C26.2855 11.0354 27.4907 11.3248 28.085 11.9199C28.6799 12.5158 28.9691 13.7238 28.3379 15.6328L25.3281 24.6523L25.3271 24.6533C24.8382 26.1225 24.2893 27.1661 23.7432 27.8271C23.1952 28.4904 22.7193 28.6923 22.3594 28.6924C21.9995 28.6924 21.5236 28.4904 20.9756 27.8271C20.4977 27.2488 20.0173 26.3774 19.5771 25.1846L19.3906 24.6533L18.501 21.9736L18.3828 21.6172L18.0254 21.498L15.3457 20.6084C13.8764 20.1194 12.8329 19.5699 12.1719 19.0244C11.5086 18.477 11.3066 18.0025 11.3066 17.6436C11.3067 17.2844 11.5092 16.8095 12.1729 16.2607C12.8339 15.7142 13.8762 15.1622 15.3447 14.6709L15.3457 14.6719L24.376 11.6719ZM24.876 14.6475C24.2887 14.1692 23.4156 14.2035 22.8691 14.75L22.8672 14.751L19.0684 18.5693C18.4856 19.1522 18.4857 20.1075 19.0684 20.6904C19.3664 20.9884 19.7508 21.1298 20.1289 21.1299C20.5071 21.1299 20.8914 20.9885 21.1895 20.6904L21.1904 20.6895L24.9902 16.8682C25.5353 16.3216 25.5695 15.4501 25.0918 14.8633L24.9893 14.75L24.876 14.6475Z" fill="#F7951D" stroke="#F7951D" stroke-width="1.5"/>
</svg>
