<svg width="40" height="40" viewBox="0 0 40 40" fill="none" xmlns="http://www.w3.org/2000/svg">
<rect width="40" height="40" rx="16" fill="#FEF3E6"/>
<path d="M18.3291 11.6576C18.4361 11.6989 18.4999 11.7845 18.5 11.8998V20.9203C18.4999 20.9993 18.4636 21.073 18.3877 21.1264L11.1816 26.1742C11.107 26.2261 11.015 26.2346 10.9307 26.2016C10.8493 26.1697 10.801 26.1104 10.7871 26.0346C10.6764 25.3887 10.8149 24.5549 11.3545 23.5736L11.3555 23.5746L14.4756 17.9643L17.4131 12.6762L17.4141 12.6771C17.6208 12.3086 17.8426 11.9893 18.0693 11.7182C18.1118 11.6686 18.1515 11.6505 18.1855 11.643C18.225 11.6344 18.2757 11.637 18.3291 11.6576Z" fill="#F7951D" stroke="#F7951D" stroke-width="1.5"/>
<path d="M21.8135 11.643C21.8306 11.6467 21.8495 11.6528 21.8691 11.6645L21.9307 11.7182C22.1566 11.9884 22.3779 12.3063 22.584 12.6732V12.6742L25.5244 17.9643L28.6426 23.5707V23.5717C29.1833 24.5541 29.3228 25.3881 29.2119 26.0346C29.198 26.1104 29.1506 26.1696 29.0693 26.2016C28.985 26.2346 28.893 26.2259 28.8184 26.1742H28.8174L21.6104 21.1254C21.5354 21.0721 21.5001 20.9988 21.5 20.9203V11.8998L21.5117 11.8187C21.5345 11.7442 21.59 11.6886 21.6699 11.6576C21.7232 11.637 21.7741 11.6344 21.8135 11.643Z" fill="#F7951D" stroke="#F7951D" stroke-width="1.5"/>
<path d="M20.0098 23.625C20.1134 23.625 20.1782 23.6533 20.1943 23.6641L26.3438 27.7637C26.6555 27.9722 26.8516 28.1508 26.9668 28.2842C26.797 28.3309 26.5348 28.3701 26.1602 28.3701H13.8545C13.4806 28.3682 13.2193 28.327 13.0508 28.2793C13.1657 28.1472 13.3634 27.9719 13.6748 27.7656L13.6758 27.7637L19.8262 23.6641C19.8423 23.6533 19.9064 23.6251 20.0098 23.625Z" fill="#F7951D" stroke="#F7951D" stroke-width="1.5"/>
</svg>
