<svg width="20" height="20" viewBox="0 0 20 20" fill="none" xmlns="http://www.w3.org/2000/svg">
<mask id="path-1-inside-1_10387_24465" fill="white">
<path d="M9.99984 18.9584C5.05817 18.9584 1.0415 14.9417 1.0415 10.0001C1.0415 5.05841 5.05817 1.04175 9.99984 1.04175C14.9415 1.04175 18.9582 5.05841 18.9582 10.0001C18.9582 14.9417 14.9415 18.9584 9.99984 18.9584ZM9.99984 2.29175C5.74984 2.29175 2.2915 5.75008 2.2915 10.0001C2.2915 14.2501 5.74984 17.7084 9.99984 17.7084C14.2498 17.7084 17.7082 14.2501 17.7082 10.0001C17.7082 5.75008 14.2498 2.29175 9.99984 2.29175Z"/>
</mask>
<path d="M9.99984 18.9584C5.05817 18.9584 1.0415 14.9417 1.0415 10.0001C1.0415 5.05841 5.05817 1.04175 9.99984 1.04175C14.9415 1.04175 18.9582 5.05841 18.9582 10.0001C18.9582 14.9417 14.9415 18.9584 9.99984 18.9584ZM9.99984 2.29175C5.74984 2.29175 2.2915 5.75008 2.2915 10.0001C2.2915 14.2501 5.74984 17.7084 9.99984 17.7084C14.2498 17.7084 17.7082 14.2501 17.7082 10.0001C17.7082 5.75008 14.2498 2.29175 9.99984 2.29175Z" fill="#1D1F1F"/>
<path d="M9.99984 18.9584V17.4584C5.8866 17.4584 2.5415 14.1133 2.5415 10.0001H1.0415H-0.458496C-0.458496 15.7702 4.22974 20.4584 9.99984 20.4584V18.9584ZM1.0415 10.0001H2.5415C2.5415 5.88684 5.8866 2.54175 9.99984 2.54175V1.04175V-0.458252C4.22974 -0.458252 -0.458496 4.22999 -0.458496 10.0001H1.0415ZM9.99984 1.04175V2.54175C14.1131 2.54175 17.4582 5.88684 17.4582 10.0001H18.9582H20.4582C20.4582 4.22999 15.7699 -0.458252 9.99984 -0.458252V1.04175ZM18.9582 10.0001H17.4582C17.4582 14.1133 14.1131 17.4584 9.99984 17.4584V18.9584V20.4584C15.7699 20.4584 20.4582 15.7702 20.4582 10.0001H18.9582ZM9.99984 2.29175V0.791748C4.92141 0.791748 0.791504 4.92165 0.791504 10.0001H2.2915H3.7915C3.7915 6.57851 6.57826 3.79175 9.99984 3.79175V2.29175ZM2.2915 10.0001H0.791504C0.791504 15.0785 4.92141 19.2084 9.99984 19.2084V17.7084V16.2084C6.57826 16.2084 3.7915 13.4217 3.7915 10.0001H2.2915ZM9.99984 17.7084V19.2084C15.0783 19.2084 19.2082 15.0785 19.2082 10.0001H17.7082H16.2082C16.2082 13.4217 13.4214 16.2084 9.99984 16.2084V17.7084ZM17.7082 10.0001H19.2082C19.2082 4.92165 15.0783 0.791748 9.99984 0.791748V2.29175V3.79175C13.4214 3.79175 16.2082 6.57851 16.2082 10.0001H17.7082Z" fill="#1D1F1F" mask="url(#path-1-inside-1_10387_24465)"/>
<mask id="path-3-inside-2_10387_24465" fill="white">
<path d="M7.5002 18.125H6.66686C6.3252 18.125 6.04186 17.8417 6.04186 17.5C6.04186 17.1583 6.30853 16.8833 6.6502 16.875C5.34186 12.4083 5.34186 7.59167 6.6502 3.125C6.30853 3.11667 6.04186 2.84167 6.04186 2.5C6.04186 2.15833 6.3252 1.875 6.66686 1.875H7.5002C7.7002 1.875 7.89186 1.975 8.00853 2.13333C8.12519 2.3 8.15853 2.50833 8.09186 2.7C6.5252 7.40833 6.5252 12.5917 8.09186 17.3083C8.15853 17.5 8.12519 17.7083 8.00853 17.875C7.89186 18.025 7.7002 18.125 7.5002 18.125Z"/>
</mask>
<path d="M7.5002 18.125H6.66686C6.3252 18.125 6.04186 17.8417 6.04186 17.5C6.04186 17.1583 6.30853 16.8833 6.6502 16.875C5.34186 12.4083 5.34186 7.59167 6.6502 3.125C6.30853 3.11667 6.04186 2.84167 6.04186 2.5C6.04186 2.15833 6.3252 1.875 6.66686 1.875H7.5002C7.7002 1.875 7.89186 1.975 8.00853 2.13333C8.12519 2.3 8.15853 2.50833 8.09186 2.7C6.5252 7.40833 6.5252 12.5917 8.09186 17.3083C8.15853 17.5 8.12519 17.7083 8.00853 17.875C7.89186 18.025 7.7002 18.125 7.5002 18.125Z" fill="#1D1F1F"/>
<path d="M6.6502 16.875L6.68677 18.3746L8.63851 18.327L8.08971 16.4534L6.6502 16.875ZM6.6502 3.125L8.08971 3.54665L8.63851 1.67305L6.68677 1.62545L6.6502 3.125ZM8.00853 2.13333L9.23738 1.27314L9.22692 1.25821L9.21611 1.24353L8.00853 2.13333ZM8.09186 2.7L6.67512 2.20722L6.67179 2.21679L6.66859 2.22641L8.09186 2.7ZM8.09186 17.3083L6.66833 17.7812L6.67166 17.7912L6.67512 17.8011L8.09186 17.3083ZM8.00853 17.875L9.19256 18.7959L9.21573 18.7661L9.23738 18.7352L8.00853 17.875ZM7.5002 18.125V16.625H6.66686V18.125V19.625H7.5002V18.125ZM6.66686 18.125V16.625C7.15362 16.625 7.54186 17.0132 7.54186 17.5H6.04186H4.54186C4.54186 18.6701 5.49677 19.625 6.66686 19.625V18.125ZM6.04186 17.5H7.54186C7.54186 17.9672 7.16432 18.3629 6.68677 18.3746L6.6502 16.875L6.61362 15.3754C5.45274 15.4038 4.54186 16.3494 4.54186 17.5H6.04186ZM6.6502 16.875L8.08971 16.4534C6.86202 12.262 6.86202 7.738 8.08971 3.54665L6.6502 3.125L5.21068 2.70335C3.8217 7.44533 3.8217 12.5547 5.21068 17.2966L6.6502 16.875ZM6.6502 3.125L6.68677 1.62545C7.16432 1.63709 7.54186 2.03278 7.54186 2.5H6.04186H4.54186C4.54186 3.65056 5.45274 4.59624 6.61362 4.62455L6.6502 3.125ZM6.04186 2.5H7.54186C7.54186 2.98676 7.15362 3.375 6.66686 3.375V1.875V0.375C5.49677 0.375 4.54186 1.32991 4.54186 2.5H6.04186ZM6.66686 1.875V3.375H7.5002V1.875V0.375H6.66686V1.875ZM7.5002 1.875V3.375C7.2119 3.375 6.96 3.23899 6.80094 3.02313L8.00853 2.13333L9.21611 1.24353C8.82372 0.711007 8.18849 0.375 7.5002 0.375V1.875ZM8.00853 2.13333L6.77968 2.99353C6.63497 2.78679 6.57519 2.49451 6.67512 2.20722L8.09186 2.7L9.50861 3.19278C9.74187 2.52215 9.61542 1.81321 9.23738 1.27314L8.00853 2.13333ZM8.09186 2.7L6.66859 2.22641C4.99953 7.24246 4.99979 12.7578 6.66833 17.7812L8.09186 17.3083L9.51539 16.8355C8.0506 12.4255 8.05086 7.57421 9.51514 3.17359L8.09186 2.7ZM8.09186 17.3083L6.67512 17.8011C6.57519 17.5138 6.63497 17.2215 6.77968 17.0148L8.00853 17.875L9.23738 18.7352C9.61542 18.1951 9.74187 17.4862 9.50861 16.8156L8.09186 17.3083ZM8.00853 17.875L6.8245 16.9541C6.97992 16.7543 7.21796 16.625 7.5002 16.625V18.125V19.625C8.18243 19.625 8.8038 19.2957 9.19256 18.7959L8.00853 17.875Z" fill="#1D1F1F" mask="url(#path-3-inside-2_10387_24465)"/>
<mask id="path-5-inside-3_10387_24465" fill="white">
<path d="M12.5 18.125C12.4333 18.125 12.3667 18.1167 12.3 18.0917C11.975 17.9833 11.7917 17.625 11.9083 17.3C13.475 12.5917 13.475 7.40832 11.9083 2.69165C11.8 2.36665 11.975 2.00832 12.3 1.89999C12.6333 1.79165 12.9833 1.96665 13.0917 2.29165C14.75 7.25832 14.75 12.725 13.0917 17.6833C13.0083 17.9583 12.7583 18.125 12.5 18.125Z"/>
</mask>
<path d="M12.5 18.125C12.4333 18.125 12.3667 18.1167 12.3 18.0917C11.975 17.9833 11.7917 17.625 11.9083 17.3C13.475 12.5917 13.475 7.40832 11.9083 2.69165C11.8 2.36665 11.975 2.00832 12.3 1.89999C12.6333 1.79165 12.9833 1.96665 13.0917 2.29165C14.75 7.25832 14.75 12.725 13.0917 17.6833C13.0083 17.9583 12.7583 18.125 12.5 18.125Z" fill="#1D1F1F"/>
<path d="M12.3 18.0917L12.8267 16.6872L12.8007 16.6774L12.7743 16.6686L12.3 18.0917ZM11.9083 17.3L13.3201 17.8068L13.3261 17.7902L13.3316 17.7736L11.9083 17.3ZM11.9083 2.69165L13.3319 2.21882L13.3314 2.21731L11.9083 2.69165ZM12.3 1.89999L11.8364 0.473395L11.8257 0.476962L12.3 1.89999ZM13.0917 2.29165L11.6686 2.766L11.6689 2.76671L13.0917 2.29165ZM13.0917 17.6833L11.6691 17.2075L11.6623 17.2278L11.6561 17.2483L13.0917 17.6833ZM12.5 18.125V16.625C12.5603 16.625 12.6817 16.6328 12.8267 16.6872L12.3 18.0917L11.7733 19.4961C12.0517 19.6005 12.3064 19.625 12.5 19.625V18.125ZM12.3 18.0917L12.7743 16.6686C13.2168 16.8161 13.4989 17.3088 13.3201 17.8068L11.9083 17.3L10.4965 16.7932C10.0844 17.9412 10.7332 19.1505 11.8257 19.5147L12.3 18.0917ZM11.9083 17.3L13.3316 17.7736C15.0007 12.7575 15.0004 7.24219 13.3319 2.21882L11.9083 2.69165L10.4848 3.16449C11.9496 7.57445 11.9493 12.4258 10.4851 16.8264L11.9083 17.3ZM11.9083 2.69165L13.3314 2.21731C13.4798 2.66258 13.2508 3.16419 12.7743 3.32301L12.3 1.89999L11.8257 0.476962C10.6992 0.852452 10.1202 2.07073 10.4853 3.166L11.9083 2.69165ZM12.3 1.89999L12.7636 3.32654C12.3313 3.46706 11.8268 3.24054 11.6686 2.766L13.0917 2.29165L14.5147 1.81731C14.1398 0.692767 12.9354 0.116248 11.8364 0.473436L12.3 1.89999ZM13.0917 2.29165L11.6689 2.76671C13.2244 7.4253 13.2241 12.5582 11.6691 17.2075L13.0917 17.6833L14.5142 18.1591C16.2759 12.8917 16.2757 7.09134 14.5145 1.8166L13.0917 2.29165ZM13.0917 17.6833L11.6561 17.2483C11.7734 16.8615 12.1287 16.625 12.5 16.625V18.125V19.625C13.388 19.625 14.2433 19.0552 14.5272 18.1183L13.0917 17.6833Z" fill="#1D1F1F" mask="url(#path-5-inside-3_10387_24465)"/>
<path d="M10 14.3332C7.675 14.3332 5.35833 14.0082 3.125 13.3499C3.11667 13.6832 2.84167 13.9582 2.5 13.9582C2.15833 13.9582 1.875 13.6749 1.875 13.3332V12.4999C1.875 12.2999 1.975 12.1082 2.13333 11.9916C2.3 11.8749 2.50833 11.8416 2.7 11.9082C7.40833 13.4749 12.6 13.4749 17.3083 11.9082C17.5 11.8416 17.7083 11.8749 17.875 11.9916C18.0417 12.1082 18.1333 12.2999 18.1333 12.4999V13.3332C18.1333 13.6749 17.85 13.9582 17.5083 13.9582C17.1667 13.9582 16.8917 13.6916 16.8833 13.3499C14.6417 14.0082 12.325 14.3332 10 14.3332Z" fill="#1D1F1F"/>
<path d="M17.5001 8.12497C17.4335 8.12497 17.3668 8.11663 17.3001 8.09163C12.5918 6.52497 7.40015 6.52497 2.69181 8.09163C2.35848 8.19997 2.00848 8.02497 1.90015 7.69997C1.80015 7.36663 1.97515 7.01663 2.30015 6.9083C7.26681 5.24997 12.7335 5.24997 17.6918 6.9083C18.0168 7.01663 18.2001 7.37497 18.0835 7.69997C18.0085 7.9583 17.7585 8.12497 17.5001 8.12497Z" fill="#1D1F1F"/>
</svg>
