<svg width="24" height="24" viewBox="0 0 24 24" fill="none" xmlns="http://www.w3.org/2000/svg">
<path d="M6.66309 17.9896C8.01465 19.1407 9.41281 19.9606 10.4805 20.4506C9.28298 19.9162 7.93118 19.0858 6.66309 17.9896ZM16.9707 18.3002C15.9051 19.1679 14.7974 19.8499 13.7842 20.3295C14.7098 19.8805 15.844 19.2045 16.9707 18.3002ZM17.1973 18.1137C17.1845 18.1244 17.1719 18.1352 17.1592 18.1459C17.172 18.1353 17.1845 18.1243 17.1973 18.1137ZM2.15527 7.37832C2.05421 7.79922 2.00001 8.23832 2 8.68984C2.00001 8.23802 2.05444 7.799 2.15527 7.37832ZM5.30859 3.58047C3.85617 4.22984 2.72963 5.48571 2.25098 7.02676C2.72963 5.48347 3.85688 4.22907 5.30859 3.58047ZM15.793 3.13808C14.2979 3.3151 12.9411 4.09355 12.0225 5.32363C12.0188 5.32421 12.0144 5.32461 12.0098 5.32461C12.0046 5.32459 12 5.32433 11.9961 5.32363C11.8674 5.1534 11.7316 4.99154 11.5879 4.83926L12 5.25527L12.5322 4.71816C13.41 3.83287 14.5504 3.28095 15.793 3.13808ZM11.4678 4.71816L11.4775 4.72793C11.4624 4.71275 11.4469 4.69799 11.4316 4.68301C11.4435 4.69475 11.456 4.7063 11.4678 4.71816ZM11.1797 4.44961C11.2194 4.48431 11.2591 4.51914 11.2979 4.55508C11.2589 4.51929 11.2195 4.48417 11.1797 4.44961ZM10.8877 4.21133C10.9544 4.26198 11.0204 4.31371 11.085 4.36758C11.0202 4.31391 10.9545 4.2618 10.8877 4.21133ZM8.85449 3.25137C9.55732 3.41823 10.2145 3.72132 10.7959 4.14394C10.212 3.72128 9.55493 3.41834 8.85449 3.25137ZM6.66504 3.17324C6.26811 3.23807 5.88563 3.34582 5.52148 3.49062C5.88575 3.34587 6.26821 3.23803 6.66504 3.17324ZM8.58984 3.1957C8.66615 3.20991 8.74205 3.22524 8.81738 3.24258C8.74205 3.22517 8.66611 3.20997 8.58984 3.1957ZM8.26562 3.14492C8.33367 3.15347 8.40137 3.16321 8.46875 3.17422C8.40136 3.16316 8.33365 3.15351 8.26562 3.14492ZM15.7988 3.13711C15.9046 3.12506 16.011 3.11582 16.1182 3.10976C16.0111 3.11611 15.9046 3.1247 15.7988 3.13711ZM7.94531 3.11465C8.02313 3.11993 8.10065 3.12573 8.17773 3.13418C8.10064 3.12568 8.02311 3.11996 7.94531 3.11465ZM7.55957 3.1C7.66348 3.1 7.7673 3.10319 7.87012 3.10879C7.76728 3.10315 7.66346 3.1 7.55957 3.1ZM16.4404 3.1C16.4421 3.1 16.4437 3.1 16.4453 3.1C16.3371 3.10009 16.2293 3.10251 16.1221 3.10879C16.2275 3.1029 16.3339 3.1 16.4404 3.1Z" fill="#DEDEDE" stroke="#DEDEDE" stroke-width="1.5"/>
</svg>
