<svg width="91" height="15" viewBox="0 0 91 15" fill="none" xmlns="http://www.w3.org/2000/svg">
<path d="M0.000162601 7.36401C0.000162601 10.3095 2.38798 12.6973 5.3335 12.6973C8.27901 12.6973 10.6668 10.3095 10.6668 7.36401C10.6668 4.41849 8.27901 2.03068 5.3335 2.03068C2.38798 2.03068 0.000162601 4.41849 0.000162601 7.36401ZM90.0406 8.07112C90.4311 7.6806 90.4311 7.04743 90.0406 6.65691L83.6766 0.292946C83.2861 -0.0975785 82.653 -0.0975785 82.2624 0.292946C81.8719 0.68347 81.8719 1.31664 82.2624 1.70716L87.9193 7.36401L82.2624 13.0209C81.8719 13.4114 81.8719 14.0446 82.2624 14.4351C82.653 14.8256 83.2861 14.8256 83.6766 14.4351L90.0406 8.07112ZM8.8335 8.36401C9.38578 8.36401 9.8335 7.9163 9.8335 7.36401C9.8335 6.81173 9.38578 6.36401 8.8335 6.36401V8.36401ZM15.8335 6.36401C15.2812 6.36401 14.8335 6.81173 14.8335 7.36401C14.8335 7.9163 15.2812 8.36401 15.8335 8.36401V6.36401ZM22.8335 8.36401C23.3858 8.36401 23.8335 7.9163 23.8335 7.36401C23.8335 6.81173 23.3858 6.36401 22.8335 6.36401V8.36401ZM29.8335 6.36401C29.2812 6.36401 28.8335 6.81173 28.8335 7.36401C28.8335 7.9163 29.2812 8.36401 29.8335 8.36401V6.36401ZM36.8335 8.36401C37.3858 8.36401 37.8335 7.9163 37.8335 7.36401C37.8335 6.81173 37.3858 6.36401 36.8335 6.36401V8.36401ZM43.8335 6.36401C43.2812 6.36401 42.8335 6.81173 42.8335 7.36401C42.8335 7.9163 43.2812 8.36401 43.8335 8.36401V6.36401ZM50.8335 8.36401C51.3858 8.36401 51.8335 7.9163 51.8335 7.36401C51.8335 6.81173 51.3858 6.36401 50.8335 6.36401V8.36401ZM57.8335 6.36401C57.2812 6.36401 56.8335 6.81173 56.8335 7.36401C56.8335 7.9163 57.2812 8.36401 57.8335 8.36401V6.36401ZM64.8335 8.36401C65.3858 8.36401 65.8335 7.9163 65.8335 7.36401C65.8335 6.81173 65.3858 6.36401 64.8335 6.36401V8.36401ZM71.8335 6.36401C71.2812 6.36401 70.8335 6.81173 70.8335 7.36401C70.8335 7.9163 71.2812 8.36401 71.8335 8.36401V6.36401ZM78.8335 8.36401C79.3858 8.36401 79.8335 7.9163 79.8335 7.36401C79.8335 6.81173 79.3858 6.36401 78.8335 6.36401V8.36401ZM85.8335 6.36401C85.2812 6.36401 84.8335 6.81173 84.8335 7.36401C84.8335 7.9163 85.2812 8.36401 85.8335 8.36401V6.36401ZM5.3335 8.36401H8.8335V6.36401H5.3335V8.36401ZM15.8335 8.36401H22.8335V6.36401H15.8335V8.36401ZM29.8335 8.36401H36.8335V6.36401H29.8335V8.36401ZM43.8335 8.36401H50.8335V6.36401H43.8335V8.36401ZM57.8335 8.36401H64.8335V6.36401H57.8335V8.36401ZM71.8335 8.36401H78.8335V6.36401H71.8335V8.36401ZM85.8335 8.36401H89.3335V6.36401H85.8335V8.36401Z" fill="#DEDEDE"/>
</svg>
