<svg width="24" height="24" viewBox="0 0 24 24" fill="none" xmlns="http://www.w3.org/2000/svg">
<path d="M5.99922 3.60001C5.99922 4.87441 5.14722 5.97121 3.59802 5.97121C2.14002 5.97121 1.19922 4.93681 1.19922 3.66241C1.19922 2.35441 2.11122 1.20001 3.59922 1.20001C5.08722 1.20001 5.97042 2.29201 5.99922 3.60001ZM1.19922 22.8V7.20001H5.99922V22.8H1.19922ZM8.39922 12.5328C8.39922 10.6788 8.33802 9.12961 8.27682 7.79161H12.5896L12.8032 9.85921H12.8944C13.5016 8.88601 14.9896 7.45921 17.4808 7.45921C20.5192 7.45921 22.7992 9.49321 22.7992 13.8696V22.8H17.9992V14.5668C17.9992 12.654 17.2708 11.1948 15.5992 11.1948C14.3248 11.1948 13.6864 12.2268 13.3516 13.0776C13.2292 13.3824 13.1992 13.8072 13.1992 14.2332V22.8H8.39922V12.5328Z" fill="#1D1F1F"/>
</svg>
