<svg width="24" height="24" viewBox="0 0 24 24" fill="none" xmlns="http://www.w3.org/2000/svg">
<path d="M6.0002 3.6002C6.0002 4.8746 5.1482 5.9714 3.599 5.9714C2.141 5.9714 1.2002 4.937 1.2002 3.6626C1.2002 2.3546 2.1122 1.2002 3.6002 1.2002C5.0882 1.2002 5.9714 2.2922 6.0002 3.6002ZM1.2002 22.8002V7.2002H6.0002V22.8002H1.2002ZM8.4002 12.533C8.4002 10.679 8.339 9.1298 8.2778 7.7918H12.5906L12.8042 9.8594H12.8954C13.5026 8.8862 14.9906 7.4594 17.4818 7.4594C20.5202 7.4594 22.8002 9.49339 22.8002 13.8698V22.8002H18.0002V14.567C18.0002 12.6542 17.2718 11.195 15.6002 11.195C14.3258 11.195 13.6874 12.227 13.3526 13.0778C13.2302 13.3826 13.2002 13.8074 13.2002 14.2334V22.8002H8.4002V12.533Z" fill="white"/>
</svg>
