<svg width="16" height="16" viewBox="0 0 16 16" fill="none" xmlns="http://www.w3.org/2000/svg">
<mask id="path-1-inside-1_10170_10371" fill="white">
<path d="M7.99992 9.44667C6.57992 9.44667 5.41992 8.29333 5.41992 6.86667C5.41992 5.44 6.57992 4.29333 7.99992 4.29333C9.41992 4.29333 10.5799 5.44667 10.5799 6.87334C10.5799 8.3 9.41992 9.44667 7.99992 9.44667ZM7.99992 5.29333C7.13326 5.29333 6.41992 6 6.41992 6.87334C6.41992 7.74667 7.12659 8.45333 7.99992 8.45333C8.87326 8.45333 9.57992 7.74667 9.57992 6.87334C9.57992 6 8.86659 5.29333 7.99992 5.29333Z"/>
</mask>
<path d="M7.99992 9.44667C6.57992 9.44667 5.41992 8.29333 5.41992 6.86667C5.41992 5.44 6.57992 4.29333 7.99992 4.29333C9.41992 4.29333 10.5799 5.44667 10.5799 6.87334C10.5799 8.3 9.41992 9.44667 7.99992 9.44667ZM7.99992 5.29333C7.13326 5.29333 6.41992 6 6.41992 6.87334C6.41992 7.74667 7.12659 8.45333 7.99992 8.45333C8.87326 8.45333 9.57992 7.74667 9.57992 6.87334C9.57992 6 8.86659 5.29333 7.99992 5.29333Z" fill="#017375"/>
<path d="M7.99992 7.94667C7.40582 7.94667 6.91992 7.46239 6.91992 6.86667H3.91992C3.91992 9.12428 5.75402 10.9467 7.99992 10.9467V7.94667ZM6.91992 6.86667C6.91992 6.276 7.40076 5.79333 7.99992 5.79333V2.79333C5.75909 2.79333 3.91992 4.604 3.91992 6.86667H6.91992ZM7.99992 5.79333C8.59402 5.79333 9.07992 6.27762 9.07992 6.87334H12.0799C12.0799 4.61572 10.2458 2.79333 7.99992 2.79333V5.79333ZM9.07992 6.87334C9.07992 7.464 8.59909 7.94667 7.99992 7.94667V10.9467C10.2408 10.9467 12.0799 9.136 12.0799 6.87334H9.07992ZM7.99992 3.79333C6.30895 3.79333 4.91992 5.16746 4.91992 6.87334H7.91992C7.91992 6.85397 7.92608 6.83594 7.94404 6.81804C7.96261 6.79952 7.98176 6.79333 7.99992 6.79333V3.79333ZM4.91992 6.87334C4.91992 8.5751 6.29816 9.95333 7.99992 9.95333V6.95333C7.95502 6.95333 7.91992 6.91824 7.91992 6.87334H4.91992ZM7.99992 9.95333C9.70168 9.95333 11.0799 8.5751 11.0799 6.87334H8.07992C8.07992 6.91824 8.04483 6.95333 7.99992 6.95333V9.95333ZM11.0799 6.87334C11.0799 5.16746 9.6909 3.79333 7.99992 3.79333V6.79333C8.01809 6.79333 8.03724 6.79952 8.05581 6.81804C8.07376 6.83594 8.07992 6.85397 8.07992 6.87334H11.0799Z" fill="#017375" mask="url(#path-1-inside-1_10170_10371)"/>
<path d="M8.00012 15.1733C7.01345 15.1733 6.02012 14.8 5.24678 14.06C3.28012 12.1667 1.10678 9.14668 1.92678 5.55334C2.66678 2.29334 5.51345 0.833344 8.00012 0.833344C8.00012 0.833344 8.00012 0.833344 8.00678 0.833344C10.4935 0.833344 13.3401 2.29334 14.0801 5.56001C14.8934 9.15334 12.7201 12.1667 10.7534 14.06C9.98012 14.8 8.98678 15.1733 8.00012 15.1733ZM8.00012 1.83334C6.06012 1.83334 3.56678 2.86668 2.90678 5.77334C2.18678 8.91334 4.16012 11.62 5.94678 13.3333C7.10012 14.4467 8.90678 14.4467 10.0601 13.3333C11.8401 11.62 13.8134 8.91334 13.1068 5.77334C12.4401 2.86668 9.94012 1.83334 8.00012 1.83334Z" fill="#017375"/>
</svg>
