<svg width="40" height="40" viewBox="0 0 40 40" fill="none" xmlns="http://www.w3.org/2000/svg">
<g clip-path="url(#clip0_10427_24402)">
<path d="M19.9824 3.66669H19.999C25.5498 3.66669 31.7823 6.86834 33.5537 13.9108L33.6348 14.2497C35.492 22.4418 30.4882 29.4491 25.7627 33.9929L25.7598 33.9958C24.1551 35.5544 22.078 36.3337 19.999 36.3337C17.9206 36.3336 15.8416 35.5544 14.2188 33.9929L13.7754 33.5593C9.18795 29.009 4.54837 22.1695 6.34766 14.2331C8.0015 6.95618 14.3581 3.66672 19.9824 3.66669ZM19.999 11.1833C16.6849 11.1834 13.9991 13.8692 13.999 17.1833C13.999 20.4974 16.6849 23.1832 19.999 23.1833C23.3132 23.1833 25.999 20.4975 25.999 17.1833C25.999 13.8691 23.3132 11.1833 19.999 11.1833Z" fill="#163A96" stroke="#163A96" stroke-width="1.5"/>
</g>
<defs>
<clipPath id="clip0_10427_24402">
<rect width="40" height="40" fill="white"/>
</clipPath>
</defs>
</svg>
