<svg width="16" height="16" viewBox="0 0 16 16" fill="none" xmlns="http://www.w3.org/2000/svg">
<mask id="path-1-inside-1_10738_12538" fill="white">
<path d="M8 9.44667C6.58 9.44667 5.42 8.29333 5.42 6.86667C5.42 5.44 6.58 4.29333 8 4.29333C9.42 4.29333 10.58 5.44667 10.58 6.87334C10.58 8.3 9.42 9.44667 8 9.44667ZM8 5.29333C7.13333 5.29333 6.42 6 6.42 6.87334C6.42 7.74667 7.12666 8.45333 8 8.45333C8.87333 8.45333 9.58 7.74667 9.58 6.87334C9.58 6 8.86666 5.29333 8 5.29333Z"/>
</mask>
<path d="M8 9.44667C6.58 9.44667 5.42 8.29333 5.42 6.86667C5.42 5.44 6.58 4.29333 8 4.29333C9.42 4.29333 10.58 5.44667 10.58 6.87334C10.58 8.3 9.42 9.44667 8 9.44667ZM8 5.29333C7.13333 5.29333 6.42 6 6.42 6.87334C6.42 7.74667 7.12666 8.45333 8 8.45333C8.87333 8.45333 9.58 7.74667 9.58 6.87334C9.58 6 8.86666 5.29333 8 5.29333Z" fill="#1D1F1F"/>
<path d="M8 9.44667V7.94667C7.4059 7.94667 6.92 7.46239 6.92 6.86667H5.42H3.92C3.92 9.12428 5.7541 10.9467 8 10.9467V9.44667ZM5.42 6.86667H6.92C6.92 6.276 7.40083 5.79333 8 5.79333V4.29333V2.79333C5.75916 2.79333 3.92 4.604 3.92 6.86667H5.42ZM8 4.29333V5.79333C8.5941 5.79333 9.08 6.27762 9.08 6.87334H10.58H12.08C12.08 4.61572 10.2459 2.79333 8 2.79333V4.29333ZM10.58 6.87334H9.08C9.08 7.464 8.59916 7.94667 8 7.94667V9.44667V10.9467C10.2408 10.9467 12.08 9.136 12.08 6.87334H10.58ZM8 5.29333V3.79333C6.30902 3.79333 4.92 5.16746 4.92 6.87334H6.42H7.92C7.92 6.85397 7.92616 6.83594 7.94411 6.81804C7.96268 6.79952 7.98183 6.79333 8 6.79333V5.29333ZM6.42 6.87334H4.92C4.92 8.5751 6.29824 9.95333 8 9.95333V8.45333V6.95333C7.95509 6.95333 7.92 6.91824 7.92 6.87334H6.42ZM8 8.45333V9.95333C9.70176 9.95333 11.08 8.5751 11.08 6.87334H9.58H8.08C8.08 6.91824 8.0449 6.95333 8 6.95333V8.45333ZM9.58 6.87334H11.08C11.08 5.16746 9.69097 3.79333 8 3.79333V5.29333V6.79333C8.01816 6.79333 8.03731 6.79952 8.05588 6.81804C8.07384 6.83594 8.08 6.85397 8.08 6.87334H9.58Z" fill="#1D1F1F" mask="url(#path-1-inside-1_10738_12538)"/>
<path d="M8 15.1733C7.01333 15.1733 6.01999 14.8 5.24666 14.06C3.28 12.1667 1.10666 9.14666 1.92666 5.55333C2.66666 2.29333 5.51333 0.833328 8 0.833328C8 0.833328 8 0.833328 8.00666 0.833328C10.4933 0.833328 13.34 2.29333 14.08 5.56C14.8933 9.15333 12.72 12.1667 10.7533 14.06C9.97999 14.8 8.98666 15.1733 8 15.1733ZM8 1.83333C6.06 1.83333 3.56666 2.86666 2.90666 5.77333C2.18666 8.91333 4.16 11.62 5.94666 13.3333C7.09999 14.4467 8.90666 14.4467 10.06 13.3333C11.84 11.62 13.8133 8.91333 13.1067 5.77333C12.44 2.86666 9.94 1.83333 8 1.83333Z" fill="#1D1F1F"/>
</svg>
