<svg width="24" height="24" viewBox="0 0 24 24" fill="none" xmlns="http://www.w3.org/2000/svg">
<path d="M23.9835 12.2244C23.9835 11.2412 23.9018 10.5236 23.7252 9.77954H12.2388V14.2175H18.981C18.8452 15.3204 18.1111 16.9814 16.4799 18.0975L16.457 18.246L20.0888 20.9962L20.3404 21.0208C22.6512 18.9346 23.9835 15.8652 23.9835 12.2244Z" fill="#4285F4"/>
<path d="M12.2392 23.9176C15.5423 23.9176 18.3153 22.8545 20.3408 21.0209L16.4803 18.0976C15.4472 18.8018 14.0606 19.2934 12.2392 19.2934C9.00397 19.2934 6.25812 17.2074 5.27931 14.324L5.13583 14.3359L1.35944 17.1927L1.31006 17.3269C3.32186 21.2334 7.45426 23.9176 12.2392 23.9176Z" fill="#34A853"/>
<path d="M5.27906 14.324C5.02079 13.58 4.87132 12.7826 4.87132 11.9589C4.87132 11.135 5.02079 10.3378 5.26548 9.59366L5.25863 9.43519L1.43492 6.53247L1.30982 6.59064C0.480656 8.21174 0.00488281 10.0322 0.00488281 11.9589C0.00488281 13.8855 0.480656 15.7059 1.30982 17.327L5.27906 14.324Z" fill="#FBBC05"/>
<path d="M12.2392 4.62403C14.5364 4.62403 16.086 5.59401 16.9696 6.40461L20.4223 3.10928C18.3018 1.1826 15.5423 0 12.2392 0C7.45426 0 3.32186 2.68406 1.31006 6.59056L5.26572 9.59359C6.25812 6.7102 9.00397 4.62403 12.2392 4.62403Z" fill="#EB4335"/>
</svg>
