<svg width="260" height="50" viewBox="0 0 260 50" fill="none" xmlns="http://www.w3.org/2000/svg">
<path d="M28.6479 1.71817C29.0579 1.14308 29.4006 0.518403 29.8862 0C30.5668 0.645937 31.0122 1.48554 31.5404 2.25074C34.5722 6.58926 37.5332 10.975 40.5603 15.3171C42.8537 18.7227 45.2523 22.0563 47.5386 25.4667C48.8394 27.2486 50.0186 29.1156 51.3053 30.9093C52.6688 32.8908 54.0371 34.8688 55.3959 36.8526C55.9902 37.7525 56.6743 38.5932 57.1895 39.545C52.4597 35.2608 46.6607 32.1705 40.4693 30.6235C39.8112 30.4452 39.1283 30.3555 38.4879 30.1158C41.8754 29.4108 45.283 28.818 48.6787 28.1614C47.4948 28.126 46.3109 28.0705 45.1258 28.0788C43.8285 27.9725 42.5252 28.0977 41.2279 27.9772C39.25 27.956 37.2721 27.9548 35.2942 27.9217C35.8625 27.1978 36.6896 26.7456 37.3607 26.1291C39.387 24.3307 41.5694 22.7164 43.5922 20.9168C42.5146 21.3254 41.5351 21.9418 40.4847 22.4094C39.107 23.0837 37.7435 23.7863 36.3505 24.4287C35.5068 24.8337 34.7093 25.338 33.8219 25.6438C34.2768 24.4783 34.8062 23.3435 35.2965 22.1921C36.1555 20.1126 37.07 18.0555 37.9645 15.9902C38.2409 15.3549 38.5505 14.7302 38.7407 14.0618C38.0791 14.8329 37.5686 15.7162 36.9637 16.5287C35.1654 19.0982 33.373 21.6737 31.5333 24.2138C31.3182 23.3659 31.4198 22.4862 31.3159 21.6253C31.0878 18.3968 30.9012 15.1659 30.653 11.9398C30.588 9.84729 30.3151 7.77013 30.2749 5.67645C30.158 4.92778 30.2159 4.16611 30.093 3.41744C30.1024 2.54714 29.8957 1.69219 29.9536 0.820705C29.7858 1.63078 29.807 2.46566 29.7161 3.28518C29.5306 5.73313 29.4159 8.1858 29.2234 10.6314C29.1761 12.5279 28.9091 14.409 28.863 16.3055C28.7555 17.5773 28.7117 18.8514 28.596 20.122C28.4932 20.7538 28.5605 21.3974 28.4825 22.0315C28.3797 22.7554 28.4577 23.4934 28.2899 24.2102C27.2336 22.8322 26.2695 21.3856 25.264 19.9697C24.7039 19.0876 24.0198 18.2929 23.4633 17.4084C22.7083 16.4188 22.1022 15.3124 21.2573 14.396C21.444 15.1494 21.8079 15.8426 22.0785 16.5676C22.9978 18.6731 23.8839 20.7928 24.8197 22.8924C25.1848 23.8406 25.7106 24.7239 25.9906 25.704C24.6401 25.0132 23.2672 24.3685 21.9155 23.6788C20.0616 22.8345 18.2952 21.7989 16.4059 21.0313C16.8053 21.5049 17.3121 21.8638 17.7836 22.2606C19.459 23.6115 21.0967 25.0097 22.765 26.37C23.3522 26.9062 24.0281 27.3407 24.5751 27.9193C23.2341 27.9619 21.8918 27.9264 20.5508 27.9689C19.0124 27.9323 17.4799 28.0693 15.9415 28.0315C14.363 28.1118 12.7797 28.0658 11.2012 28.165C14.7943 28.8853 18.4122 29.4911 21.9994 30.2374C21.1711 30.5232 20.305 30.6708 19.4637 30.914C18.1109 31.3002 16.7864 31.7808 15.4689 32.2732C14.207 32.8412 12.9345 33.3903 11.7128 34.0422C9.95109 35.0341 8.2154 36.0827 6.60258 37.3061C4.84325 38.5968 3.23634 40.0835 1.72987 41.6588C1.55145 41.8607 1.32933 42.0225 1.06348 42.0839C1.83267 40.7141 2.81808 39.4777 3.67352 38.1622C5.99999 34.7802 8.30874 31.3876 10.6258 28.0008C11.7789 26.3948 12.8435 24.7274 13.9967 23.1215C14.6241 22.0669 15.4039 21.1163 16.0597 20.0795C19.4673 15.1033 22.8796 10.1283 26.2978 5.15805C27.0576 3.99489 27.8551 2.85889 28.6479 1.71817Z" fill="#F7941D"/>
<path d="M193.205 37.4111C194.54 36.4756 196.433 36.5681 197.741 37.5071C198.443 38.0443 198.814 38.8837 199.087 39.6983C198.462 40.0344 197.798 40.2781 197.142 40.536C196.847 39.9935 196.537 39.3639 195.916 39.1416C195.35 38.9815 194.663 39.0633 194.242 39.5044C193.812 40.0451 194.006 41.0037 194.683 41.2527C195.466 41.5871 196.333 41.6742 197.115 42.0246C198.193 42.4283 199.028 43.4047 199.244 44.5359C199.658 45.9658 199.128 47.5131 198.225 48.6425C196.819 50.0564 194.361 50.1115 192.752 49.0142C191.886 48.3472 191.289 47.3015 191.26 46.2023C191.933 45.9907 192.615 45.8075 193.305 45.6581C193.621 46.2681 193.858 47.1307 194.626 47.2979C195.346 47.5344 196.226 47.4046 196.744 46.8195C197.097 46.2788 197.081 45.3309 196.394 45.0641C195.204 44.4985 193.792 44.3971 192.748 43.5257C191.822 42.7911 191.663 41.5124 191.715 40.4097C191.803 39.2821 192.227 38.0709 193.205 37.4111Z" fill="#F7941D"/>
<path d="M140.972 37.0265C143.395 37.0176 145.817 37.0283 148.24 37.0212C148.335 37.834 148.327 38.6556 148.301 39.4755C147.476 39.4951 146.65 39.5022 145.826 39.5004C145.76 42.8743 145.895 46.2535 145.754 49.6255C144.982 49.6896 144.205 49.6807 143.434 49.6238C143.39 46.2499 143.433 42.8743 143.411 39.4987C142.589 39.5022 141.764 39.5022 140.943 39.4435C140.886 38.6378 140.876 37.8286 140.972 37.0265Z" fill="#F7941D"/>
<path d="M156.038 37.0686C156.979 36.784 158.046 36.8249 158.931 37.266C160.066 37.8902 160.612 39.1281 161.042 40.2824C161.616 41.7905 161.424 43.4303 161.406 45.0079C161.195 46.3685 160.747 47.7735 159.771 48.7908C158.87 49.7548 157.387 50.1016 156.136 49.6943C155.089 49.4275 154.361 48.5347 153.866 47.6276C153.292 46.6228 153.062 45.4703 152.948 44.3321C152.746 43.24 152.974 42.1391 153.14 41.0614C153.463 39.4091 154.347 37.6573 156.038 37.0686ZM156.593 39.4233C155.553 40.2824 155.426 41.7888 155.376 43.0497C155.406 44.3854 155.349 45.9309 156.283 47.0052C156.971 47.7859 158.331 47.3271 158.602 46.3809C158.997 45.0008 159.209 43.5317 158.959 42.1053C158.829 41.1503 158.683 40.0387 157.864 39.4109C157.444 39.338 157.009 39.3397 156.593 39.4233Z" fill="#F7941D"/>
<path d="M166.001 37.0428C166.844 37.0179 167.686 37.0197 168.528 37.0232C168.523 39.3229 168.53 41.6225 168.521 43.9221C168.516 44.6922 168.651 45.4552 168.755 46.2164C168.971 47.5965 171.214 47.7477 171.788 46.5454C172.031 46.0012 172.045 45.3929 172.051 44.8096C172.051 42.2165 172.042 39.6234 172.052 37.0321C172.718 37.0161 173.384 37.0215 174.051 37.0321C174.047 39.9222 174.055 42.8141 174.047 45.7042C173.999 46.9189 173.735 48.3062 172.639 49.0247C171.612 49.8535 170.225 49.7806 168.985 49.6774C167.946 49.56 167.043 48.8575 166.546 47.9629C166.146 47.079 166.139 46.0866 166.023 45.1404C165.98 42.4406 166.03 39.7408 166.001 37.0428Z" fill="#F7941D"/>
<path d="M178.603 37.0482C180.238 37.0179 181.872 37.0179 183.507 37.0251C184.506 37.0197 185.509 37.5142 186.017 38.3892C186.731 39.6039 186.858 41.169 186.319 42.4745C186.073 43.1236 185.489 43.5291 185.027 44.0129C185.034 44.8363 185.47 45.5975 185.689 46.3836C186.019 47.417 186.406 48.4325 186.71 49.4747C185.869 49.5565 185.027 49.5369 184.187 49.5032C183.691 48.0145 183.234 46.5135 182.745 45.0231C182.545 44.2459 181.592 44.6211 181.021 44.5998C180.873 46.2396 180.992 47.8865 180.944 49.5298C180.163 49.537 179.381 49.5352 178.601 49.5245C178.614 45.3663 178.608 41.2064 178.603 37.0482ZM180.992 39.2518C180.928 40.2904 180.93 41.3326 180.989 42.3713C181.754 42.3873 182.543 42.5047 183.296 42.3144C183.856 42.2006 184.112 41.6047 184.128 41.089C184.162 40.5305 184.169 39.8582 183.685 39.4776C182.854 39.0526 181.886 39.2286 180.992 39.2518Z" fill="#F7941D"/>
<path d="M16.8075 36.7332C21.5396 34.8108 26.6888 33.9535 31.7884 34.1211C33.862 34.1648 35.9357 34.3668 37.9656 34.7978C43.1183 35.7531 48.017 37.9141 52.3167 40.8899C53.8267 42.0035 55.3024 43.1678 56.66 44.4656C57.4375 45.1021 58.0602 45.8956 58.749 46.6218C59.6612 47.7059 60.6454 48.7486 61.3732 49.9708C58.9168 50.0251 56.458 49.9791 54.0015 49.9944C38.1688 49.9944 22.336 49.9944 6.50325 49.9944C4.33629 49.9743 2.16578 50.0357 0 49.9637C0.757373 48.7391 1.72861 47.6681 2.6644 46.5793C6.54106 42.2751 11.409 38.8517 16.8075 36.7332Z" fill="#01BABD"/>
<path d="M109.754 38.3506C111.384 36.6581 114.044 36.3943 116.179 37.1707C116.04 37.8198 115.916 38.478 115.838 39.1422C114.516 38.7934 112.954 38.578 111.787 39.4667C110.604 40.4555 110.365 42.1024 110.462 43.5613C110.38 45.0839 111.106 46.8279 112.637 47.3466C113.687 47.5528 114.767 47.386 115.819 47.2738C115.895 47.9289 115.986 48.5871 116.086 49.2453C113.968 49.6092 111.375 49.864 109.73 48.1776C108.374 46.9341 107.972 45.0202 108.084 43.2459C107.975 41.4776 108.468 39.6214 109.754 38.3506Z" fill="#01BABD"/>
<path d="M76.3651 37.6777C77.8687 36.6859 79.8291 36.8587 81.4204 37.5442C81.2813 38.1357 81.1542 38.7332 81.0302 39.3367C80.059 39.2306 79.0849 38.9394 78.1047 39.0668C77.2667 39.2609 76.9702 40.3043 77.3514 41.008C78.3951 42.3607 80.3525 42.5821 81.3418 43.9955C82.1041 45.2694 82.1344 47.0771 81.133 48.2387C80.3858 49.1911 79.2029 49.6885 78.0291 49.8402C76.9158 49.9615 75.8478 49.552 74.792 49.2639C74.8192 48.5906 74.91 47.9233 75.0945 47.2803C76.2472 47.4289 77.4482 48.0628 78.5978 47.5563C79.5841 47.3349 79.8079 45.9518 79.1787 45.2633C78.144 44.0107 76.2169 43.8529 75.3819 42.388C74.2989 40.9109 74.8525 38.6361 76.3651 37.6777Z" fill="#01BABD"/>
<path d="M94.3472 37.0152C95.1822 36.991 96.0172 36.9849 96.8522 37.0031C98.3557 39.8693 99.7232 42.8053 101.024 45.7716C101 42.8417 100.879 39.9148 100.945 36.9849C101.638 36.991 102.331 36.991 103.024 36.9819C103.108 41.1432 103.063 45.3076 103.054 49.4719C102.304 49.4901 101.556 49.5053 100.806 49.5296C99.2361 46.4874 97.6508 43.4423 96.4135 40.2454C96.5466 43.3422 96.5648 46.445 96.5133 49.5447C95.7994 49.5144 95.0854 49.5023 94.3714 49.4932C94.3593 45.3349 94.4017 41.1735 94.3472 37.0152Z" fill="#01BABD"/>
<path d="M121.174 37.0033C123.31 36.973 125.443 36.973 127.576 37.0154C127.558 37.6584 127.552 38.3045 127.561 38.9505C126.214 38.9717 124.868 38.9717 123.522 39.0081C123.507 40.0151 123.513 41.0281 123.528 42.0412C124.805 42.0169 126.081 42.0715 127.355 42.1473C127.343 42.7176 127.337 43.2878 127.34 43.864C126.096 44.2128 124.799 44.0794 123.528 44.134C123.507 45.2471 123.522 46.3602 123.537 47.4734C124.953 47.4612 126.369 47.4734 127.784 47.4855C127.769 48.1649 127.742 48.8473 127.691 49.5328C125.519 49.4964 123.343 49.5055 121.171 49.5237C121.177 45.3502 121.177 41.1768 121.174 37.0033Z" fill="#01BABD"/>
<path d="M86.8922 37.2551C87.6939 37.2035 88.4987 37.2005 89.3004 37.2217C89.3215 41.3467 89.4425 45.4807 89.2399 49.6026C88.4624 49.5844 87.6849 49.5874 86.9104 49.6117C86.8952 45.4928 86.8983 41.374 86.8922 37.2551Z" fill="#01BABD"/>
<path d="M225.105 37.538C226.154 36.6951 227.614 36.6417 228.891 36.8713C230.536 37.2644 231.589 38.8432 231.936 40.4157C232.462 43.0701 231.911 46.0798 229.921 48.0234C228.465 49.4355 226.384 49.9639 224.402 49.7689C224.398 49.2059 224.389 48.6461 224.38 48.0926C225.71 47.7875 227.188 47.6146 228.219 46.6239C228.913 46.0735 229.111 45.1835 229.379 44.3878C227.844 45.2181 225.745 45.4194 224.383 44.1551C222.516 42.3719 222.983 38.9344 225.105 37.538ZM226.92 38.708C225.921 39.186 225.849 40.4628 225.912 41.4315C225.836 42.3278 226.397 43.3059 227.359 43.4034C228.194 43.633 228.979 43.0355 229.382 42.3467C229.572 41.0604 229.351 39.5225 228.26 38.6765C227.891 38.3274 227.33 38.6073 226.92 38.708Z" fill="#01BABD"/>
<path d="M254.37 36.9723C256.233 36.2678 258.358 37.3497 259.161 39.0983C260.117 41.2463 260.202 43.7183 259.688 45.9921C259.344 47.5992 258.424 49.2755 256.74 49.7661C255.539 49.9076 254.165 50.0145 253.194 49.1559C251.791 48.1873 251.479 46.4104 251.186 44.8567C250.786 43.1459 251.224 41.3941 251.681 39.7461C252.069 38.4598 253.093 37.3968 254.37 36.9723ZM255.552 38.7963C254.906 39.0039 254.379 39.5103 254.155 40.1487C253.588 41.7967 253.667 43.5862 253.812 45.2971C254.048 46.3223 254.282 47.7533 255.508 48.0175C256.627 47.8256 257.084 46.6054 257.226 45.621C257.276 44.1523 257.305 42.6804 257.207 41.2148C257.024 40.2588 256.737 38.897 255.552 38.7963Z" fill="#01BABD"/>
<path d="M212.501 38.7623C214.216 37.888 215.963 36.6206 218.006 37.0924C217.996 41.3318 218.043 45.5712 217.98 49.8076C217.104 49.7855 216.228 49.7855 215.354 49.8044C215.26 46.3858 215.446 42.9641 215.272 39.5486C214.51 39.8096 213.772 40.1367 213.044 40.4795C212.861 39.9071 212.678 39.3347 212.501 38.7623Z" fill="#01BABD"/>
<path d="M237.347 37.1176C240.169 36.9887 243.009 36.8975 245.827 37.1522C245.755 37.7435 245.758 38.363 245.531 38.926C243.923 42.549 242.189 46.1154 240.635 49.7605C239.768 49.7794 238.901 49.7794 238.038 49.7857C239.529 46.1563 241.304 42.6497 243.006 39.1178C241.111 39.1587 239.217 39.2059 237.325 39.0864C237.335 38.4259 237.341 37.7718 237.347 37.1176Z" fill="#01BABD"/>
<path d="M80.685 2.62864C83.3247 1.8794 86.3587 2.43542 88.5018 4.16855C87.8385 4.9454 87.2183 5.76169 86.6512 6.61347C85.5188 6.00421 84.3197 5.41861 83.0067 5.40284C82.4219 5.47579 81.7899 5.67295 81.4367 6.18363C81.2738 6.83232 81.4347 7.52833 81.7899 8.08435C82.73 9.55328 84.1764 10.5588 85.4697 11.6827C87.5284 13.3035 89.2908 15.4369 89.9855 18.0119C90.3564 19.1397 90.2249 20.3365 90.2308 21.5038C89.7265 24.6447 86.8572 27.0147 83.8055 27.4603C81.527 27.7068 79.17 27.413 77.0877 26.4212C76.3478 26.0466 75.5451 25.7725 74.8681 25.2934C74.6227 24.9779 75.0329 24.765 75.2213 24.5718C76.0436 23.9152 76.3988 22.8879 76.9425 22.0204C77.3821 22.3635 77.7294 22.8051 78.1475 23.1719C79.3819 24.0118 80.8872 24.4633 82.3807 24.3923C83.9703 24.487 85.7543 23.6707 86.3254 22.0953C87.1771 20.1433 86.4333 17.8995 85.2833 16.2374C84.1018 14.7251 82.6319 13.4691 81.1031 12.3255C79.8451 11.1425 78.4948 9.89636 77.9394 8.21055C77.6313 7.0709 77.6725 5.84055 78.0788 4.73245C78.6204 3.72097 79.5664 2.91257 80.685 2.62864Z" fill="white"/>
<path d="M93.681 2.52416C93.9361 2.48473 94.1952 2.42755 94.4542 2.47881C95.9261 2.67796 97.4157 2.46106 98.8896 2.60894C98.5186 3.441 97.6316 3.86887 97.241 4.68713C96.454 6.23689 96.087 7.96213 95.8457 9.67357C95.6102 11.5605 96.0969 13.4553 96.9388 15.1352C97.7866 16.9847 99.0721 18.6251 100.685 19.8614C101.616 20.6678 102.713 21.348 103.949 21.5176C104.065 20.9931 104.124 20.4608 104.11 19.9264C104.096 15.0662 104.126 10.204 104.096 5.34567C104.141 4.29278 103.433 3.49424 103.06 2.5774C103.937 2.25404 104.842 2.62078 105.739 2.56557C106.538 2.58726 107.342 2.28756 108.127 2.57345C108.186 3.33256 107.641 3.96745 107.699 4.72262C107.703 10.2473 107.701 15.7721 107.703 21.2968C107.741 22.8051 107.578 24.3352 107.915 25.8199C108.011 26.4272 108.443 26.9181 108.52 27.5333C107.403 27.6023 106.298 27.3282 105.293 26.855C102.438 25.3644 99.4548 23.9586 97.1429 21.6497C94.5288 19.2285 92.8273 15.8647 92.3249 12.3373C92.0697 10.0048 92.2405 7.56188 93.2767 5.42652C93.4926 4.91585 93.8458 4.46827 94.0107 3.93591C93.9636 3.45284 93.7771 2.99737 93.681 2.52416Z" fill="white"/>
<path d="M110.113 2.47484C110.879 2.34273 111.634 2.57342 112.398 2.56159C113.485 2.56357 114.57 2.54583 115.658 2.56949C115.504 3.14325 115.126 3.70913 115.283 4.32627C115.55 4.95919 116.017 5.47184 116.419 6.01998C117.671 7.60523 118.768 9.30681 119.993 10.9118C120.434 11.521 120.701 12.2328 121.092 12.8736C121.206 10.0324 121.098 7.18328 121.143 4.3381C121.263 3.60463 120.601 3.1393 120.211 2.62272C120.527 2.52019 120.85 2.37231 121.192 2.44132C122.532 2.66215 123.894 2.51428 125.246 2.56554C125.052 3.57505 124.371 4.45838 124.456 5.52705C124.432 11.6374 124.461 17.7477 124.442 23.858C124.334 25.0312 124.828 26.0939 125.235 27.1567C123.616 27.1843 121.998 27.1724 120.379 27.1626C120.727 26.3562 121.159 25.5478 121.137 24.6447C121.135 22.6809 121.141 20.7171 121.137 18.7552C121.172 18.3471 120.862 18.0415 120.666 17.7221C119.068 15.4999 117.661 13.1497 116.072 10.9216C115.434 9.97127 114.804 9.00514 114.025 8.16322C113.927 13.3942 114.015 18.629 113.978 23.8619C113.983 24.4061 113.938 24.9681 114.115 25.4945C114.272 26.1097 114.721 26.5829 115.004 27.1409C113.877 27.1981 112.751 27.1586 111.624 27.1724C110.969 27.1685 110.302 27.2158 109.662 27.0384C110.194 26.2832 110.651 25.4117 110.635 24.4633C110.635 17.7516 110.637 11.0399 110.635 4.33022C110.661 3.66378 110.158 3.13142 110.113 2.47484Z" fill="white"/>
<path d="M133.411 2.41965C134.262 2.23628 135.096 2.5616 135.946 2.5616C139.022 2.5616 142.099 2.55372 145.176 2.5616C146.073 2.70159 147.15 3.02299 147.396 4.0325C147.592 5.17412 147.486 6.40841 146.88 7.42187C144.668 11.2273 142.26 14.9144 140.099 18.7493C139.652 19.5163 139.449 20.5041 138.662 21.0109C138.564 19.1358 138.615 17.2528 138.625 15.3777C138.8 14.6915 139.263 14.1197 139.616 13.5164C140.9 11.6177 142.026 9.62229 143.163 7.63284C143.371 7.21878 143.634 6.7988 143.651 6.32362C143.685 6.0535 143.5 5.70648 143.2 5.73408C141.369 5.70451 139.536 5.74 137.705 5.72423C137.561 6.37095 137.612 7.03541 137.61 7.69199C137.618 13.5342 137.609 19.3783 137.614 25.2224C137.575 25.9579 138.307 26.4173 138.35 27.1409C136.816 27.1705 135.297 27.4406 133.756 27.346C134.025 26.1984 134.327 25.0568 134.384 23.8718C134.382 18.0158 134.378 12.1579 134.384 6.30194C134.378 5.60592 134.194 4.92766 134.08 4.24742C133.984 3.5869 133.434 3.09594 133.411 2.41965Z" fill="white"/>
<path d="M148.069 2.93033C148.175 2.27375 148.885 2.41178 149.362 2.49656C150.913 2.73514 152.528 2.32304 154.047 2.7095C153.986 3.05454 153.756 3.45086 153.964 3.78605C154.455 4.56093 154.987 5.31018 155.505 6.06929C155.558 6.05746 155.666 6.02986 155.719 6.01803C156.368 4.90204 157.307 3.84126 157.248 2.46698C159.251 2.3822 161.261 2.46304 163.265 2.35656C163.259 2.50444 163.247 2.79625 163.241 2.94216C162.617 3.37396 161.873 3.64803 161.351 4.21786C160.003 5.76762 158.808 7.44357 157.581 9.08995C157.422 9.26149 157.411 9.49415 157.416 9.71892C157.428 14.6304 157.424 19.542 157.418 24.4535C157.371 25.4098 157.99 26.23 158.019 27.1764C156.502 27.1587 154.985 27.1803 153.468 27.1587C153.511 26.0999 154.07 25.1337 154.055 24.069C154.055 19.329 154.059 14.591 154.055 9.85102C154.09 9.46654 153.839 9.15698 153.615 8.87897C152.308 7.30161 150.895 5.81297 149.712 4.13505C149.331 3.53171 148.638 3.29903 148.069 2.93033Z" fill="white"/>
<path d="M164.584 2.5774C165.129 2.23827 165.777 2.57543 166.37 2.55177C168.403 2.56754 170.436 2.55769 172.469 2.55571C174.039 2.40784 175.672 2.25996 177.203 2.74105C178.276 3.06047 179.044 4.41108 178.49 5.45609C177.271 7.91283 175.281 9.85497 173.904 12.2112C175.003 15.7937 176.398 19.2738 177.605 22.8209C178.139 24.3273 178.612 25.9441 179.809 27.0719C179.803 27.1251 179.789 27.2277 179.782 27.2809C178.612 27.6023 177.434 26.9753 176.269 27.275C175.666 27.3815 175.052 27.3381 174.445 27.3401C174.404 26.6756 174.683 26.0723 174.83 25.4433C173.91 22.0145 172.404 18.7809 171.197 15.4526C171.139 15.4526 171.023 15.4526 170.966 15.4526C170.228 16.5726 169.614 17.7694 168.868 18.8854C168.599 19.2344 168.591 19.6879 168.597 20.1098C168.611 21.6892 168.597 23.2705 168.599 24.8498C168.544 25.7055 169.103 26.4114 169.396 27.1764C168.297 27.1961 167.182 27.0719 166.097 27.2947C165.541 27.3815 164.976 27.3519 164.419 27.3322C164.707 26.3739 165.294 25.4827 165.296 24.4535C165.292 18.6685 165.292 12.8855 165.294 7.1005C165.28 6.02789 165.384 4.93754 165.112 3.88662C165.029 3.41341 164.682 3.04075 164.584 2.5774ZM168.625 5.72622C168.611 8.39788 168.544 11.0735 168.654 13.7432C169.547 12.781 170.273 11.6808 171.052 10.6299C171.918 9.32459 172.879 8.08635 173.696 6.74756C173.863 6.45969 174.137 6.04366 173.778 5.78142C172.067 5.64735 170.34 5.76171 168.625 5.72622Z" fill="white"/>
<path d="M219.898 2.55768C220.683 2.25601 221.503 2.63457 222.31 2.56556C223.089 2.61485 223.856 2.31121 224.631 2.49064C224.29 3.33847 223.786 4.17053 223.825 5.11893C223.813 11.6315 223.823 18.144 223.821 24.6566C223.782 25.5497 224.333 26.301 224.535 27.1409C222.92 27.2099 221.305 27.1468 219.692 27.1725C219.921 26.3187 220.534 25.5734 220.506 24.6507C220.506 18.8657 220.506 13.0826 220.506 7.29766C220.471 5.70452 220.73 4.00688 219.898 2.55768Z" fill="white"/>
<path d="M227.092 2.35456C228.753 2.25992 230.311 2.95396 231.754 3.69927C233.577 4.52541 235.225 5.68872 236.744 6.98807C238.726 8.77838 240.544 10.8447 241.613 13.3251C242.418 15.1431 242.867 17.1325 242.824 19.1279C242.877 21.3697 242.283 23.7358 240.707 25.392C240.094 25.9046 239.464 26.4232 238.713 26.717C237.145 27.5017 235.357 27.0463 233.683 27.1764C231.561 27.4741 229.41 27.3105 227.277 27.3223C227.102 26.5671 227.646 25.9598 227.846 25.2796C228.009 24.8261 228.036 24.3411 228.033 23.8659C228.017 18.144 228.044 12.4221 228.019 6.7002C227.934 5.57633 227.923 4.39331 227.397 3.37C227.232 3.05058 227.124 2.70947 227.092 2.35456ZM231.73 8.07449C231.491 8.49643 231.304 8.95978 231.341 9.45665C231.347 13.6722 231.33 17.8896 231.349 22.1051C231.296 22.9924 231.954 23.9112 232.902 23.8343C234.466 23.7831 236.279 24.1735 237.567 23.0279C238.723 22.1742 239.123 20.6974 239.239 19.329C239.396 16.9807 238.583 14.66 237.347 12.6962C236.279 10.9492 234.943 9.26343 233.1 8.30124C232.682 8.05477 232.189 8.10406 231.73 8.07449Z" fill="white"/>
<path d="M249.059 3.19848C250.616 2.28557 252.505 2.16136 254.254 2.4236C255.614 2.78639 257.066 3.13932 258.12 4.13897C257.53 4.98483 256.892 5.79718 256.279 6.62726C255.014 5.85238 253.477 5.1406 251.974 5.55466C251.448 5.66507 250.933 6.11462 251.022 6.70219C251.049 8.06267 252.156 9.04458 253.082 9.90031C254.786 11.4757 256.754 12.8046 258.091 14.7428C259.439 16.4878 260.034 18.7296 259.998 20.9143C259.806 23.8817 257.439 26.368 254.668 27.1744C253.398 27.6476 252.021 27.5491 250.696 27.482C248.465 27.3617 246.463 26.2773 244.494 25.325C244.53 24.836 244.967 24.5777 245.244 24.2287C245.76 23.5938 246.08 22.8248 246.575 22.1742C246.91 21.9612 247.095 22.4088 247.293 22.608C247.858 23.4164 248.83 23.7772 249.727 24.0808C250.757 24.4318 251.854 24.418 252.929 24.3746C254.478 24.1676 255.869 23.0161 256.27 21.4782C256.615 19.8554 256.213 18.1184 255.294 16.75C253.477 13.686 249.817 12.3413 248.056 9.23387C247.426 8.18097 247.436 6.91514 247.523 5.73211C247.627 4.71274 248.245 3.79196 249.059 3.19848Z" fill="white"/>
<path d="M190.634 3.44495C191.969 2.86329 193.425 2.76076 194.846 2.55373C195.097 2.5557 195.664 2.48472 195.521 2.90666C195.246 3.3779 194.681 3.74662 194.736 4.3539C194.744 11.249 194.74 18.146 194.738 25.043C194.73 25.8731 195.225 26.5829 195.486 27.344C194.728 27.3617 193.961 27.3972 193.215 27.2277C192.593 27.0621 191.983 27.4071 191.361 27.3243C190.996 27.277 190.636 27.1942 190.277 27.1311C190.744 26.3956 191.353 25.6819 191.398 24.769C191.521 23.1758 191.465 21.5708 191.431 19.9738C189.102 19.8771 186.768 19.9422 184.437 19.9363C184.144 21.1588 184.264 22.4226 184.237 23.6668C184.205 24.838 184.352 26.1097 185.145 27.0305C185.196 27.3677 184.839 27.3243 184.613 27.3499C184.025 27.3972 183.45 27.2375 182.867 27.2001C182.019 27.275 181.055 27.5905 180.292 27.0581C180.676 26.301 180.963 25.4847 181.081 24.6428C181.081 19.6918 181.736 14.6226 183.877 10.1093C185.334 7.25231 187.532 4.54122 190.634 3.44495ZM189.221 7.77283C187.873 9.14514 186.943 10.8684 186.185 12.6232C185.693 13.9482 185.112 15.3028 185.184 16.748C187.28 16.7895 189.376 16.7855 191.472 16.7441C191.437 13.546 191.5 10.3479 191.439 7.14978C191.262 7.03148 191.088 6.91318 190.915 6.79685C190.307 7.03543 189.679 7.28188 189.221 7.77283Z" fill="white"/>
<path d="M198.502 2.57542C200.351 2.53402 202.2 2.56951 204.048 2.55768C204.097 3.16891 204.329 3.7762 204.845 4.14293C205.691 4.83895 206.364 5.84058 207.365 6.29012C208.303 5.602 209.088 4.72853 209.973 3.97337C210.413 3.61649 210.615 3.07624 210.79 2.55768C212.631 2.56557 214.473 2.54782 216.314 2.56754C216.049 3.08413 215.725 3.57902 215.563 4.14293C215.374 5.39497 215.716 6.63319 215.716 7.88523C215.886 9.90229 216.02 11.9253 216.118 13.9482C216.316 14.7251 216.195 15.5315 216.287 16.3222C216.469 17.3691 216.401 18.4378 216.534 19.4927C216.701 20.5534 216.522 21.6438 216.799 22.6908C216.819 24.2149 216.883 25.8593 217.831 27.1311C217.036 27.1882 216.249 27.3401 215.455 27.2415C214.534 27.3598 213.608 27.3815 212.682 27.3401C212.823 26.4646 213.241 25.672 213.435 24.8123C213.651 22.5567 213.133 20.3267 213.015 18.0809C212.933 16.2591 212.756 14.4431 212.723 12.6193C212.566 11.7715 212.578 10.9138 212.556 10.0581C212.326 8.73504 212.442 7.38639 212.234 6.0614C210.325 7.32526 209.045 9.32853 207.181 10.6535C206.213 9.78793 205.314 8.85334 204.374 7.96213C203.746 7.3509 203.146 6.68446 202.368 6.26252C201.833 12.4576 201.281 18.6409 200.867 24.8478C200.783 25.7548 201.383 26.4843 201.536 27.3401C200.9 27.3558 200.263 27.3894 199.635 27.2908C198.54 27.064 197.419 27.2178 196.314 27.1508C196.587 26.6421 197.001 26.2201 197.219 25.6819C197.78 24.2169 197.568 22.6198 197.819 21.0996C197.961 18.1342 198.178 15.1766 198.396 12.2171C198.594 9.92398 198.645 7.61313 198.952 5.33384C198.959 4.87838 198.973 4.42292 198.93 3.9714C198.769 3.50804 198.483 3.08412 198.502 2.57542Z" fill="white"/>
</svg>
