<svg width="20" height="20" viewBox="0 0 20 20" fill="none" xmlns="http://www.w3.org/2000/svg">
<mask id="path-1-inside-1_10768_26929" fill="white">
<path d="M12.9166 9.375H7.08331C6.74165 9.375 6.45831 9.09167 6.45831 8.75C6.45831 8.40833 6.74165 8.125 7.08331 8.125H12.9166C13.2583 8.125 13.5416 8.40833 13.5416 8.75C13.5416 9.09167 13.2583 9.375 12.9166 9.375Z"/>
</mask>
<path d="M12.9166 9.375H7.08331C6.74165 9.375 6.45831 9.09167 6.45831 8.75C6.45831 8.40833 6.74165 8.125 7.08331 8.125H12.9166C13.2583 8.125 13.5416 8.40833 13.5416 8.75C13.5416 9.09167 13.2583 9.375 12.9166 9.375Z" fill="#1D1F1F"/>
<path d="M12.9166 7.875H7.08331V10.875H12.9166V7.875ZM7.08331 7.875C7.57007 7.875 7.95831 8.26324 7.95831 8.75H4.95831C4.95831 9.92009 5.91322 10.875 7.08331 10.875V7.875ZM7.95831 8.75C7.95831 9.23676 7.57007 9.625 7.08331 9.625V6.625C5.91322 6.625 4.95831 7.57991 4.95831 8.75H7.95831ZM7.08331 9.625H12.9166V6.625H7.08331V9.625ZM12.9166 9.625C12.4299 9.625 12.0416 9.23676 12.0416 8.75H15.0416C15.0416 7.57991 14.0867 6.625 12.9166 6.625V9.625ZM12.0416 8.75C12.0416 8.26324 12.4299 7.875 12.9166 7.875V10.875C14.0867 10.875 15.0416 9.92009 15.0416 8.75H12.0416Z" fill="#1D1F1F" mask="url(#path-1-inside-1_10768_26929)"/>
<mask id="path-3-inside-2_10768_26929" fill="white">
<path d="M13.3334 18.6C13.05 18.6 12.7667 18.5166 12.525 18.3583L8.97501 15.9916H5.83335C2.96669 15.9916 1.04169 14.0666 1.04169 11.1999V6.19995C1.04169 3.33328 2.96669 1.40828 5.83335 1.40828H14.1667C17.0334 1.40828 18.9584 3.33328 18.9584 6.19995V11.1999C18.9584 13.8499 17.3084 15.7 14.7917 15.9583V17.1416C14.7917 17.6833 14.5 18.1749 14.025 18.4249C13.8083 18.5416 13.5667 18.6 13.3334 18.6ZM5.83335 2.64994C3.68335 2.64994 2.29169 4.04161 2.29169 6.19161V11.1916C2.29169 13.3416 3.68335 14.7333 5.83335 14.7333H9.16669C9.29169 14.7333 9.40837 14.7666 9.5167 14.8416L13.225 17.3083C13.3167 17.3666 13.4 17.3416 13.4417 17.3166C13.4834 17.2916 13.55 17.2416 13.55 17.1333V15.3583C13.55 15.0166 13.8334 14.7333 14.175 14.7333C16.325 14.7333 17.7167 13.3416 17.7167 11.1916V6.19161C17.7167 4.04161 16.325 2.64994 14.175 2.64994H5.83335Z"/>
</mask>
<path d="M13.3334 18.6C13.05 18.6 12.7667 18.5166 12.525 18.3583L8.97501 15.9916H5.83335C2.96669 15.9916 1.04169 14.0666 1.04169 11.1999V6.19995C1.04169 3.33328 2.96669 1.40828 5.83335 1.40828H14.1667C17.0334 1.40828 18.9584 3.33328 18.9584 6.19995V11.1999C18.9584 13.8499 17.3084 15.7 14.7917 15.9583V17.1416C14.7917 17.6833 14.5 18.1749 14.025 18.4249C13.8083 18.5416 13.5667 18.6 13.3334 18.6ZM5.83335 2.64994C3.68335 2.64994 2.29169 4.04161 2.29169 6.19161V11.1916C2.29169 13.3416 3.68335 14.7333 5.83335 14.7333H9.16669C9.29169 14.7333 9.40837 14.7666 9.5167 14.8416L13.225 17.3083C13.3167 17.3666 13.4 17.3416 13.4417 17.3166C13.4834 17.2916 13.55 17.2416 13.55 17.1333V15.3583C13.55 15.0166 13.8334 14.7333 14.175 14.7333C16.325 14.7333 17.7167 13.3416 17.7167 11.1916V6.19161C17.7167 4.04161 16.325 2.64994 14.175 2.64994H5.83335Z" fill="#1D1F1F"/>
<path d="M12.525 18.3583L11.6929 19.6064L11.703 19.613L12.525 18.3583ZM8.97501 15.9916L9.80707 14.7435L9.42918 14.4916H8.97501V15.9916ZM14.7917 15.9583L14.6385 14.4661L13.2917 14.6044V15.9583H14.7917ZM14.025 18.4249L13.3264 17.0976L13.3201 17.1009L13.3139 17.1042L14.025 18.4249ZM9.5167 14.8416L8.66288 16.0749L8.67434 16.0828L8.68594 16.0905L9.5167 14.8416ZM13.225 17.3083L12.3943 18.5572L12.4069 18.5656L12.4197 18.5738L13.225 17.3083ZM13.3334 17.1C13.3383 17.1 13.3407 17.1006 13.3415 17.1008C13.3424 17.1011 13.3442 17.1017 13.3471 17.1036L11.703 19.613C12.1901 19.9322 12.7594 20.1 13.3334 20.1V17.1ZM13.3571 17.1102L9.80707 14.7435L8.14296 17.2397L11.693 19.6064L13.3571 17.1102ZM8.97501 14.4916H5.83335V17.4916H8.97501V14.4916ZM5.83335 14.4916C4.74363 14.4916 3.94531 14.1323 3.42318 13.6101C2.90105 13.088 2.54169 12.2897 2.54169 11.1999H-0.458313C-0.458313 12.9769 0.144827 14.5744 1.30186 15.7314C2.45889 16.8885 4.05641 17.4916 5.83335 17.4916V14.4916ZM2.54169 11.1999V6.19995H-0.458313V11.1999H2.54169ZM2.54169 6.19995C2.54169 5.11023 2.90105 4.31191 3.42318 3.78978C3.94531 3.26764 4.74363 2.90828 5.83335 2.90828V-0.0917168C4.05641 -0.0917168 2.45889 0.511423 1.30186 1.66846C0.144827 2.82549 -0.458313 4.423 -0.458313 6.19995H2.54169ZM5.83335 2.90828H14.1667V-0.0917168H5.83335V2.90828ZM14.1667 2.90828C15.2564 2.90828 16.0547 3.26764 16.5769 3.78978C17.099 4.31191 17.4584 5.11023 17.4584 6.19995H20.4584C20.4584 4.423 19.8552 2.82549 18.6982 1.66846C17.5411 0.511423 15.9436 -0.0917168 14.1667 -0.0917168V2.90828ZM17.4584 6.19995V11.1999H20.4584V6.19995H17.4584ZM17.4584 11.1999C17.4584 12.2081 17.1489 12.9668 16.6928 13.4849C16.2388 14.0007 15.558 14.3718 14.6385 14.4661L14.9449 17.4505C16.542 17.2865 17.9445 16.6034 18.9447 15.4671C19.9428 14.3331 20.4584 12.8418 20.4584 11.1999H17.4584ZM13.2917 15.9583V17.1416H16.2917V15.9583H13.2917ZM13.2917 17.1416C13.2917 17.1419 13.2919 17.1348 13.2981 17.1244C13.3045 17.1137 13.315 17.1035 13.3264 17.0976L14.7236 19.7523C15.7028 19.237 16.2917 18.2273 16.2917 17.1416H13.2917ZM13.3139 17.1042C13.3182 17.1019 13.3206 17.1012 13.3216 17.101C13.3224 17.1008 13.3258 17.1 13.3334 17.1V20.1C13.8109 20.1 14.2974 19.9819 14.7362 19.7456L13.3139 17.1042ZM5.83335 1.14994C4.42868 1.14994 3.13836 1.61111 2.19561 2.55386C1.25286 3.49662 0.791687 4.78693 0.791687 6.19161H3.79169C3.79169 5.44628 4.02635 4.96577 4.31693 4.67519C4.60751 4.3846 5.08803 4.14994 5.83335 4.14994V1.14994ZM0.791687 6.19161V11.1916H3.79169V6.19161H0.791687ZM0.791687 11.1916C0.791687 12.5963 1.25286 13.8866 2.19561 14.8294C3.13836 15.7721 4.42868 16.2333 5.83335 16.2333V13.2333C5.08803 13.2333 4.60751 12.9986 4.31693 12.708C4.02635 12.4174 3.79169 11.9369 3.79169 11.1916H0.791687ZM5.83335 16.2333H9.16669V13.2333H5.83335V16.2333ZM9.16669 16.2333C9.09407 16.2333 9.00664 16.2233 8.91222 16.1946C8.81706 16.1658 8.73284 16.1233 8.66288 16.0749L10.3705 13.6083C9.99765 13.3502 9.57973 13.2333 9.16669 13.2333V16.2333ZM8.68594 16.0905L12.3943 18.5572L14.0558 16.0594L10.3475 13.5927L8.68594 16.0905ZM12.4197 18.5738C13.1191 19.0189 13.8304 18.8327 14.2134 18.6029L12.6699 16.0304C12.824 15.938 13.0264 15.8595 13.269 15.846C13.5342 15.8313 13.8029 15.8981 14.0303 16.0428L12.4197 18.5738ZM14.2134 18.6029C14.4263 18.4751 15.05 18.0291 15.05 17.1333H12.05C12.05 16.8509 12.146 16.5769 12.3114 16.3563C12.458 16.1608 12.6199 16.0604 12.6699 16.0304L14.2134 18.6029ZM15.05 17.1333V15.3583H12.05V17.1333H15.05ZM15.05 15.3583C15.05 15.845 14.6618 16.2333 14.175 16.2333V13.2333C13.0049 13.2333 12.05 14.1882 12.05 15.3583H15.05ZM14.175 16.2333C15.5797 16.2333 16.87 15.7721 17.8128 14.8294C18.7555 13.8866 19.2167 12.5963 19.2167 11.1916H16.2167C16.2167 11.9369 15.982 12.4174 15.6915 12.708C15.4009 12.9986 14.9204 13.2333 14.175 13.2333V16.2333ZM19.2167 11.1916V6.19161H16.2167V11.1916H19.2167ZM19.2167 6.19161C19.2167 4.78693 18.7555 3.49662 17.8128 2.55386C16.87 1.61111 15.5797 1.14994 14.175 1.14994V4.14994C14.9204 4.14994 15.4009 4.3846 15.6915 4.67519C15.982 4.96577 16.2167 5.44628 16.2167 6.19161H19.2167ZM14.175 1.14994H5.83335V4.14994H14.175V1.14994Z" fill="#1D1F1F" mask="url(#path-3-inside-2_10768_26929)"/>
</svg>
