<svg width="16" height="16" viewBox="0 0 16 16" fill="none" xmlns="http://www.w3.org/2000/svg">
<mask id="path-1-inside-1_10738_25815" fill="white">
<path d="M11.2467 12.7067H5.91334C3.8 12.7067 2.08 10.9867 2.08 8.87333C2.08 6.75999 3.8 5.03999 5.91334 5.03999H13.2467C13.52 5.03999 13.7467 5.26666 13.7467 5.53999C13.7467 5.81333 13.52 6.03999 13.2467 6.03999H5.91334C4.35334 6.03999 3.08 7.31333 3.08 8.87333C3.08 10.4333 4.35334 11.7067 5.91334 11.7067H11.2467C11.52 11.7067 11.7467 11.9333 11.7467 12.2067C11.7467 12.48 11.5267 12.7067 11.2467 12.7067Z"/>
</mask>
<path d="M11.2467 12.7067H5.91334C3.8 12.7067 2.08 10.9867 2.08 8.87333C2.08 6.75999 3.8 5.03999 5.91334 5.03999H13.2467C13.52 5.03999 13.7467 5.26666 13.7467 5.53999C13.7467 5.81333 13.52 6.03999 13.2467 6.03999H5.91334C4.35334 6.03999 3.08 7.31333 3.08 8.87333C3.08 10.4333 4.35334 11.7067 5.91334 11.7067H11.2467C11.52 11.7067 11.7467 11.9333 11.7467 12.2067C11.7467 12.48 11.5267 12.7067 11.2467 12.7067Z" fill="#1D1F1F"/>
<path d="M11.2467 12.7067V11.2067H5.91334V12.7067V14.2067H11.2467V12.7067ZM5.91334 12.7067V11.2067C4.62843 11.2067 3.58 10.1582 3.58 8.87333H2.08H0.580002C0.580002 11.8151 2.97158 14.2067 5.91334 14.2067V12.7067ZM2.08 8.87333H3.58C3.58 7.58842 4.62843 6.53999 5.91334 6.53999V5.03999V3.53999C2.97157 3.53999 0.580002 5.93157 0.580002 8.87333H2.08ZM5.91334 5.03999V6.53999H13.2467V5.03999V3.53999H5.91334V5.03999ZM13.2467 5.03999V6.53999C12.6916 6.53999 12.2467 6.09509 12.2467 5.53999H13.7467H15.2467C15.2467 4.43823 14.3484 3.53999 13.2467 3.53999V5.03999ZM13.7467 5.53999H12.2467C12.2467 4.9849 12.6916 4.53999 13.2467 4.53999V6.03999V7.53999C14.3484 7.53999 15.2467 6.64175 15.2467 5.53999H13.7467ZM13.2467 6.03999V4.53999H5.91334V6.03999V7.53999H13.2467V6.03999ZM5.91334 6.03999V4.53999C3.52491 4.53999 1.58 6.4849 1.58 8.87333H3.08H4.58C4.58 8.14175 5.18176 7.53999 5.91334 7.53999V6.03999ZM3.08 8.87333H1.58C1.58 11.2618 3.52491 13.2067 5.91334 13.2067V11.7067V10.2067C5.18176 10.2067 4.58 9.6049 4.58 8.87333H3.08ZM5.91334 11.7067V13.2067H11.2467V11.7067V10.2067H5.91334V11.7067ZM11.2467 11.7067V13.2067C10.6916 13.2067 10.2467 12.7618 10.2467 12.2067H11.7467H13.2467C13.2467 11.1049 12.3484 10.2067 11.2467 10.2067V11.7067ZM11.7467 12.2067H10.2467C10.2467 11.6646 10.6852 11.2067 11.2467 11.2067V12.7067V14.2067C12.3681 14.2067 13.2467 13.2954 13.2467 12.2067H11.7467Z" fill="#1D1F1F" mask="url(#path-1-inside-1_10738_25815)"/>
<path d="M11.7133 7.70667C11.5867 7.70667 11.46 7.66 11.36 7.56C11.1667 7.36667 11.1667 7.04667 11.36 6.85333L12.7133 5.5L11.36 4.14666C11.1667 3.95333 11.1667 3.63333 11.36 3.44C11.5533 3.24666 11.8733 3.24666 12.0667 3.44L13.7733 5.14666C13.9667 5.34 13.9667 5.66 13.7733 5.85333L12.0667 7.56C11.9667 7.66 11.84 7.70667 11.7133 7.70667Z" fill="#1D1F1F"/>
</svg>
