<svg width="20" height="20" viewBox="0 0 20 20" fill="none" xmlns="http://www.w3.org/2000/svg">
<mask id="path-1-inside-1_10547_16073" fill="white">
<path d="M9.58464 18.125C4.8763 18.125 1.04297 14.2917 1.04297 9.58335C1.04297 4.87502 4.8763 1.04169 9.58464 1.04169C14.293 1.04169 18.1263 4.87502 18.1263 9.58335C18.1263 14.2917 14.293 18.125 9.58464 18.125ZM9.58464 2.29169C5.55964 2.29169 2.29297 5.56669 2.29297 9.58335C2.29297 13.6 5.55964 16.875 9.58464 16.875C13.6096 16.875 16.8763 13.6 16.8763 9.58335C16.8763 5.56669 13.6096 2.29169 9.58464 2.29169Z"/>
</mask>
<path d="M9.58464 18.125C4.8763 18.125 1.04297 14.2917 1.04297 9.58335C1.04297 4.87502 4.8763 1.04169 9.58464 1.04169C14.293 1.04169 18.1263 4.87502 18.1263 9.58335C18.1263 14.2917 14.293 18.125 9.58464 18.125ZM9.58464 2.29169C5.55964 2.29169 2.29297 5.56669 2.29297 9.58335C2.29297 13.6 5.55964 16.875 9.58464 16.875C13.6096 16.875 16.8763 13.6 16.8763 9.58335C16.8763 5.56669 13.6096 2.29169 9.58464 2.29169Z" fill="#DEDEDE"/>
<path d="M9.58464 16.625C5.70473 16.625 2.54297 13.4633 2.54297 9.58335H-0.457031C-0.457031 15.1201 4.04788 19.625 9.58464 19.625V16.625ZM2.54297 9.58335C2.54297 5.70345 5.70473 2.54169 9.58464 2.54169V-0.458313C4.04788 -0.458313 -0.457031 4.04659 -0.457031 9.58335H2.54297ZM9.58464 2.54169C13.4645 2.54169 16.6263 5.70345 16.6263 9.58335H19.6263C19.6263 4.04659 15.1214 -0.458313 9.58464 -0.458313V2.54169ZM16.6263 9.58335C16.6263 13.4633 13.4645 16.625 9.58464 16.625V19.625C15.1214 19.625 19.6263 15.1201 19.6263 9.58335H16.6263ZM9.58464 0.791687C4.73009 0.791687 0.792969 4.73938 0.792969 9.58335H3.79297C3.79297 6.394 6.38918 3.79169 9.58464 3.79169V0.791687ZM0.792969 9.58335C0.792969 14.4273 4.73009 18.375 9.58464 18.375V15.375C6.38918 15.375 3.79297 12.7727 3.79297 9.58335H0.792969ZM9.58464 18.375C14.4392 18.375 18.3763 14.4273 18.3763 9.58335H15.3763C15.3763 12.7727 12.7801 15.375 9.58464 15.375V18.375ZM18.3763 9.58335C18.3763 4.73938 14.4392 0.791687 9.58464 0.791687V3.79169C12.7801 3.79169 15.3763 6.394 15.3763 9.58335H18.3763Z" fill="#DEDEDE" mask="url(#path-1-inside-1_10547_16073)"/>
<mask id="path-3-inside-2_10547_16073" fill="white">
<path d="M18.3326 18.9583C18.1742 18.9583 18.0159 18.9 17.8909 18.775L16.2242 17.1083C15.9826 16.8667 15.9826 16.4667 16.2242 16.225C16.4659 15.9833 16.8659 15.9833 17.1076 16.225L18.7742 17.8917C19.0159 18.1333 19.0159 18.5333 18.7742 18.775C18.6492 18.9 18.4909 18.9583 18.3326 18.9583Z"/>
</mask>
<path d="M18.3326 18.9583C18.1742 18.9583 18.0159 18.9 17.8909 18.775L16.2242 17.1083C15.9826 16.8667 15.9826 16.4667 16.2242 16.225C16.4659 15.9833 16.8659 15.9833 17.1076 16.225L18.7742 17.8917C19.0159 18.1333 19.0159 18.5333 18.7742 18.775C18.6492 18.9 18.4909 18.9583 18.3326 18.9583Z" fill="#DEDEDE"/>
<path d="M17.8909 18.775L16.8302 19.8357L17.8909 18.775ZM16.2242 17.1083L17.2849 16.0477L16.2242 17.1083ZM17.1076 16.225L16.0469 17.2857L17.1076 16.225ZM18.7742 17.8917L19.8349 16.831L18.7742 17.8917ZM18.3326 17.4583C18.5506 17.4583 18.7804 17.5432 18.9515 17.7144L16.8302 19.8357C17.2514 20.2568 17.7979 20.4583 18.3326 20.4583V17.4583ZM18.9515 17.7144L17.2849 16.0477L15.1636 18.169L16.8302 19.8357L18.9515 17.7144ZM17.2849 16.0477C17.629 16.3918 17.629 16.9416 17.2849 17.2857L15.1636 15.1644C14.3361 15.9918 14.3361 17.3416 15.1636 18.169L17.2849 16.0477ZM17.2849 17.2857C16.9408 17.6298 16.391 17.6298 16.0469 17.2857L18.1682 15.1644C17.3408 14.3369 15.991 14.3369 15.1636 15.1644L17.2849 17.2857ZM16.0469 17.2857L17.7136 18.9523L19.8349 16.831L18.1682 15.1644L16.0469 17.2857ZM17.7136 18.9523C17.3694 18.6082 17.3694 18.0585 17.7136 17.7144L19.8349 19.8357C20.6623 19.0082 20.6623 17.6585 19.8349 16.831L17.7136 18.9523ZM17.7136 17.7144C17.8847 17.5432 18.1145 17.4583 18.3326 17.4583V20.4583C18.8672 20.4583 19.4137 20.2568 19.8349 19.8357L17.7136 17.7144Z" fill="#DEDEDE" mask="url(#path-3-inside-2_10547_16073)"/>
</svg>
