<svg width="24" height="24" viewBox="0 0 24 24" fill="none" xmlns="http://www.w3.org/2000/svg">
<path d="M17.6954 3.11395C18.7654 3.05593 19.5765 3.35151 20.1124 3.88251C20.9119 4.67464 21.185 6.10173 20.5187 8.09149V8.09247L17.6886 16.5827C17.0454 18.5074 16.3464 19.5865 15.7335 20.1774C15.1392 20.7504 14.6117 20.8796 14.2198 20.8796C13.8277 20.8795 13.301 20.7499 12.7081 20.1784C12.2899 19.7751 11.835 19.1427 11.3829 18.1696C11.6897 18.823 12.0098 19.3461 12.337 19.7497C12.8761 20.4144 13.5259 20.8697 14.2198 20.8698C14.9151 20.8698 15.5626 20.4128 16.0997 19.7487C16.656 19.0608 17.1989 18.0282 17.6808 16.5876H17.6818L20.5118 8.09735V8.0954C20.7881 7.2611 20.9166 6.46171 20.8683 5.75067C20.82 5.04016 20.5903 4.36925 20.1007 3.87958C19.6094 3.38831 18.9366 3.16213 18.2277 3.11688C18.0551 3.10587 17.8775 3.10456 17.6954 3.11395ZM3.32922 10.5964C3.52508 10.9808 3.84582 11.3398 4.24133 11.6589C4.9298 12.2143 5.96305 12.7551 7.40442 13.2321V13.2311L9.91907 14.07L9.92102 14.0759L9.5675 13.9587L7.40735 13.239C5.49276 12.6008 4.41855 11.904 3.8302 11.2927C3.59485 11.0481 3.43641 10.8137 3.32922 10.5964ZM7.40247 6.31903C5.96161 6.80104 4.92926 7.34467 4.24133 7.90106C3.91668 8.16365 3.64184 8.45253 3.44543 8.76044C3.54365 8.60372 3.66866 8.43869 3.83118 8.26923C4.42014 7.65511 5.49456 6.95403 7.40833 6.31122L7.40735 6.31024L12.7247 4.53876L7.40247 6.31903ZM16.9249 3.20868C16.9533 3.20327 16.9818 3.199 17.0099 3.19403C16.9817 3.19891 16.9533 3.20339 16.9249 3.20868ZM17.1788 3.16669C17.2408 3.15746 17.302 3.14934 17.3624 3.14227C17.3016 3.14918 17.2405 3.15774 17.1788 3.16669ZM17.4445 3.13348C17.5216 3.12561 17.5974 3.11932 17.672 3.11493C17.5968 3.11915 17.521 3.12591 17.4445 3.13348ZM11.2941 17.9772C11.2402 17.8557 11.1845 17.73 11.131 17.5983C11.1845 17.7291 11.2394 17.8551 11.2941 17.9772Z" fill="#1D1F1F" stroke="#1D1F1F" stroke-width="1.5"/>
<mask id="path-2-inside-1_10768_26756" fill="white">
<path d="M10.11 14.4C9.91999 14.4 9.72999 14.33 9.57999 14.18C9.28999 13.89 9.28999 13.41 9.57999 13.12L13.16 9.53C13.45 9.24 13.93 9.24 14.22 9.53C14.51 9.82 14.51 10.3 14.22 10.59L10.64 14.18C10.5 14.33 10.3 14.4 10.11 14.4Z"/>
</mask>
<path d="M10.11 14.4C9.91999 14.4 9.72999 14.33 9.57999 14.18C9.28999 13.89 9.28999 13.41 9.57999 13.12L13.16 9.53C13.45 9.24 13.93 9.24 14.22 9.53C14.51 9.82 14.51 10.3 14.22 10.59L10.64 14.18C10.5 14.33 10.3 14.4 10.11 14.4Z" fill="#1D1F1F"/>
<path d="M9.57999 13.12L10.6406 14.1807L10.6421 14.1792L9.57999 13.12ZM13.16 9.53L12.0993 8.46934L12.0978 8.47082L13.16 9.53ZM14.22 10.59L13.1593 9.52934L13.1578 9.53082L14.22 10.59ZM10.64 14.18L9.57785 13.1208L9.56033 13.1384L9.54341 13.1565L10.64 14.18ZM10.11 12.9C10.2963 12.9 10.4945 12.9732 10.6406 13.1193L8.51933 15.2407C8.96546 15.6868 9.54363 15.9 10.11 15.9V12.9ZM10.6406 13.1193C10.9364 13.4151 10.9364 13.8849 10.6406 14.1807L8.51933 12.0593C7.64354 12.9351 7.64354 14.3649 8.51933 15.2407L10.6406 13.1193ZM10.6421 14.1792L14.2221 10.5892L12.0978 8.47082L8.51785 12.0608L10.6421 14.1792ZM14.2206 10.5907C13.9249 10.8864 13.4551 10.8864 13.1593 10.5907L15.2806 8.46934C14.4049 7.59355 12.9751 7.59355 12.0993 8.46934L14.2206 10.5907ZM13.1593 10.5907C12.8635 10.2949 12.8635 9.82513 13.1593 9.52934L15.2806 11.6507C16.1564 10.7749 16.1564 9.34513 15.2806 8.46934L13.1593 10.5907ZM13.1578 9.53082L9.57785 13.1208L11.7021 15.2392L15.2821 11.6492L13.1578 9.53082ZM9.54341 13.1565C9.73266 12.9537 9.95607 12.9 10.11 12.9V15.9C10.6439 15.9 11.2673 15.7063 11.7366 15.2035L9.54341 13.1565Z" fill="#1D1F1F" mask="url(#path-2-inside-1_10768_26756)"/>
</svg>
