<svg width="40" height="40" viewBox="0 0 40 40" fill="none" xmlns="http://www.w3.org/2000/svg">
<path d="M13.0176 4.08337H26.9844C29.8683 4.08345 32.0802 4.94003 33.5703 6.43005C35.0605 7.92024 35.917 10.1328 35.917 13.017V26.9838C35.9169 29.8678 35.0604 32.0796 33.5703 33.5697C32.0802 35.0598 29.8684 35.9163 26.9844 35.9164H13.0176C10.1334 35.9164 7.92085 35.0599 6.43066 33.5697C4.94064 32.0796 4.08406 29.8676 4.08398 26.9838V13.017C4.08398 10.1328 4.94048 7.92024 6.43066 6.43005C7.92085 4.93987 10.1334 4.08337 13.0176 4.08337ZM16.9863 22.3939C16.1986 21.7694 15.0527 21.8042 14.3203 22.5365L11.9727 24.8832C11.2382 24.3109 10.1989 24.3056 9.47168 24.8988L9.3291 25.0277C8.52761 25.8028 8.52507 27.0837 9.32031 27.8627V27.8636L10.5703 29.1136V29.1127C10.9667 29.5259 11.5028 29.6996 11.9844 29.6996C12.4891 29.6995 12.9995 29.5116 13.3975 29.1136L17.1475 25.3636C17.9237 24.5874 17.9237 23.3127 17.1475 22.5365L17.1387 22.5277L16.9863 22.3939ZM20.5176 24.4496C19.4202 24.4496 18.5178 25.3522 18.5176 26.4496C18.5176 27.5471 19.42 28.4496 20.5176 28.4496H29.2676C30.3882 28.4494 31.2676 27.5405 31.2676 26.4496C31.2673 25.3589 30.388 24.4497 29.2676 24.4496H20.5176ZM16.9863 10.7269C16.1986 10.1026 15.0526 10.1373 14.3203 10.8695L11.9727 13.2172C11.1886 12.6061 10.0577 12.6411 9.3291 13.3607C8.52436 14.1387 8.52456 15.4273 9.3291 16.2054L10.5703 17.4467V17.4457C10.9667 17.859 11.5027 18.0336 11.9844 18.0336C12.4891 18.0335 12.9995 17.8446 13.3975 17.4467L17.1475 13.6967C17.9236 12.9204 17.9237 11.6457 17.1475 10.8695L17.1387 10.8607L16.9863 10.7269ZM20.5176 12.7836C19.42 12.7836 18.5176 13.686 18.5176 14.7836C18.5177 15.881 19.4201 16.7836 20.5176 16.7836H29.2676C30.3881 16.7834 31.2675 15.8744 31.2676 14.7836C31.2676 13.6926 30.3882 12.7837 29.2676 12.7836H20.5176Z" fill="#163A96" stroke="#163A96" stroke-width="1.5"/>
</svg>
