<svg width="40" height="40" viewBox="0 0 40 40" fill="none" xmlns="http://www.w3.org/2000/svg">
<path d="M25.3828 4.08337H32.1162C33.3755 4.0834 34.0657 4.32649 34.4541 4.69177C34.831 5.04637 35.083 5.66823 35.083 6.83337V18.1664C35.083 19.3315 34.831 19.9534 34.4541 20.308C34.0657 20.6733 33.3757 20.9164 32.1162 20.9164H25.3828C24.1234 20.9164 23.4334 20.6733 23.0449 20.308C22.668 19.9534 22.416 19.3315 22.416 18.1664V6.83337C22.416 5.66823 22.668 5.04637 23.0449 4.69177C23.4334 4.32657 24.1236 4.08337 25.3828 4.08337Z" fill="#163A96" stroke="#163A96" stroke-width="1.5"/>
<path d="M7.88281 19.0834H14.6162C15.8755 19.0834 16.5657 19.3265 16.9541 19.6918C17.331 20.0464 17.583 20.6682 17.583 21.8334V33.1664C17.583 34.3315 17.331 34.9534 16.9541 35.308C16.5657 35.6733 15.8757 35.9164 14.6162 35.9164H7.88281C6.62339 35.9164 5.93339 35.6733 5.54492 35.308C5.168 34.9534 4.91602 34.3315 4.91602 33.1664V21.8334C4.91602 20.6682 5.168 20.0464 5.54492 19.6918C5.93342 19.3266 6.62356 19.0834 7.88281 19.0834Z" fill="#163A96" stroke="#163A96" stroke-width="1.5"/>
<path d="M35.8327 33.1667V28.5C35.8327 26 34.766 25 32.116 25H25.3827C22.7327 25 21.666 26 21.666 28.5V33.1667C21.666 35.6667 22.7327 36.6667 25.3827 36.6667H32.116C34.766 36.6667 35.8327 35.6667 35.8327 33.1667Z" fill="#163A96"/>
<path d="M18.3327 11.5V6.83337C18.3327 4.33337 17.266 3.33337 14.616 3.33337H7.88268C5.23268 3.33337 4.16602 4.33337 4.16602 6.83337V11.5C4.16602 14 5.23268 15 7.88268 15H14.616C17.266 15 18.3327 14 18.3327 11.5Z" fill="#163A96"/>
</svg>
