<svg width="40" height="40" viewBox="0 0 40 40" fill="none" xmlns="http://www.w3.org/2000/svg">
<path d="M18.3896 4.63489C19.2795 3.89067 20.7469 3.89651 21.6123 4.63586L24.2422 6.89954V6.90051C24.581 7.19414 25.0311 7.42942 25.4658 7.59094C25.9003 7.75239 26.3916 7.86625 26.833 7.86633H29.667C31.0193 7.86644 32.1336 8.98086 32.1338 10.3331V13.1671C32.1339 13.6159 32.2477 14.1074 32.4102 14.5421C32.5725 14.9765 32.8079 15.4202 33.0996 15.757L35.3633 18.3868V18.3878C36.1067 19.2573 36.1073 20.7456 35.376 21.6163L33.1162 24.2423C32.8226 24.5811 32.5873 25.0313 32.4258 25.4659C32.2643 25.9004 32.1504 26.3917 32.1504 26.8331V29.6671C32.1502 31.0193 31.0359 32.1329 29.6836 32.1329H26.8506C26.4018 32.1329 25.9104 32.2479 25.4756 32.4103C25.0408 32.5727 24.5958 32.8077 24.2588 33.0997L21.6338 35.3595C20.7999 36.0623 19.4529 36.1032 18.5732 35.4943L18.4043 35.3634L15.7734 33.0997H15.7744C15.4356 32.8061 14.9854 32.5708 14.5508 32.4093C14.1162 32.2479 13.625 32.133 13.1836 32.1329H10.2998C8.94763 32.1328 7.83322 31.0193 7.83301 29.6671V26.8165C7.83297 26.3745 7.71839 25.8872 7.55957 25.4581C7.40035 25.0281 7.17117 24.5874 6.89258 24.2531L6.88867 24.2482L4.63867 21.5978C3.90976 20.7274 3.9098 19.2729 4.63867 18.4025L6.88867 15.7521L6.89258 15.7472C7.17115 15.4129 7.40035 14.9721 7.55957 14.5421C7.71837 14.1131 7.83295 13.6257 7.83301 13.1837V10.3331C7.83315 8.9809 8.94759 7.86651 10.2998 7.86633H13.1836C13.6248 7.86631 14.1155 7.75216 14.5479 7.59387C14.9807 7.43537 15.4273 7.20625 15.7637 6.9259L15.7705 6.92102L15.7764 6.91516L18.3896 4.63489ZM27.4639 14.5529C26.6877 13.7768 25.4129 13.7769 24.6367 14.5529L18 21.1886L15.3809 18.5695C14.6046 17.7932 13.329 17.7932 12.5527 18.5695C11.7767 19.3455 11.777 20.6204 12.5527 21.3966L16.5869 25.4308C16.9592 25.8029 17.4657 26.0167 18 26.0167C18.5345 26.0167 19.0417 25.8031 19.4141 25.4308L27.4639 17.38C28.2399 16.6038 28.24 15.329 27.4639 14.5529Z" fill="#163A96" stroke="#163A96" stroke-width="1.5"/>
</svg>
