<svg width="40" height="40" viewBox="0 0 40 40" fill="none" xmlns="http://www.w3.org/2000/svg">
<path d="M11.667 6.58331H28.334C30.7189 6.58331 32.5919 7.1794 33.8652 8.36163C35.1285 9.53464 35.9169 11.3928 35.917 14.1663V25.8333C35.917 28.607 35.1285 30.4649 33.8652 31.638C32.5919 32.8203 30.719 33.4163 28.334 33.4163H11.667C9.28212 33.4163 7.40903 32.8203 6.13574 31.638C4.8725 30.4649 4.08398 28.607 4.08398 25.8333V14.1663C4.08405 11.3928 4.8725 9.53464 6.13574 8.36163C7.40903 7.17935 9.28217 6.58337 11.667 6.58331ZM29.8809 13.7435C29.1971 12.8657 27.9283 12.7487 27.083 13.431L21.8662 17.597L21.8643 17.598C21.3879 17.9803 20.709 18.1956 19.9922 18.1956C19.2754 18.1956 18.5964 17.9803 18.1201 17.598L18.1191 17.597L12.9023 13.431C12.0316 12.7276 10.7816 12.9065 10.1016 13.7435L10.0977 13.7493L10.0928 13.7552C9.4271 14.6075 9.55782 15.8724 10.4111 16.5657L10.416 16.5696L15.6328 20.7357C16.8683 21.7405 18.4571 22.2171 20.001 22.2171C21.5501 22.217 23.1207 21.7377 24.3691 20.7357L29.585 16.5696L29.5898 16.5657C30.4377 15.8769 30.5747 14.619 29.8975 13.764H29.8984C29.8967 13.7616 29.8944 13.7595 29.8926 13.7571C29.8891 13.7528 29.8863 13.7478 29.8828 13.7435H29.8809Z" fill="#163A96" stroke="#163A96" stroke-width="1.5"/>
</svg>
