<svg width="24" height="24" viewBox="0 0 24 24" fill="none" xmlns="http://www.w3.org/2000/svg">
<mask id="mask0_10547_9346" style="mask-type:luminance" maskUnits="userSpaceOnUse" x="0" y="0" width="24" height="24">
<path d="M0 0H24V24H0V0Z" fill="white"/>
</mask>
<g mask="url(#mask0_10547_9346)">
<path d="M5.82877 4.53301C5.22877 5.87701 5.46577 8.28501 5.56177 9.96901C4.91377 10.328 4.08177 9.69801 3.61077 9.69801C3.12077 9.69801 2.53577 10.02 2.44377 10.5C2.37777 10.846 2.53277 11.35 3.64477 11.789C4.07477 11.959 5.09777 12.159 5.33477 12.717C5.66777 13.501 3.62477 17.12 0.41677 17.648C0.295652 17.668 0.186199 17.7321 0.10942 17.8279C0.0326417 17.9237 -0.00605101 18.0444 0.000769796 18.167C0.0567698 19.142 2.24277 19.524 3.21177 19.674C3.31077 19.808 3.39077 20.374 3.51777 20.805C3.57477 20.998 3.72177 21.229 4.09977 21.229C4.59277 21.229 5.41177 20.849 6.83777 21.085C8.23577 21.318 9.54977 23.3 12.0728 23.3C14.4178 23.3 15.8168 21.309 17.1628 21.085C17.9418 20.956 18.6108 20.997 19.3588 21.143C19.8738 21.244 20.3358 21.3 20.4828 20.794C20.6118 20.357 20.6908 19.802 20.7878 19.671C21.7478 19.522 23.9438 19.141 23.9988 18.166C24.0056 18.0434 23.9669 17.9227 23.8901 17.8269C23.8133 17.7311 23.7039 17.667 23.5828 17.647C20.4288 17.127 18.3238 13.519 18.6648 12.716C18.9008 12.159 19.9168 11.961 20.3548 11.788C21.1688 11.467 21.5768 11.072 21.5678 10.615C21.5568 10.03 20.8528 9.68101 20.3348 9.68101C19.8078 9.68101 19.0508 10.305 18.4378 9.96701C18.5338 8.26901 18.7698 5.87201 18.1708 4.52901C17.0358 1.98601 14.5108 0.700012 11.9868 0.700012C9.47877 0.700012 6.97277 1.96801 5.82877 4.53301Z" fill="#1D1F1F"/>
</g>
</svg>
