<svg width="24" height="24" viewBox="0 0 24 24" fill="none" xmlns="http://www.w3.org/2000/svg">
<path d="M6.0002 3.59995C6.0002 4.87435 5.1482 5.97115 3.599 5.97115C2.141 5.97115 1.2002 4.93675 1.2002 3.66235C1.2002 2.35435 2.1122 1.19995 3.6002 1.19995C5.0882 1.19995 5.9714 2.29195 6.0002 3.59995ZM1.2002 22.8V7.19995H6.0002V22.8H1.2002ZM8.4002 12.5328C8.4002 10.6788 8.339 9.12955 8.2778 7.79155H12.5906L12.8042 9.85915H12.8954C13.5026 8.88595 14.9906 7.45915 17.4818 7.45915C20.5202 7.45915 22.8002 9.49315 22.8002 13.8696V22.8H18.0002V14.5668C18.0002 12.654 17.2718 11.1948 15.6002 11.1948C14.3258 11.1948 13.6874 12.2268 13.3526 13.0776C13.2302 13.3824 13.2002 13.8072 13.2002 14.2332V22.8H8.4002V12.5328Z" fill="#1D1F1F"/>
</svg>
