<svg width="20" height="20" viewBox="0 0 20 20" fill="none" xmlns="http://www.w3.org/2000/svg">
<path d="M17.5003 13.3346H5.83366C5.61265 13.3346 5.40068 13.2468 5.2444 13.0906C5.08812 12.9343 5.00033 12.7223 5.00033 12.5013C5.00033 12.2803 5.08812 12.0683 5.2444 11.912C5.40068 11.7558 5.61265 11.668 5.83366 11.668H14.5337C15.0909 11.668 15.6321 11.4819 16.0715 11.1392C16.5108 10.7964 16.8231 10.3168 16.9587 9.7763L18.3337 4.36797C18.3649 4.24498 18.3676 4.11648 18.3416 3.99228C18.3156 3.86808 18.2616 3.75146 18.1837 3.6513C18.1026 3.54858 17.9985 3.46638 17.8798 3.41137C17.7611 3.35635 17.6311 3.33007 17.5003 3.33464H5.63366C5.46173 2.84834 5.1436 2.42713 4.72288 2.12875C4.30216 1.83037 3.79945 1.66942 3.28366 1.66797H2.50033C2.27931 1.66797 2.06735 1.75577 1.91107 1.91205C1.75479 2.06833 1.66699 2.28029 1.66699 2.5013C1.66699 2.72232 1.75479 2.93428 1.91107 3.09056C2.06735 3.24684 2.27931 3.33464 2.50033 3.33464H3.28366C3.47402 3.32909 3.66054 3.38891 3.81216 3.50415C3.96379 3.61938 4.07137 3.78307 4.11699 3.96797L4.16699 4.36797L5.60866 10.0013C4.94562 10.0311 4.32159 10.3231 3.87384 10.8131C3.4261 11.303 3.19132 11.9508 3.22116 12.6138C3.251 13.2768 3.543 13.9009 4.03294 14.3486C4.52288 14.7964 5.17062 15.0311 5.83366 15.0013H5.98366C5.84661 15.3789 5.80257 15.784 5.85527 16.1822C5.90797 16.5805 6.05586 16.9601 6.28642 17.2891C6.51698 17.6181 6.82342 17.8866 7.17979 18.072C7.53615 18.2574 7.93195 18.3542 8.33366 18.3542C8.73537 18.3542 9.13117 18.2574 9.48753 18.072C9.8439 17.8866 10.1503 17.6181 10.3809 17.2891C10.6115 16.9601 10.7593 16.5805 10.8121 16.1822C10.8648 15.784 10.8207 15.3789 10.6837 15.0013H12.6503C12.5133 15.3789 12.4692 15.784 12.5219 16.1822C12.5746 16.5805 12.7225 16.9601 12.9531 17.2891C13.1837 17.6181 13.4901 17.8866 13.8465 18.072C14.2028 18.2574 14.5986 18.3542 15.0003 18.3542C15.402 18.3542 15.7978 18.2574 16.1542 18.072C16.5106 17.8866 16.817 17.6181 17.0476 17.2891C17.2781 16.9601 17.426 16.5805 17.4787 16.1822C17.5314 15.784 17.4874 15.3789 17.3503 15.0013H17.5003C17.7213 15.0013 17.9333 14.9135 18.0896 14.7572C18.2459 14.6009 18.3337 14.389 18.3337 14.168C18.3337 13.947 18.2459 13.735 18.0896 13.5787C17.9333 13.4224 17.7213 13.3346 17.5003 13.3346ZM16.4337 5.0013L15.342 9.36797C15.2964 9.55287 15.1888 9.71656 15.0372 9.83179C14.8855 9.94702 14.699 10.0068 14.5087 10.0013H7.31699L6.06699 5.0013H16.4337ZM8.33366 16.668C8.16884 16.668 8.00772 16.6191 7.87068 16.5275C7.73364 16.436 7.62683 16.3058 7.56376 16.1535C7.50069 16.0013 7.48418 15.8337 7.51634 15.6721C7.54849 15.5104 7.62786 15.3619 7.7444 15.2454C7.86095 15.1288 8.00943 15.0495 8.17108 15.0173C8.33273 14.9852 8.50029 15.0017 8.65256 15.0647C8.80483 15.1278 8.93498 15.2346 9.02655 15.3717C9.11812 15.5087 9.16699 15.6698 9.16699 15.8346C9.16699 16.0556 9.0792 16.2676 8.92291 16.4239C8.76663 16.5802 8.55467 16.668 8.33366 16.668ZM15.0003 16.668C14.8355 16.668 14.6744 16.6191 14.5374 16.5275C14.4003 16.436 14.2935 16.3058 14.2304 16.1535C14.1674 16.0013 14.1509 15.8337 14.183 15.6721C14.2152 15.5104 14.2945 15.3619 14.4111 15.2454C14.5276 15.1288 14.6761 15.0495 14.8378 15.0173C14.9994 14.9852 15.167 15.0017 15.3192 15.0647C15.4715 15.1278 15.6017 15.2346 15.6932 15.3717C15.7848 15.5087 15.8337 15.6698 15.8337 15.8346C15.8337 16.0556 15.7459 16.2676 15.5896 16.4239C15.4333 16.5802 15.2213 16.668 15.0003 16.668Z" fill="black"/>
</svg>
