<svg width="20" height="20" viewBox="0 0 20 20" fill="none" xmlns="http://www.w3.org/2000/svg">
<path d="M1 4.41675C1.12234 4.41678 1.24056 4.46149 1.33203 4.54272C1.42352 4.62407 1.48174 4.73658 1.49609 4.85815L1.5 4.92358V11.4167H8.5V5.91675L8.50879 5.82593C8.52527 5.73693 8.56512 5.65324 8.62598 5.58472C8.70668 5.49396 8.81802 5.43559 8.93848 5.42065L9.01367 5.41675H17C17.6375 5.41671 18.2509 5.66019 18.7148 6.09741C19.1769 6.53313 19.4559 7.12873 19.4951 7.76245L19.5 7.9314V15.9167C19.4997 16.044 19.4506 16.166 19.3633 16.2585C19.2758 16.3512 19.1565 16.4073 19.0293 16.4148C18.9021 16.4223 18.7764 16.3804 18.6787 16.2986C18.6056 16.2373 18.552 16.1569 18.5234 16.0671L18.5039 15.9744L18.5 15.9031V12.4167H1.5V15.9167C1.49972 16.044 1.45062 16.166 1.36328 16.2585C1.2758 16.3512 1.15652 16.4073 1.0293 16.4148C0.902077 16.4223 0.776435 16.3804 0.678711 16.2986C0.60561 16.2373 0.551962 16.1569 0.523438 16.0671L0.503906 15.9744L0.5 15.9031V4.91675C0.5 4.78414 0.552716 4.657 0.646484 4.56323C0.716888 4.49283 0.806114 4.44568 0.902344 4.42651L1 4.41675Z" fill="#F7951D" stroke="#F7951D"/>
<path d="M5 5.91675C5.38914 5.91687 5.7698 6.03052 6.09532 6.24376C6.42084 6.457 6.67707 6.76057 6.83263 7.11728C6.98818 7.47398 7.0363 7.86831 6.97108 8.25195C6.90586 8.63559 6.73013 8.99187 6.46544 9.27713C6.20075 9.56238 5.85859 9.76423 5.48089 9.85792C5.10319 9.95161 4.70637 9.93308 4.33904 9.8046C3.97172 9.67612 3.64986 9.44327 3.4129 9.13458C3.17594 8.8259 3.03419 8.4548 3.005 8.06675L3 7.91675L3.005 7.76675C3.04284 7.26359 3.26947 6.79334 3.63945 6.45025C4.00943 6.10715 4.49542 5.91659 5 5.91675Z" fill="#F7951D"/>
</svg>
