<svg width="17" height="18" viewBox="0 0 17 18" fill="none" xmlns="http://www.w3.org/2000/svg">
<mask id="path-1-inside-1_10170_36376" fill="white">
<path d="M5.28333 17.5875C5.1 17.5875 4.90833 17.5542 4.73333 17.4792C4.34167 17.3125 4.04167 16.9875 3.90833 16.5792L3.54167 15.4792C3.375 14.9792 3.525 14.3542 3.89167 13.9792L5.78333 12.0792C5.80833 12.0542 5.84167 11.9625 5.84167 11.9208V9.8625L2.04167 11.5042C1.53333 11.7208 1.01667 11.6958 0.625 11.4375C0.233333 11.1792 0 10.7125 0 10.1708V9.09583C0 8.27917 0.583333 7.40417 1.325 7.1125L5.83333 5.1625V2.79583C5.83333 1.7875 6.54167 0.629167 7.44167 0.1625C7.875 -0.0541667 8.375 -0.0541667 8.8 0.1625C9.70833 0.629167 10.4167 1.77917 10.4167 2.7875V5.15417L14.95 7.10417C15.6917 7.42083 16.2583 8.27083 16.2583 9.09583V10.1708C16.2583 10.7208 16.0333 11.1792 15.6333 11.4375C15.2333 11.6958 14.725 11.7208 14.2167 11.5125L10.4167 9.87083V11.9292C10.4167 11.9625 10.45 12.0458 10.475 12.0708L12.375 13.9792C12.7417 14.3458 12.8917 14.9875 12.725 15.4792L12.3583 16.5792C12.2167 16.9875 11.9167 17.3125 11.5167 17.4708C11.125 17.6292 10.6917 17.6125 10.3167 17.4292C10.275 17.4042 10.2333 17.3792 10.1917 17.3458L8.25 15.7125C8.18333 15.6542 8.05 15.6625 7.99167 15.7125L6.05 17.3458C6.01667 17.3792 5.975 17.4042 5.93333 17.4208C5.73333 17.5375 5.50833 17.5875 5.28333 17.5875ZM6.1 8.49583C6.29167 8.49583 6.475 8.54583 6.63333 8.65417C6.925 8.84583 7.09167 9.17083 7.09167 9.55417V11.9292C7.09167 12.2875 6.91667 12.7125 6.66667 12.9625L4.775 14.8625C4.74167 14.9042 4.70833 15.0292 4.725 15.0792L5.09167 16.1875C5.11667 16.2708 5.175 16.3042 5.20833 16.3208C5.23333 16.3292 5.275 16.3458 5.325 16.3292L7.19167 14.7542C7.71667 14.3042 8.54167 14.3042 9.06667 14.7542L10.925 16.3208C10.9833 16.3292 11.025 16.3208 11.05 16.3125C11.0833 16.2958 11.15 16.2625 11.175 16.1792L11.5417 15.0792C11.5583 15.0208 11.525 14.8958 11.4917 14.8625L9.6 12.9625C9.35 12.7292 9.16667 12.2958 9.16667 11.9292V9.55417C9.16667 9.17917 9.325 8.85417 9.60833 8.6625C9.89167 8.47083 10.2583 8.44583 10.6083 8.59583L14.7083 10.3625C14.8333 10.4125 14.9167 10.4125 14.9417 10.3958C14.9667 10.3792 15 10.3042 15 10.1708V9.09583C15 8.77917 14.7333 8.37083 14.45 8.25417L9.8 6.24583C9.43333 6.0875 9.175 5.6875 9.175 5.2875V2.7875C9.175 2.2375 8.74167 1.52917 8.24167 1.27917C8.175 1.24583 8.09167 1.24583 8.01667 1.27917C7.53333 1.52917 7.09167 2.25417 7.09167 2.79583V5.29583C7.09167 5.6875 6.83333 6.09583 6.46667 6.25417L1.81667 8.2625C1.525 8.37917 1.25833 8.7875 1.25833 9.09583V10.1708C1.25833 10.3042 1.29167 10.3792 1.31667 10.3958C1.34167 10.4125 1.425 10.4125 1.55 10.3625L5.64167 8.59583C5.79167 8.52917 5.95 8.49583 6.1 8.49583Z"/>
</mask>
<path d="M5.28333 17.5875C5.1 17.5875 4.90833 17.5542 4.73333 17.4792C4.34167 17.3125 4.04167 16.9875 3.90833 16.5792L3.54167 15.4792C3.375 14.9792 3.525 14.3542 3.89167 13.9792L5.78333 12.0792C5.80833 12.0542 5.84167 11.9625 5.84167 11.9208V9.8625L2.04167 11.5042C1.53333 11.7208 1.01667 11.6958 0.625 11.4375C0.233333 11.1792 0 10.7125 0 10.1708V9.09583C0 8.27917 0.583333 7.40417 1.325 7.1125L5.83333 5.1625V2.79583C5.83333 1.7875 6.54167 0.629167 7.44167 0.1625C7.875 -0.0541667 8.375 -0.0541667 8.8 0.1625C9.70833 0.629167 10.4167 1.77917 10.4167 2.7875V5.15417L14.95 7.10417C15.6917 7.42083 16.2583 8.27083 16.2583 9.09583V10.1708C16.2583 10.7208 16.0333 11.1792 15.6333 11.4375C15.2333 11.6958 14.725 11.7208 14.2167 11.5125L10.4167 9.87083V11.9292C10.4167 11.9625 10.45 12.0458 10.475 12.0708L12.375 13.9792C12.7417 14.3458 12.8917 14.9875 12.725 15.4792L12.3583 16.5792C12.2167 16.9875 11.9167 17.3125 11.5167 17.4708C11.125 17.6292 10.6917 17.6125 10.3167 17.4292C10.275 17.4042 10.2333 17.3792 10.1917 17.3458L8.25 15.7125C8.18333 15.6542 8.05 15.6625 7.99167 15.7125L6.05 17.3458C6.01667 17.3792 5.975 17.4042 5.93333 17.4208C5.73333 17.5375 5.50833 17.5875 5.28333 17.5875ZM6.1 8.49583C6.29167 8.49583 6.475 8.54583 6.63333 8.65417C6.925 8.84583 7.09167 9.17083 7.09167 9.55417V11.9292C7.09167 12.2875 6.91667 12.7125 6.66667 12.9625L4.775 14.8625C4.74167 14.9042 4.70833 15.0292 4.725 15.0792L5.09167 16.1875C5.11667 16.2708 5.175 16.3042 5.20833 16.3208C5.23333 16.3292 5.275 16.3458 5.325 16.3292L7.19167 14.7542C7.71667 14.3042 8.54167 14.3042 9.06667 14.7542L10.925 16.3208C10.9833 16.3292 11.025 16.3208 11.05 16.3125C11.0833 16.2958 11.15 16.2625 11.175 16.1792L11.5417 15.0792C11.5583 15.0208 11.525 14.8958 11.4917 14.8625L9.6 12.9625C9.35 12.7292 9.16667 12.2958 9.16667 11.9292V9.55417C9.16667 9.17917 9.325 8.85417 9.60833 8.6625C9.89167 8.47083 10.2583 8.44583 10.6083 8.59583L14.7083 10.3625C14.8333 10.4125 14.9167 10.4125 14.9417 10.3958C14.9667 10.3792 15 10.3042 15 10.1708V9.09583C15 8.77917 14.7333 8.37083 14.45 8.25417L9.8 6.24583C9.43333 6.0875 9.175 5.6875 9.175 5.2875V2.7875C9.175 2.2375 8.74167 1.52917 8.24167 1.27917C8.175 1.24583 8.09167 1.24583 8.01667 1.27917C7.53333 1.52917 7.09167 2.25417 7.09167 2.79583V5.29583C7.09167 5.6875 6.83333 6.09583 6.46667 6.25417L1.81667 8.2625C1.525 8.37917 1.25833 8.7875 1.25833 9.09583V10.1708C1.25833 10.3042 1.29167 10.3792 1.31667 10.3958C1.34167 10.4125 1.425 10.4125 1.55 10.3625L5.64167 8.59583C5.79167 8.52917 5.95 8.49583 6.1 8.49583Z" fill="#163A96"/>
<path d="M4.73333 17.4792L5.32421 16.1004L5.32067 16.0989L4.73333 17.4792ZM3.90833 16.5792L5.33427 16.1136L5.33136 16.1048L3.90833 16.5792ZM3.54167 15.4792L4.96469 15.0048V15.0048L3.54167 15.4792ZM3.89167 13.9792L2.82863 12.9208L2.81916 12.9305L3.89167 13.9792ZM5.78333 12.0792L4.72267 11.0185L4.72035 11.0208L5.78333 12.0792ZM5.84167 9.8625H7.34167V7.58048L5.24678 8.48551L5.84167 9.8625ZM2.04167 11.5042L2.62982 12.8841L2.63655 12.8812L2.04167 11.5042ZM1.325 7.1125L1.87396 8.50844L1.89738 8.49923L1.92048 8.48923L1.325 7.1125ZM5.83333 5.1625L6.42882 6.53924L7.33333 6.148V5.1625H5.83333ZM7.44167 0.1625L6.77085 -1.17914L6.76098 -1.17421L6.75119 -1.16913L7.44167 0.1625ZM8.8 0.1625L9.48547 -1.17172L9.48128 -1.17386L8.8 0.1625ZM10.4167 5.15417H8.91667V6.14183L9.82395 6.5321L10.4167 5.15417ZM14.95 7.10417L14.3573 8.4821L14.361 8.48368L14.95 7.10417ZM15.6333 11.4375L14.8195 10.1774L15.6333 11.4375ZM14.2167 11.5125L13.6218 12.8895L13.6348 12.8951L13.6478 12.9005L14.2167 11.5125ZM10.4167 9.87083L11.0116 8.49384L8.91667 7.58881V9.87083H10.4167ZM10.475 12.0708L11.538 11.0125L11.5357 11.0102L10.475 12.0708ZM12.375 13.9792L11.312 15.0375L11.3143 15.0398L12.375 13.9792ZM12.725 15.4792L11.3044 14.9976L11.302 15.0048L12.725 15.4792ZM12.3583 16.5792L13.7755 17.0708L13.7785 17.0622L13.7814 17.0535L12.3583 16.5792ZM11.5167 17.4708L10.9646 16.0761L10.9545 16.0802L11.5167 17.4708ZM10.3167 17.4292L9.54492 18.7154L9.60007 18.7485L9.65785 18.7767L10.3167 17.4292ZM10.1917 17.3458L9.22607 18.4937L9.2402 18.5056L9.25462 18.5171L10.1917 17.3458ZM8.25 15.7125L7.26224 16.8414L7.27323 16.851L7.2844 16.8604L8.25 15.7125ZM7.99167 15.7125L8.9573 16.8604L8.96785 16.8514L7.99167 15.7125ZM6.05 17.3458L5.0844 16.198L5.03499 16.2395L4.98934 16.2852L6.05 17.3458ZM5.93333 17.4208L5.37625 16.0281L5.2733 16.0693L5.17753 16.1252L5.93333 17.4208ZM6.63333 8.65417L5.78631 9.89213L5.79786 9.90003L5.80957 9.90772L6.63333 8.65417ZM6.66667 12.9625L5.606 11.9018L5.60368 11.9042L6.66667 12.9625ZM4.775 14.8625L3.71201 13.8042L3.65456 13.8619L3.6037 13.9255L4.775 14.8625ZM4.725 15.0792L6.1491 14.608L6.14803 14.6048L4.725 15.0792ZM5.09167 16.1875L6.52841 15.7565L6.52236 15.7363L6.51576 15.7164L5.09167 16.1875ZM5.20833 16.3208L4.53751 17.6625L4.63286 17.7101L4.73399 17.7439L5.20833 16.3208ZM5.325 16.3292L5.79934 17.7522L6.07236 17.6612L6.29231 17.4756L5.325 16.3292ZM7.19167 14.7542L8.159 15.9006L8.16785 15.8931L7.19167 14.7542ZM9.06667 14.7542L8.09045 15.8931L8.09983 15.901L9.06667 14.7542ZM10.925 16.3208L9.95816 17.4677L10.287 17.7449L10.7129 17.8058L10.925 16.3208ZM11.05 16.3125L11.5243 17.7355L11.6255 17.7018L11.7208 17.6541L11.05 16.3125ZM11.175 16.1792L9.75198 15.7048L9.74479 15.7264L9.73826 15.7481L11.175 16.1792ZM11.5417 15.0792L12.9647 15.5535L12.975 15.5226L12.984 15.4912L11.5417 15.0792ZM11.4917 14.8625L10.4287 15.9208L10.431 15.9232L11.4917 14.8625ZM9.6 12.9625L10.663 11.9042L10.6436 11.8847L10.6235 11.8659L9.6 12.9625ZM10.6083 8.59583L11.2019 7.21827L11.1992 7.21712L10.6083 8.59583ZM14.7083 10.3625L14.1148 11.7401L14.1329 11.7479L14.1512 11.7552L14.7083 10.3625ZM14.45 8.25417L13.8553 9.63122L13.867 9.6363L13.8789 9.64118L14.45 8.25417ZM9.8 6.24583L10.3947 4.86878L10.3947 4.86874L9.8 6.24583ZM8.24167 1.27917L7.57085 2.62081L8.24167 1.27917ZM8.01667 1.27917L7.40746 -0.0915506L7.36693 -0.0735369L7.32753 -0.0531597L8.01667 1.27917ZM6.46667 6.25417L5.87201 4.87707L5.87192 4.87711L6.46667 6.25417ZM1.81667 8.2625L2.37375 9.65522L2.39269 9.64764L2.41142 9.63955L1.81667 8.2625ZM1.55 10.3625L2.10709 11.7552L2.12595 11.7477L2.1446 11.7396L1.55 10.3625ZM5.64167 8.59583L6.23627 9.97295L6.24359 9.96979L6.25087 9.96655L5.64167 8.59583ZM5.28333 17.5875V16.0875C5.28165 16.0875 5.2823 16.0873 5.28663 16.0881C5.29097 16.0889 5.304 16.0918 5.32421 16.1004L4.73333 17.4792L4.14245 18.8579C4.52904 19.0236 4.92579 19.0875 5.28333 19.0875V17.5875ZM4.73333 17.4792L5.32067 16.0989C5.32176 16.0994 5.32517 16.1013 5.32875 16.1052C5.33041 16.107 5.33177 16.1089 5.33279 16.1106C5.33329 16.1115 5.33366 16.1122 5.33391 16.1127C5.33416 16.1133 5.33425 16.1136 5.33424 16.1136L3.90833 16.5792L2.48242 17.0448C2.75073 17.8664 3.35757 18.5239 4.146 18.8594L4.73333 17.4792ZM3.90833 16.5792L5.33136 16.1048L4.96469 15.0048L3.54167 15.4792L2.11864 15.9535L2.48531 17.0535L3.90833 16.5792ZM3.54167 15.4792L4.96469 15.0048C4.96933 15.0187 4.9716 15.0293 4.97272 15.0358C4.97383 15.0424 4.97393 15.0458 4.97393 15.046C4.97394 15.0462 4.97388 15.0442 4.9743 15.0402C4.97471 15.0363 4.9755 15.0314 4.97679 15.0259C4.97809 15.0203 4.97966 15.0152 4.9813 15.0109C4.98293 15.0065 4.98427 15.0038 4.98478 15.0028C4.9853 15.0018 4.98449 15.0035 4.98161 15.0075C4.97873 15.0115 4.97319 15.0186 4.96418 15.0278L3.89167 13.9792L2.81916 12.9305C2.06755 13.6992 1.77062 14.9094 2.11864 15.9535L3.54167 15.4792ZM3.89167 13.9792L4.95466 15.0375L6.84632 13.1375L5.78333 12.0792L4.72035 11.0208L2.82868 12.9208L3.89167 13.9792ZM5.78333 12.0792L6.84399 13.1398C7.01533 12.9685 7.10674 12.7938 7.1336 12.7422C7.17579 12.6611 7.20724 12.5852 7.23019 12.5226C7.25622 12.4516 7.34167 12.2148 7.34167 11.9208H5.84167H4.34167C4.34167 11.763 4.36852 11.6474 4.37645 11.6139C4.38843 11.5634 4.40168 11.5223 4.41356 11.4899C4.42505 11.4585 4.44348 11.4128 4.47239 11.3573C4.48707 11.3291 4.51027 11.2871 4.54306 11.2377C4.57224 11.1937 4.63103 11.1102 4.72267 11.0185L5.78333 12.0792ZM5.84167 11.9208H7.34167V9.8625H5.84167H4.34167V11.9208H5.84167ZM5.84167 9.8625L5.24678 8.48551L1.44678 10.1272L2.04167 11.5042L2.63655 12.8812L6.43655 11.2395L5.84167 9.8625ZM2.04167 11.5042L1.45352 10.1243C1.38594 10.1531 1.3543 10.1503 1.36062 10.1506C1.36391 10.1508 1.37539 10.1518 1.39284 10.1573C1.41059 10.1629 1.43081 10.1721 1.45089 10.1853L0.625 11.4375L-0.200892 12.6897C0.688549 13.2763 1.75126 13.2585 2.62981 12.8841L2.04167 11.5042ZM0.625 11.4375L1.45089 10.1853C1.46964 10.1977 1.48407 10.2111 1.49427 10.2228C1.50431 10.2343 1.50875 10.2426 1.50984 10.2448C1.512 10.2491 1.5 10.227 1.5 10.1708H0H-1.5C-1.5 11.1368 -1.07595 12.1125 -0.200892 12.6897L0.625 11.4375ZM0 10.1708H1.5V9.09583H0H-1.5V10.1708H0ZM0 9.09583H1.5C1.5 9.03124 1.52961 8.89338 1.63189 8.74018C1.7352 8.58545 1.84109 8.52136 1.87396 8.50844L1.325 7.1125L0.776036 5.71656C0.0672408 5.9953 -0.489365 6.51455 -0.863141 7.0744C-1.23794 7.63579 -1.5 8.34376 -1.5 9.09583H0ZM1.325 7.1125L1.92048 8.48923L6.42882 6.53924L5.83333 5.1625L5.23785 3.78576L0.729517 5.73576L1.325 7.1125ZM5.83333 5.1625H7.33333V2.79583H5.83333H4.33333V5.1625H5.83333ZM5.83333 2.79583H7.33333C7.33333 2.62375 7.40191 2.34956 7.57999 2.0581C7.7578 1.76708 7.97285 1.57673 8.13214 1.49413L7.44167 0.1625L6.75119 -1.16913C6.01049 -0.785063 5.42136 -0.162915 5.02001 0.49398C4.61892 1.15044 4.33333 1.95959 4.33333 2.79583H5.83333ZM7.44167 0.1625L8.11249 1.50414C8.11747 1.50165 8.1208 1.50068 8.12236 1.50031C8.12398 1.49993 8.12448 1.5 8.12396 1.5C8.12342 1.5 8.12235 1.49993 8.12099 1.4996C8.11955 1.49926 8.1187 1.49885 8.11872 1.49886L8.8 0.1625L9.48128 -1.17386C8.62421 -1.6108 7.6223 -1.60487 6.77085 -1.17914L7.44167 0.1625ZM8.8 0.1625L8.11453 1.49672C8.27972 1.58159 8.49531 1.772 8.67176 2.05849C8.84874 2.34585 8.91667 2.61643 8.91667 2.7875H10.4167H11.9167C11.9167 1.95024 11.6304 1.14165 11.2262 0.485257C10.8214 -0.172 10.2286 -0.789919 9.48547 -1.17172L8.8 0.1625ZM10.4167 2.7875H8.91667V5.15417H10.4167H11.9167V2.7875H10.4167ZM10.4167 5.15417L9.82395 6.5321L14.3573 8.4821L14.95 7.10417L15.5427 5.72624L11.0094 3.77624L10.4167 5.15417ZM14.95 7.10417L14.361 8.48368C14.5493 8.56408 14.7583 8.8707 14.7583 9.09583H16.2583H17.7583C17.7583 7.67096 16.834 6.27758 15.539 5.72465L14.95 7.10417ZM16.2583 9.09583H14.7583V10.1708H16.2583H17.7583V9.09583H16.2583ZM16.2583 10.1708H14.7583C14.7583 10.2422 14.7439 10.2635 14.7503 10.2505C14.7535 10.2441 14.7606 10.2318 14.7737 10.217C14.7869 10.202 14.8027 10.1883 14.8195 10.1774L15.6333 11.4375L16.4471 12.6976C17.3501 12.1144 17.7583 11.1336 17.7583 10.1708H16.2583ZM15.6333 11.4375L14.8195 10.1774C14.8327 10.1689 14.8475 10.162 14.8619 10.1575C14.8761 10.153 14.8855 10.1521 14.8878 10.152C14.8926 10.1518 14.8587 10.1545 14.7855 10.1245L14.2167 11.5125L13.6478 12.9005C14.5228 13.259 15.5614 13.2696 16.4471 12.6976L15.6333 11.4375ZM14.2167 11.5125L14.8116 10.1355L11.0116 8.49384L10.4167 9.87083L9.82178 11.2478L13.6218 12.8895L14.2167 11.5125ZM10.4167 9.87083H8.91667V11.9292H10.4167H11.9167V9.87083H10.4167ZM10.4167 11.9292H8.91667C8.91667 12.1383 8.96037 12.3024 8.97512 12.3565C8.99703 12.4369 9.02276 12.5088 9.04732 12.5691C9.07181 12.6292 9.10442 12.7005 9.14683 12.7762C9.17677 12.8296 9.26305 12.9802 9.41434 13.1315L10.475 12.0708L11.5357 11.0102C11.6744 11.149 11.7472 11.2798 11.7639 11.3095C11.793 11.3615 11.8126 11.4052 11.8256 11.4372C11.8387 11.4693 11.8545 11.5126 11.8694 11.5672C11.8771 11.5955 11.9167 11.7367 11.9167 11.9292H10.4167ZM10.475 12.0708L9.41202 13.1292L11.312 15.0375L12.375 13.9792L13.438 12.9208L11.538 11.0125L10.475 12.0708ZM12.375 13.9792L11.3143 15.0398C11.301 15.0265 11.2926 15.0159 11.2878 15.0093C11.2854 15.006 11.2838 15.0034 11.2828 15.0018C11.2817 15.0002 11.2813 14.9993 11.2813 14.9993C11.2812 14.9992 11.2815 14.9998 11.2821 15.0011C11.2827 15.0023 11.2834 15.0041 11.2842 15.0064C11.286 15.011 11.2878 15.0168 11.2893 15.0233C11.2908 15.0298 11.2918 15.0358 11.2923 15.0408C11.2925 15.0432 11.2926 15.0451 11.2927 15.0465C11.2928 15.0478 11.2927 15.0485 11.2927 15.0484C11.2927 15.0484 11.2928 15.0474 11.2929 15.0455C11.2931 15.0436 11.2935 15.0406 11.2942 15.0366C11.2955 15.0286 11.2984 15.0154 11.3044 14.9976L12.725 15.4792L14.1456 15.9607C14.4956 14.9282 14.2059 13.6887 13.4357 12.9185L12.375 13.9792ZM12.725 15.4792L11.302 15.0048L10.9353 16.1048L12.3583 16.5792L13.7814 17.0535L14.148 15.9535L12.725 15.4792ZM12.3583 16.5792L10.9412 16.0875C10.9376 16.098 10.9354 16.0979 10.9405 16.0923C10.943 16.0897 10.9466 16.0865 10.9512 16.0833C10.956 16.0801 10.9607 16.0777 10.9646 16.0761L11.5167 17.4708L12.0687 18.8655C12.8957 18.5382 13.4982 17.8701 13.7755 17.0708L12.3583 16.5792ZM11.5167 17.4708L10.9545 16.0802C10.9543 16.0802 10.9552 16.0799 10.9572 16.0795C10.9591 16.0792 10.9614 16.079 10.964 16.0791C10.9695 16.0793 10.9736 16.0807 10.9755 16.0816L10.3167 17.4292L9.65785 18.7767C10.4145 19.1466 11.2916 19.1797 12.0788 18.8615L11.5167 17.4708ZM10.3167 17.4292L11.0884 16.1429C11.077 16.1361 11.0725 16.1334 11.0689 16.1312C11.066 16.1294 11.0675 16.1303 11.0717 16.133C11.0804 16.1387 11.1017 16.1529 11.1287 16.1745L10.1917 17.3458L9.25462 18.5171C9.38626 18.6224 9.5117 18.6955 9.54492 18.7154L10.3167 17.4292ZM10.1917 17.3458L11.1573 16.198L9.2156 14.5646L8.25 15.7125L7.2844 16.8604L9.22607 18.4937L10.1917 17.3458ZM8.25 15.7125L9.23776 14.5836C8.82636 14.2237 8.35751 14.1664 8.0858 14.1722C7.82202 14.1778 7.39361 14.2495 7.01548 14.5736L7.99167 15.7125L8.96785 16.8514C8.64806 17.1255 8.31548 17.168 8.14962 17.1715C7.97582 17.1752 7.60697 17.143 7.26224 16.8414L8.25 15.7125ZM7.99167 15.7125L7.02607 14.5646L5.0844 16.198L6.05 17.3458L7.0156 18.4937L8.95726 16.8604L7.99167 15.7125ZM6.05 17.3458L4.98934 16.2852C5.12664 16.1479 5.26831 16.0713 5.37625 16.0281L5.93333 17.4208L6.49042 18.8135C6.68169 18.737 6.90669 18.6105 7.11066 18.4065L6.05 17.3458ZM5.93333 17.4208L5.17753 16.1252C5.24355 16.0867 5.28862 16.0875 5.28333 16.0875V17.5875V19.0875C5.72804 19.0875 6.22312 18.9883 6.68914 18.7165L5.93333 17.4208ZM6.1 8.49583V9.99583C6.02621 9.99583 5.90623 9.97418 5.78631 9.89213L6.63333 8.65417L7.48036 7.41621C7.04377 7.11749 6.55712 6.99583 6.1 6.99583V8.49583ZM6.63333 8.65417L5.80957 9.90772C5.73524 9.85888 5.67444 9.78987 5.63573 9.714C5.59801 9.64007 5.59167 9.5809 5.59167 9.55417H7.09167H8.59167C8.59167 8.71899 8.21346 7.89764 7.4571 7.40061L6.63333 8.65417ZM7.09167 9.55417H5.59167V11.9292H7.09167H8.59167V9.55417H7.09167ZM7.09167 11.9292H5.59167C5.59167 11.9132 5.59262 11.9024 5.59325 11.8968C5.59389 11.8912 5.59442 11.889 5.59416 11.8903C5.59391 11.8914 5.59315 11.8947 5.59161 11.8996C5.59009 11.9044 5.58812 11.9099 5.58574 11.9157C5.58335 11.9215 5.58094 11.9266 5.57878 11.9308C5.57661 11.935 5.57518 11.9373 5.57499 11.9376C5.57476 11.938 5.57651 11.9352 5.58088 11.9297C5.58521 11.9242 5.59331 11.9145 5.60601 11.9018L6.66667 12.9625L7.72733 14.0232C8.26226 13.4882 8.59167 12.6802 8.59167 11.9292H7.09167ZM6.66667 12.9625L5.60368 11.9042L3.71201 13.8042L4.775 14.8625L5.83799 15.9208L7.72966 14.0208L6.66667 12.9625ZM4.775 14.8625L3.6037 13.9255C3.378 14.2076 3.29894 14.5099 3.27397 14.6123C3.25325 14.6972 3.23277 14.8058 3.22446 14.9296C3.21828 15.0217 3.20667 15.2676 3.30198 15.5535L4.725 15.0792L6.14803 14.6048C6.235 14.8658 6.2213 15.0772 6.21773 15.1305C6.21202 15.2155 6.19883 15.2809 6.18853 15.3231C6.17779 15.3672 6.16216 15.4188 6.138 15.4775C6.12209 15.5162 6.0663 15.6495 5.9463 15.7995L4.775 14.8625ZM4.725 15.0792L3.30091 15.5503L3.66758 16.6586L5.09167 16.1875L6.51576 15.7164L6.14909 14.608L4.725 15.0792ZM5.09167 16.1875L3.65493 16.6185C3.85896 17.2986 4.3766 17.582 4.53751 17.6625L5.20833 16.3208L5.87915 14.9792C5.91001 14.9946 6.04291 15.0611 6.18136 15.193C6.33128 15.3357 6.45957 15.527 6.52841 15.7565L5.09167 16.1875ZM5.20833 16.3208L4.73399 17.7439C4.68154 17.7264 5.20294 17.951 5.79934 17.7522L5.325 16.3292L4.85066 14.9061C5.34706 14.7407 5.78513 14.932 5.68267 14.8978L5.20833 16.3208ZM5.325 16.3292L6.29231 17.4756L8.15897 15.9006L7.19167 14.7542L6.22436 13.6077L4.35769 15.1827L5.325 16.3292ZM7.19167 14.7542L8.16785 15.8931C8.15115 15.9074 8.13743 15.9134 8.13152 15.9155C8.12633 15.9174 8.12595 15.9167 8.12917 15.9167C8.13239 15.9167 8.13201 15.9174 8.12681 15.9155C8.1209 15.9134 8.10718 15.9074 8.09048 15.8931L9.06667 14.7542L10.0429 13.6153C8.95612 12.6838 7.30221 12.6838 6.21548 13.6153L7.19167 14.7542ZM9.06667 14.7542L8.09983 15.901L9.95816 17.4677L10.925 16.3208L11.8918 15.174L10.0335 13.6073L9.06667 14.7542ZM10.925 16.3208L10.7129 17.8058C11.0211 17.8498 11.2978 17.811 11.5243 17.7355L11.05 16.3125L10.5757 14.8895C10.7522 14.8306 10.9455 14.8085 11.1371 14.8359L10.925 16.3208ZM11.05 16.3125L11.7208 17.6541C11.7672 17.6309 12.3883 17.3549 12.6117 16.6102L11.175 16.1792L9.73826 15.7481C9.91168 15.1701 10.3995 14.9607 10.3792 14.9709L11.05 16.3125ZM11.175 16.1792L12.598 16.6535L12.9647 15.5535L11.5417 15.0792L10.1186 14.6048L9.75198 15.7048L11.175 16.1792ZM11.5417 15.0792L12.984 15.4912C13.1036 15.0726 13.0177 14.7084 12.9927 14.606C12.9705 14.5151 12.9381 14.411 12.8908 14.3026C12.8584 14.2283 12.7599 14.0094 12.5523 13.8018L11.4917 14.8625L10.431 15.9232C10.3222 15.8144 10.2552 15.7124 10.2209 15.6558C10.183 15.5931 10.1573 15.5393 10.1409 15.5018C10.1088 15.4281 10.0899 15.3651 10.0781 15.3169C10.0663 15.2683 10.0538 15.2025 10.0486 15.1207C10.0447 15.0586 10.0371 14.8851 10.0994 14.6671L11.5417 15.0792ZM11.4917 14.8625L12.5547 13.8042L10.663 11.9042L9.6 12.9625L8.53701 14.0208L10.4287 15.9208L11.4917 14.8625ZM9.6 12.9625L10.6235 11.8659C10.6431 11.8842 10.6563 11.8991 10.6642 11.9086C10.6722 11.9183 10.6766 11.9246 10.6781 11.9269C10.6804 11.9305 10.6772 11.926 10.6723 11.9144C10.6675 11.9031 10.665 11.8938 10.6642 11.8901C10.6631 11.8854 10.6667 11.8983 10.6667 11.9292H9.16667H7.66667C7.66667 12.6853 8.00383 13.5246 8.57652 14.0591L9.6 12.9625ZM9.16667 11.9292H10.6667V9.55417H9.16667H7.66667V11.9292H9.16667ZM9.16667 9.55417H10.6667C10.6667 9.57764 10.6614 9.63227 10.6266 9.70302C10.5905 9.77622 10.5303 9.84978 10.4488 9.90493L9.60833 8.6625L8.76787 7.42007C8.01767 7.92756 7.66667 8.75074 7.66667 9.55417H9.16667ZM9.60833 8.6625L10.4488 9.90493C10.3626 9.96324 10.2679 9.99203 10.1837 9.99768C10.1016 10.0032 10.0446 9.9862 10.0175 9.97455L10.6083 8.59583L11.1992 7.21712C10.44 6.89176 9.52546 6.90759 8.76787 7.42007L9.60833 8.6625ZM10.6083 8.59583L10.0148 9.97339L14.1148 11.7401L14.7083 10.3625L15.3019 8.98494L11.2019 7.21828L10.6083 8.59583ZM14.7083 10.3625L14.1512 11.7552C14.3141 11.8203 14.5017 11.8745 14.7055 11.8959C14.8061 11.9065 14.9377 11.912 15.0875 11.8944C15.2059 11.8805 15.4849 11.8364 15.7737 11.6439L14.9417 10.3958L14.1096 9.14776C14.3859 8.96357 14.6452 8.92576 14.737 8.91496C14.8602 8.90047 14.9585 8.90599 15.0195 8.91241C15.1442 8.92553 15.2276 8.95466 15.2654 8.96978L14.7083 10.3625ZM14.9417 10.3958L15.7737 11.6439C16.05 11.4597 16.1967 11.2322 16.2591 11.1245C16.3356 10.9926 16.3837 10.8671 16.4147 10.7654C16.4775 10.5599 16.5 10.3562 16.5 10.1708H15H13.5C13.5 10.1188 13.5058 10.0193 13.5457 9.88876C13.5653 9.82458 13.6003 9.72928 13.6635 9.62026C13.7127 9.53547 13.8459 9.3236 14.1096 9.14776L14.9417 10.3958ZM15 10.1708H16.5V9.09583H15H13.5V10.1708H15ZM15 9.09583H16.5C16.5 8.55887 16.2929 8.09472 16.087 7.77958C15.884 7.46889 15.5356 7.07898 15.0211 6.86715L14.45 8.25417L13.8789 9.64118C13.7488 9.58761 13.672 9.52381 13.6401 9.49444C13.6047 9.46192 13.5858 9.43616 13.5755 9.42042C13.5651 9.40447 13.5509 9.37945 13.5371 9.33975C13.5246 9.30369 13.5 9.22011 13.5 9.09583H15ZM14.45 8.25417L15.0447 6.87711L10.3947 4.86878L9.8 6.24583L9.20525 7.62289L13.8553 9.63122L14.45 8.25417ZM9.8 6.24583L10.3947 4.86874C10.5119 4.91936 10.5752 4.98992 10.6075 5.03954C10.6397 5.0891 10.675 5.1698 10.675 5.2875H9.175H7.675C7.675 6.27406 8.27825 7.22259 9.20535 7.62293L9.8 6.24583ZM9.175 5.2875H10.675V2.7875H9.175H7.675V5.2875H9.175ZM9.175 2.7875H10.675C10.675 2.15591 10.4418 1.57011 10.1727 1.13362C9.90316 0.696496 9.48271 0.222636 8.91249 -0.0624741L8.24167 1.27917L7.57085 2.62081C7.52509 2.59793 7.51901 2.58501 7.54153 2.60737C7.56193 2.62763 7.59066 2.66208 7.61901 2.70805C7.64735 2.75403 7.66526 2.79523 7.67421 2.8225C7.68418 2.85288 7.675 2.84073 7.675 2.7875H9.175ZM8.24167 1.27917L8.91249 -0.0624741C8.40108 -0.318178 7.84505 -0.286036 7.40746 -0.0915506L8.01667 1.27917L8.62587 2.64988C8.33828 2.7777 7.94892 2.80984 7.57085 2.62081L8.24167 1.27917ZM8.01667 1.27917L7.32753 -0.0531597C6.76543 0.237584 6.35333 0.718931 6.09217 1.1473C5.83127 1.57524 5.59167 2.16248 5.59167 2.79583H7.09167H8.59167C8.59167 2.8564 8.58097 2.87095 8.59238 2.83645C8.60242 2.80608 8.62238 2.76026 8.65366 2.70895C8.68493 2.65766 8.71667 2.61868 8.73946 2.59542C8.76522 2.56914 8.75809 2.58445 8.7058 2.61149L8.01667 1.27917ZM7.09167 2.79583H5.59167V5.29583H7.09167H8.59167V2.79583H7.09167ZM7.09167 5.29583H5.59167C5.59167 5.17035 5.62909 5.09129 5.6569 5.04826C5.68516 5.00454 5.74719 4.93097 5.87201 4.87707L6.46667 6.25417L7.06132 7.63126C7.99449 7.2283 8.59167 6.26731 8.59167 5.29583H7.09167ZM6.46667 6.25417L5.87192 4.87711L1.22192 6.88545L1.81667 8.2625L2.41142 9.63955L7.06142 7.63122L6.46667 6.25417ZM1.81667 8.2625L1.25958 6.86978C0.739998 7.07762 0.386111 7.46511 0.178761 7.77718C-0.0290928 8.09001 -0.241667 8.55558 -0.241667 9.09583H1.25833H2.75833C2.75833 9.22704 2.73179 9.3152 2.71851 9.35268C2.70375 9.39436 2.68861 9.42067 2.67749 9.43741C2.66643 9.45404 2.6467 9.48028 2.61068 9.51274C2.57764 9.54252 2.50132 9.60419 2.37375 9.65522L1.81667 8.2625ZM1.25833 9.09583H-0.241667V10.1708H1.25833H2.75833V9.09583H1.25833ZM1.25833 10.1708H-0.241667C-0.241667 10.3562 -0.219198 10.5599 -0.156403 10.7654C-0.125334 10.8671 -0.0772606 10.9926 -0.00079889 11.1245C0.0616258 11.2322 0.208356 11.4597 0.484616 11.6439L1.31667 10.3958L2.14872 9.14776C2.41248 9.3236 2.54567 9.53547 2.59481 9.62026C2.65799 9.72928 2.69304 9.82458 2.71265 9.88876C2.75253 10.0193 2.75833 10.1188 2.75833 10.1708H1.25833ZM1.31667 10.3958L0.484616 11.6439C0.773393 11.8364 1.05245 11.8805 1.17083 11.8944C1.32061 11.912 1.45226 11.9065 1.55286 11.8959C1.75665 11.8745 1.94427 11.8203 2.10709 11.7552L1.55 10.3625L0.992914 8.96978C1.03073 8.95466 1.11418 8.92553 1.23881 8.91241C1.29983 8.90599 1.39814 8.90047 1.52136 8.91496C1.61317 8.92576 1.87244 8.96357 2.14872 9.14776L1.31667 10.3958ZM1.55 10.3625L2.1446 11.7396L6.23627 9.97295L5.64167 8.59583L5.04707 7.21872L0.9554 8.98538L1.55 10.3625ZM5.64167 8.59583L6.25087 9.96655C6.2163 9.98192 6.16763 9.99583 6.1 9.99583V8.49583V6.99583C5.73237 6.99583 5.36704 7.07642 5.03246 7.22512L5.64167 8.59583Z" fill="#163A96" mask="url(#path-1-inside-1_10170_36376)"/>
</svg>
