<svg width="20" height="20" viewBox="0 0 20 20" fill="none" xmlns="http://www.w3.org/2000/svg">
<mask id="path-1-inside-1_8125_47610" fill="white">
<path d="M16.6664 9.79173H3.33305C3.14138 9.79173 2.96638 9.7084 2.84972 9.5584C2.73305 9.41673 2.68305 9.21673 2.72472 9.0334L3.66638 4.5334C3.97472 3.07507 4.59972 1.7334 7.07472 1.7334H12.9331C15.4081 1.7334 16.0331 3.0834 16.3414 4.5334L17.2831 9.04173C17.3247 9.22507 17.2747 9.41673 17.1581 9.56673C17.0331 9.7084 16.8581 9.79173 16.6664 9.79173ZM4.09972 8.54173H15.8914L15.1081 4.79173C14.8747 3.70007 14.5997 2.9834 12.9247 2.9834H7.07472C5.39972 2.9834 5.12472 3.70007 4.89138 4.79173L4.09972 8.54173Z"/>
</mask>
<path d="M16.6664 9.79173H3.33305C3.14138 9.79173 2.96638 9.7084 2.84972 9.5584C2.73305 9.41673 2.68305 9.21673 2.72472 9.0334L3.66638 4.5334C3.97472 3.07507 4.59972 1.7334 7.07472 1.7334H12.9331C15.4081 1.7334 16.0331 3.0834 16.3414 4.5334L17.2831 9.04173C17.3247 9.22507 17.2747 9.41673 17.1581 9.56673C17.0331 9.7084 16.8581 9.79173 16.6664 9.79173ZM4.09972 8.54173H15.8914L15.1081 4.79173C14.8747 3.70007 14.5997 2.9834 12.9247 2.9834H7.07472C5.39972 2.9834 5.12472 3.70007 4.89138 4.79173L4.09972 8.54173Z" fill="#163A96"/>
<path d="M2.84972 9.5584L4.03375 8.63749L4.02091 8.62098L4.00761 8.60484L2.84972 9.5584ZM2.72472 9.0334L4.18742 9.36583L4.19027 9.35325L4.19292 9.34063L2.72472 9.0334ZM3.66638 4.5334L2.19882 4.22311L2.19819 4.22616L3.66638 4.5334ZM16.3414 4.5334L17.8097 4.22671L17.8086 4.22141L16.3414 4.5334ZM17.2831 9.04173L15.8147 9.34842L15.8174 9.36132L15.8204 9.37416L17.2831 9.04173ZM17.1581 9.56673L18.2828 10.5592L18.3136 10.5243L18.3421 10.4876L17.1581 9.56673ZM4.09972 8.54173L2.63207 8.23189L2.24999 10.0417H4.09972V8.54173ZM15.8914 8.54173V10.0417H17.7371L17.3597 8.23502L15.8914 8.54173ZM15.1081 4.79173L16.5764 4.48502L16.5749 4.4782L15.1081 4.79173ZM4.89138 4.79173L3.42451 4.4782L3.42373 4.48189L4.89138 4.79173ZM16.6664 8.29173H3.33305V11.2917H16.6664V8.29173ZM3.33305 8.29173C3.58962 8.29173 3.85736 8.4107 4.03375 8.63749L1.66569 10.4793C2.07541 11.0061 2.69314 11.2917 3.33305 11.2917V8.29173ZM4.00761 8.60484C4.18023 8.81444 4.25067 9.0875 4.18742 9.36583L1.26202 8.70097C1.11543 9.34596 1.28588 10.019 1.69182 10.512L4.00761 8.60484ZM4.19292 9.34063L5.13458 4.84063L2.19819 4.22616L1.25652 8.72616L4.19292 9.34063ZM5.13394 4.84368C5.27322 4.18495 5.43511 3.8359 5.63267 3.63304C5.77953 3.48224 6.12016 3.2334 7.07472 3.2334V0.233398C5.55427 0.233398 4.34491 0.655395 3.48343 1.54001C2.67266 2.37256 2.36789 3.42352 2.19883 4.22311L5.13394 4.84368ZM7.07472 3.2334H12.9331V0.233398H7.07472V3.2334ZM12.9331 3.2334C13.8849 3.2334 14.226 3.48277 14.374 3.63508C14.5732 3.83995 14.735 4.19059 14.8742 4.84539L17.8086 4.22141C17.6395 3.4262 17.3346 2.37685 16.5254 1.54422C15.6651 0.659022 14.4562 0.233398 12.9331 0.233398V3.2334ZM14.8731 4.84009L15.8147 9.34842L18.7514 8.73504L17.8097 4.22671L14.8731 4.84009ZM15.8204 9.37416C15.7524 9.07534 15.8434 8.81375 15.974 8.64582L18.3421 10.4876C18.706 10.0197 18.897 9.37479 18.7458 8.7093L15.8204 9.37416ZM16.0333 8.5743C16.1794 8.4087 16.4075 8.29173 16.6664 8.29173V11.2917C17.3086 11.2917 17.8867 11.0081 18.2828 10.5592L16.0333 8.5743ZM4.09972 10.0417H15.8914V7.04173H4.09972V10.0417ZM17.3597 8.23502L16.5764 4.48502L13.6397 5.09845L14.4231 8.84844L17.3597 8.23502ZM16.5749 4.4782C16.465 3.96372 16.2776 3.09515 15.6318 2.43181C14.9187 1.69938 13.947 1.4834 12.9247 1.4834V4.4834C13.5775 4.4834 13.5808 4.62575 13.4823 4.52457C13.4536 4.49512 13.4677 4.49269 13.5037 4.58644C13.5441 4.69147 13.5855 4.8446 13.6412 5.10526L16.5749 4.4782ZM12.9247 1.4834H7.07472V4.4834H12.9247V1.4834ZM7.07472 1.4834C6.05246 1.4834 5.08076 1.69938 4.36767 2.43181C3.72185 3.09515 3.53448 3.96372 3.42452 4.4782L6.35825 5.10526C6.41397 4.8446 6.45535 4.69147 6.49569 4.58644C6.5317 4.49269 6.54585 4.49512 6.51718 4.52457C6.41867 4.62575 6.42198 4.4834 7.07472 4.4834V1.4834ZM3.42373 4.48189L2.63207 8.23189L5.56737 8.85157L6.35904 5.10157L3.42373 4.48189Z" fill="#163A96" mask="url(#path-1-inside-1_8125_47610)"/>
<mask id="path-3-inside-2_8125_47610" fill="white">
<path d="M16.633 18.9584H15.0663C13.7163 18.9584 13.458 18.1834 13.2913 17.6751L13.1247 17.1751C12.908 16.5417 12.883 16.4584 12.133 16.4584H7.86633C7.11633 16.4584 7.06633 16.6001 6.87466 17.1751L6.708 17.6751C6.533 18.1917 6.283 18.9584 4.933 18.9584H3.36633C2.708 18.9584 2.07466 18.6834 1.633 18.2001C1.19966 17.7251 0.991331 17.0917 1.04966 16.4584L1.51633 11.3834C1.64133 10.0084 2.008 8.54175 4.683 8.54175H15.3163C17.9913 8.54175 18.3497 10.0084 18.483 11.3834L18.9497 16.4584C19.008 17.0917 18.7997 17.7251 18.3663 18.2001C17.9247 18.6834 17.2913 18.9584 16.633 18.9584ZM7.86633 15.2084H12.133C13.6497 15.2084 14.008 15.8834 14.308 16.7667L14.483 17.2834C14.6247 17.7084 14.6247 17.7167 15.0747 17.7167H16.6413C16.9497 17.7167 17.2413 17.5917 17.4497 17.3667C17.6497 17.1501 17.7413 16.8751 17.7163 16.5834L17.2497 11.5084C17.1413 10.3834 17.008 9.80008 15.333 9.80008H4.683C2.99966 9.80008 2.86633 10.3834 2.76633 11.5084L2.29966 16.5834C2.27466 16.8751 2.36633 17.1501 2.56633 17.3667C2.76633 17.5917 3.06633 17.7167 3.37466 17.7167H4.94133C5.39133 17.7167 5.39133 17.7084 5.533 17.2917L5.69966 16.7834C5.908 16.1167 6.21633 15.2084 7.86633 15.2084Z"/>
</mask>
<path d="M16.633 18.9584H15.0663C13.7163 18.9584 13.458 18.1834 13.2913 17.6751L13.1247 17.1751C12.908 16.5417 12.883 16.4584 12.133 16.4584H7.86633C7.11633 16.4584 7.06633 16.6001 6.87466 17.1751L6.708 17.6751C6.533 18.1917 6.283 18.9584 4.933 18.9584H3.36633C2.708 18.9584 2.07466 18.6834 1.633 18.2001C1.19966 17.7251 0.991331 17.0917 1.04966 16.4584L1.51633 11.3834C1.64133 10.0084 2.008 8.54175 4.683 8.54175H15.3163C17.9913 8.54175 18.3497 10.0084 18.483 11.3834L18.9497 16.4584C19.008 17.0917 18.7997 17.7251 18.3663 18.2001C17.9247 18.6834 17.2913 18.9584 16.633 18.9584ZM7.86633 15.2084H12.133C13.6497 15.2084 14.008 15.8834 14.308 16.7667L14.483 17.2834C14.6247 17.7084 14.6247 17.7167 15.0747 17.7167H16.6413C16.9497 17.7167 17.2413 17.5917 17.4497 17.3667C17.6497 17.1501 17.7413 16.8751 17.7163 16.5834L17.2497 11.5084C17.1413 10.3834 17.008 9.80008 15.333 9.80008H4.683C2.99966 9.80008 2.86633 10.3834 2.76633 11.5084L2.29966 16.5834C2.27466 16.8751 2.36633 17.1501 2.56633 17.3667C2.76633 17.5917 3.06633 17.7167 3.37466 17.7167H4.94133C5.39133 17.7167 5.39133 17.7084 5.533 17.2917L5.69966 16.7834C5.908 16.1167 6.21633 15.2084 7.86633 15.2084Z" fill="#163A96"/>
<path d="M13.2913 17.6751L14.7167 17.2077L14.7144 17.2007L13.2913 17.6751ZM13.1247 17.1751L14.5477 16.7007L14.5439 16.6896L13.1247 17.1751ZM6.87466 17.1751L8.29769 17.6494V17.6494L6.87466 17.1751ZM6.708 17.6751L8.12873 18.1563L8.13102 18.1494L6.708 17.6751ZM1.633 18.2001L0.524849 19.211L0.525683 19.2119L1.633 18.2001ZM1.04966 16.4584L2.54334 16.596L2.54336 16.5958L1.04966 16.4584ZM1.51633 11.3834L3.01003 11.5208L3.01017 11.5192L1.51633 11.3834ZM18.483 11.3834L19.9767 11.2461L19.976 11.2386L18.483 11.3834ZM18.9497 16.4584L17.456 16.5958L17.456 16.596L18.9497 16.4584ZM18.3663 18.2001L19.4736 19.2119L19.4745 19.211L18.3663 18.2001ZM14.308 16.7667L15.7287 16.2855L15.7283 16.2844L14.308 16.7667ZM14.483 17.2834L15.906 16.8091L15.9037 16.8022L14.483 17.2834ZM17.4497 17.3667L18.5503 18.3859L18.5519 18.3842L17.4497 17.3667ZM17.7163 16.5834L19.2109 16.4553L19.21 16.4461L17.7163 16.5834ZM17.2497 11.5084L18.7434 11.3711L18.7428 11.3646L17.2497 11.5084ZM2.76633 11.5084L4.26004 11.6458L4.26044 11.6412L2.76633 11.5084ZM2.29966 16.5834L0.805938 16.4461L0.805145 16.4553L2.29966 16.5834ZM2.56633 17.3667L3.68745 16.3702L3.67809 16.3597L3.66854 16.3493L2.56633 17.3667ZM5.533 17.2917L6.95316 17.7746L6.95579 17.7669L6.95834 17.7591L5.533 17.2917ZM5.69966 16.7834L7.12501 17.2507L7.12827 17.2408L7.13138 17.2308L5.69966 16.7834ZM16.633 17.4584H15.0663V20.4584H16.633V17.4584ZM15.0663 17.4584C14.8711 17.4584 14.7843 17.4303 14.7659 17.4235C14.755 17.4195 14.7764 17.4271 14.8022 17.4532C14.8226 17.4738 14.8205 17.4809 14.803 17.4443C14.7812 17.3986 14.7605 17.3415 14.7167 17.2078L11.866 18.1424C11.9415 18.3726 12.1346 19.0216 12.668 19.5615C13.2614 20.1623 14.0803 20.4584 15.0663 20.4584V17.4584ZM14.7144 17.2007L14.5477 16.7007L11.7016 17.6494L11.8683 18.1494L14.7144 17.2007ZM14.5439 16.6896C14.4999 16.5608 14.4304 16.3516 14.3467 16.1694C14.2541 15.9681 14.0839 15.6581 13.7564 15.4004C13.4223 15.1375 13.0686 15.0412 12.8098 15C12.5715 14.962 12.3258 14.9584 12.133 14.9584V17.9584C12.2152 17.9584 12.2709 17.9596 12.3098 17.9615C12.3496 17.9634 12.3545 17.9653 12.338 17.9627C12.3015 17.9569 12.1083 17.921 11.9012 17.7581C11.7008 17.6003 11.6244 17.43 11.6209 17.4224C11.6186 17.4175 11.6243 17.4295 11.641 17.4754C11.6578 17.5216 11.6767 17.5766 11.7054 17.6606L14.5439 16.6896ZM12.133 14.9584H7.86633V17.9584H12.133V14.9584ZM7.86633 14.9584C7.52822 14.9584 6.8001 14.955 6.20724 15.4435C5.90261 15.6945 5.73729 15.9874 5.64257 16.193C5.55736 16.378 5.49119 16.5821 5.45164 16.7007L8.29769 17.6494C8.3228 17.5741 8.33892 17.5261 8.3531 17.4866C8.36706 17.4478 8.37116 17.44 8.36744 17.448C8.35943 17.4654 8.28942 17.615 8.11501 17.7588C7.93415 17.9078 7.76305 17.9512 7.71154 17.9613C7.68024 17.9675 7.70837 17.9584 7.86633 17.9584V14.9584ZM5.45164 16.7007L5.28497 17.2007L8.13102 18.1494L8.29769 17.6494L5.45164 16.7007ZM5.28728 17.1939C5.23871 17.3373 5.21746 17.3962 5.19353 17.4463C5.17474 17.4855 5.17248 17.4781 5.19398 17.4564C5.22115 17.4289 5.24428 17.4202 5.23462 17.4238C5.21696 17.4303 5.13007 17.4584 4.933 17.4584V20.4584C5.9151 20.4584 6.73355 20.1667 7.32827 19.5646C7.85914 19.0272 8.05469 18.3748 8.12872 18.1563L5.28728 17.1939ZM4.933 17.4584H3.36633V20.4584H4.933V17.4584ZM3.36633 17.4584C3.12152 17.4584 2.89261 17.3549 2.74031 17.1882L0.525683 19.2119C1.25672 20.0119 2.29448 20.4584 3.36633 20.4584V17.4584ZM2.74115 17.1891C2.59518 17.0291 2.52327 16.8139 2.54334 16.596L-0.444013 16.3208C-0.540609 17.3696 -0.195853 18.421 0.524849 19.211L2.74115 17.1891ZM2.54336 16.5958L3.01003 11.5208L0.0226331 11.2461L-0.444034 16.3211L2.54336 16.5958ZM3.01017 11.5192C3.07068 10.8536 3.17383 10.556 3.30325 10.3982C3.36429 10.3237 3.6182 10.0417 4.683 10.0417V7.04175C3.0728 7.04175 1.80587 7.4931 0.983579 8.49576C0.229671 9.41503 0.0869797 10.5382 0.0224915 11.2476L3.01017 11.5192ZM4.683 10.0417H15.3163V7.04175H4.683V10.0417ZM15.3163 10.0417C16.3807 10.0417 16.6318 10.3234 16.6919 10.3968C16.8224 10.5564 16.9247 10.8549 16.99 11.5282L19.976 11.2386C19.908 10.537 19.7644 9.41464 19.0137 8.4971C18.1925 7.49342 16.927 7.04175 15.3163 7.04175V10.0417ZM16.9893 11.5208L17.456 16.5958L20.4434 16.3211L19.9767 11.2461L16.9893 11.5208ZM17.456 16.596C17.4761 16.8139 17.4041 17.0291 17.2582 17.1891L19.4745 19.211C20.1952 18.421 20.5399 17.3696 20.4433 16.3208L17.456 16.596ZM17.259 17.1882C17.1067 17.3549 16.8778 17.4584 16.633 17.4584V20.4584C17.7048 20.4584 18.7426 20.0119 19.4736 19.2119L17.259 17.1882ZM7.86633 16.7084H12.133V13.7084H7.86633V16.7084ZM12.133 16.7084C12.6742 16.7084 12.7359 16.8266 12.6848 16.7815C12.6791 16.7765 12.7429 16.823 12.8877 17.2491L15.7283 16.2844C15.5731 15.8272 15.3077 15.0945 14.6687 14.5311C13.9842 13.9277 13.1084 13.7084 12.133 13.7084V16.7084ZM12.8873 17.248L13.0623 17.7646L15.9037 16.8022L15.7287 16.2855L12.8873 17.248ZM13.06 17.7578C13.0849 17.8325 13.1377 17.997 13.2016 18.1404C13.2718 18.2982 13.4293 18.6102 13.7659 18.8615C14.1076 19.1165 14.4573 19.1782 14.6434 19.1993C14.8106 19.2182 14.988 19.2167 15.0747 19.2167V16.2167C14.9363 16.2167 14.945 16.2142 14.9812 16.2183C15.0363 16.2246 15.2928 16.2576 15.5605 16.4574C15.8232 16.6535 15.926 16.8837 15.9423 16.9204C15.9522 16.9428 15.9519 16.9469 15.906 16.8091L13.06 17.7578ZM15.0747 19.2167H16.6413V16.2167H15.0747V19.2167ZM16.6413 19.2167C17.3581 19.2167 18.0518 18.9243 18.5503 18.3859L16.349 16.3476C16.4309 16.2592 16.5412 16.2167 16.6413 16.2167V19.2167ZM18.5519 18.3842C19.0429 17.8522 19.2712 17.1594 19.2109 16.4553L16.2218 16.7115C16.2174 16.6599 16.2224 16.5936 16.2466 16.5222C16.2709 16.4503 16.3085 16.3916 16.3475 16.3493L18.5519 18.3842ZM19.21 16.4461L18.7434 11.3711L15.756 11.6458L16.2226 16.7208L19.21 16.4461ZM18.7428 11.3646C18.6994 10.9146 18.6384 9.94956 17.9968 9.2323C17.2853 8.4369 16.247 8.30008 15.333 8.30008V11.3001C15.6795 11.3001 15.8459 11.332 15.9069 11.3497C15.9462 11.3611 15.8581 11.3411 15.7609 11.2324C15.6732 11.1345 15.6675 11.0624 15.6859 11.1351C15.6951 11.1714 15.7067 11.2291 15.7194 11.3197C15.7321 11.4107 15.7436 11.517 15.7566 11.6522L18.7428 11.3646ZM15.333 8.30008H4.683V11.3001H15.333V8.30008ZM4.683 8.30008C3.76801 8.30008 2.72557 8.43567 2.01295 9.2323C1.36724 9.95412 1.31234 10.9243 1.27222 11.3756L4.26044 11.6412C4.27241 11.5066 4.28312 11.4007 4.29516 11.3105C4.30717 11.2206 4.31829 11.1637 4.32707 11.1284C4.34454 11.058 4.33825 11.1325 4.24888 11.2324C4.15043 11.3425 4.06156 11.362 4.10277 11.3502C4.16544 11.3321 4.33395 11.3001 4.683 11.3001V8.30008ZM1.27263 11.3711L0.805966 16.4461L3.79336 16.7208L4.26003 11.6458L1.27263 11.3711ZM0.805145 16.4553C0.744798 17.1594 0.973047 17.8522 1.46413 18.3842L3.66854 16.3493C3.70754 16.3916 3.74508 16.4503 3.76939 16.5222C3.79357 16.5936 3.79861 16.6599 3.79418 16.7115L0.805145 16.4553ZM1.44522 18.3633C1.95442 18.9361 2.67627 19.2167 3.37466 19.2167V16.2167C3.45639 16.2167 3.57824 16.2474 3.68745 16.3702L1.44522 18.3633ZM3.37466 19.2167H4.94133V16.2167H3.37466V19.2167ZM4.94133 19.2167C5.02857 19.2167 5.20424 19.2181 5.36967 19.1997C5.55242 19.1794 5.89872 19.1199 6.2391 18.8706C6.57741 18.6229 6.73763 18.3132 6.80992 18.154C6.87491 18.0108 6.92858 17.8469 6.95316 17.7746L4.11284 16.8089C4.06658 16.945 4.06712 16.9383 4.07821 16.9139C4.09659 16.8734 4.20212 16.644 4.46648 16.4503C4.7329 16.2552 4.98597 16.2239 5.03773 16.2181C5.07217 16.2143 5.07909 16.2167 4.94133 16.2167V19.2167ZM6.95834 17.7591L7.12501 17.2507L4.27432 16.3161L4.10765 16.8244L6.95834 17.7591ZM7.13138 17.2308C7.24115 16.8796 7.28518 16.8245 7.30481 16.8048C7.30612 16.8035 7.30843 16.8012 7.31456 16.7973C7.32087 16.7933 7.33788 16.7834 7.37126 16.7713C7.43913 16.7467 7.58926 16.7084 7.86633 16.7084V13.7084C6.74877 13.7084 5.83774 14.027 5.17993 14.687C4.58082 15.2882 4.36652 16.0206 4.26794 16.336L7.13138 17.2308Z" fill="#163A96" mask="url(#path-3-inside-2_8125_47610)"/>
<mask id="path-5-inside-3_8125_47610" fill="white">
<path d="M3.33309 7.29175H2.49976C2.15809 7.29175 1.87476 7.00841 1.87476 6.66675C1.87476 6.32508 2.15809 6.04175 2.49976 6.04175H3.33309C3.67476 6.04175 3.95809 6.32508 3.95809 6.66675C3.95809 7.00841 3.67476 7.29175 3.33309 7.29175Z"/>
</mask>
<path d="M3.33309 7.29175H2.49976C2.15809 7.29175 1.87476 7.00841 1.87476 6.66675C1.87476 6.32508 2.15809 6.04175 2.49976 6.04175H3.33309C3.67476 6.04175 3.95809 6.32508 3.95809 6.66675C3.95809 7.00841 3.67476 7.29175 3.33309 7.29175Z" fill="#163A96"/>
<path d="M3.33309 5.79175H2.49976V8.79175H3.33309V5.79175ZM2.49976 5.79175C2.98652 5.79175 3.37476 6.17999 3.37476 6.66675H0.374756C0.374756 7.83684 1.32966 8.79175 2.49976 8.79175V5.79175ZM3.37476 6.66675C3.37476 7.15351 2.98652 7.54175 2.49976 7.54175V4.54175C1.32966 4.54175 0.374756 5.49665 0.374756 6.66675H3.37476ZM2.49976 7.54175H3.33309V4.54175H2.49976V7.54175ZM3.33309 7.54175C2.84633 7.54175 2.45809 7.15351 2.45809 6.66675H5.45809C5.45809 5.49665 4.50318 4.54175 3.33309 4.54175V7.54175ZM2.45809 6.66675C2.45809 6.17999 2.84633 5.79175 3.33309 5.79175V8.79175C4.50318 8.79175 5.45809 7.83684 5.45809 6.66675H2.45809Z" fill="#163A96" mask="url(#path-5-inside-3_8125_47610)"/>
<path d="M17.4996 7.29175H16.6663C16.3246 7.29175 16.0413 7.00841 16.0413 6.66675C16.0413 6.32508 16.3246 6.04175 16.6663 6.04175H17.4996C17.8413 6.04175 18.1246 6.32508 18.1246 6.66675C18.1246 7.00841 17.8413 7.29175 17.4996 7.29175Z" fill="#163A96"/>
<path d="M9.99976 4.79173C9.65809 4.79173 9.37476 4.50839 9.37476 4.16673V2.50006C9.37476 2.15839 9.65809 1.87506 9.99976 1.87506C10.3414 1.87506 10.6248 2.15839 10.6248 2.50006V4.16673C10.6248 4.50839 10.3414 4.79173 9.99976 4.79173Z" fill="#163A96"/>
<path d="M11.2498 4.79175H8.74976C8.40809 4.79175 8.12476 4.50841 8.12476 4.16675C8.12476 3.82508 8.40809 3.54175 8.74976 3.54175H11.2498C11.5914 3.54175 11.8748 3.82508 11.8748 4.16675C11.8748 4.50841 11.5914 4.79175 11.2498 4.79175Z" fill="#163A96"/>
<path d="M7.49976 13.1251H4.99976C4.65809 13.1251 4.37476 12.8417 4.37476 12.5001C4.37476 12.1584 4.65809 11.8751 4.99976 11.8751H7.49976C7.84142 11.8751 8.12476 12.1584 8.12476 12.5001C8.12476 12.8417 7.84142 13.1251 7.49976 13.1251Z" fill="#163A96"/>
<path d="M14.9998 13.1251H12.4998C12.1581 13.1251 11.8748 12.8417 11.8748 12.5001C11.8748 12.1584 12.1581 11.8751 12.4998 11.8751H14.9998C15.3414 11.8751 15.6248 12.1584 15.6248 12.5001C15.6248 12.8417 15.3414 13.1251 14.9998 13.1251Z" fill="#163A96"/>
</svg>
