<svg width="208" height="112" viewBox="0 0 208 112" fill="none" xmlns="http://www.w3.org/2000/svg">
<path d="M28.3188 43.0024H34.0927V63.7435H44.2728V68.6057H28.3188V43.0024Z" fill="#1A1A1A"/>
<path d="M52.2861 44.864C52.2861 46.459 51.1086 47.7508 49.1714 47.7508C47.3481 47.7508 46.1704 46.459 46.1704 44.864C46.1704 43.2306 47.3863 41.9771 49.2476 41.9771C51.1086 41.9771 52.2483 43.2306 52.2861 44.864ZM46.3224 68.6054V50.03H52.0965V68.6054H46.3224Z" fill="#1A1A1A"/>
<path d="M55.5519 55.956C55.5519 53.6391 55.476 51.702 55.3999 50.0301H60.414L60.6803 52.6133H60.7944C61.5539 51.3976 63.4152 49.6123 66.5297 49.6123C70.3288 49.6123 73.1779 52.1577 73.1779 57.6275V68.6057H67.4036V58.3112C67.4036 55.9182 66.5682 54.285 64.479 54.285C62.8832 54.285 61.9338 55.3866 61.5157 56.4499C61.364 56.8298 61.3263 57.3615 61.3263 57.8936V68.6057H55.5519V55.956Z" fill="#1A1A1A"/>
<path d="M82.4071 57.8554H82.4831C82.9012 57.0576 83.357 56.2981 83.8127 55.6144L87.573 50.0301H94.5245L87.877 57.5514L95.4739 68.6057H88.3709L83.8501 60.97L82.4071 62.7934V68.6057H76.6328V41.6353H82.4071V57.8554Z" fill="#1A1A1A"/>
<path d="M99.9555 61.1603C100.107 63.5533 102.5 64.6931 105.197 64.6931C107.173 64.6931 108.768 64.4269 110.326 63.8952L111.085 67.8079C109.186 68.6057 106.869 68.9855 104.362 68.9855C98.056 68.9855 94.4473 65.339 94.4473 59.5268C94.4473 54.8167 97.3726 49.6123 103.83 49.6123C109.832 49.6123 112.111 54.285 112.111 58.8811C112.111 59.8686 111.997 60.7422 111.921 61.1603H99.9555ZM106.755 57.2095C106.755 55.8041 106.147 53.4488 103.488 53.4488C101.057 53.4488 100.069 55.6907 99.9173 57.2095H106.755Z" fill="#1A1A1A"/>
<path d="M132.394 41.6353V63.0598C132.394 65.1488 132.47 67.3523 132.546 68.6057H127.417L127.19 65.9086H127.076C125.937 67.9597 123.657 69.024 121.264 69.024C116.858 69.024 113.325 65.2631 113.325 59.4888C113.287 53.2209 117.2 49.5746 121.644 49.5746C123.961 49.5746 125.709 50.41 126.544 51.6635H126.62V41.6353H132.394ZM126.62 57.8936C126.62 57.5893 126.62 57.1717 126.544 56.8297C126.202 55.3106 124.949 54.0189 123.164 54.0189C120.504 54.0189 119.175 56.374 119.175 59.2991C119.175 62.4514 120.733 64.4268 123.126 64.4268C124.797 64.4268 126.164 63.2877 126.506 61.6544C126.582 61.2364 126.62 60.7809 126.62 60.3247V57.8936Z" fill="#1A1A1A"/>
<path fill-rule="evenodd" clip-rule="evenodd" d="M181.043 73.3301C181.043 75.7278 179.106 77.6713 176.716 77.6713H142.454C140.064 77.6713 138.127 75.7278 138.127 73.3301V38.5879C138.127 36.1903 140.064 34.2466 142.454 34.2466H176.716C179.106 34.2466 181.043 36.1903 181.043 38.5879V73.3301ZM152.088 44.864C152.088 46.459 150.91 47.7508 148.973 47.7508C147.15 47.7508 145.972 46.459 145.972 44.864C145.972 43.2306 147.188 41.9771 149.049 41.9771C150.91 41.9771 152.05 43.2306 152.088 44.864ZM146.124 68.6054V50.03H151.898V68.6054H146.124ZM155.202 50.0301C155.278 51.702 155.354 53.6391 155.354 55.956V68.6057H161.127V57.8936C161.127 57.3615 161.165 56.8298 161.318 56.4499C161.736 55.3866 162.685 54.285 164.28 54.285C166.369 54.285 167.205 55.9182 167.205 58.3112V68.6057H172.979V57.6275C172.979 52.1577 170.131 49.6123 166.332 49.6123C163.217 49.6123 161.355 51.3976 160.596 52.6133H160.482L160.216 50.0301H155.202Z" fill="#1A1A1A"/>
</svg>
