<svg width="208" height="112" viewBox="0 0 208 112" fill="none" xmlns="http://www.w3.org/2000/svg">
<path d="M57.0046 51.0787C57.0046 49.8939 57.9767 49.4382 59.5867 49.4382C61.8955 49.4382 64.8118 50.1369 67.1206 51.3825V44.2435C64.5992 43.2411 62.1081 42.8461 59.5867 42.8461C53.4199 42.8461 49.3188 46.0662 49.3188 51.4432C49.3188 59.8276 60.8626 58.491 60.8626 62.106C60.8626 63.5034 59.6475 63.9591 57.9463 63.9591C55.4249 63.9591 52.2048 62.9262 49.653 61.5288V68.7589C52.4782 69.974 55.3338 70.4904 57.9463 70.4904C64.265 70.4904 68.6091 67.3615 68.6091 61.9237C68.5787 52.871 57.0046 54.4811 57.0046 51.0787ZM77.5403 36.7705L70.128 38.3501L70.0976 62.6832C70.0976 67.1792 73.4696 70.4904 77.9656 70.4904C80.4567 70.4904 82.2794 70.0348 83.2818 69.488V63.3211C82.3097 63.7161 77.51 65.1135 77.51 60.6175V49.8332H83.2818V43.3626H77.51L77.5403 36.7705ZM92.7295 45.6106L92.2435 43.3626H85.6817V69.9436H93.2763V51.9293C95.0686 49.5901 98.1065 50.0154 99.0482 50.3496V43.3626C98.0761 42.998 94.5218 42.3297 92.7295 45.6106ZM100.901 43.3626H108.526V69.9436H100.901V43.3626ZM100.901 41.0538L108.526 39.4134V33.2466L100.901 34.8566V41.0538ZM124.384 42.8461C121.407 42.8461 119.493 44.2435 118.43 45.2157L118.035 43.3322H111.351V78.7534L118.946 77.1433L118.976 68.5462C120.07 69.3361 121.68 70.4601 124.353 70.4601C129.791 70.4601 134.743 66.0856 134.743 56.4556C134.712 47.6459 129.7 42.8461 124.384 42.8461ZM122.561 63.7768C120.769 63.7768 119.705 63.1389 118.976 62.349L118.946 51.0787C119.736 50.1977 120.829 49.5901 122.561 49.5901C125.325 49.5901 127.239 52.6887 127.239 56.6683C127.239 60.739 125.356 63.7768 122.561 63.7768ZM158.681 56.7594C158.681 48.9826 154.914 42.8461 147.714 42.8461C140.484 42.8461 136.11 48.9826 136.11 56.6987C136.11 65.8426 141.274 70.4601 148.686 70.4601C152.301 70.4601 155.036 69.6398 157.101 68.4855V62.4098C155.036 63.4427 152.666 64.0806 149.659 64.0806C146.712 64.0806 144.099 63.0477 143.765 59.4631H158.62C158.62 59.0682 158.681 57.4885 158.681 56.7594ZM143.674 53.8735C143.674 50.4407 145.77 49.0129 147.684 49.0129C149.537 49.0129 151.512 50.4407 151.512 53.8735H143.674Z" fill="#1A1A1A"/>
</svg>
