<svg width="208" height="112" viewBox="0 0 208 112" fill="none" xmlns="http://www.w3.org/2000/svg">
<path d="M70.8791 49.5821H55.4253V54.1678H66.3853C65.8441 60.5986 60.4938 63.3408 55.4438 63.3408C48.9832 63.3408 43.3451 58.2573 43.3451 51.1319C43.3451 44.1909 48.7196 38.8451 55.4583 38.8451C60.6574 38.8451 63.7205 42.1597 63.7205 42.1597L66.9316 38.8349C66.9316 38.8349 62.8103 34.2466 55.2942 34.2466C45.7231 34.2466 38.3188 42.3247 38.3188 51.05C38.3188 59.6003 45.2835 67.9369 55.5382 67.9369C64.5568 67.9369 71.1587 61.7584 71.1587 52.6226C71.1587 50.6949 70.8786 49.581 70.8786 49.581L70.8791 49.5821Z" fill="#1A1A1A"/>
<path d="M83.538 46.2612C77.1968 46.2612 72.6523 51.219 72.6523 57.0008C72.6523 62.8681 77.0605 67.9176 83.6123 67.9176C89.5435 67.9176 94.4032 63.384 94.4032 57.1266C94.4032 49.9549 88.7506 46.2612 83.538 46.2612ZM83.601 50.5146C86.7193 50.5146 89.6741 53.0356 89.6741 57.0982C89.6741 61.0746 86.7318 63.6673 83.5866 63.6673C80.1308 63.6673 77.4046 60.8997 77.4046 57.0667C77.4046 53.3157 80.0973 50.5146 83.601 50.5146Z" fill="#1A1A1A"/>
<path d="M107.212 46.2612C100.871 46.2612 96.3267 51.219 96.3267 57.0008C96.3267 62.8681 100.734 67.9176 107.287 67.9176C113.218 67.9176 118.077 63.384 118.077 57.1266C118.077 49.9549 112.425 46.2612 107.212 46.2612ZM107.275 50.5146C110.393 50.5146 113.349 53.0356 113.349 57.0982C113.349 61.0746 110.406 63.6673 107.261 63.6673C103.805 63.6673 101.079 60.8997 101.079 57.0667C101.079 53.3157 103.771 50.5146 107.275 50.5146Z" fill="#1A1A1A"/>
<path d="M130.432 46.2734C124.612 46.2734 120.037 51.3714 120.037 57.0934C120.037 63.6108 125.341 67.9329 130.332 67.9329C133.418 67.9329 135.059 66.708 136.271 65.3015V67.437C136.271 71.1725 134.003 73.4096 130.579 73.4096C127.271 73.4096 125.612 70.9507 125.036 69.555L120.874 71.2947C122.351 74.4164 125.322 77.672 130.613 77.672C136.4 77.672 140.81 74.0267 140.81 66.382V46.9246H136.271V48.7587C134.874 47.2547 132.965 46.2739 130.432 46.2739V46.2734ZM130.854 50.518C133.707 50.518 136.637 52.9549 136.637 57.1161C136.637 61.3458 133.714 63.6768 130.79 63.6768C127.687 63.6768 124.8 61.1569 124.8 57.1563C124.8 52.9993 127.799 50.518 130.854 50.518Z" fill="#1A1A1A"/>
<path d="M160.996 46.2466C155.506 46.2466 150.896 50.6152 150.896 57.0603C150.896 63.8812 156.034 67.9263 161.524 67.9263C166.105 67.9263 168.917 65.4198 170.594 63.1738L166.851 60.6834C165.88 62.1909 164.256 63.664 161.546 63.664C158.503 63.664 157.103 61.9969 156.235 60.3826L170.754 54.3579L170.001 52.5923C168.598 49.1348 165.326 46.2477 160.997 46.2477L160.996 46.2466ZM161.185 50.4113C163.163 50.4113 164.587 51.4628 165.192 52.7243L155.496 56.7771C155.078 53.6392 158.05 50.4113 161.185 50.4113Z" fill="#1A1A1A"/>
<path d="M143.974 67.2833H148.743V35.3667H143.974V67.2833Z" fill="#1A1A1A"/>
</svg>
