<svg width="208" height="112" viewBox="0 0 208 112" fill="none" xmlns="http://www.w3.org/2000/svg">
<path d="M78.3278 39.3442H78.3099C68.9182 39.3442 61.3188 46.9615 61.3188 56.3353C61.3188 65.7269 68.9182 73.3442 78.3099 73.3442C87.7016 73.3442 95.3188 65.7449 95.3188 56.3532C95.3188 46.9615 87.7195 39.3442 78.3278 39.3442ZM85.5149 63.5583C81.5181 67.5372 75.0658 67.5192 71.0869 63.5403C67.1259 59.5614 67.1259 53.1091 71.0869 49.1302C75.0658 45.1334 81.5181 45.1334 85.5149 49.1123L85.5329 49.1302C89.5297 53.1091 89.5118 59.5793 85.5149 63.5583Z" fill="#1A1A1A"/>
<path d="M57.2135 66.6302L55.5117 66.5407H40.2135L60.6171 46.1478L60.5275 44.4469C60.4559 41.7076 58.2525 39.5054 55.5117 39.4338L53.8099 39.3442H28.3188L28.4084 41.0452C28.5338 43.7487 30.7014 45.933 33.4242 46.0583L35.126 46.1478H50.4242L30.0206 66.5407L30.1102 68.2415C30.1998 70.963 32.4032 73.1652 35.126 73.2547L36.8278 73.3442H62.3188L62.2293 71.6433C61.9964 68.8324 60.008 66.7913 57.2135 66.6302Z" fill="#1A1A1A"/>
<path d="M166.589 39.3475C162.651 39.3475 158.911 41.0312 156.31 43.9508C151.757 38.8281 144.061 37.8429 138.353 41.6761C137.034 40.1894 134.035 39.3475 132.319 39.3475V73.3442L134.035 73.2547C136.889 73.0756 138.985 71.0694 139.093 68.2394L139.184 66.5377V54.6443L139.274 52.9426C139.274 51.7605 139.581 50.5962 140.123 49.5394C142.002 46.2973 146.193 45.1868 149.481 47.0675C150.511 47.6586 151.378 48.5184 151.974 49.5394H151.956C152.516 50.5962 152.805 51.7605 152.805 52.9426L152.895 54.6443V66.5377L152.986 68.2394C153.094 70.962 155.28 73.1472 158.026 73.2547L159.742 73.3442V54.6443L159.832 52.9426C159.832 51.7425 160.122 50.5782 160.682 49.5215C162.579 46.2794 166.788 45.1689 170.058 47.0675C171.087 47.6586 171.954 48.5184 172.551 49.5394C173.093 50.5962 173.382 51.7605 173.382 52.9426L173.472 54.6443V66.5377L173.562 68.2394C173.653 70.962 175.857 73.1472 178.603 73.2547L180.319 73.3442V52.9426C180.301 45.4375 174.158 39.3475 166.589 39.3475Z" fill="#1A1A1A"/>
<path d="M126.179 44.3259C122.897 41.1362 118.453 39.3442 113.806 39.3442C109.159 39.3442 104.716 41.1362 101.433 44.3259C94.6109 50.974 94.6109 61.7436 101.452 68.3738C108.293 75.004 119.375 75.004 126.197 68.3559C133.038 61.7257 133.02 50.9561 126.179 44.3259ZM121.219 63.5535C117.107 67.5316 110.469 67.5137 106.375 63.5356C102.3 59.5574 102.3 53.1064 106.375 49.1283C110.469 45.1322 117.107 45.1322 121.219 49.1104L121.237 49.1283C125.349 53.1064 125.331 59.5753 121.219 63.5535Z" fill="#1A1A1A"/>
</svg>
