<svg width="208" height="112" viewBox="0 0 208 112" fill="none" xmlns="http://www.w3.org/2000/svg">
<path d="M98.4666 69.5854H91.4746L95.8448 42.7271H102.837L98.4666 69.5854Z" fill="#1A1A1A"/>
<path d="M85.5919 42.7271L78.925 61.1994L78.1369 57.2214L78.1376 57.2229L75.7841 45.146C75.7841 45.146 75.5003 42.7271 72.4672 42.7271H61.4474L61.3188 43.1811C61.3188 43.1811 64.6897 43.8823 68.6323 46.2524L74.7072 69.5849H81.9927L93.1173 42.7271H85.5919Z" fill="#1A1A1A"/>
<path d="M140.59 69.5849H147.011L141.413 42.7271H135.791C133.195 42.7271 132.563 44.7286 132.563 44.7286L122.136 69.5849H129.423L130.882 65.5962H139.771L140.59 69.5849ZM132.896 60.0843L136.571 50.0335L138.638 60.0843H132.896Z" fill="#1A1A1A"/>
<path d="M122.682 49.1859L123.679 43.4176C123.679 43.4176 120.6 42.2466 117.39 42.2466C113.92 42.2466 105.681 43.7639 105.681 51.1379C105.681 58.0772 115.351 58.1634 115.351 61.8066C115.351 65.4498 106.677 64.7989 103.815 62.5006L102.775 68.5304C102.775 68.5304 105.896 70.0477 110.668 70.0477C115.439 70.0477 122.638 67.5756 122.638 60.8525C122.638 53.8694 112.88 53.2192 112.88 50.1838C112.88 47.147 119.69 47.5371 122.682 49.1859Z" fill="#1A1A1A"/>
<path d="M78.1376 57.2224L75.7841 45.1455C75.7841 45.1455 75.5003 42.7266 72.4672 42.7266H61.4474L61.3188 43.1806C61.3188 43.1806 66.6157 44.2791 71.6971 48.3914C76.5535 52.3227 78.1376 57.2224 78.1376 57.2224Z" fill="#1A1A1A"/>
</svg>
