<svg width="208" height="112" viewBox="0 0 208 112" fill="none" xmlns="http://www.w3.org/2000/svg">
<path d="M47.5697 32.2466C34.1766 32.2466 23.3188 43.104 23.3188 56.4972C23.3188 69.8917 34.1766 80.7487 47.5697 80.7487C60.9634 80.7487 71.8206 69.8917 71.8206 56.4972C71.8206 43.105 60.964 32.2478 47.5694 32.2478L47.5697 32.2466ZM58.691 67.2229C58.2555 67.9373 57.3247 68.1613 56.6126 67.726C50.9179 64.2452 43.7501 63.4591 35.3086 65.3875C34.4952 65.5741 33.6843 65.0641 33.499 64.251C33.3128 63.4375 33.8204 62.6266 34.6359 62.4412C43.8737 60.3293 51.7977 61.2384 58.1897 65.1444C58.9021 65.5815 59.128 66.511 58.6907 67.2234L58.691 67.2229ZM61.6593 60.6207C61.1108 61.5106 59.9472 61.7897 59.0585 61.2434C52.5413 57.2372 42.6036 56.0767 34.8933 58.4171C33.8934 58.7191 32.8373 58.1556 32.5338 57.1575C32.2326 56.1575 32.7965 55.1035 33.7946 54.7993C42.6019 52.1272 53.5505 53.4215 61.0364 58.0217C61.9254 58.5687 62.2063 59.733 61.659 60.621L61.6593 60.6207H61.6593ZM61.9141 53.7446C54.097 49.1024 41.2028 48.6753 33.7405 50.9403C32.5422 51.3037 31.2749 50.6273 30.9118 49.429C30.5487 48.2301 31.2245 46.9637 32.4237 46.5994C40.99 43.9988 55.2305 44.5015 64.2291 49.8434C65.3069 50.4829 65.6605 51.8751 65.0216 52.9514C64.3846 54.0292 62.9887 54.3846 61.9144 53.7446H61.9141ZM89.2975 54.6343C85.1103 53.6357 84.3649 52.9351 84.3649 51.4625C84.3649 50.0713 85.6747 49.1349 87.6224 49.1349C89.5106 49.1349 91.3827 49.8461 93.3456 51.3097C93.405 51.3539 93.4794 51.3716 93.5526 51.3599C93.6259 51.3489 93.6908 51.3086 93.7336 51.2483L95.7781 48.3661C95.8621 48.2473 95.8392 48.0837 95.726 47.9933C93.3899 46.1188 90.7593 45.2074 87.6845 45.2074C83.1634 45.2074 80.0055 47.9204 80.0055 51.8026C80.0055 55.9653 82.7296 57.4393 87.4372 58.577C91.4439 59.4999 92.1201 60.2732 92.1201 61.6555C92.1201 63.1869 90.7526 64.1392 88.5521 64.1392C86.108 64.1392 84.1145 63.3159 81.8843 61.3845C81.829 61.3368 81.7532 61.3152 81.6831 61.3192C81.6092 61.3252 81.5417 61.3591 81.4949 61.4159L79.2025 64.1442C79.1063 64.2572 79.1185 64.4263 79.2297 64.5242C81.8244 66.8406 85.0156 68.064 88.4594 68.064C93.3311 68.064 96.4792 65.4023 96.4792 61.2823C96.4879 57.8044 94.4058 55.8785 89.3062 54.6379L89.2975 54.6343ZM107.501 50.5048C105.389 50.5048 103.657 51.3365 102.229 53.0406V51.1224C102.229 50.9708 102.106 50.8478 101.955 50.8478H98.2057C98.0543 50.8478 97.9318 50.9708 97.9318 51.1224V72.4365C97.9318 72.5881 98.0543 72.7114 98.2057 72.7114H101.955C102.106 72.7114 102.229 72.5881 102.229 72.4365V65.7086C103.658 67.3119 105.39 68.0951 107.501 68.0951C111.424 68.0951 115.396 65.0747 115.396 59.301C115.402 53.5259 111.429 50.5045 107.505 50.5045L107.501 50.5048ZM111.037 59.301C111.037 62.2411 109.226 64.2927 106.632 64.2927C104.069 64.2927 102.135 62.1479 102.135 59.301C102.135 56.4542 104.069 54.3091 106.632 54.3091C109.184 54.3088 111.037 56.4077 111.037 59.3005L111.037 59.301ZM125.577 50.5048C120.524 50.5048 116.565 54.3956 116.565 59.3636C116.565 64.2778 120.497 68.1279 125.515 68.1279C130.586 68.1279 134.557 64.25 134.557 59.301C134.557 54.369 130.613 50.5052 125.577 50.5052L125.577 50.5048ZM125.577 64.3221C122.889 64.3221 120.863 62.1626 120.863 59.2996C120.863 56.4242 122.819 54.3376 125.515 54.3376C128.22 54.3376 130.26 56.4972 130.26 59.3624C130.26 62.2372 128.291 64.3221 125.577 64.3221H125.577ZM145.347 50.8478H141.221V46.6294C141.221 46.4785 141.099 46.355 140.948 46.355H137.199C137.047 46.355 136.924 46.4785 136.924 46.6294V50.8478H135.121C134.971 50.8478 134.848 50.9708 134.848 51.1224V54.3446C134.848 54.4957 134.971 54.6195 135.121 54.6195H136.924V62.957C136.924 66.3263 138.601 68.0347 141.908 68.0347C143.253 68.0347 144.369 67.7568 145.421 67.1608C145.506 67.113 145.559 67.0208 145.559 66.9229V63.8545C145.559 63.7599 145.51 63.6704 145.429 63.6206C145.347 63.5695 145.245 63.5669 145.162 63.6083C144.439 63.9717 143.741 64.1394 142.961 64.1394C141.758 64.1394 141.221 63.5933 141.221 62.3691V54.6211H145.347C145.498 54.6211 145.62 54.4976 145.62 54.3462V51.1243C145.626 50.9728 145.505 50.8492 145.351 50.8492L145.347 50.8478ZM159.722 50.8643V50.3462C159.722 48.822 160.306 48.1422 161.617 48.1422C162.399 48.1422 163.027 48.2975 163.73 48.5321C163.816 48.5592 163.907 48.5458 163.977 48.4939C164.049 48.4419 164.09 48.3589 164.09 48.2709V45.1117C164.09 44.9908 164.013 44.8839 163.896 44.8481C163.153 44.6272 162.203 44.4005 160.78 44.4005C157.317 44.4005 155.487 46.3507 155.487 50.038V50.8314H153.685C153.534 50.8314 153.41 50.9547 153.41 51.1058V54.3446C153.41 54.4957 153.534 54.6195 153.685 54.6195H155.487V67.4799C155.487 67.6312 155.609 67.7545 155.76 67.7545H159.509C159.661 67.7545 159.784 67.6312 159.784 67.4799V54.6204H163.285L168.647 67.4774C168.038 68.8284 167.44 69.097 166.622 69.097C165.962 69.097 165.266 68.8999 164.555 68.5107C164.488 68.4739 164.409 68.4677 164.337 68.4901C164.265 68.5154 164.205 68.5686 164.174 68.6382L162.904 71.4259C162.843 71.5579 162.895 71.7125 163.022 71.7809C164.349 72.4991 165.546 72.8057 167.026 72.8057C169.794 72.8057 171.325 71.5164 172.674 68.0471L179.178 51.2395C179.211 51.1548 179.201 51.0593 179.149 50.9843C179.098 50.9099 179.014 50.865 178.923 50.865H175.02C174.903 50.865 174.799 50.9393 174.761 51.0492L170.762 62.47L166.383 51.0417C166.343 50.9353 166.24 50.865 166.127 50.865H159.721L159.722 50.8643ZM151.388 50.8478H147.638C147.487 50.8478 147.364 50.9708 147.364 51.1224V67.4799C147.364 67.6312 147.487 67.7545 147.638 67.7545H151.388C151.539 67.7545 151.663 67.6312 151.663 67.4799V51.1238C151.663 51.0507 151.634 50.9806 151.582 50.9288C151.531 50.8774 151.46 50.8485 151.387 50.8488L151.388 50.8478ZM149.534 43.3998C148.049 43.3998 146.844 44.6021 146.844 46.0875C146.844 47.5737 148.049 48.7775 149.534 48.7775C151.019 48.7775 152.223 47.5737 152.223 46.0875C152.223 44.6023 151.019 43.3998 149.536 43.3998H149.534ZM182.379 56.1067C180.896 56.1067 179.741 54.9152 179.741 53.4681C179.741 52.021 180.911 50.8158 182.393 50.8158C183.877 50.8158 185.032 52.0071 185.032 53.453C185.032 54.9001 183.862 56.1067 182.379 56.1067H182.379ZM182.394 51.0782C181.042 51.0782 180.02 52.1526 180.02 53.4681C180.02 54.7831 181.035 55.843 182.38 55.843C183.731 55.843 184.755 54.7694 184.755 53.453C184.755 52.1381 183.739 51.0782 182.395 51.0782H182.394H182.394ZM182.979 53.7242L183.725 54.7692H183.096L182.424 53.8107H181.846V54.7692H181.32V51.9996H182.555C183.198 51.9996 183.621 52.329 183.621 52.8831C183.624 53.3372 183.361 53.6146 182.981 53.7245H182.979V53.7242ZM182.533 52.475H181.846V53.3508H182.533C182.876 53.3508 183.08 53.1831 183.08 52.9124C183.08 52.6276 182.875 52.475 182.533 52.475H182.533Z" fill="#1A1A1A"/>
</svg>
