<svg width="1440" height="507" viewBox="0 0 1440 507" fill="none" xmlns="http://www.w3.org/2000/svg">
<g clip-path="url(#clip0_10520_294)">
<g opacity="0.05" clip-path="url(#clip1_10520_294)">
<g clip-path="url(#clip2_10520_294)">
<path d="M106.707 -58.0972L68.8769 7.42583L31.0469 -58.0972H106.707ZM106.707 30.2288L68.8769 95.7488L31.0469 30.2288H106.707ZM181.707 -13.9342L143.877 51.5888L106.047 -13.9342H181.707ZM181.707 74.3888L143.877 139.915L106.047 74.3888H181.707ZM81.2729 74.3888L119.1 8.87183L156.93 74.3918L81.2729 74.3888ZM31.707 -13.9342L-6.12305 51.5888L-43.953 -13.9342H31.707ZM31.707 74.3888L-6.12305 139.915L-43.953 74.3888H31.707ZM-68.7271 74.3888L-30.9001 8.87183L6.92995 74.3918L-68.7271 74.3888ZM6.27295 30.2288L44.1 -35.2972L81.93 30.2288H6.27295ZM6.27295 118.552L44.1 53.0318L81.93 118.555L6.27295 118.552Z" stroke="#7A9AEB" stroke-width="2"/>
</g>
<g clip-path="url(#clip3_10520_294)">
<path d="M256.707 -58.0972L218.877 7.42583L181.047 -58.0972H256.707ZM256.707 30.2288L218.877 95.7488L181.047 30.2288H256.707ZM331.707 -13.9342L293.877 51.5888L256.047 -13.9342H331.707ZM331.707 74.3888L293.877 139.915L256.047 74.3888H331.707ZM231.273 74.3888L269.1 8.87183L306.93 74.3918L231.273 74.3888ZM181.707 -13.9342L143.877 51.5888L106.047 -13.9342H181.707ZM181.707 74.3888L143.877 139.915L106.047 74.3888H181.707ZM81.2729 74.3888L119.1 8.87183L156.93 74.3918L81.2729 74.3888ZM156.273 30.2288L194.1 -35.2972L231.93 30.2288H156.273ZM156.273 118.552L194.1 53.0318L231.93 118.555L156.273 118.552Z" stroke="#7A9AEB" stroke-width="2"/>
</g>
<g clip-path="url(#clip4_10520_294)">
<path d="M406.707 -58.0972L368.877 7.42583L331.047 -58.0972H406.707ZM406.707 30.2288L368.877 95.7488L331.047 30.2288H406.707ZM481.707 -13.9342L443.877 51.5888L406.047 -13.9342H481.707ZM481.707 74.3888L443.877 139.915L406.047 74.3888H481.707ZM381.273 74.3888L419.1 8.87183L456.93 74.3918L381.273 74.3888ZM331.707 -13.9342L293.877 51.5888L256.047 -13.9342H331.707ZM331.707 74.3888L293.877 139.915L256.047 74.3888H331.707ZM231.273 74.3888L269.1 8.87183L306.93 74.3918L231.273 74.3888ZM306.273 30.2288L344.1 -35.2972L381.93 30.2288H306.273ZM306.273 118.552L344.1 53.0318L381.93 118.555L306.273 118.552Z" stroke="#7A9AEB" stroke-width="2"/>
</g>
<g clip-path="url(#clip5_10520_294)">
<path d="M556.707 -58.0972L518.877 7.42583L481.047 -58.0972H556.707ZM556.707 30.2288L518.877 95.7488L481.047 30.2288H556.707ZM631.707 -13.9342L593.877 51.5888L556.047 -13.9342H631.707ZM631.707 74.3888L593.877 139.915L556.047 74.3888H631.707ZM531.273 74.3888L569.1 8.87183L606.93 74.3918L531.273 74.3888ZM481.707 -13.9342L443.877 51.5888L406.047 -13.9342H481.707ZM481.707 74.3888L443.877 139.915L406.047 74.3888H481.707ZM381.273 74.3888L419.1 8.87183L456.93 74.3918L381.273 74.3888ZM456.273 30.2288L494.1 -35.2972L531.93 30.2288H456.273ZM456.273 118.552L494.1 53.0318L531.93 118.555L456.273 118.552Z" stroke="#7A9AEB" stroke-width="2"/>
</g>
<g clip-path="url(#clip6_10520_294)">
<path d="M706.707 -58.0972L668.877 7.42583L631.047 -58.0972H706.707ZM706.707 30.2288L668.877 95.7488L631.047 30.2288H706.707ZM781.707 -13.9342L743.877 51.5888L706.047 -13.9342H781.707ZM781.707 74.3888L743.877 139.915L706.047 74.3888H781.707ZM681.273 74.3888L719.1 8.87183L756.93 74.3918L681.273 74.3888ZM631.707 -13.9342L593.877 51.5888L556.047 -13.9342H631.707ZM631.707 74.3888L593.877 139.915L556.047 74.3888H631.707ZM531.273 74.3888L569.1 8.87183L606.93 74.3918L531.273 74.3888ZM606.273 30.2288L644.1 -35.2972L681.93 30.2288H606.273ZM606.273 118.552L644.1 53.0318L681.93 118.555L606.273 118.552Z" stroke="#7A9AEB" stroke-width="2"/>
</g>
<g clip-path="url(#clip7_10520_294)">
<path d="M856.707 -58.0972L818.877 7.42583L781.047 -58.0972H856.707ZM856.707 30.2288L818.877 95.7488L781.047 30.2288H856.707ZM931.707 -13.9342L893.877 51.5888L856.047 -13.9342H931.707ZM931.707 74.3888L893.877 139.915L856.047 74.3888H931.707ZM831.273 74.3888L869.1 8.87183L906.93 74.3918L831.273 74.3888ZM781.707 -13.9342L743.877 51.5888L706.047 -13.9342H781.707ZM781.707 74.3888L743.877 139.915L706.047 74.3888H781.707ZM681.273 74.3888L719.1 8.87183L756.93 74.3918L681.273 74.3888ZM756.273 30.2288L794.1 -35.2972L831.93 30.2288H756.273ZM756.273 118.552L794.1 53.0318L831.93 118.555L756.273 118.552Z" stroke="#7A9AEB" stroke-width="2"/>
</g>
<g clip-path="url(#clip8_10520_294)">
<path d="M1006.71 -58.0972L968.877 7.42583L931.047 -58.0972H1006.71ZM1006.71 30.2288L968.877 95.7488L931.047 30.2288H1006.71ZM1081.71 -13.9342L1043.88 51.5888L1006.05 -13.9342H1081.71ZM1081.71 74.3888L1043.88 139.915L1006.05 74.3888H1081.71ZM981.273 74.3888L1019.1 8.87183L1056.93 74.3918L981.273 74.3888ZM931.707 -13.9342L893.877 51.5888L856.047 -13.9342H931.707ZM931.707 74.3888L893.877 139.915L856.047 74.3888H931.707ZM831.273 74.3888L869.1 8.87183L906.93 74.3918L831.273 74.3888ZM906.273 30.2288L944.1 -35.2972L981.93 30.2288H906.273ZM906.273 118.552L944.1 53.0318L981.93 118.555L906.273 118.552Z" stroke="#7A9AEB" stroke-width="2"/>
</g>
<g clip-path="url(#clip9_10520_294)">
<path d="M1156.71 -58.0972L1118.88 7.42583L1081.05 -58.0972H1156.71ZM1156.71 30.2288L1118.88 95.7488L1081.05 30.2288H1156.71ZM1231.71 -13.9342L1193.88 51.5888L1156.05 -13.9342H1231.71ZM1231.71 74.3888L1193.88 139.915L1156.05 74.3888H1231.71ZM1131.27 74.3888L1169.1 8.87183L1206.93 74.3918L1131.27 74.3888ZM1081.71 -13.9342L1043.88 51.5888L1006.05 -13.9342H1081.71ZM1081.71 74.3888L1043.88 139.915L1006.05 74.3888H1081.71ZM981.273 74.3888L1019.1 8.87183L1056.93 74.3918L981.273 74.3888ZM1056.27 30.2288L1094.1 -35.2972L1131.93 30.2288H1056.27ZM1056.27 118.552L1094.1 53.0318L1131.93 118.555L1056.27 118.552Z" stroke="#7A9AEB" stroke-width="2"/>
</g>
<g clip-path="url(#clip10_10520_294)">
<path d="M1306.71 -58.0972L1268.88 7.42583L1231.05 -58.0972H1306.71ZM1306.71 30.2288L1268.88 95.7488L1231.05 30.2288H1306.71ZM1381.71 -13.9342L1343.88 51.5888L1306.05 -13.9342H1381.71ZM1381.71 74.3888L1343.88 139.915L1306.05 74.3888H1381.71ZM1281.27 74.3888L1319.1 8.87183L1356.93 74.3918L1281.27 74.3888ZM1231.71 -13.9342L1193.88 51.5888L1156.05 -13.9342H1231.71ZM1231.71 74.3888L1193.88 139.915L1156.05 74.3888H1231.71ZM1131.27 74.3888L1169.1 8.87183L1206.93 74.3918L1131.27 74.3888ZM1206.27 30.2288L1244.1 -35.2972L1281.93 30.2288H1206.27ZM1206.27 118.552L1244.1 53.0318L1281.93 118.555L1206.27 118.552Z" stroke="#7A9AEB" stroke-width="2"/>
</g>
<g clip-path="url(#clip11_10520_294)">
<path d="M1456.71 -58.0972L1418.88 7.42583L1381.05 -58.0972H1456.71ZM1456.71 30.2288L1418.88 95.7488L1381.05 30.2288H1456.71ZM1531.71 -13.9342L1493.88 51.5888L1456.05 -13.9342H1531.71ZM1531.71 74.3888L1493.88 139.915L1456.05 74.3888H1531.71ZM1431.27 74.3888L1469.1 8.87183L1506.93 74.3918L1431.27 74.3888ZM1381.71 -13.9342L1343.88 51.5888L1306.05 -13.9342H1381.71ZM1381.71 74.3888L1343.88 139.915L1306.05 74.3888H1381.71ZM1281.27 74.3888L1319.1 8.87183L1356.93 74.3918L1281.27 74.3888ZM1356.27 30.2288L1394.1 -35.2972L1431.93 30.2288H1356.27ZM1356.27 118.552L1394.1 53.0318L1431.93 118.555L1356.27 118.552Z" stroke="#7A9AEB" stroke-width="2"/>
</g>
<g clip-path="url(#clip12_10520_294)">
<path d="M106.707 30.229L68.8769 95.752L31.0469 30.229H106.707ZM106.707 118.555L68.8769 184.075L31.0469 118.555H106.707ZM181.707 74.392L143.877 139.915L106.047 74.392H181.707ZM181.707 162.715L143.877 228.241L106.047 162.715H181.707ZM81.2729 162.715L119.1 97.198L156.93 162.718L81.2729 162.715ZM31.707 74.392L-6.12305 139.915L-43.953 74.392H31.707ZM31.707 162.715L-6.12305 228.241L-43.953 162.715H31.707ZM-68.7271 162.715L-30.9001 97.198L6.92995 162.718L-68.7271 162.715ZM6.27295 118.555L44.1 53.029L81.93 118.555H6.27295ZM6.27295 206.878L44.1 141.358L81.93 206.881L6.27295 206.878Z" stroke="#7A9AEB" stroke-width="2"/>
</g>
<g clip-path="url(#clip13_10520_294)">
<path d="M256.707 30.229L218.877 95.752L181.047 30.229H256.707ZM256.707 118.555L218.877 184.075L181.047 118.555H256.707ZM331.707 74.392L293.877 139.915L256.047 74.392H331.707ZM331.707 162.715L293.877 228.241L256.047 162.715H331.707ZM231.273 162.715L269.1 97.198L306.93 162.718L231.273 162.715ZM181.707 74.392L143.877 139.915L106.047 74.392H181.707ZM181.707 162.715L143.877 228.241L106.047 162.715H181.707ZM81.2729 162.715L119.1 97.198L156.93 162.718L81.2729 162.715ZM156.273 118.555L194.1 53.029L231.93 118.555H156.273ZM156.273 206.878L194.1 141.358L231.93 206.881L156.273 206.878Z" stroke="#7A9AEB" stroke-width="2"/>
</g>
<g clip-path="url(#clip14_10520_294)">
<path d="M406.707 30.229L368.877 95.752L331.047 30.229H406.707ZM406.707 118.555L368.877 184.075L331.047 118.555H406.707ZM481.707 74.392L443.877 139.915L406.047 74.392H481.707ZM481.707 162.715L443.877 228.241L406.047 162.715H481.707ZM381.273 162.715L419.1 97.198L456.93 162.718L381.273 162.715ZM331.707 74.392L293.877 139.915L256.047 74.392H331.707ZM331.707 162.715L293.877 228.241L256.047 162.715H331.707ZM231.273 162.715L269.1 97.198L306.93 162.718L231.273 162.715ZM306.273 118.555L344.1 53.029L381.93 118.555H306.273ZM306.273 206.878L344.1 141.358L381.93 206.881L306.273 206.878Z" stroke="#7A9AEB" stroke-width="2"/>
</g>
<g clip-path="url(#clip15_10520_294)">
<path d="M556.707 30.229L518.877 95.752L481.047 30.229H556.707ZM556.707 118.555L518.877 184.075L481.047 118.555H556.707ZM631.707 74.392L593.877 139.915L556.047 74.392H631.707ZM631.707 162.715L593.877 228.241L556.047 162.715H631.707ZM531.273 162.715L569.1 97.198L606.93 162.718L531.273 162.715ZM481.707 74.392L443.877 139.915L406.047 74.392H481.707ZM481.707 162.715L443.877 228.241L406.047 162.715H481.707ZM381.273 162.715L419.1 97.198L456.93 162.718L381.273 162.715ZM456.273 118.555L494.1 53.029L531.93 118.555H456.273ZM456.273 206.878L494.1 141.358L531.93 206.881L456.273 206.878Z" stroke="#7A9AEB" stroke-width="2"/>
</g>
<g clip-path="url(#clip16_10520_294)">
<path d="M706.707 30.229L668.877 95.752L631.047 30.229H706.707ZM706.707 118.555L668.877 184.075L631.047 118.555H706.707ZM781.707 74.392L743.877 139.915L706.047 74.392H781.707ZM781.707 162.715L743.877 228.241L706.047 162.715H781.707ZM681.273 162.715L719.1 97.198L756.93 162.718L681.273 162.715ZM631.707 74.392L593.877 139.915L556.047 74.392H631.707ZM631.707 162.715L593.877 228.241L556.047 162.715H631.707ZM531.273 162.715L569.1 97.198L606.93 162.718L531.273 162.715ZM606.273 118.555L644.1 53.029L681.93 118.555H606.273ZM606.273 206.878L644.1 141.358L681.93 206.881L606.273 206.878Z" stroke="#7A9AEB" stroke-width="2"/>
</g>
<g clip-path="url(#clip17_10520_294)">
<path d="M856.707 30.229L818.877 95.752L781.047 30.229H856.707ZM856.707 118.555L818.877 184.075L781.047 118.555H856.707ZM931.707 74.392L893.877 139.915L856.047 74.392H931.707ZM931.707 162.715L893.877 228.241L856.047 162.715H931.707ZM831.273 162.715L869.1 97.198L906.93 162.718L831.273 162.715ZM781.707 74.392L743.877 139.915L706.047 74.392H781.707ZM781.707 162.715L743.877 228.241L706.047 162.715H781.707ZM681.273 162.715L719.1 97.198L756.93 162.718L681.273 162.715ZM756.273 118.555L794.1 53.029L831.93 118.555H756.273ZM756.273 206.878L794.1 141.358L831.93 206.881L756.273 206.878Z" stroke="#7A9AEB" stroke-width="2"/>
</g>
<g clip-path="url(#clip18_10520_294)">
<path d="M1006.71 30.229L968.877 95.752L931.047 30.229H1006.71ZM1006.71 118.555L968.877 184.075L931.047 118.555H1006.71ZM1081.71 74.392L1043.88 139.915L1006.05 74.392H1081.71ZM1081.71 162.715L1043.88 228.241L1006.05 162.715H1081.71ZM981.273 162.715L1019.1 97.198L1056.93 162.718L981.273 162.715ZM931.707 74.392L893.877 139.915L856.047 74.392H931.707ZM931.707 162.715L893.877 228.241L856.047 162.715H931.707ZM831.273 162.715L869.1 97.198L906.93 162.718L831.273 162.715ZM906.273 118.555L944.1 53.029L981.93 118.555H906.273ZM906.273 206.878L944.1 141.358L981.93 206.881L906.273 206.878Z" stroke="#7A9AEB" stroke-width="2"/>
</g>
<g clip-path="url(#clip19_10520_294)">
<path d="M1156.71 30.229L1118.88 95.752L1081.05 30.229H1156.71ZM1156.71 118.555L1118.88 184.075L1081.05 118.555H1156.71ZM1231.71 74.392L1193.88 139.915L1156.05 74.392H1231.71ZM1231.71 162.715L1193.88 228.241L1156.05 162.715H1231.71ZM1131.27 162.715L1169.1 97.198L1206.93 162.718L1131.27 162.715ZM1081.71 74.392L1043.88 139.915L1006.05 74.392H1081.71ZM1081.71 162.715L1043.88 228.241L1006.05 162.715H1081.71ZM981.273 162.715L1019.1 97.198L1056.93 162.718L981.273 162.715ZM1056.27 118.555L1094.1 53.029L1131.93 118.555H1056.27ZM1056.27 206.878L1094.1 141.358L1131.93 206.881L1056.27 206.878Z" stroke="#7A9AEB" stroke-width="2"/>
</g>
<g clip-path="url(#clip20_10520_294)">
<path d="M1306.71 30.229L1268.88 95.752L1231.05 30.229H1306.71ZM1306.71 118.555L1268.88 184.075L1231.05 118.555H1306.71ZM1381.71 74.392L1343.88 139.915L1306.05 74.392H1381.71ZM1381.71 162.715L1343.88 228.241L1306.05 162.715H1381.71ZM1281.27 162.715L1319.1 97.198L1356.93 162.718L1281.27 162.715ZM1231.71 74.392L1193.88 139.915L1156.05 74.392H1231.71ZM1231.71 162.715L1193.88 228.241L1156.05 162.715H1231.71ZM1131.27 162.715L1169.1 97.198L1206.93 162.718L1131.27 162.715ZM1206.27 118.555L1244.1 53.029L1281.93 118.555H1206.27ZM1206.27 206.878L1244.1 141.358L1281.93 206.881L1206.27 206.878Z" stroke="#7A9AEB" stroke-width="2"/>
</g>
<g clip-path="url(#clip21_10520_294)">
<path d="M1456.71 30.229L1418.88 95.752L1381.05 30.229H1456.71ZM1456.71 118.555L1418.88 184.075L1381.05 118.555H1456.71ZM1531.71 74.392L1493.88 139.915L1456.05 74.392H1531.71ZM1531.71 162.715L1493.88 228.241L1456.05 162.715H1531.71ZM1431.27 162.715L1469.1 97.198L1506.93 162.718L1431.27 162.715ZM1381.71 74.392L1343.88 139.915L1306.05 74.392H1381.71ZM1381.71 162.715L1343.88 228.241L1306.05 162.715H1381.71ZM1281.27 162.715L1319.1 97.198L1356.93 162.718L1281.27 162.715ZM1356.27 118.555L1394.1 53.029L1431.93 118.555H1356.27ZM1356.27 206.878L1394.1 141.358L1431.93 206.881L1356.27 206.878Z" stroke="#7A9AEB" stroke-width="2"/>
</g>
<g clip-path="url(#clip22_10520_294)">
<path d="M106.707 118.555L68.8769 184.078L31.0469 118.555H106.707ZM106.707 206.881L68.8769 272.401L31.0469 206.881H106.707ZM181.707 162.718L143.877 228.241L106.047 162.718H181.707ZM181.707 251.041L143.877 316.567L106.047 251.041H181.707ZM81.2729 251.041L119.1 185.524L156.93 251.044L81.2729 251.041ZM31.707 162.718L-6.12305 228.241L-43.953 162.718H31.707ZM31.707 251.041L-6.12305 316.567L-43.953 251.041H31.707ZM-68.7271 251.041L-30.9001 185.524L6.92995 251.044L-68.7271 251.041ZM6.27295 206.881L44.1 141.355L81.93 206.881H6.27295ZM6.27295 295.204L44.1 229.684L81.93 295.207L6.27295 295.204Z" stroke="#7A9AEB" stroke-width="2"/>
</g>
<g clip-path="url(#clip23_10520_294)">
<path d="M256.707 118.555L218.877 184.078L181.047 118.555H256.707ZM256.707 206.881L218.877 272.401L181.047 206.881H256.707ZM331.707 162.718L293.877 228.241L256.047 162.718H331.707ZM331.707 251.041L293.877 316.567L256.047 251.041H331.707ZM231.273 251.041L269.1 185.524L306.93 251.044L231.273 251.041ZM181.707 162.718L143.877 228.241L106.047 162.718H181.707ZM181.707 251.041L143.877 316.567L106.047 251.041H181.707ZM81.2729 251.041L119.1 185.524L156.93 251.044L81.2729 251.041ZM156.273 206.881L194.1 141.355L231.93 206.881H156.273ZM156.273 295.204L194.1 229.684L231.93 295.207L156.273 295.204Z" stroke="#7A9AEB" stroke-width="2"/>
</g>
<g clip-path="url(#clip24_10520_294)">
<path d="M406.707 118.555L368.877 184.078L331.047 118.555H406.707ZM406.707 206.881L368.877 272.401L331.047 206.881H406.707ZM481.707 162.718L443.877 228.241L406.047 162.718H481.707ZM481.707 251.041L443.877 316.567L406.047 251.041H481.707ZM381.273 251.041L419.1 185.524L456.93 251.044L381.273 251.041ZM331.707 162.718L293.877 228.241L256.047 162.718H331.707ZM331.707 251.041L293.877 316.567L256.047 251.041H331.707ZM231.273 251.041L269.1 185.524L306.93 251.044L231.273 251.041ZM306.273 206.881L344.1 141.355L381.93 206.881H306.273ZM306.273 295.204L344.1 229.684L381.93 295.207L306.273 295.204Z" stroke="#7A9AEB" stroke-width="2"/>
</g>
<g clip-path="url(#clip25_10520_294)">
<path d="M556.707 118.555L518.877 184.078L481.047 118.555H556.707ZM556.707 206.881L518.877 272.401L481.047 206.881H556.707ZM631.707 162.718L593.877 228.241L556.047 162.718H631.707ZM631.707 251.041L593.877 316.567L556.047 251.041H631.707ZM531.273 251.041L569.1 185.524L606.93 251.044L531.273 251.041ZM481.707 162.718L443.877 228.241L406.047 162.718H481.707ZM481.707 251.041L443.877 316.567L406.047 251.041H481.707ZM381.273 251.041L419.1 185.524L456.93 251.044L381.273 251.041ZM456.273 206.881L494.1 141.355L531.93 206.881H456.273ZM456.273 295.204L494.1 229.684L531.93 295.207L456.273 295.204Z" stroke="#7A9AEB" stroke-width="2"/>
</g>
<g clip-path="url(#clip26_10520_294)">
<path d="M706.707 118.555L668.877 184.078L631.047 118.555H706.707ZM706.707 206.881L668.877 272.401L631.047 206.881H706.707ZM781.707 162.718L743.877 228.241L706.047 162.718H781.707ZM781.707 251.041L743.877 316.567L706.047 251.041H781.707ZM681.273 251.041L719.1 185.524L756.93 251.044L681.273 251.041ZM631.707 162.718L593.877 228.241L556.047 162.718H631.707ZM631.707 251.041L593.877 316.567L556.047 251.041H631.707ZM531.273 251.041L569.1 185.524L606.93 251.044L531.273 251.041ZM606.273 206.881L644.1 141.355L681.93 206.881H606.273ZM606.273 295.204L644.1 229.684L681.93 295.207L606.273 295.204Z" stroke="#7A9AEB" stroke-width="2"/>
</g>
<g clip-path="url(#clip27_10520_294)">
<path d="M856.707 118.555L818.877 184.078L781.047 118.555H856.707ZM856.707 206.881L818.877 272.401L781.047 206.881H856.707ZM931.707 162.718L893.877 228.241L856.047 162.718H931.707ZM931.707 251.041L893.877 316.567L856.047 251.041H931.707ZM831.273 251.041L869.1 185.524L906.93 251.044L831.273 251.041ZM781.707 162.718L743.877 228.241L706.047 162.718H781.707ZM781.707 251.041L743.877 316.567L706.047 251.041H781.707ZM681.273 251.041L719.1 185.524L756.93 251.044L681.273 251.041ZM756.273 206.881L794.1 141.355L831.93 206.881H756.273ZM756.273 295.204L794.1 229.684L831.93 295.207L756.273 295.204Z" stroke="#7A9AEB" stroke-width="2"/>
</g>
<g clip-path="url(#clip28_10520_294)">
<path d="M1006.71 118.555L968.877 184.078L931.047 118.555H1006.71ZM1006.71 206.881L968.877 272.401L931.047 206.881H1006.71ZM1081.71 162.718L1043.88 228.241L1006.05 162.718H1081.71ZM1081.71 251.041L1043.88 316.567L1006.05 251.041H1081.71ZM981.273 251.041L1019.1 185.524L1056.93 251.044L981.273 251.041ZM931.707 162.718L893.877 228.241L856.047 162.718H931.707ZM931.707 251.041L893.877 316.567L856.047 251.041H931.707ZM831.273 251.041L869.1 185.524L906.93 251.044L831.273 251.041ZM906.273 206.881L944.1 141.355L981.93 206.881H906.273ZM906.273 295.204L944.1 229.684L981.93 295.207L906.273 295.204Z" stroke="#7A9AEB" stroke-width="2"/>
</g>
<g clip-path="url(#clip29_10520_294)">
<path d="M1156.71 118.555L1118.88 184.078L1081.05 118.555H1156.71ZM1156.71 206.881L1118.88 272.401L1081.05 206.881H1156.71ZM1231.71 162.718L1193.88 228.241L1156.05 162.718H1231.71ZM1231.71 251.041L1193.88 316.567L1156.05 251.041H1231.71ZM1131.27 251.041L1169.1 185.524L1206.93 251.044L1131.27 251.041ZM1081.71 162.718L1043.88 228.241L1006.05 162.718H1081.71ZM1081.71 251.041L1043.88 316.567L1006.05 251.041H1081.71ZM981.273 251.041L1019.1 185.524L1056.93 251.044L981.273 251.041ZM1056.27 206.881L1094.1 141.355L1131.93 206.881H1056.27ZM1056.27 295.204L1094.1 229.684L1131.93 295.207L1056.27 295.204Z" stroke="#7A9AEB" stroke-width="2"/>
</g>
<g clip-path="url(#clip30_10520_294)">
<path d="M1306.71 118.555L1268.88 184.078L1231.05 118.555H1306.71ZM1306.71 206.881L1268.88 272.401L1231.05 206.881H1306.71ZM1381.71 162.718L1343.88 228.241L1306.05 162.718H1381.71ZM1381.71 251.041L1343.88 316.567L1306.05 251.041H1381.71ZM1281.27 251.041L1319.1 185.524L1356.93 251.044L1281.27 251.041ZM1231.71 162.718L1193.88 228.241L1156.05 162.718H1231.71ZM1231.71 251.041L1193.88 316.567L1156.05 251.041H1231.71ZM1131.27 251.041L1169.1 185.524L1206.93 251.044L1131.27 251.041ZM1206.27 206.881L1244.1 141.355L1281.93 206.881H1206.27ZM1206.27 295.204L1244.1 229.684L1281.93 295.207L1206.27 295.204Z" stroke="#7A9AEB" stroke-width="2"/>
</g>
<g clip-path="url(#clip31_10520_294)">
<path d="M1456.71 118.555L1418.88 184.078L1381.05 118.555H1456.71ZM1456.71 206.881L1418.88 272.401L1381.05 206.881H1456.71ZM1531.71 162.718L1493.88 228.241L1456.05 162.718H1531.71ZM1531.71 251.041L1493.88 316.567L1456.05 251.041H1531.71ZM1431.27 251.041L1469.1 185.524L1506.93 251.044L1431.27 251.041ZM1381.71 162.718L1343.88 228.241L1306.05 162.718H1381.71ZM1381.71 251.041L1343.88 316.567L1306.05 251.041H1381.71ZM1281.27 251.041L1319.1 185.524L1356.93 251.044L1281.27 251.041ZM1356.27 206.881L1394.1 141.355L1431.93 206.881H1356.27ZM1356.27 295.204L1394.1 229.684L1431.93 295.207L1356.27 295.204Z" stroke="#7A9AEB" stroke-width="2"/>
</g>
<g clip-path="url(#clip32_10520_294)">
<path d="M106.707 206.881L68.8769 272.404L31.0469 206.881H106.707ZM106.707 295.207L68.8769 360.727L31.0469 295.207H106.707ZM181.707 251.044L143.877 316.567L106.047 251.044H181.707ZM181.707 339.367L143.877 404.893L106.047 339.367H181.707ZM81.2729 339.367L119.1 273.85L156.93 339.37L81.2729 339.367ZM31.707 251.044L-6.12305 316.567L-43.953 251.044H31.707ZM31.707 339.367L-6.12305 404.893L-43.953 339.367H31.707ZM-68.7271 339.367L-30.9001 273.85L6.92995 339.37L-68.7271 339.367ZM6.27295 295.207L44.1 229.681L81.93 295.207H6.27295ZM6.27295 383.53L44.1 318.01L81.93 383.533L6.27295 383.53Z" stroke="#7A9AEB" stroke-width="2"/>
</g>
<g clip-path="url(#clip33_10520_294)">
<path d="M256.707 206.881L218.877 272.404L181.047 206.881H256.707ZM256.707 295.207L218.877 360.727L181.047 295.207H256.707ZM331.707 251.044L293.877 316.567L256.047 251.044H331.707ZM331.707 339.367L293.877 404.893L256.047 339.367H331.707ZM231.273 339.367L269.1 273.85L306.93 339.37L231.273 339.367ZM181.707 251.044L143.877 316.567L106.047 251.044H181.707ZM181.707 339.367L143.877 404.893L106.047 339.367H181.707ZM81.2729 339.367L119.1 273.85L156.93 339.37L81.2729 339.367ZM156.273 295.207L194.1 229.681L231.93 295.207H156.273ZM156.273 383.53L194.1 318.01L231.93 383.533L156.273 383.53Z" stroke="#7A9AEB" stroke-width="2"/>
</g>
<g clip-path="url(#clip34_10520_294)">
<path d="M406.707 206.881L368.877 272.404L331.047 206.881H406.707ZM406.707 295.207L368.877 360.727L331.047 295.207H406.707ZM481.707 251.044L443.877 316.567L406.047 251.044H481.707ZM481.707 339.367L443.877 404.893L406.047 339.367H481.707ZM381.273 339.367L419.1 273.85L456.93 339.37L381.273 339.367ZM331.707 251.044L293.877 316.567L256.047 251.044H331.707ZM331.707 339.367L293.877 404.893L256.047 339.367H331.707ZM231.273 339.367L269.1 273.85L306.93 339.37L231.273 339.367ZM306.273 295.207L344.1 229.681L381.93 295.207H306.273ZM306.273 383.53L344.1 318.01L381.93 383.533L306.273 383.53Z" stroke="#7A9AEB" stroke-width="2"/>
</g>
<g clip-path="url(#clip35_10520_294)">
<path d="M556.707 206.881L518.877 272.404L481.047 206.881H556.707ZM556.707 295.207L518.877 360.727L481.047 295.207H556.707ZM631.707 251.044L593.877 316.567L556.047 251.044H631.707ZM631.707 339.367L593.877 404.893L556.047 339.367H631.707ZM531.273 339.367L569.1 273.85L606.93 339.37L531.273 339.367ZM481.707 251.044L443.877 316.567L406.047 251.044H481.707ZM481.707 339.367L443.877 404.893L406.047 339.367H481.707ZM381.273 339.367L419.1 273.85L456.93 339.37L381.273 339.367ZM456.273 295.207L494.1 229.681L531.93 295.207H456.273ZM456.273 383.53L494.1 318.01L531.93 383.533L456.273 383.53Z" stroke="#7A9AEB" stroke-width="2"/>
</g>
<g clip-path="url(#clip36_10520_294)">
<path d="M706.707 206.881L668.877 272.404L631.047 206.881H706.707ZM706.707 295.207L668.877 360.727L631.047 295.207H706.707ZM781.707 251.044L743.877 316.567L706.047 251.044H781.707ZM781.707 339.367L743.877 404.893L706.047 339.367H781.707ZM681.273 339.367L719.1 273.85L756.93 339.37L681.273 339.367ZM631.707 251.044L593.877 316.567L556.047 251.044H631.707ZM631.707 339.367L593.877 404.893L556.047 339.367H631.707ZM531.273 339.367L569.1 273.85L606.93 339.37L531.273 339.367ZM606.273 295.207L644.1 229.681L681.93 295.207H606.273ZM606.273 383.53L644.1 318.01L681.93 383.533L606.273 383.53Z" stroke="#7A9AEB" stroke-width="2"/>
</g>
<g clip-path="url(#clip37_10520_294)">
<path d="M856.707 206.881L818.877 272.404L781.047 206.881H856.707ZM856.707 295.207L818.877 360.727L781.047 295.207H856.707ZM931.707 251.044L893.877 316.567L856.047 251.044H931.707ZM931.707 339.367L893.877 404.893L856.047 339.367H931.707ZM831.273 339.367L869.1 273.85L906.93 339.37L831.273 339.367ZM781.707 251.044L743.877 316.567L706.047 251.044H781.707ZM781.707 339.367L743.877 404.893L706.047 339.367H781.707ZM681.273 339.367L719.1 273.85L756.93 339.37L681.273 339.367ZM756.273 295.207L794.1 229.681L831.93 295.207H756.273ZM756.273 383.53L794.1 318.01L831.93 383.533L756.273 383.53Z" stroke="#7A9AEB" stroke-width="2"/>
</g>
<g clip-path="url(#clip38_10520_294)">
<path d="M1006.71 206.881L968.877 272.404L931.047 206.881H1006.71ZM1006.71 295.207L968.877 360.727L931.047 295.207H1006.71ZM1081.71 251.044L1043.88 316.567L1006.05 251.044H1081.71ZM1081.71 339.367L1043.88 404.893L1006.05 339.367H1081.71ZM981.273 339.367L1019.1 273.85L1056.93 339.37L981.273 339.367ZM931.707 251.044L893.877 316.567L856.047 251.044H931.707ZM931.707 339.367L893.877 404.893L856.047 339.367H931.707ZM831.273 339.367L869.1 273.85L906.93 339.37L831.273 339.367ZM906.273 295.207L944.1 229.681L981.93 295.207H906.273ZM906.273 383.53L944.1 318.01L981.93 383.533L906.273 383.53Z" stroke="#7A9AEB" stroke-width="2"/>
</g>
<g clip-path="url(#clip39_10520_294)">
<path d="M1156.71 206.881L1118.88 272.404L1081.05 206.881H1156.71ZM1156.71 295.207L1118.88 360.727L1081.05 295.207H1156.71ZM1231.71 251.044L1193.88 316.567L1156.05 251.044H1231.71ZM1231.71 339.367L1193.88 404.893L1156.05 339.367H1231.71ZM1131.27 339.367L1169.1 273.85L1206.93 339.37L1131.27 339.367ZM1081.71 251.044L1043.88 316.567L1006.05 251.044H1081.71ZM1081.71 339.367L1043.88 404.893L1006.05 339.367H1081.71ZM981.273 339.367L1019.1 273.85L1056.93 339.37L981.273 339.367ZM1056.27 295.207L1094.1 229.681L1131.93 295.207H1056.27ZM1056.27 383.53L1094.1 318.01L1131.93 383.533L1056.27 383.53Z" stroke="#7A9AEB" stroke-width="2"/>
</g>
<g clip-path="url(#clip40_10520_294)">
<path d="M1306.71 206.881L1268.88 272.404L1231.05 206.881H1306.71ZM1306.71 295.207L1268.88 360.727L1231.05 295.207H1306.71ZM1381.71 251.044L1343.88 316.567L1306.05 251.044H1381.71ZM1381.71 339.367L1343.88 404.893L1306.05 339.367H1381.71ZM1281.27 339.367L1319.1 273.85L1356.93 339.37L1281.27 339.367ZM1231.71 251.044L1193.88 316.567L1156.05 251.044H1231.71ZM1231.71 339.367L1193.88 404.893L1156.05 339.367H1231.71ZM1131.27 339.367L1169.1 273.85L1206.93 339.37L1131.27 339.367ZM1206.27 295.207L1244.1 229.681L1281.93 295.207H1206.27ZM1206.27 383.53L1244.1 318.01L1281.93 383.533L1206.27 383.53Z" stroke="#7A9AEB" stroke-width="2"/>
</g>
<g clip-path="url(#clip41_10520_294)">
<path d="M1456.71 206.881L1418.88 272.404L1381.05 206.881H1456.71ZM1456.71 295.207L1418.88 360.727L1381.05 295.207H1456.71ZM1531.71 251.044L1493.88 316.567L1456.05 251.044H1531.71ZM1531.71 339.367L1493.88 404.893L1456.05 339.367H1531.71ZM1431.27 339.367L1469.1 273.85L1506.93 339.37L1431.27 339.367ZM1381.71 251.044L1343.88 316.567L1306.05 251.044H1381.71ZM1381.71 339.367L1343.88 404.893L1306.05 339.367H1381.71ZM1281.27 339.367L1319.1 273.85L1356.93 339.37L1281.27 339.367ZM1356.27 295.207L1394.1 229.681L1431.93 295.207H1356.27ZM1356.27 383.53L1394.1 318.01L1431.93 383.533L1356.27 383.53Z" stroke="#7A9AEB" stroke-width="2"/>
</g>
<g clip-path="url(#clip42_10520_294)">
<path d="M106.707 295.207L68.8769 360.73L31.0469 295.207H106.707ZM106.707 383.533L68.8769 449.053L31.0469 383.533H106.707ZM181.707 339.37L143.877 404.893L106.047 339.37H181.707ZM181.707 427.693L143.877 493.219L106.047 427.693H181.707ZM81.2729 427.693L119.1 362.176L156.93 427.696L81.2729 427.693ZM31.707 339.37L-6.12305 404.893L-43.953 339.37H31.707ZM31.707 427.693L-6.12305 493.219L-43.953 427.693H31.707ZM-68.7271 427.693L-30.9001 362.176L6.92995 427.696L-68.7271 427.693ZM6.27295 383.533L44.1 318.007L81.93 383.533H6.27295ZM6.27295 471.856L44.1 406.336L81.93 471.859L6.27295 471.856Z" stroke="#7A9AEB" stroke-width="2"/>
</g>
<g clip-path="url(#clip43_10520_294)">
<path d="M256.707 295.207L218.877 360.73L181.047 295.207H256.707ZM256.707 383.533L218.877 449.053L181.047 383.533H256.707ZM331.707 339.37L293.877 404.893L256.047 339.37H331.707ZM331.707 427.693L293.877 493.219L256.047 427.693H331.707ZM231.273 427.693L269.1 362.176L306.93 427.696L231.273 427.693ZM181.707 339.37L143.877 404.893L106.047 339.37H181.707ZM181.707 427.693L143.877 493.219L106.047 427.693H181.707ZM81.2729 427.693L119.1 362.176L156.93 427.696L81.2729 427.693ZM156.273 383.533L194.1 318.007L231.93 383.533H156.273ZM156.273 471.856L194.1 406.336L231.93 471.859L156.273 471.856Z" stroke="#7A9AEB" stroke-width="2"/>
</g>
<g clip-path="url(#clip44_10520_294)">
<path d="M406.707 295.207L368.877 360.73L331.047 295.207H406.707ZM406.707 383.533L368.877 449.053L331.047 383.533H406.707ZM481.707 339.37L443.877 404.893L406.047 339.37H481.707ZM481.707 427.693L443.877 493.219L406.047 427.693H481.707ZM381.273 427.693L419.1 362.176L456.93 427.696L381.273 427.693ZM331.707 339.37L293.877 404.893L256.047 339.37H331.707ZM331.707 427.693L293.877 493.219L256.047 427.693H331.707ZM231.273 427.693L269.1 362.176L306.93 427.696L231.273 427.693ZM306.273 383.533L344.1 318.007L381.93 383.533H306.273ZM306.273 471.856L344.1 406.336L381.93 471.859L306.273 471.856Z" stroke="#7A9AEB" stroke-width="2"/>
</g>
<g clip-path="url(#clip45_10520_294)">
<path d="M556.707 295.207L518.877 360.73L481.047 295.207H556.707ZM556.707 383.533L518.877 449.053L481.047 383.533H556.707ZM631.707 339.37L593.877 404.893L556.047 339.37H631.707ZM631.707 427.693L593.877 493.219L556.047 427.693H631.707ZM531.273 427.693L569.1 362.176L606.93 427.696L531.273 427.693ZM481.707 339.37L443.877 404.893L406.047 339.37H481.707ZM481.707 427.693L443.877 493.219L406.047 427.693H481.707ZM381.273 427.693L419.1 362.176L456.93 427.696L381.273 427.693ZM456.273 383.533L494.1 318.007L531.93 383.533H456.273ZM456.273 471.856L494.1 406.336L531.93 471.859L456.273 471.856Z" stroke="#7A9AEB" stroke-width="2"/>
</g>
<g clip-path="url(#clip46_10520_294)">
<path d="M706.707 295.207L668.877 360.73L631.047 295.207H706.707ZM706.707 383.533L668.877 449.053L631.047 383.533H706.707ZM781.707 339.37L743.877 404.893L706.047 339.37H781.707ZM781.707 427.693L743.877 493.219L706.047 427.693H781.707ZM681.273 427.693L719.1 362.176L756.93 427.696L681.273 427.693ZM631.707 339.37L593.877 404.893L556.047 339.37H631.707ZM631.707 427.693L593.877 493.219L556.047 427.693H631.707ZM531.273 427.693L569.1 362.176L606.93 427.696L531.273 427.693ZM606.273 383.533L644.1 318.007L681.93 383.533H606.273ZM606.273 471.856L644.1 406.336L681.93 471.859L606.273 471.856Z" stroke="#7A9AEB" stroke-width="2"/>
</g>
<g clip-path="url(#clip47_10520_294)">
<path d="M856.707 295.207L818.877 360.73L781.047 295.207H856.707ZM856.707 383.533L818.877 449.053L781.047 383.533H856.707ZM931.707 339.37L893.877 404.893L856.047 339.37H931.707ZM931.707 427.693L893.877 493.219L856.047 427.693H931.707ZM831.273 427.693L869.1 362.176L906.93 427.696L831.273 427.693ZM781.707 339.37L743.877 404.893L706.047 339.37H781.707ZM781.707 427.693L743.877 493.219L706.047 427.693H781.707ZM681.273 427.693L719.1 362.176L756.93 427.696L681.273 427.693ZM756.273 383.533L794.1 318.007L831.93 383.533H756.273ZM756.273 471.856L794.1 406.336L831.93 471.859L756.273 471.856Z" stroke="#7A9AEB" stroke-width="2"/>
</g>
<g clip-path="url(#clip48_10520_294)">
<path d="M1006.71 295.207L968.877 360.73L931.047 295.207H1006.71ZM1006.71 383.533L968.877 449.053L931.047 383.533H1006.71ZM1081.71 339.37L1043.88 404.893L1006.05 339.37H1081.71ZM1081.71 427.693L1043.88 493.219L1006.05 427.693H1081.71ZM981.273 427.693L1019.1 362.176L1056.93 427.696L981.273 427.693ZM931.707 339.37L893.877 404.893L856.047 339.37H931.707ZM931.707 427.693L893.877 493.219L856.047 427.693H931.707ZM831.273 427.693L869.1 362.176L906.93 427.696L831.273 427.693ZM906.273 383.533L944.1 318.007L981.93 383.533H906.273ZM906.273 471.856L944.1 406.336L981.93 471.859L906.273 471.856Z" stroke="#7A9AEB" stroke-width="2"/>
</g>
<g clip-path="url(#clip49_10520_294)">
<path d="M1156.71 295.207L1118.88 360.73L1081.05 295.207H1156.71ZM1156.71 383.533L1118.88 449.053L1081.05 383.533H1156.71ZM1231.71 339.37L1193.88 404.893L1156.05 339.37H1231.71ZM1231.71 427.693L1193.88 493.219L1156.05 427.693H1231.71ZM1131.27 427.693L1169.1 362.176L1206.93 427.696L1131.27 427.693ZM1081.71 339.37L1043.88 404.893L1006.05 339.37H1081.71ZM1081.71 427.693L1043.88 493.219L1006.05 427.693H1081.71ZM981.273 427.693L1019.1 362.176L1056.93 427.696L981.273 427.693ZM1056.27 383.533L1094.1 318.007L1131.93 383.533H1056.27ZM1056.27 471.856L1094.1 406.336L1131.93 471.859L1056.27 471.856Z" stroke="#7A9AEB" stroke-width="2"/>
</g>
<g clip-path="url(#clip50_10520_294)">
<path d="M1306.71 295.207L1268.88 360.73L1231.05 295.207H1306.71ZM1306.71 383.533L1268.88 449.053L1231.05 383.533H1306.71ZM1381.71 339.37L1343.88 404.893L1306.05 339.37H1381.71ZM1381.71 427.693L1343.88 493.219L1306.05 427.693H1381.71ZM1281.27 427.693L1319.1 362.176L1356.93 427.696L1281.27 427.693ZM1231.71 339.37L1193.88 404.893L1156.05 339.37H1231.71ZM1231.71 427.693L1193.88 493.219L1156.05 427.693H1231.71ZM1131.27 427.693L1169.1 362.176L1206.93 427.696L1131.27 427.693ZM1206.27 383.533L1244.1 318.007L1281.93 383.533H1206.27ZM1206.27 471.856L1244.1 406.336L1281.93 471.859L1206.27 471.856Z" stroke="#7A9AEB" stroke-width="2"/>
</g>
<g clip-path="url(#clip51_10520_294)">
<path d="M1456.71 295.207L1418.88 360.73L1381.05 295.207H1456.71ZM1456.71 383.533L1418.88 449.053L1381.05 383.533H1456.71ZM1531.71 339.37L1493.88 404.893L1456.05 339.37H1531.71ZM1531.71 427.693L1493.88 493.219L1456.05 427.693H1531.71ZM1431.27 427.693L1469.1 362.176L1506.93 427.696L1431.27 427.693ZM1381.71 339.37L1343.88 404.893L1306.05 339.37H1381.71ZM1381.71 427.693L1343.88 493.219L1306.05 427.693H1381.71ZM1281.27 427.693L1319.1 362.176L1356.93 427.696L1281.27 427.693ZM1356.27 383.533L1394.1 318.007L1431.93 383.533H1356.27ZM1356.27 471.856L1394.1 406.336L1431.93 471.859L1356.27 471.856Z" stroke="#7A9AEB" stroke-width="2"/>
</g>
<g clip-path="url(#clip52_10520_294)">
<path d="M106.707 383.533L68.8769 449.056L31.0469 383.533H106.707ZM106.707 471.859L68.8769 537.379L31.0469 471.859H106.707ZM181.707 427.696L143.877 493.219L106.047 427.696H181.707ZM181.707 516.019L143.877 581.545L106.047 516.019H181.707ZM81.2729 516.019L119.1 450.502L156.93 516.022L81.2729 516.019ZM31.707 427.696L-6.12305 493.219L-43.953 427.696H31.707ZM31.707 516.019L-6.12305 581.545L-43.953 516.019H31.707ZM-68.7271 516.019L-30.9001 450.502L6.92995 516.022L-68.7271 516.019ZM6.27295 471.859L44.1 406.333L81.93 471.859H6.27295ZM6.27295 560.182L44.1 494.662L81.93 560.185L6.27295 560.182Z" stroke="#7A9AEB" stroke-width="2"/>
</g>
<g clip-path="url(#clip53_10520_294)">
<path d="M256.707 383.533L218.877 449.056L181.047 383.533H256.707ZM256.707 471.859L218.877 537.379L181.047 471.859H256.707ZM331.707 427.696L293.877 493.219L256.047 427.696H331.707ZM331.707 516.019L293.877 581.545L256.047 516.019H331.707ZM231.273 516.019L269.1 450.502L306.93 516.022L231.273 516.019ZM181.707 427.696L143.877 493.219L106.047 427.696H181.707ZM181.707 516.019L143.877 581.545L106.047 516.019H181.707ZM81.2729 516.019L119.1 450.502L156.93 516.022L81.2729 516.019ZM156.273 471.859L194.1 406.333L231.93 471.859H156.273ZM156.273 560.182L194.1 494.662L231.93 560.185L156.273 560.182Z" stroke="#7A9AEB" stroke-width="2"/>
</g>
<g clip-path="url(#clip54_10520_294)">
<path d="M406.707 383.533L368.877 449.056L331.047 383.533H406.707ZM406.707 471.859L368.877 537.379L331.047 471.859H406.707ZM481.707 427.696L443.877 493.219L406.047 427.696H481.707ZM481.707 516.019L443.877 581.545L406.047 516.019H481.707ZM381.273 516.019L419.1 450.502L456.93 516.022L381.273 516.019ZM331.707 427.696L293.877 493.219L256.047 427.696H331.707ZM331.707 516.019L293.877 581.545L256.047 516.019H331.707ZM231.273 516.019L269.1 450.502L306.93 516.022L231.273 516.019ZM306.273 471.859L344.1 406.333L381.93 471.859H306.273ZM306.273 560.182L344.1 494.662L381.93 560.185L306.273 560.182Z" stroke="#7A9AEB" stroke-width="2"/>
</g>
<g clip-path="url(#clip55_10520_294)">
<path d="M556.707 383.533L518.877 449.056L481.047 383.533H556.707ZM556.707 471.859L518.877 537.379L481.047 471.859H556.707ZM631.707 427.696L593.877 493.219L556.047 427.696H631.707ZM631.707 516.019L593.877 581.545L556.047 516.019H631.707ZM531.273 516.019L569.1 450.502L606.93 516.022L531.273 516.019ZM481.707 427.696L443.877 493.219L406.047 427.696H481.707ZM481.707 516.019L443.877 581.545L406.047 516.019H481.707ZM381.273 516.019L419.1 450.502L456.93 516.022L381.273 516.019ZM456.273 471.859L494.1 406.333L531.93 471.859H456.273ZM456.273 560.182L494.1 494.662L531.93 560.185L456.273 560.182Z" stroke="#7A9AEB" stroke-width="2"/>
</g>
<g clip-path="url(#clip56_10520_294)">
<path d="M706.707 383.533L668.877 449.056L631.047 383.533H706.707ZM706.707 471.859L668.877 537.379L631.047 471.859H706.707ZM781.707 427.696L743.877 493.219L706.047 427.696H781.707ZM781.707 516.019L743.877 581.545L706.047 516.019H781.707ZM681.273 516.019L719.1 450.502L756.93 516.022L681.273 516.019ZM631.707 427.696L593.877 493.219L556.047 427.696H631.707ZM631.707 516.019L593.877 581.545L556.047 516.019H631.707ZM531.273 516.019L569.1 450.502L606.93 516.022L531.273 516.019ZM606.273 471.859L644.1 406.333L681.93 471.859H606.273ZM606.273 560.182L644.1 494.662L681.93 560.185L606.273 560.182Z" stroke="#7A9AEB" stroke-width="2"/>
</g>
<g clip-path="url(#clip57_10520_294)">
<path d="M856.707 383.533L818.877 449.056L781.047 383.533H856.707ZM856.707 471.859L818.877 537.379L781.047 471.859H856.707ZM931.707 427.696L893.877 493.219L856.047 427.696H931.707ZM931.707 516.019L893.877 581.545L856.047 516.019H931.707ZM831.273 516.019L869.1 450.502L906.93 516.022L831.273 516.019ZM781.707 427.696L743.877 493.219L706.047 427.696H781.707ZM781.707 516.019L743.877 581.545L706.047 516.019H781.707ZM681.273 516.019L719.1 450.502L756.93 516.022L681.273 516.019ZM756.273 471.859L794.1 406.333L831.93 471.859H756.273ZM756.273 560.182L794.1 494.662L831.93 560.185L756.273 560.182Z" stroke="#7A9AEB" stroke-width="2"/>
</g>
<g clip-path="url(#clip58_10520_294)">
<path d="M1006.71 383.533L968.877 449.056L931.047 383.533H1006.71ZM1006.71 471.859L968.877 537.379L931.047 471.859H1006.71ZM1081.71 427.696L1043.88 493.219L1006.05 427.696H1081.71ZM1081.71 516.019L1043.88 581.545L1006.05 516.019H1081.71ZM981.273 516.019L1019.1 450.502L1056.93 516.022L981.273 516.019ZM931.707 427.696L893.877 493.219L856.047 427.696H931.707ZM931.707 516.019L893.877 581.545L856.047 516.019H931.707ZM831.273 516.019L869.1 450.502L906.93 516.022L831.273 516.019ZM906.273 471.859L944.1 406.333L981.93 471.859H906.273ZM906.273 560.182L944.1 494.662L981.93 560.185L906.273 560.182Z" stroke="#7A9AEB" stroke-width="2"/>
</g>
<g clip-path="url(#clip59_10520_294)">
<path d="M1156.71 383.533L1118.88 449.056L1081.05 383.533H1156.71ZM1156.71 471.859L1118.88 537.379L1081.05 471.859H1156.71ZM1231.71 427.696L1193.88 493.219L1156.05 427.696H1231.71ZM1231.71 516.019L1193.88 581.545L1156.05 516.019H1231.71ZM1131.27 516.019L1169.1 450.502L1206.93 516.022L1131.27 516.019ZM1081.71 427.696L1043.88 493.219L1006.05 427.696H1081.71ZM1081.71 516.019L1043.88 581.545L1006.05 516.019H1081.71ZM981.273 516.019L1019.1 450.502L1056.93 516.022L981.273 516.019ZM1056.27 471.859L1094.1 406.333L1131.93 471.859H1056.27ZM1056.27 560.182L1094.1 494.662L1131.93 560.185L1056.27 560.182Z" stroke="#7A9AEB" stroke-width="2"/>
</g>
<g clip-path="url(#clip60_10520_294)">
<path d="M1306.71 383.533L1268.88 449.056L1231.05 383.533H1306.71ZM1306.71 471.859L1268.88 537.379L1231.05 471.859H1306.71ZM1381.71 427.696L1343.88 493.219L1306.05 427.696H1381.71ZM1381.71 516.019L1343.88 581.545L1306.05 516.019H1381.71ZM1281.27 516.019L1319.1 450.502L1356.93 516.022L1281.27 516.019ZM1231.71 427.696L1193.88 493.219L1156.05 427.696H1231.71ZM1231.71 516.019L1193.88 581.545L1156.05 516.019H1231.71ZM1131.27 516.019L1169.1 450.502L1206.93 516.022L1131.27 516.019ZM1206.27 471.859L1244.1 406.333L1281.93 471.859H1206.27ZM1206.27 560.182L1244.1 494.662L1281.93 560.185L1206.27 560.182Z" stroke="#7A9AEB" stroke-width="2"/>
</g>
<g clip-path="url(#clip61_10520_294)">
<path d="M1456.71 383.533L1418.88 449.056L1381.05 383.533H1456.71ZM1456.71 471.859L1418.88 537.379L1381.05 471.859H1456.71ZM1531.71 427.696L1493.88 493.219L1456.05 427.696H1531.71ZM1531.71 516.019L1493.88 581.545L1456.05 516.019H1531.71ZM1431.27 516.019L1469.1 450.502L1506.93 516.022L1431.27 516.019ZM1381.71 427.696L1343.88 493.219L1306.05 427.696H1381.71ZM1381.71 516.019L1343.88 581.545L1306.05 516.019H1381.71ZM1281.27 516.019L1319.1 450.502L1356.93 516.022L1281.27 516.019ZM1356.27 471.859L1394.1 406.333L1431.93 471.859H1356.27ZM1356.27 560.182L1394.1 494.662L1431.93 560.185L1356.27 560.182Z" stroke="#7A9AEB" stroke-width="2"/>
</g>
<rect y="171" width="1440" height="342" fill="url(#paint0_linear_10520_294)"/>
</g>
</g>
<defs>
<linearGradient id="paint0_linear_10520_294" x1="720" y1="513" x2="720" y2="171" gradientUnits="userSpaceOnUse">
<stop stop-color="#181818"/>
<stop offset="0.5" stop-color="#181818" stop-opacity="0.75"/>
<stop offset="1" stop-color="#181818" stop-opacity="0"/>
</linearGradient>
<clipPath id="clip0_10520_294">
<rect width="1440" height="507" fill="white"/>
</clipPath>
<clipPath id="clip1_10520_294">
<rect width="1440" height="508" fill="white" transform="translate(0 5)"/>
</clipPath>
<clipPath id="clip2_10520_294">
<rect width="150" height="88.326" fill="white" transform="translate(0 -5.97803)"/>
</clipPath>
<clipPath id="clip3_10520_294">
<rect width="150" height="88.326" fill="white" transform="translate(150 -5.97803)"/>
</clipPath>
<clipPath id="clip4_10520_294">
<rect width="150" height="88.326" fill="white" transform="translate(300 -5.97803)"/>
</clipPath>
<clipPath id="clip5_10520_294">
<rect width="150" height="88.326" fill="white" transform="translate(450 -5.97803)"/>
</clipPath>
<clipPath id="clip6_10520_294">
<rect width="150" height="88.326" fill="white" transform="translate(600 -5.97803)"/>
</clipPath>
<clipPath id="clip7_10520_294">
<rect width="150" height="88.326" fill="white" transform="translate(750 -5.97803)"/>
</clipPath>
<clipPath id="clip8_10520_294">
<rect width="150" height="88.326" fill="white" transform="translate(900 -5.97803)"/>
</clipPath>
<clipPath id="clip9_10520_294">
<rect width="150" height="88.326" fill="white" transform="translate(1050 -5.97803)"/>
</clipPath>
<clipPath id="clip10_10520_294">
<rect width="150" height="88.326" fill="white" transform="translate(1200 -5.97803)"/>
</clipPath>
<clipPath id="clip11_10520_294">
<rect width="150" height="88.326" fill="white" transform="translate(1350 -5.97803)"/>
</clipPath>
<clipPath id="clip12_10520_294">
<rect width="150" height="88.326" fill="white" transform="translate(0 82.3481)"/>
</clipPath>
<clipPath id="clip13_10520_294">
<rect width="150" height="88.326" fill="white" transform="translate(150 82.3481)"/>
</clipPath>
<clipPath id="clip14_10520_294">
<rect width="150" height="88.326" fill="white" transform="translate(300 82.3481)"/>
</clipPath>
<clipPath id="clip15_10520_294">
<rect width="150" height="88.326" fill="white" transform="translate(450 82.3481)"/>
</clipPath>
<clipPath id="clip16_10520_294">
<rect width="150" height="88.326" fill="white" transform="translate(600 82.3481)"/>
</clipPath>
<clipPath id="clip17_10520_294">
<rect width="150" height="88.326" fill="white" transform="translate(750 82.3481)"/>
</clipPath>
<clipPath id="clip18_10520_294">
<rect width="150" height="88.326" fill="white" transform="translate(900 82.3481)"/>
</clipPath>
<clipPath id="clip19_10520_294">
<rect width="150" height="88.326" fill="white" transform="translate(1050 82.3481)"/>
</clipPath>
<clipPath id="clip20_10520_294">
<rect width="150" height="88.326" fill="white" transform="translate(1200 82.3481)"/>
</clipPath>
<clipPath id="clip21_10520_294">
<rect width="150" height="88.326" fill="white" transform="translate(1350 82.3481)"/>
</clipPath>
<clipPath id="clip22_10520_294">
<rect width="150" height="88.326" fill="white" transform="translate(0 170.674)"/>
</clipPath>
<clipPath id="clip23_10520_294">
<rect width="150" height="88.326" fill="white" transform="translate(150 170.674)"/>
</clipPath>
<clipPath id="clip24_10520_294">
<rect width="150" height="88.326" fill="white" transform="translate(300 170.674)"/>
</clipPath>
<clipPath id="clip25_10520_294">
<rect width="150" height="88.326" fill="white" transform="translate(450 170.674)"/>
</clipPath>
<clipPath id="clip26_10520_294">
<rect width="150" height="88.326" fill="white" transform="translate(600 170.674)"/>
</clipPath>
<clipPath id="clip27_10520_294">
<rect width="150" height="88.326" fill="white" transform="translate(750 170.674)"/>
</clipPath>
<clipPath id="clip28_10520_294">
<rect width="150" height="88.326" fill="white" transform="translate(900 170.674)"/>
</clipPath>
<clipPath id="clip29_10520_294">
<rect width="150" height="88.326" fill="white" transform="translate(1050 170.674)"/>
</clipPath>
<clipPath id="clip30_10520_294">
<rect width="150" height="88.326" fill="white" transform="translate(1200 170.674)"/>
</clipPath>
<clipPath id="clip31_10520_294">
<rect width="150" height="88.326" fill="white" transform="translate(1350 170.674)"/>
</clipPath>
<clipPath id="clip32_10520_294">
<rect width="150" height="88.326" fill="white" transform="translate(0 259)"/>
</clipPath>
<clipPath id="clip33_10520_294">
<rect width="150" height="88.326" fill="white" transform="translate(150 259)"/>
</clipPath>
<clipPath id="clip34_10520_294">
<rect width="150" height="88.326" fill="white" transform="translate(300 259)"/>
</clipPath>
<clipPath id="clip35_10520_294">
<rect width="150" height="88.326" fill="white" transform="translate(450 259)"/>
</clipPath>
<clipPath id="clip36_10520_294">
<rect width="150" height="88.326" fill="white" transform="translate(600 259)"/>
</clipPath>
<clipPath id="clip37_10520_294">
<rect width="150" height="88.326" fill="white" transform="translate(750 259)"/>
</clipPath>
<clipPath id="clip38_10520_294">
<rect width="150" height="88.326" fill="white" transform="translate(900 259)"/>
</clipPath>
<clipPath id="clip39_10520_294">
<rect width="150" height="88.326" fill="white" transform="translate(1050 259)"/>
</clipPath>
<clipPath id="clip40_10520_294">
<rect width="150" height="88.326" fill="white" transform="translate(1200 259)"/>
</clipPath>
<clipPath id="clip41_10520_294">
<rect width="150" height="88.326" fill="white" transform="translate(1350 259)"/>
</clipPath>
<clipPath id="clip42_10520_294">
<rect width="150" height="88.326" fill="white" transform="translate(0 347.326)"/>
</clipPath>
<clipPath id="clip43_10520_294">
<rect width="150" height="88.326" fill="white" transform="translate(150 347.326)"/>
</clipPath>
<clipPath id="clip44_10520_294">
<rect width="150" height="88.326" fill="white" transform="translate(300 347.326)"/>
</clipPath>
<clipPath id="clip45_10520_294">
<rect width="150" height="88.326" fill="white" transform="translate(450 347.326)"/>
</clipPath>
<clipPath id="clip46_10520_294">
<rect width="150" height="88.326" fill="white" transform="translate(600 347.326)"/>
</clipPath>
<clipPath id="clip47_10520_294">
<rect width="150" height="88.326" fill="white" transform="translate(750 347.326)"/>
</clipPath>
<clipPath id="clip48_10520_294">
<rect width="150" height="88.326" fill="white" transform="translate(900 347.326)"/>
</clipPath>
<clipPath id="clip49_10520_294">
<rect width="150" height="88.326" fill="white" transform="translate(1050 347.326)"/>
</clipPath>
<clipPath id="clip50_10520_294">
<rect width="150" height="88.326" fill="white" transform="translate(1200 347.326)"/>
</clipPath>
<clipPath id="clip51_10520_294">
<rect width="150" height="88.326" fill="white" transform="translate(1350 347.326)"/>
</clipPath>
<clipPath id="clip52_10520_294">
<rect width="150" height="88.326" fill="white" transform="translate(0 435.652)"/>
</clipPath>
<clipPath id="clip53_10520_294">
<rect width="150" height="88.326" fill="white" transform="translate(150 435.652)"/>
</clipPath>
<clipPath id="clip54_10520_294">
<rect width="150" height="88.326" fill="white" transform="translate(300 435.652)"/>
</clipPath>
<clipPath id="clip55_10520_294">
<rect width="150" height="88.326" fill="white" transform="translate(450 435.652)"/>
</clipPath>
<clipPath id="clip56_10520_294">
<rect width="150" height="88.326" fill="white" transform="translate(600 435.652)"/>
</clipPath>
<clipPath id="clip57_10520_294">
<rect width="150" height="88.326" fill="white" transform="translate(750 435.652)"/>
</clipPath>
<clipPath id="clip58_10520_294">
<rect width="150" height="88.326" fill="white" transform="translate(900 435.652)"/>
</clipPath>
<clipPath id="clip59_10520_294">
<rect width="150" height="88.326" fill="white" transform="translate(1050 435.652)"/>
</clipPath>
<clipPath id="clip60_10520_294">
<rect width="150" height="88.326" fill="white" transform="translate(1200 435.652)"/>
</clipPath>
<clipPath id="clip61_10520_294">
<rect width="150" height="88.326" fill="white" transform="translate(1350 435.652)"/>
</clipPath>
</defs>
</svg>
