<svg width="1280" height="254" viewBox="0 0 1280 254" fill="none" xmlns="http://www.w3.org/2000/svg">
<g opacity="0.2" clip-path="url(#clip0_10359_8294)">
<g clip-path="url(#clip1_10359_8294)">
<path d="M26.707 -102.271L-11.1231 -36.748L-48.9531 -102.271H26.707ZM26.707 -13.945L-11.1231 51.575L-48.9531 -13.945H26.707ZM101.707 -58.108L63.8769 7.41499L26.0469 -58.108H101.707ZM101.707 30.215L63.8769 95.741L26.0469 30.215H101.707ZM1.27295 30.215L39.1 -35.302L76.93 30.218L1.27295 30.215ZM-48.293 -58.108L-86.1231 7.41499L-123.953 -58.108H-48.293ZM-48.293 30.215L-86.1231 95.741L-123.953 30.215H-48.293ZM-148.727 30.215L-110.9 -35.302L-73.0701 30.218L-148.727 30.215ZM-73.7271 -13.945L-35.9 -79.471L1.92995 -13.945H-73.7271ZM-73.7271 74.378L-35.9 8.858L1.92995 74.381L-73.7271 74.378Z" stroke="#7A9AEB" stroke-width="2"/>
</g>
<g clip-path="url(#clip2_10359_8294)">
<path d="M176.707 -102.271L138.877 -36.748L101.047 -102.271H176.707ZM176.707 -13.945L138.877 51.575L101.047 -13.945H176.707ZM251.707 -58.108L213.877 7.41499L176.047 -58.108H251.707ZM251.707 30.215L213.877 95.741L176.047 30.215H251.707ZM151.273 30.215L189.1 -35.302L226.93 30.218L151.273 30.215ZM101.707 -58.108L63.8769 7.41499L26.047 -58.108H101.707ZM101.707 30.215L63.8769 95.741L26.047 30.215H101.707ZM1.27295 30.215L39.0999 -35.302L76.9299 30.218L1.27295 30.215ZM76.2729 -13.945L114.1 -79.471L151.93 -13.945H76.2729ZM76.2729 74.378L114.1 8.858L151.93 74.381L76.2729 74.378Z" stroke="#7A9AEB" stroke-width="2"/>
</g>
<g clip-path="url(#clip3_10359_8294)">
<path d="M326.707 -102.271L288.877 -36.748L251.047 -102.271H326.707ZM326.707 -13.945L288.877 51.575L251.047 -13.945H326.707ZM401.707 -58.108L363.877 7.41499L326.047 -58.108H401.707ZM401.707 30.215L363.877 95.741L326.047 30.215H401.707ZM301.273 30.215L339.1 -35.302L376.93 30.218L301.273 30.215ZM251.707 -58.108L213.877 7.41499L176.047 -58.108H251.707ZM251.707 30.215L213.877 95.741L176.047 30.215H251.707ZM151.273 30.215L189.1 -35.302L226.93 30.218L151.273 30.215ZM226.273 -13.945L264.1 -79.471L301.93 -13.945H226.273ZM226.273 74.378L264.1 8.858L301.93 74.381L226.273 74.378Z" stroke="#7A9AEB" stroke-width="2"/>
</g>
<g clip-path="url(#clip4_10359_8294)">
<path d="M476.707 -102.271L438.877 -36.748L401.047 -102.271H476.707ZM476.707 -13.945L438.877 51.575L401.047 -13.945H476.707ZM551.707 -58.108L513.877 7.41499L476.047 -58.108H551.707ZM551.707 30.215L513.877 95.741L476.047 30.215H551.707ZM451.273 30.215L489.1 -35.302L526.93 30.218L451.273 30.215ZM401.707 -58.108L363.877 7.41499L326.047 -58.108H401.707ZM401.707 30.215L363.877 95.741L326.047 30.215H401.707ZM301.273 30.215L339.1 -35.302L376.93 30.218L301.273 30.215ZM376.273 -13.945L414.1 -79.471L451.93 -13.945H376.273ZM376.273 74.378L414.1 8.858L451.93 74.381L376.273 74.378Z" stroke="#7A9AEB" stroke-width="2"/>
</g>
<g clip-path="url(#clip5_10359_8294)">
<path d="M626.707 -102.271L588.877 -36.748L551.047 -102.271H626.707ZM626.707 -13.945L588.877 51.575L551.047 -13.945H626.707ZM701.707 -58.108L663.877 7.41499L626.047 -58.108H701.707ZM701.707 30.215L663.877 95.741L626.047 30.215H701.707ZM601.273 30.215L639.1 -35.302L676.93 30.218L601.273 30.215ZM551.707 -58.108L513.877 7.41499L476.047 -58.108H551.707ZM551.707 30.215L513.877 95.741L476.047 30.215H551.707ZM451.273 30.215L489.1 -35.302L526.93 30.218L451.273 30.215ZM526.273 -13.945L564.1 -79.471L601.93 -13.945H526.273ZM526.273 74.378L564.1 8.858L601.93 74.381L526.273 74.378Z" stroke="#7A9AEB" stroke-width="2"/>
</g>
<g clip-path="url(#clip6_10359_8294)">
<path d="M776.707 -102.271L738.877 -36.748L701.047 -102.271H776.707ZM776.707 -13.945L738.877 51.575L701.047 -13.945H776.707ZM851.707 -58.108L813.877 7.41499L776.047 -58.108H851.707ZM851.707 30.215L813.877 95.741L776.047 30.215H851.707ZM751.273 30.215L789.1 -35.302L826.93 30.218L751.273 30.215ZM701.707 -58.108L663.877 7.41499L626.047 -58.108H701.707ZM701.707 30.215L663.877 95.741L626.047 30.215H701.707ZM601.273 30.215L639.1 -35.302L676.93 30.218L601.273 30.215ZM676.273 -13.945L714.1 -79.471L751.93 -13.945H676.273ZM676.273 74.378L714.1 8.858L751.93 74.381L676.273 74.378Z" stroke="#7A9AEB" stroke-width="2"/>
</g>
<g clip-path="url(#clip7_10359_8294)">
<path d="M926.707 -102.271L888.877 -36.748L851.047 -102.271H926.707ZM926.707 -13.945L888.877 51.575L851.047 -13.945H926.707ZM1001.71 -58.108L963.877 7.41499L926.047 -58.108H1001.71ZM1001.71 30.215L963.877 95.741L926.047 30.215H1001.71ZM901.273 30.215L939.1 -35.302L976.93 30.218L901.273 30.215ZM851.707 -58.108L813.877 7.41499L776.047 -58.108H851.707ZM851.707 30.215L813.877 95.741L776.047 30.215H851.707ZM751.273 30.215L789.1 -35.302L826.93 30.218L751.273 30.215ZM826.273 -13.945L864.1 -79.471L901.93 -13.945H826.273ZM826.273 74.378L864.1 8.858L901.93 74.381L826.273 74.378Z" stroke="#7A9AEB" stroke-width="2"/>
</g>
<g clip-path="url(#clip8_10359_8294)">
<path d="M1076.71 -102.271L1038.88 -36.748L1001.05 -102.271H1076.71ZM1076.71 -13.945L1038.88 51.575L1001.05 -13.945H1076.71ZM1151.71 -58.108L1113.88 7.41499L1076.05 -58.108H1151.71ZM1151.71 30.215L1113.88 95.741L1076.05 30.215H1151.71ZM1051.27 30.215L1089.1 -35.302L1126.93 30.218L1051.27 30.215ZM1001.71 -58.108L963.877 7.41499L926.047 -58.108H1001.71ZM1001.71 30.215L963.877 95.741L926.047 30.215H1001.71ZM901.273 30.215L939.1 -35.302L976.93 30.218L901.273 30.215ZM976.273 -13.945L1014.1 -79.471L1051.93 -13.945H976.273ZM976.273 74.378L1014.1 8.858L1051.93 74.381L976.273 74.378Z" stroke="#7A9AEB" stroke-width="2"/>
</g>
<g clip-path="url(#clip9_10359_8294)">
<path d="M1226.71 -102.271L1188.88 -36.748L1151.05 -102.271H1226.71ZM1226.71 -13.945L1188.88 51.575L1151.05 -13.945H1226.71ZM1301.71 -58.108L1263.88 7.41499L1226.05 -58.108H1301.71ZM1301.71 30.215L1263.88 95.741L1226.05 30.215H1301.71ZM1201.27 30.215L1239.1 -35.302L1276.93 30.218L1201.27 30.215ZM1151.71 -58.108L1113.88 7.41499L1076.05 -58.108H1151.71ZM1151.71 30.215L1113.88 95.741L1076.05 30.215H1151.71ZM1051.27 30.215L1089.1 -35.302L1126.93 30.218L1051.27 30.215ZM1126.27 -13.945L1164.1 -79.471L1201.93 -13.945H1126.27ZM1126.27 74.378L1164.1 8.858L1201.93 74.381L1126.27 74.378Z" stroke="#7A9AEB" stroke-width="2"/>
</g>
<g clip-path="url(#clip10_10359_8294)">
<path d="M1376.71 -102.271L1338.88 -36.748L1301.05 -102.271H1376.71ZM1376.71 -13.945L1338.88 51.575L1301.05 -13.945H1376.71ZM1451.71 -58.108L1413.88 7.41499L1376.05 -58.108H1451.71ZM1451.71 30.215L1413.88 95.741L1376.05 30.215H1451.71ZM1351.27 30.215L1389.1 -35.302L1426.93 30.218L1351.27 30.215ZM1301.71 -58.108L1263.88 7.41499L1226.05 -58.108H1301.71ZM1301.71 30.215L1263.88 95.741L1226.05 30.215H1301.71ZM1201.27 30.215L1239.1 -35.302L1276.93 30.218L1201.27 30.215ZM1276.27 -13.945L1314.1 -79.471L1351.93 -13.945H1276.27ZM1276.27 74.378L1314.1 8.858L1351.93 74.381L1276.27 74.378Z" stroke="#7A9AEB" stroke-width="2"/>
</g>
<g clip-path="url(#clip11_10359_8294)">
<path d="M26.707 -13.9453L-11.1231 51.5777L-48.9531 -13.9453H26.707ZM26.707 74.3807L-11.1231 139.901L-48.9531 74.3807H26.707ZM101.707 30.2177L63.8769 95.7407L26.0469 30.2177H101.707ZM101.707 118.541L63.8769 184.067L26.0469 118.541H101.707ZM1.27295 118.541L39.1 53.0237L76.93 118.544L1.27295 118.541ZM-48.293 30.2177L-86.1231 95.7407L-123.953 30.2177H-48.293ZM-48.293 118.541L-86.1231 184.067L-123.953 118.541H-48.293ZM-148.727 118.541L-110.9 53.0237L-73.0701 118.544L-148.727 118.541ZM-73.7271 74.3807L-35.9 8.85469L1.92995 74.3807H-73.7271ZM-73.7271 162.704L-35.9 97.1837L1.92995 162.707L-73.7271 162.704Z" stroke="#7A9AEB" stroke-width="2"/>
</g>
<g clip-path="url(#clip12_10359_8294)">
<path d="M176.707 -13.9453L138.877 51.5777L101.047 -13.9453H176.707ZM176.707 74.3807L138.877 139.901L101.047 74.3807H176.707ZM251.707 30.2177L213.877 95.7407L176.047 30.2177H251.707ZM251.707 118.541L213.877 184.067L176.047 118.541H251.707ZM151.273 118.541L189.1 53.0237L226.93 118.544L151.273 118.541ZM101.707 30.2177L63.8769 95.7407L26.047 30.2177H101.707ZM101.707 118.541L63.8769 184.067L26.047 118.541H101.707ZM1.27295 118.541L39.0999 53.0237L76.9299 118.544L1.27295 118.541ZM76.2729 74.3807L114.1 8.85469L151.93 74.3807H76.2729ZM76.2729 162.704L114.1 97.1837L151.93 162.707L76.2729 162.704Z" stroke="#7A9AEB" stroke-width="2"/>
</g>
<g clip-path="url(#clip13_10359_8294)">
<path d="M326.707 -13.9453L288.877 51.5777L251.047 -13.9453H326.707ZM326.707 74.3807L288.877 139.901L251.047 74.3807H326.707ZM401.707 30.2177L363.877 95.7407L326.047 30.2177H401.707ZM401.707 118.541L363.877 184.067L326.047 118.541H401.707ZM301.273 118.541L339.1 53.0237L376.93 118.544L301.273 118.541ZM251.707 30.2177L213.877 95.7407L176.047 30.2177H251.707ZM251.707 118.541L213.877 184.067L176.047 118.541H251.707ZM151.273 118.541L189.1 53.0237L226.93 118.544L151.273 118.541ZM226.273 74.3807L264.1 8.85469L301.93 74.3807H226.273ZM226.273 162.704L264.1 97.1837L301.93 162.707L226.273 162.704Z" stroke="#7A9AEB" stroke-width="2"/>
</g>
<g clip-path="url(#clip14_10359_8294)">
<path d="M476.707 -13.9453L438.877 51.5777L401.047 -13.9453H476.707ZM476.707 74.3807L438.877 139.901L401.047 74.3807H476.707ZM551.707 30.2177L513.877 95.7407L476.047 30.2177H551.707ZM551.707 118.541L513.877 184.067L476.047 118.541H551.707ZM451.273 118.541L489.1 53.0237L526.93 118.544L451.273 118.541ZM401.707 30.2177L363.877 95.7407L326.047 30.2177H401.707ZM401.707 118.541L363.877 184.067L326.047 118.541H401.707ZM301.273 118.541L339.1 53.0237L376.93 118.544L301.273 118.541ZM376.273 74.3807L414.1 8.85469L451.93 74.3807H376.273ZM376.273 162.704L414.1 97.1837L451.93 162.707L376.273 162.704Z" stroke="#7A9AEB" stroke-width="2"/>
</g>
<g clip-path="url(#clip15_10359_8294)">
<path d="M626.707 -13.9453L588.877 51.5777L551.047 -13.9453H626.707ZM626.707 74.3807L588.877 139.901L551.047 74.3807H626.707ZM701.707 30.2177L663.877 95.7407L626.047 30.2177H701.707ZM701.707 118.541L663.877 184.067L626.047 118.541H701.707ZM601.273 118.541L639.1 53.0237L676.93 118.544L601.273 118.541ZM551.707 30.2177L513.877 95.7407L476.047 30.2177H551.707ZM551.707 118.541L513.877 184.067L476.047 118.541H551.707ZM451.273 118.541L489.1 53.0237L526.93 118.544L451.273 118.541ZM526.273 74.3807L564.1 8.85469L601.93 74.3807H526.273ZM526.273 162.704L564.1 97.1837L601.93 162.707L526.273 162.704Z" stroke="#7A9AEB" stroke-width="2"/>
</g>
<g clip-path="url(#clip16_10359_8294)">
<path d="M776.707 -13.9453L738.877 51.5777L701.047 -13.9453H776.707ZM776.707 74.3807L738.877 139.901L701.047 74.3807H776.707ZM851.707 30.2177L813.877 95.7407L776.047 30.2177H851.707ZM851.707 118.541L813.877 184.067L776.047 118.541H851.707ZM751.273 118.541L789.1 53.0237L826.93 118.544L751.273 118.541ZM701.707 30.2177L663.877 95.7407L626.047 30.2177H701.707ZM701.707 118.541L663.877 184.067L626.047 118.541H701.707ZM601.273 118.541L639.1 53.0237L676.93 118.544L601.273 118.541ZM676.273 74.3807L714.1 8.85469L751.93 74.3807H676.273ZM676.273 162.704L714.1 97.1837L751.93 162.707L676.273 162.704Z" stroke="#7A9AEB" stroke-width="2"/>
</g>
<g clip-path="url(#clip17_10359_8294)">
<path d="M926.707 -13.9453L888.877 51.5777L851.047 -13.9453H926.707ZM926.707 74.3807L888.877 139.901L851.047 74.3807H926.707ZM1001.71 30.2177L963.877 95.7407L926.047 30.2177H1001.71ZM1001.71 118.541L963.877 184.067L926.047 118.541H1001.71ZM901.273 118.541L939.1 53.0237L976.93 118.544L901.273 118.541ZM851.707 30.2177L813.877 95.7407L776.047 30.2177H851.707ZM851.707 118.541L813.877 184.067L776.047 118.541H851.707ZM751.273 118.541L789.1 53.0237L826.93 118.544L751.273 118.541ZM826.273 74.3807L864.1 8.85469L901.93 74.3807H826.273ZM826.273 162.704L864.1 97.1837L901.93 162.707L826.273 162.704Z" stroke="#7A9AEB" stroke-width="2"/>
</g>
<g clip-path="url(#clip18_10359_8294)">
<path d="M1076.71 -13.9453L1038.88 51.5777L1001.05 -13.9453H1076.71ZM1076.71 74.3807L1038.88 139.901L1001.05 74.3807H1076.71ZM1151.71 30.2177L1113.88 95.7407L1076.05 30.2177H1151.71ZM1151.71 118.541L1113.88 184.067L1076.05 118.541H1151.71ZM1051.27 118.541L1089.1 53.0237L1126.93 118.544L1051.27 118.541ZM1001.71 30.2177L963.877 95.7407L926.047 30.2177H1001.71ZM1001.71 118.541L963.877 184.067L926.047 118.541H1001.71ZM901.273 118.541L939.1 53.0237L976.93 118.544L901.273 118.541ZM976.273 74.3807L1014.1 8.85469L1051.93 74.3807H976.273ZM976.273 162.704L1014.1 97.1837L1051.93 162.707L976.273 162.704Z" stroke="#7A9AEB" stroke-width="2"/>
</g>
<g clip-path="url(#clip19_10359_8294)">
<path d="M1226.71 -13.9453L1188.88 51.5777L1151.05 -13.9453H1226.71ZM1226.71 74.3807L1188.88 139.901L1151.05 74.3807H1226.71ZM1301.71 30.2177L1263.88 95.7407L1226.05 30.2177H1301.71ZM1301.71 118.541L1263.88 184.067L1226.05 118.541H1301.71ZM1201.27 118.541L1239.1 53.0237L1276.93 118.544L1201.27 118.541ZM1151.71 30.2177L1113.88 95.7407L1076.05 30.2177H1151.71ZM1151.71 118.541L1113.88 184.067L1076.05 118.541H1151.71ZM1051.27 118.541L1089.1 53.0237L1126.93 118.544L1051.27 118.541ZM1126.27 74.3807L1164.1 8.85469L1201.93 74.3807H1126.27ZM1126.27 162.704L1164.1 97.1837L1201.93 162.707L1126.27 162.704Z" stroke="#7A9AEB" stroke-width="2"/>
</g>
<g clip-path="url(#clip20_10359_8294)">
<path d="M1376.71 -13.9453L1338.88 51.5777L1301.05 -13.9453H1376.71ZM1376.71 74.3807L1338.88 139.901L1301.05 74.3807H1376.71ZM1451.71 30.2177L1413.88 95.7407L1376.05 30.2177H1451.71ZM1451.71 118.541L1413.88 184.067L1376.05 118.541H1451.71ZM1351.27 118.541L1389.1 53.0237L1426.93 118.544L1351.27 118.541ZM1301.71 30.2177L1263.88 95.7407L1226.05 30.2177H1301.71ZM1301.71 118.541L1263.88 184.067L1226.05 118.541H1301.71ZM1201.27 118.541L1239.1 53.0237L1276.93 118.544L1201.27 118.541ZM1276.27 74.3807L1314.1 8.85469L1351.93 74.3807H1276.27ZM1276.27 162.704L1314.1 97.1837L1351.93 162.707L1276.27 162.704Z" stroke="#7A9AEB" stroke-width="2"/>
</g>
<g clip-path="url(#clip21_10359_8294)">
<path d="M26.707 74.3809L-11.1231 139.904L-48.9531 74.3809H26.707ZM26.707 162.707L-11.1231 228.227L-48.9531 162.707H26.707ZM101.707 118.544L63.8769 184.067L26.0469 118.544H101.707ZM101.707 206.867L63.8769 272.393L26.0469 206.867H101.707ZM1.27295 206.867L39.1 141.35L76.93 206.87L1.27295 206.867ZM-48.293 118.544L-86.1231 184.067L-123.953 118.544H-48.293ZM-48.293 206.867L-86.1231 272.393L-123.953 206.867H-48.293ZM-148.727 206.867L-110.9 141.35L-73.0701 206.87L-148.727 206.867ZM-73.7271 162.707L-35.9 97.1809L1.92995 162.707H-73.7271ZM-73.7271 251.03L-35.9 185.51L1.92995 251.033L-73.7271 251.03Z" stroke="#7A9AEB" stroke-width="2"/>
</g>
<g clip-path="url(#clip22_10359_8294)">
<path d="M176.707 74.3809L138.877 139.904L101.047 74.3809H176.707ZM176.707 162.707L138.877 228.227L101.047 162.707H176.707ZM251.707 118.544L213.877 184.067L176.047 118.544H251.707ZM251.707 206.867L213.877 272.393L176.047 206.867H251.707ZM151.273 206.867L189.1 141.35L226.93 206.87L151.273 206.867ZM101.707 118.544L63.8769 184.067L26.047 118.544H101.707ZM101.707 206.867L63.8769 272.393L26.047 206.867H101.707ZM1.27295 206.867L39.0999 141.35L76.9299 206.87L1.27295 206.867ZM76.2729 162.707L114.1 97.1809L151.93 162.707H76.2729ZM76.2729 251.03L114.1 185.51L151.93 251.033L76.2729 251.03Z" stroke="#7A9AEB" stroke-width="2"/>
</g>
<g clip-path="url(#clip23_10359_8294)">
<path d="M326.707 74.3809L288.877 139.904L251.047 74.3809H326.707ZM326.707 162.707L288.877 228.227L251.047 162.707H326.707ZM401.707 118.544L363.877 184.067L326.047 118.544H401.707ZM401.707 206.867L363.877 272.393L326.047 206.867H401.707ZM301.273 206.867L339.1 141.35L376.93 206.87L301.273 206.867ZM251.707 118.544L213.877 184.067L176.047 118.544H251.707ZM251.707 206.867L213.877 272.393L176.047 206.867H251.707ZM151.273 206.867L189.1 141.35L226.93 206.87L151.273 206.867ZM226.273 162.707L264.1 97.1809L301.93 162.707H226.273ZM226.273 251.03L264.1 185.51L301.93 251.033L226.273 251.03Z" stroke="#7A9AEB" stroke-width="2"/>
</g>
<g clip-path="url(#clip24_10359_8294)">
<path d="M476.707 74.3809L438.877 139.904L401.047 74.3809H476.707ZM476.707 162.707L438.877 228.227L401.047 162.707H476.707ZM551.707 118.544L513.877 184.067L476.047 118.544H551.707ZM551.707 206.867L513.877 272.393L476.047 206.867H551.707ZM451.273 206.867L489.1 141.35L526.93 206.87L451.273 206.867ZM401.707 118.544L363.877 184.067L326.047 118.544H401.707ZM401.707 206.867L363.877 272.393L326.047 206.867H401.707ZM301.273 206.867L339.1 141.35L376.93 206.87L301.273 206.867ZM376.273 162.707L414.1 97.1809L451.93 162.707H376.273ZM376.273 251.03L414.1 185.51L451.93 251.033L376.273 251.03Z" stroke="#7A9AEB" stroke-width="2"/>
</g>
<g clip-path="url(#clip25_10359_8294)">
<path d="M626.707 74.3809L588.877 139.904L551.047 74.3809H626.707ZM626.707 162.707L588.877 228.227L551.047 162.707H626.707ZM701.707 118.544L663.877 184.067L626.047 118.544H701.707ZM701.707 206.867L663.877 272.393L626.047 206.867H701.707ZM601.273 206.867L639.1 141.35L676.93 206.87L601.273 206.867ZM551.707 118.544L513.877 184.067L476.047 118.544H551.707ZM551.707 206.867L513.877 272.393L476.047 206.867H551.707ZM451.273 206.867L489.1 141.35L526.93 206.87L451.273 206.867ZM526.273 162.707L564.1 97.1809L601.93 162.707H526.273ZM526.273 251.03L564.1 185.51L601.93 251.033L526.273 251.03Z" stroke="#7A9AEB" stroke-width="2"/>
</g>
<g clip-path="url(#clip26_10359_8294)">
<path d="M776.707 74.3809L738.877 139.904L701.047 74.3809H776.707ZM776.707 162.707L738.877 228.227L701.047 162.707H776.707ZM851.707 118.544L813.877 184.067L776.047 118.544H851.707ZM851.707 206.867L813.877 272.393L776.047 206.867H851.707ZM751.273 206.867L789.1 141.35L826.93 206.87L751.273 206.867ZM701.707 118.544L663.877 184.067L626.047 118.544H701.707ZM701.707 206.867L663.877 272.393L626.047 206.867H701.707ZM601.273 206.867L639.1 141.35L676.93 206.87L601.273 206.867ZM676.273 162.707L714.1 97.1809L751.93 162.707H676.273ZM676.273 251.03L714.1 185.51L751.93 251.033L676.273 251.03Z" stroke="#7A9AEB" stroke-width="2"/>
</g>
<g clip-path="url(#clip27_10359_8294)">
<path d="M926.707 74.3809L888.877 139.904L851.047 74.3809H926.707ZM926.707 162.707L888.877 228.227L851.047 162.707H926.707ZM1001.71 118.544L963.877 184.067L926.047 118.544H1001.71ZM1001.71 206.867L963.877 272.393L926.047 206.867H1001.71ZM901.273 206.867L939.1 141.35L976.93 206.87L901.273 206.867ZM851.707 118.544L813.877 184.067L776.047 118.544H851.707ZM851.707 206.867L813.877 272.393L776.047 206.867H851.707ZM751.273 206.867L789.1 141.35L826.93 206.87L751.273 206.867ZM826.273 162.707L864.1 97.1809L901.93 162.707H826.273ZM826.273 251.03L864.1 185.51L901.93 251.033L826.273 251.03Z" stroke="#7A9AEB" stroke-width="2"/>
</g>
<g clip-path="url(#clip28_10359_8294)">
<path d="M1076.71 74.3809L1038.88 139.904L1001.05 74.3809H1076.71ZM1076.71 162.707L1038.88 228.227L1001.05 162.707H1076.71ZM1151.71 118.544L1113.88 184.067L1076.05 118.544H1151.71ZM1151.71 206.867L1113.88 272.393L1076.05 206.867H1151.71ZM1051.27 206.867L1089.1 141.35L1126.93 206.87L1051.27 206.867ZM1001.71 118.544L963.877 184.067L926.047 118.544H1001.71ZM1001.71 206.867L963.877 272.393L926.047 206.867H1001.71ZM901.273 206.867L939.1 141.35L976.93 206.87L901.273 206.867ZM976.273 162.707L1014.1 97.1809L1051.93 162.707H976.273ZM976.273 251.03L1014.1 185.51L1051.93 251.033L976.273 251.03Z" stroke="#7A9AEB" stroke-width="2"/>
</g>
<g clip-path="url(#clip29_10359_8294)">
<path d="M1226.71 74.3809L1188.88 139.904L1151.05 74.3809H1226.71ZM1226.71 162.707L1188.88 228.227L1151.05 162.707H1226.71ZM1301.71 118.544L1263.88 184.067L1226.05 118.544H1301.71ZM1301.71 206.867L1263.88 272.393L1226.05 206.867H1301.71ZM1201.27 206.867L1239.1 141.35L1276.93 206.87L1201.27 206.867ZM1151.71 118.544L1113.88 184.067L1076.05 118.544H1151.71ZM1151.71 206.867L1113.88 272.393L1076.05 206.867H1151.71ZM1051.27 206.867L1089.1 141.35L1126.93 206.87L1051.27 206.867ZM1126.27 162.707L1164.1 97.1809L1201.93 162.707H1126.27ZM1126.27 251.03L1164.1 185.51L1201.93 251.033L1126.27 251.03Z" stroke="#7A9AEB" stroke-width="2"/>
</g>
<g clip-path="url(#clip30_10359_8294)">
<path d="M1376.71 74.3809L1338.88 139.904L1301.05 74.3809H1376.71ZM1376.71 162.707L1338.88 228.227L1301.05 162.707H1376.71ZM1451.71 118.544L1413.88 184.067L1376.05 118.544H1451.71ZM1451.71 206.867L1413.88 272.393L1376.05 206.867H1451.71ZM1351.27 206.867L1389.1 141.35L1426.93 206.87L1351.27 206.867ZM1301.71 118.544L1263.88 184.067L1226.05 118.544H1301.71ZM1301.71 206.867L1263.88 272.393L1226.05 206.867H1301.71ZM1201.27 206.867L1239.1 141.35L1276.93 206.87L1201.27 206.867ZM1276.27 162.707L1314.1 97.1809L1351.93 162.707H1276.27ZM1276.27 251.03L1314.1 185.51L1351.93 251.033L1276.27 251.03Z" stroke="#7A9AEB" stroke-width="2"/>
</g>
<g clip-path="url(#clip31_10359_8294)">
<path d="M26.707 162.707L-11.1231 228.23L-48.9531 162.707H26.707ZM26.707 251.033L-11.1231 316.553L-48.9531 251.033H26.707ZM101.707 206.87L63.8769 272.393L26.0469 206.87H101.707ZM101.707 295.193L63.8769 360.719L26.0469 295.193H101.707ZM1.27295 295.193L39.1 229.676L76.93 295.196L1.27295 295.193ZM-48.293 206.87L-86.1231 272.393L-123.953 206.87H-48.293ZM-48.293 295.193L-86.1231 360.719L-123.953 295.193H-48.293ZM-148.727 295.193L-110.9 229.676L-73.0701 295.196L-148.727 295.193ZM-73.7271 251.033L-35.9 185.507L1.92995 251.033H-73.7271ZM-73.7271 339.356L-35.9 273.836L1.92995 339.359L-73.7271 339.356Z" stroke="#7A9AEB" stroke-width="2"/>
</g>
<g clip-path="url(#clip32_10359_8294)">
<path d="M176.707 162.707L138.877 228.23L101.047 162.707H176.707ZM176.707 251.033L138.877 316.553L101.047 251.033H176.707ZM251.707 206.87L213.877 272.393L176.047 206.87H251.707ZM251.707 295.193L213.877 360.719L176.047 295.193H251.707ZM151.273 295.193L189.1 229.676L226.93 295.196L151.273 295.193ZM101.707 206.87L63.8769 272.393L26.047 206.87H101.707ZM101.707 295.193L63.8769 360.719L26.047 295.193H101.707ZM1.27295 295.193L39.0999 229.676L76.9299 295.196L1.27295 295.193ZM76.2729 251.033L114.1 185.507L151.93 251.033H76.2729ZM76.2729 339.356L114.1 273.836L151.93 339.359L76.2729 339.356Z" stroke="#7A9AEB" stroke-width="2"/>
</g>
<g clip-path="url(#clip33_10359_8294)">
<path d="M326.707 162.707L288.877 228.23L251.047 162.707H326.707ZM326.707 251.033L288.877 316.553L251.047 251.033H326.707ZM401.707 206.87L363.877 272.393L326.047 206.87H401.707ZM401.707 295.193L363.877 360.719L326.047 295.193H401.707ZM301.273 295.193L339.1 229.676L376.93 295.196L301.273 295.193ZM251.707 206.87L213.877 272.393L176.047 206.87H251.707ZM251.707 295.193L213.877 360.719L176.047 295.193H251.707ZM151.273 295.193L189.1 229.676L226.93 295.196L151.273 295.193ZM226.273 251.033L264.1 185.507L301.93 251.033H226.273ZM226.273 339.356L264.1 273.836L301.93 339.359L226.273 339.356Z" stroke="#7A9AEB" stroke-width="2"/>
</g>
<g clip-path="url(#clip34_10359_8294)">
<path d="M476.707 162.707L438.877 228.23L401.047 162.707H476.707ZM476.707 251.033L438.877 316.553L401.047 251.033H476.707ZM551.707 206.87L513.877 272.393L476.047 206.87H551.707ZM551.707 295.193L513.877 360.719L476.047 295.193H551.707ZM451.273 295.193L489.1 229.676L526.93 295.196L451.273 295.193ZM401.707 206.87L363.877 272.393L326.047 206.87H401.707ZM401.707 295.193L363.877 360.719L326.047 295.193H401.707ZM301.273 295.193L339.1 229.676L376.93 295.196L301.273 295.193ZM376.273 251.033L414.1 185.507L451.93 251.033H376.273ZM376.273 339.356L414.1 273.836L451.93 339.359L376.273 339.356Z" stroke="#7A9AEB" stroke-width="2"/>
</g>
<g clip-path="url(#clip35_10359_8294)">
<path d="M626.707 162.707L588.877 228.23L551.047 162.707H626.707ZM626.707 251.033L588.877 316.553L551.047 251.033H626.707ZM701.707 206.87L663.877 272.393L626.047 206.87H701.707ZM701.707 295.193L663.877 360.719L626.047 295.193H701.707ZM601.273 295.193L639.1 229.676L676.93 295.196L601.273 295.193ZM551.707 206.87L513.877 272.393L476.047 206.87H551.707ZM551.707 295.193L513.877 360.719L476.047 295.193H551.707ZM451.273 295.193L489.1 229.676L526.93 295.196L451.273 295.193ZM526.273 251.033L564.1 185.507L601.93 251.033H526.273ZM526.273 339.356L564.1 273.836L601.93 339.359L526.273 339.356Z" stroke="#7A9AEB" stroke-width="2"/>
</g>
<g clip-path="url(#clip36_10359_8294)">
<path d="M776.707 162.707L738.877 228.23L701.047 162.707H776.707ZM776.707 251.033L738.877 316.553L701.047 251.033H776.707ZM851.707 206.87L813.877 272.393L776.047 206.87H851.707ZM851.707 295.193L813.877 360.719L776.047 295.193H851.707ZM751.273 295.193L789.1 229.676L826.93 295.196L751.273 295.193ZM701.707 206.87L663.877 272.393L626.047 206.87H701.707ZM701.707 295.193L663.877 360.719L626.047 295.193H701.707ZM601.273 295.193L639.1 229.676L676.93 295.196L601.273 295.193ZM676.273 251.033L714.1 185.507L751.93 251.033H676.273ZM676.273 339.356L714.1 273.836L751.93 339.359L676.273 339.356Z" stroke="#7A9AEB" stroke-width="2"/>
</g>
<g clip-path="url(#clip37_10359_8294)">
<path d="M926.707 162.707L888.877 228.23L851.047 162.707H926.707ZM926.707 251.033L888.877 316.553L851.047 251.033H926.707ZM1001.71 206.87L963.877 272.393L926.047 206.87H1001.71ZM1001.71 295.193L963.877 360.719L926.047 295.193H1001.71ZM901.273 295.193L939.1 229.676L976.93 295.196L901.273 295.193ZM851.707 206.87L813.877 272.393L776.047 206.87H851.707ZM851.707 295.193L813.877 360.719L776.047 295.193H851.707ZM751.273 295.193L789.1 229.676L826.93 295.196L751.273 295.193ZM826.273 251.033L864.1 185.507L901.93 251.033H826.273ZM826.273 339.356L864.1 273.836L901.93 339.359L826.273 339.356Z" stroke="#7A9AEB" stroke-width="2"/>
</g>
<g clip-path="url(#clip38_10359_8294)">
<path d="M1076.71 162.707L1038.88 228.23L1001.05 162.707H1076.71ZM1076.71 251.033L1038.88 316.553L1001.05 251.033H1076.71ZM1151.71 206.87L1113.88 272.393L1076.05 206.87H1151.71ZM1151.71 295.193L1113.88 360.719L1076.05 295.193H1151.71ZM1051.27 295.193L1089.1 229.676L1126.93 295.196L1051.27 295.193ZM1001.71 206.87L963.877 272.393L926.047 206.87H1001.71ZM1001.71 295.193L963.877 360.719L926.047 295.193H1001.71ZM901.273 295.193L939.1 229.676L976.93 295.196L901.273 295.193ZM976.273 251.033L1014.1 185.507L1051.93 251.033H976.273ZM976.273 339.356L1014.1 273.836L1051.93 339.359L976.273 339.356Z" stroke="#7A9AEB" stroke-width="2"/>
</g>
<g clip-path="url(#clip39_10359_8294)">
<path d="M1226.71 162.707L1188.88 228.23L1151.05 162.707H1226.71ZM1226.71 251.033L1188.88 316.553L1151.05 251.033H1226.71ZM1301.71 206.87L1263.88 272.393L1226.05 206.87H1301.71ZM1301.71 295.193L1263.88 360.719L1226.05 295.193H1301.71ZM1201.27 295.193L1239.1 229.676L1276.93 295.196L1201.27 295.193ZM1151.71 206.87L1113.88 272.393L1076.05 206.87H1151.71ZM1151.71 295.193L1113.88 360.719L1076.05 295.193H1151.71ZM1051.27 295.193L1089.1 229.676L1126.93 295.196L1051.27 295.193ZM1126.27 251.033L1164.1 185.507L1201.93 251.033H1126.27ZM1126.27 339.356L1164.1 273.836L1201.93 339.359L1126.27 339.356Z" stroke="#7A9AEB" stroke-width="2"/>
</g>
<g clip-path="url(#clip40_10359_8294)">
<path d="M1376.71 162.707L1338.88 228.23L1301.05 162.707H1376.71ZM1376.71 251.033L1338.88 316.553L1301.05 251.033H1376.71ZM1451.71 206.87L1413.88 272.393L1376.05 206.87H1451.71ZM1451.71 295.193L1413.88 360.719L1376.05 295.193H1451.71ZM1351.27 295.193L1389.1 229.676L1426.93 295.196L1351.27 295.193ZM1301.71 206.87L1263.88 272.393L1226.05 206.87H1301.71ZM1301.71 295.193L1263.88 360.719L1226.05 295.193H1301.71ZM1201.27 295.193L1239.1 229.676L1276.93 295.196L1201.27 295.193ZM1276.27 251.033L1314.1 185.507L1351.93 251.033H1276.27ZM1276.27 339.356L1314.1 273.836L1351.93 339.359L1276.27 339.356Z" stroke="#7A9AEB" stroke-width="2"/>
</g>
<rect x="-80" y="7" width="1440" height="255" fill="url(#paint0_linear_10359_8294)"/>
</g>
<defs>
<linearGradient id="paint0_linear_10359_8294" x1="640" y1="262" x2="640" y2="7" gradientUnits="userSpaceOnUse">
<stop stop-color="#163A96"/>
<stop offset="0.5" stop-color="#163A96" stop-opacity="0.75"/>
<stop offset="1" stop-color="#163A96" stop-opacity="0"/>
</linearGradient>
<clipPath id="clip0_10359_8294">
<rect width="1440" height="255" fill="white" transform="translate(-80 -1)"/>
</clipPath>
<clipPath id="clip1_10359_8294">
<rect width="150" height="88.326" fill="white" transform="translate(-80 -50.1519)"/>
</clipPath>
<clipPath id="clip2_10359_8294">
<rect width="150" height="88.326" fill="white" transform="translate(70 -50.1519)"/>
</clipPath>
<clipPath id="clip3_10359_8294">
<rect width="150" height="88.326" fill="white" transform="translate(220 -50.1519)"/>
</clipPath>
<clipPath id="clip4_10359_8294">
<rect width="150" height="88.326" fill="white" transform="translate(370 -50.1519)"/>
</clipPath>
<clipPath id="clip5_10359_8294">
<rect width="150" height="88.326" fill="white" transform="translate(520 -50.1519)"/>
</clipPath>
<clipPath id="clip6_10359_8294">
<rect width="150" height="88.326" fill="white" transform="translate(670 -50.1519)"/>
</clipPath>
<clipPath id="clip7_10359_8294">
<rect width="150" height="88.326" fill="white" transform="translate(820 -50.1519)"/>
</clipPath>
<clipPath id="clip8_10359_8294">
<rect width="150" height="88.326" fill="white" transform="translate(970 -50.1519)"/>
</clipPath>
<clipPath id="clip9_10359_8294">
<rect width="150" height="88.326" fill="white" transform="translate(1120 -50.1519)"/>
</clipPath>
<clipPath id="clip10_10359_8294">
<rect width="150" height="88.326" fill="white" transform="translate(1270 -50.1519)"/>
</clipPath>
<clipPath id="clip11_10359_8294">
<rect width="150" height="88.326" fill="white" transform="translate(-80 38.1738)"/>
</clipPath>
<clipPath id="clip12_10359_8294">
<rect width="150" height="88.326" fill="white" transform="translate(70 38.1738)"/>
</clipPath>
<clipPath id="clip13_10359_8294">
<rect width="150" height="88.326" fill="white" transform="translate(220 38.1738)"/>
</clipPath>
<clipPath id="clip14_10359_8294">
<rect width="150" height="88.326" fill="white" transform="translate(370 38.1738)"/>
</clipPath>
<clipPath id="clip15_10359_8294">
<rect width="150" height="88.326" fill="white" transform="translate(520 38.1738)"/>
</clipPath>
<clipPath id="clip16_10359_8294">
<rect width="150" height="88.326" fill="white" transform="translate(670 38.1738)"/>
</clipPath>
<clipPath id="clip17_10359_8294">
<rect width="150" height="88.326" fill="white" transform="translate(820 38.1738)"/>
</clipPath>
<clipPath id="clip18_10359_8294">
<rect width="150" height="88.326" fill="white" transform="translate(970 38.1738)"/>
</clipPath>
<clipPath id="clip19_10359_8294">
<rect width="150" height="88.326" fill="white" transform="translate(1120 38.1738)"/>
</clipPath>
<clipPath id="clip20_10359_8294">
<rect width="150" height="88.326" fill="white" transform="translate(1270 38.1738)"/>
</clipPath>
<clipPath id="clip21_10359_8294">
<rect width="150" height="88.326" fill="white" transform="translate(-80 126.5)"/>
</clipPath>
<clipPath id="clip22_10359_8294">
<rect width="150" height="88.326" fill="white" transform="translate(70 126.5)"/>
</clipPath>
<clipPath id="clip23_10359_8294">
<rect width="150" height="88.326" fill="white" transform="translate(220 126.5)"/>
</clipPath>
<clipPath id="clip24_10359_8294">
<rect width="150" height="88.326" fill="white" transform="translate(370 126.5)"/>
</clipPath>
<clipPath id="clip25_10359_8294">
<rect width="150" height="88.326" fill="white" transform="translate(520 126.5)"/>
</clipPath>
<clipPath id="clip26_10359_8294">
<rect width="150" height="88.326" fill="white" transform="translate(670 126.5)"/>
</clipPath>
<clipPath id="clip27_10359_8294">
<rect width="150" height="88.326" fill="white" transform="translate(820 126.5)"/>
</clipPath>
<clipPath id="clip28_10359_8294">
<rect width="150" height="88.326" fill="white" transform="translate(970 126.5)"/>
</clipPath>
<clipPath id="clip29_10359_8294">
<rect width="150" height="88.326" fill="white" transform="translate(1120 126.5)"/>
</clipPath>
<clipPath id="clip30_10359_8294">
<rect width="150" height="88.326" fill="white" transform="translate(1270 126.5)"/>
</clipPath>
<clipPath id="clip31_10359_8294">
<rect width="150" height="88.326" fill="white" transform="translate(-80 214.826)"/>
</clipPath>
<clipPath id="clip32_10359_8294">
<rect width="150" height="88.326" fill="white" transform="translate(70 214.826)"/>
</clipPath>
<clipPath id="clip33_10359_8294">
<rect width="150" height="88.326" fill="white" transform="translate(220 214.826)"/>
</clipPath>
<clipPath id="clip34_10359_8294">
<rect width="150" height="88.326" fill="white" transform="translate(370 214.826)"/>
</clipPath>
<clipPath id="clip35_10359_8294">
<rect width="150" height="88.326" fill="white" transform="translate(520 214.826)"/>
</clipPath>
<clipPath id="clip36_10359_8294">
<rect width="150" height="88.326" fill="white" transform="translate(670 214.826)"/>
</clipPath>
<clipPath id="clip37_10359_8294">
<rect width="150" height="88.326" fill="white" transform="translate(820 214.826)"/>
</clipPath>
<clipPath id="clip38_10359_8294">
<rect width="150" height="88.326" fill="white" transform="translate(970 214.826)"/>
</clipPath>
<clipPath id="clip39_10359_8294">
<rect width="150" height="88.326" fill="white" transform="translate(1120 214.826)"/>
</clipPath>
<clipPath id="clip40_10359_8294">
<rect width="150" height="88.326" fill="white" transform="translate(1270 214.826)"/>
</clipPath>
</defs>
</svg>
