<svg width="470" height="386" viewBox="0 0 470 386" fill="none" xmlns="http://www.w3.org/2000/svg">
<g opacity="0.15">
<path d="M128.713 283.582C164.952 268.74 204.385 262.122 243.438 263.416C259.318 263.754 275.197 265.313 290.743 268.64C330.203 276.015 367.717 292.698 400.644 315.671C412.208 324.268 423.509 333.256 433.906 343.275C439.86 348.189 444.628 354.315 449.904 359.922C456.889 368.291 464.426 376.34 470 385.776C451.188 386.195 432.359 385.839 413.547 385.958C292.299 385.958 171.051 385.958 49.8023 385.958C33.2076 385.803 16.5857 386.277 0 385.721C5.80001 376.267 13.2378 367.999 20.4041 359.594C50.0918 326.365 87.3711 299.936 128.713 283.582Z" fill="#01BABD"/>
<path d="M219.387 13.2642C222.527 8.8246 225.151 4.00207 228.87 0C234.082 4.98663 237.493 11.4683 241.537 17.3757C264.756 50.8691 287.431 84.7271 310.613 118.248C328.176 144.539 346.544 170.275 364.052 196.603C374.015 210.359 383.045 224.772 392.899 238.62C403.341 253.917 413.819 269.187 424.224 284.502C428.776 291.449 434.015 297.94 437.96 305.288C401.739 272.213 357.33 248.356 309.916 236.414C304.876 235.037 299.646 234.344 294.742 232.494C320.684 227.051 346.779 222.475 372.784 217.406C363.718 217.133 354.651 216.704 345.576 216.768C335.641 215.948 325.66 216.914 315.725 215.984C300.578 215.82 285.431 215.811 270.284 215.556C274.636 209.967 280.97 206.476 286.11 201.717C301.628 187.833 318.34 175.371 333.831 161.477C325.579 164.632 318.078 169.39 310.034 173.001C299.483 178.206 289.041 183.63 278.373 188.589C271.913 191.716 265.805 195.609 259.01 197.97C262.493 188.972 266.547 180.212 270.302 171.323C276.88 155.269 283.884 139.389 290.733 123.444C292.851 118.54 295.221 113.717 296.678 108.557C291.611 114.51 287.702 121.329 283.069 127.601C269.298 147.438 255.572 167.321 241.483 186.93C239.836 180.385 240.615 173.593 239.818 166.947C238.072 142.023 236.642 117.081 234.742 92.1752C234.244 76.021 232.154 59.9854 231.847 43.8222C230.951 38.0424 231.394 32.1624 230.453 26.3826C230.526 19.6639 228.942 13.0637 229.385 6.33584C228.101 12.5896 228.263 19.0349 227.567 25.3616C226.146 44.2598 225.268 63.1944 223.794 82.0743C223.432 96.7151 221.387 111.237 221.034 125.878C220.21 135.697 219.876 145.533 218.989 155.342C218.202 160.219 218.717 165.188 218.12 170.083C217.333 175.672 217.93 181.369 216.645 186.903C208.556 176.264 201.173 165.097 193.472 154.166C189.184 147.356 183.945 141.221 179.683 134.393C173.901 126.753 169.259 118.211 162.789 111.137C164.219 116.953 167.006 122.305 169.078 127.902C176.118 144.156 182.904 160.52 190.07 176.729C192.866 184.05 196.893 190.869 199.037 198.435C188.695 193.102 178.181 188.125 167.829 182.801C153.632 176.282 140.105 168.287 125.637 162.362C128.695 166.017 132.577 168.789 136.187 171.852C149.018 182.281 161.559 193.075 174.335 203.577C178.832 207.715 184.008 211.07 188.197 215.537C177.927 215.865 167.648 215.592 157.378 215.92C145.597 215.638 133.862 216.695 122.081 216.403C109.992 217.023 97.8673 216.668 85.7786 217.433C113.295 222.994 141.001 227.671 168.472 233.433C162.129 235.639 155.496 236.778 149.054 238.656C138.694 241.637 128.55 245.348 118.461 249.149C108.798 253.534 99.0526 257.773 89.6966 262.805C76.2055 270.463 62.9134 278.558 50.5624 288.003C37.0893 297.967 24.7835 309.445 13.2468 321.606C11.8805 323.165 10.1794 324.414 8.14355 324.888C14.034 314.313 21.5804 304.768 28.1314 294.612C45.9477 268.503 63.6282 242.312 81.3721 216.166C90.2033 203.768 98.3559 190.896 107.187 178.498C111.992 170.357 117.964 163.018 122.986 155.014C149.081 116.598 175.213 78.1907 201.39 39.8201C207.208 30.8405 213.316 22.0706 219.387 13.2642Z" fill="#F7941D"/>
</g>
</svg>
