<svg width="248" height="140" viewBox="0 0 248 140" fill="none" xmlns="http://www.w3.org/2000/svg">
<g opacity="0.15">
<path d="M132.238 132.99C130.582 135.336 129.197 137.885 127.235 140C124.485 137.365 122.685 133.939 120.551 130.817C108.299 113.116 96.3345 95.2219 84.1024 77.5063C74.8351 63.6113 65.143 50.0102 55.9044 36.096C50.6477 28.8257 45.8828 21.2085 40.6834 13.89C35.1736 5.80552 29.6448 -2.26456 24.1542 -10.3587C21.7526 -14.03 18.9882 -17.4604 16.9065 -21.3437C36.0187 -3.86412 59.4518 8.74446 84.47 15.056C87.1294 15.7835 89.889 16.1497 92.4768 17.1277C78.7884 20.004 65.0188 22.4226 51.297 25.1014C56.081 25.246 60.865 25.4724 65.6538 25.4387C70.8962 25.8723 76.1624 25.3616 81.4048 25.853C89.3972 25.9397 97.3897 25.9446 105.382 26.0795C103.086 29.0329 99.7435 30.8781 97.0316 33.3931C88.8434 40.7309 80.025 47.317 71.8511 54.6596C76.2054 52.9926 80.1634 50.4776 84.4079 48.5697C89.9749 45.8186 95.4847 42.9519 101.114 40.331C104.523 38.6784 107.745 36.6212 111.331 35.3733C109.493 40.1286 107.354 44.7587 105.373 49.4562C101.902 57.9406 98.2061 66.3335 94.5918 74.7601C93.4746 77.3521 92.2237 79.9008 91.455 82.6278C94.1287 79.4817 96.1913 75.8778 98.6358 72.5631C105.903 62.0792 113.145 51.5713 120.579 41.2078C121.448 44.6671 121.038 48.2565 121.458 51.7688C122.379 64.9411 123.134 78.123 124.136 91.2857C124.399 99.8231 125.502 108.298 125.664 116.84C126.137 119.895 125.903 123.002 126.399 126.057C126.361 129.608 127.197 133.096 126.963 136.652C127.641 133.346 127.555 129.94 127.922 126.596C128.672 116.609 129.135 106.602 129.913 96.6239C130.104 88.8863 131.183 81.2113 131.37 73.4737C131.804 68.2847 131.981 63.0862 132.449 57.9021C132.864 55.3245 132.592 52.6987 132.907 50.1114C133.322 47.158 133.007 44.1468 133.685 41.2223C137.954 46.8448 141.849 52.7468 145.913 58.5236C148.176 62.1226 150.94 65.3651 153.189 68.9737C156.24 73.0112 158.689 77.5256 162.103 81.2643C161.348 78.1905 159.878 75.3623 158.785 72.4041C155.07 63.8137 151.489 55.1655 147.708 46.5991C146.232 42.7303 144.108 39.1265 142.976 35.1276C148.433 37.9461 153.981 40.5767 159.443 43.3904C166.935 46.8352 174.072 51.0606 181.707 54.1922C180.093 52.2602 178.045 50.7956 176.14 49.1767C169.37 43.665 162.752 37.9606 156.011 32.4103C153.638 30.2229 150.907 28.4499 148.696 26.0891C154.115 25.9157 159.539 26.0602 164.958 25.8868C171.174 26.0361 177.367 25.4772 183.583 25.6314C189.962 25.3038 196.36 25.4917 202.738 25.087C188.219 22.148 173.6 19.6764 159.104 16.6315C162.451 15.4655 165.951 14.8633 169.35 13.8708C174.817 12.2953 180.169 10.3344 185.493 8.32531C190.592 6.00787 195.734 3.76754 200.671 1.10803C207.79 -2.93906 214.803 -7.21741 221.32 -12.2088C228.43 -17.4748 234.923 -23.5406 241.01 -29.9678C241.731 -30.7916 242.629 -31.4517 243.703 -31.7022C240.595 -26.1134 236.613 -21.069 233.156 -15.7018C223.755 -1.9032 214.426 11.9388 205.063 25.7567C200.404 32.3091 196.102 39.112 191.442 45.6645C188.907 49.9669 185.755 53.8453 183.106 58.0755C169.336 78.3784 155.547 98.6764 141.735 118.955C138.665 123.701 135.442 128.336 132.238 132.99Z" fill="#F7941D"/>
</g>
</svg>
